# Blender 3.4.1
# www.blender.org
mtllib caution_tape.mtl
o Cube
v -3.882465 -0.006156 1.000000
v -3.882465 0.006156 1.000000
v -3.882465 -0.006156 -1.000000
v -3.882465 0.006156 -1.000000
v 3.724953 -0.006156 1.000000
v 3.724953 0.006156 1.000000
v 3.724953 -0.006156 -1.000000
v 3.724953 0.006156 -1.000000
v -3.882465 -0.006156 0.623987
v -3.882465 -0.006156 -0.623987
v -3.882465 0.006156 -0.800532
v -3.882465 0.006156 0.800532
v 3.724953 -0.006156 -0.623987
v 3.724953 -0.006156 0.623987
v 3.724953 0.006156 0.800532
v 3.724953 0.006156 -0.800532
vn -0.0000 1.0000 -0.0000
vn -0.0000 -0.0000 -1.0000
vn -0.0000 -0.0000 1.0000
vn -1.0000 -0.0000 -0.0000
vn 1.0000 -0.0000 -0.0000
vn -0.0000 -1.0000 -0.0000
vt 0.375000 1.000000
vt 0.125000 0.750000
vt 0.375000 0.000000
vt 0.625000 1.000000
vt 2.446700 1.002751
vt 0.625000 0.000000
vt 0.375000 0.250000
vt 0.125000 0.500000
vt 2.468822 0.007491
vt 0.625000 0.250000
vt 0.375000 0.750000
vt -0.882923 1.002751
vt 0.625000 0.750000
vt 0.375000 0.500000
vt -0.862995 0.007491
vt 0.625000 0.500000
vt 0.125000 0.702998
vt 0.375000 0.047002
vt 0.125000 0.547002
vt 0.375000 0.202998
vt 2.468822 0.979984
vt 0.875000 0.547002
vt 0.625000 0.202998
vt 2.446700 0.013713
vt 0.875000 0.702998
vt 0.625000 0.047002
vt 0.375000 0.547002
vt 0.375000 0.702998
vt -0.882923 0.013713
vt 0.625000 0.702998
vt -0.862995 0.979984
vt 0.625000 0.547002
s 0
usemtl Material
f 3/7/2 4/10/2 8/16/2 7/14/2
f 5/11/3 6/13/3 2/4/3 1/1/3
f 10/20/4 11/23/4 4/10/4 3/7/4
f 7/14/5 8/16/5 16/32/5 13/27/5
f 9/17/6 14/28/6 5/11/6 1/2/6
f 14/28/5 15/30/5 6/13/5 5/11/5
f 3/8/6 7/14/6 13/27/6 10/19/6
f 12/25/1 15/30/1 16/32/1 11/22/1
f 14/28/6 9/17/6 10/19/6 13/27/6
f 15/30/5 14/28/5 13/27/5 16/32/5
f 11/23/4 10/20/4 9/18/4 12/26/4
f 1/3/4 2/6/4 12/26/4 9/18/4
usemtl warning(image)
f 8/15/1 4/9/1 11/21/1 16/31/1
f 15/29/1 12/24/1 2/5/1 6/12/1
