# Blender 3.4.1
# www.blender.org
mtllib door.mtl
o Cube
v -1.099500 -0.039894 0.094501
v -1.099500 2.960106 0.094501
v -1.099500 -0.039894 -0.094501
v -1.099500 2.960106 -0.094501
v 1.099500 -0.039894 0.094501
v 1.099500 2.960106 0.094501
v 1.099500 -0.039894 -0.094501
v 1.099500 2.960106 -0.094501
v -1.099500 2.511201 0.094501
v -1.099500 2.511201 -0.094501
v 1.099500 2.511201 -0.094501
v 1.099500 2.511201 0.094501
v -1.099500 1.898062 -0.094501
v 1.099500 1.898062 -0.094501
v 1.099500 1.898062 0.094501
v -1.099500 1.898062 0.094501
v 0.406385 -0.039894 -0.094501
v -0.406385 -0.039894 -0.094501
v 0.406385 2.960106 -0.094501
v -0.406385 2.960106 -0.094501
v -0.406385 -0.039894 0.094501
v 0.406385 -0.039894 0.094501
v -0.406385 2.960106 0.094501
v 0.406385 2.960106 0.094501
v 0.406385 2.511201 0.094501
v -0.406385 2.511201 0.094501
v -0.406385 2.511201 -0.094501
v 0.406385 2.511201 -0.094501
v -0.406385 1.898062 -0.094501
v 0.406385 1.898062 -0.094501
v 0.406385 1.898062 0.094501
v -0.406385 1.898062 0.094501
vn -1.0000 -0.0000 -0.0000
vn -0.0000 1.0000 -0.0000
vn 1.0000 -0.0000 -0.0000
vn -0.0000 -0.0000 1.0000
vn -0.0000 -0.0000 -1.0000
vn -0.0000 -1.0000 -0.0000
vt 0.375000 0.000000
vt 0.375000 1.000000
vt 0.125000 0.750000
vt 0.625000 0.000000
vt 0.875000 0.750000
vt 0.625000 1.000000
vt 0.375000 0.250000
vt 0.125000 0.500000
vt 0.875000 0.500000
vt 0.625000 0.250000
vt 0.375000 0.750000
vt 0.625000 0.750000
vt 0.375000 0.500000
vt 0.625000 0.500000
vt 0.587591 0.000000
vt 0.587591 1.000000
vt 0.587591 0.250000
vt 0.587591 0.500000
vt 0.587591 0.750000
vt 0.536496 0.250000
vt 0.536496 0.500000
vt 0.536496 0.750000
vt 0.536496 0.000000
vt 0.536496 1.000000
vt 0.375000 0.421201
vt 0.296201 0.500000
vt 0.375000 0.328799
vt 0.203799 0.500000
vt 0.703799 0.500000
vt 0.625000 0.421201
vt 0.796201 0.500000
vt 0.625000 0.328799
vt 0.375000 0.921201
vt 0.203799 0.750000
vt 0.375000 0.828799
vt 0.296201 0.750000
vt 0.796201 0.750000
vt 0.625000 0.921201
vt 0.703799 0.750000
vt 0.625000 0.828799
vt 0.587591 0.828799
vt 0.587591 0.921201
vt 0.587591 0.328799
vt 0.587591 0.421201
vt 0.536496 0.328799
vt 0.536496 0.421201
vt 0.536496 0.828799
vt 0.536496 0.921201
s 0
usemtl door
f 9/15/1 2/4/1 4/10/1 10/17/1
f 20/31/2 4/9/2 2/5/2 23/37/2
f 11/18/3 8/14/3 6/12/3 12/19/3
f 12/19/4 6/12/4 24/40/4 25/41/4
f 17/25/5 30/46/5 14/21/5 7/13/5
f 5/11/4 15/22/4 31/47/4 22/35/4
f 15/22/4 12/19/4 25/41/4 31/47/4
f 14/21/3 11/18/3 12/19/3 15/22/3
f 13/20/5 10/17/5 27/43/5 29/45/5
f 16/23/1 9/15/1 10/17/1 13/20/1
f 1/1/1 16/23/1 13/20/1 3/7/1
f 8/14/2 19/29/2 24/39/2 6/12/2
f 7/13/3 14/21/3 15/22/3 5/11/3
f 26/42/4 23/38/4 2/6/4 9/16/4
f 21/33/4 32/48/4 16/24/4 1/2/4
f 17/26/6 7/13/6 5/11/6 22/36/6
f 30/46/5 28/44/5 11/18/5 14/21/5
f 10/17/5 4/10/5 20/32/5 27/43/5
f 3/7/5 13/20/5 29/45/5 18/27/5
f 32/48/4 26/42/4 9/16/4 16/24/4
f 28/44/5 19/30/5 8/14/5 11/18/5
f 32/48/4 21/33/4 22/35/4 31/47/4
f 30/46/5 17/25/5 18/27/5 29/45/5
f 20/31/2 23/37/2 24/39/2 19/29/2
f 17/26/6 22/36/6 21/34/6 18/28/6
f 23/38/4 26/42/4 25/41/4 24/40/4
f 19/30/5 28/44/5 27/43/5 20/32/5
f 3/8/6 18/28/6 21/34/6 1/3/6
f 31/47/2 30/46/2 29/45/2 32/48/2
f 28/44/1 30/46/1 31/47/1 25/41/1
f 29/45/3 27/43/3 26/42/3 32/48/3
f 27/43/6 28/44/6 25/41/6 26/42/6
o Cube.001
v 0.406385 2.511201 0.081068
v -0.406385 2.511201 0.081068
v -0.406385 2.511201 -0.081068
v 0.406385 2.511201 -0.081068
v -0.406385 1.898062 -0.081068
v 0.406385 1.898062 -0.081068
v 0.406385 1.898062 0.081068
v -0.406385 1.898062 0.081068
vn -0.0000 -0.0000 -1.0000
vn -0.0000 -0.0000 1.0000
vn 1.0000 -0.0000 -0.0000
vn -1.0000 -0.0000 -0.0000
vn -0.0000 1.0000 -0.0000
vn -0.0000 -1.0000 -0.0000
vt 0.587591 0.828799
vt 0.587591 0.921201
vt 0.587591 0.328799
vt 0.587591 0.421201
vt 0.536496 0.328799
vt 0.536496 0.421201
vt 0.536496 0.828799
vt 0.536496 0.921201
s 0
usemtl window
f 36/52/7 38/54/7 37/53/7 35/51/7
f 34/50/8 40/56/8 39/55/8 33/49/8
f 33/49/9 39/55/9 38/54/9 36/52/9
f 34/50/10 35/51/10 37/53/10 40/56/10
f 35/51/11 34/50/11 33/49/11 36/52/11
f 40/56/12 37/53/12 38/54/12 39/55/12
o Cylinder
v -0.687421 1.128025 0.150046
v -0.687421 1.128025 -0.150046
v -0.672070 1.129537 0.150046
v -0.672070 1.129537 -0.150046
v -0.657309 1.134015 0.150046
v -0.657309 1.134015 -0.150046
v -0.643705 1.141286 0.150046
v -0.643705 1.141286 -0.150046
v -0.631781 1.151072 0.150046
v -0.631781 1.151072 -0.150046
v -0.621996 1.162995 0.150046
v -0.621996 1.162995 -0.150046
v -0.614725 1.176599 0.150046
v -0.614725 1.176599 -0.150046
v -0.610247 1.191360 0.150046
v -0.610247 1.191360 -0.150046
v -0.608735 1.206711 0.150046
v -0.608735 1.206711 -0.150046
v -0.610247 1.222062 0.150046
v -0.610247 1.222062 -0.150046
v -0.614725 1.236823 0.150046
v -0.614725 1.236823 -0.150046
v -0.621996 1.250426 0.150046
v -0.621996 1.250426 -0.150046
v -0.631781 1.262350 0.150046
v -0.631781 1.262350 -0.150046
v -0.643705 1.272136 0.150046
v -0.643705 1.272136 -0.150046
v -0.657309 1.279407 0.150046
v -0.657309 1.279407 -0.150046
v -0.672070 1.283885 0.150046
v -0.672070 1.283885 -0.150046
v -0.687421 1.285397 0.150046
v -0.687421 1.285397 -0.150046
v -0.702771 1.283885 0.150046
v -0.702771 1.283885 -0.150046
v -0.717532 1.279407 0.150046
v -0.717532 1.279407 -0.150046
v -0.731136 1.272136 0.150046
v -0.731136 1.272136 -0.150046
v -0.743060 1.262350 0.150046
v -0.743060 1.262350 -0.150046
v -0.752846 1.250426 0.150046
v -0.752846 1.250426 -0.150046
v -0.760117 1.236823 0.150046
v -0.760117 1.236823 -0.150046
v -0.764594 1.222062 0.150046
v -0.764594 1.222062 -0.150046
v -0.766106 1.206711 0.150046
v -0.766106 1.206711 -0.150046
v -0.764594 1.191360 0.150046
v -0.764594 1.191360 -0.150046
v -0.760117 1.176599 0.150046
v -0.760117 1.176599 -0.150046
v -0.752846 1.162995 0.150046
v -0.752846 1.162995 -0.150046
v -0.743060 1.151072 0.150046
v -0.743060 1.151072 -0.150046
v -0.731136 1.141286 0.150046
v -0.731136 1.141286 -0.150046
v -0.717532 1.134015 0.150046
v -0.717532 1.134015 -0.150046
v -0.702771 1.129537 0.150046
v -0.702771 1.129537 -0.150046
vn 0.0980 -0.9952 -0.0000
vn 0.2903 -0.9569 -0.0000
vn 0.4714 -0.8819 -0.0000
vn 0.6344 -0.7730 -0.0000
vn 0.7730 -0.6344 -0.0000
vn 0.8819 -0.4714 -0.0000
vn 0.9569 -0.2903 -0.0000
vn 0.9952 -0.0980 -0.0000
vn 0.9952 0.0980 -0.0000
vn 0.9569 0.2903 -0.0000
vn 0.8819 0.4714 -0.0000
vn 0.7730 0.6344 -0.0000
vn 0.6344 0.7730 -0.0000
vn 0.4714 0.8819 -0.0000
vn 0.2903 0.9569 -0.0000
vn 0.0980 0.9952 -0.0000
vn -0.0980 0.9952 -0.0000
vn -0.2903 0.9569 -0.0000
vn -0.4714 0.8819 -0.0000
vn -0.6344 0.7730 -0.0000
vn -0.7730 0.6344 -0.0000
vn -0.8819 0.4714 -0.0000
vn -0.9569 0.2903 -0.0000
vn -0.9952 0.0980 -0.0000
vn -0.9952 -0.0980 -0.0000
vn -0.9569 -0.2903 -0.0000
vn -0.8819 -0.4714 -0.0000
vn -0.7730 -0.6344 -0.0000
vn -0.6344 -0.7730 -0.0000
vn -0.4714 -0.8819 -0.0000
vn -0.0000 -0.0000 -1.0000
vn -0.2903 -0.9569 -0.0000
vn -0.0980 -0.9952 -0.0000
vn -0.0000 -0.0000 1.0000
vt 1.000000 0.500000
vt 0.000000 0.500000
vt 0.750000 0.490000
vt 1.000000 1.000000
vt 0.250000 0.490000
vt 0.000000 1.000000
vt 0.968750 0.500000
vt 0.796822 0.485388
vt 0.968750 1.000000
vt 0.296822 0.485388
vt 0.937500 0.500000
vt 0.841844 0.471731
vt 0.937500 1.000000
vt 0.341844 0.471731
vt 0.906250 0.500000
vt 0.883337 0.449553
vt 0.906250 1.000000
vt 0.383337 0.449553
vt 0.875000 0.500000
vt 0.919706 0.419706
vt 0.875000 1.000000
vt 0.419706 0.419706
vt 0.843750 0.500000
vt 0.949553 0.383337
vt 0.843750 1.000000
vt 0.449553 0.383337
vt 0.812500 0.500000
vt 0.971731 0.341844
vt 0.812500 1.000000
vt 0.471731 0.341844
vt 0.781250 0.500000
vt 0.985388 0.296822
vt 0.781250 1.000000
vt 0.485388 0.296822
vt 0.750000 0.500000
vt 0.990000 0.250000
vt 0.750000 1.000000
vt 0.490000 0.250000
vt 0.718750 0.500000
vt 0.985388 0.203178
vt 0.718750 1.000000
vt 0.485388 0.203178
vt 0.687500 0.500000
vt 0.971731 0.158156
vt 0.687500 1.000000
vt 0.471731 0.158156
vt 0.656250 0.500000
vt 0.949553 0.116663
vt 0.656250 1.000000
vt 0.449553 0.116663
vt 0.625000 0.500000
vt 0.919706 0.080294
vt 0.625000 1.000000
vt 0.419706 0.080294
vt 0.593750 0.500000
vt 0.883337 0.050447
vt 0.593750 1.000000
vt 0.383337 0.050447
vt 0.562500 0.500000
vt 0.841844 0.028269
vt 0.562500 1.000000
vt 0.341844 0.028269
vt 0.531250 0.500000
vt 0.796822 0.014612
vt 0.531250 1.000000
vt 0.296822 0.014612
vt 0.500000 0.500000
vt 0.750000 0.010000
vt 0.500000 1.000000
vt 0.250000 0.010000
vt 0.468750 0.500000
vt 0.703178 0.014612
vt 0.468750 1.000000
vt 0.203178 0.014612
vt 0.437500 0.500000
vt 0.658156 0.028269
vt 0.437500 1.000000
vt 0.158156 0.028269
vt 0.406250 0.500000
vt 0.616663 0.050447
vt 0.406250 1.000000
vt 0.116663 0.050447
vt 0.375000 0.500000
vt 0.580294 0.080294
vt 0.375000 1.000000
vt 0.080294 0.080294
vt 0.343750 0.500000
vt 0.550447 0.116663
vt 0.343750 1.000000
vt 0.050447 0.116663
vt 0.312500 0.500000
vt 0.528269 0.158156
vt 0.312500 1.000000
vt 0.028269 0.158156
vt 0.281250 0.500000
vt 0.514612 0.203178
vt 0.281250 1.000000
vt 0.014612 0.203178
vt 0.250000 0.500000
vt 0.510000 0.250000
vt 0.250000 1.000000
vt 0.010000 0.250000
vt 0.218750 0.500000
vt 0.514612 0.296822
vt 0.218750 1.000000
vt 0.014612 0.296822
vt 0.187500 0.500000
vt 0.528269 0.341844
vt 0.187500 1.000000
vt 0.028269 0.341844
vt 0.156250 0.500000
vt 0.550447 0.383337
vt 0.156250 1.000000
vt 0.050447 0.383337
vt 0.125000 0.500000
vt 0.580294 0.419706
vt 0.125000 1.000000
vt 0.080294 0.419706
vt 0.093750 0.500000
vt 0.616663 0.449553
vt 0.093750 1.000000
vt 0.116663 0.449553
vt 0.062500 0.500000
vt 0.658156 0.471731
vt 0.158156 0.471731
vt 0.062500 1.000000
vt 0.031250 0.500000
vt 0.703178 0.485388
vt 0.203178 0.485388
vt 0.031250 1.000000
s 0
usemtl handle
f 41/57/13 42/60/13 44/65/13 43/63/13
f 43/63/14 44/65/14 46/69/14 45/67/14
f 45/67/15 46/69/15 48/73/15 47/71/15
f 47/71/16 48/73/16 50/77/16 49/75/16
f 49/75/17 50/77/17 52/81/17 51/79/17
f 51/79/18 52/81/18 54/85/18 53/83/18
f 53/83/19 54/85/19 56/89/19 55/87/19
f 55/87/20 56/89/20 58/93/20 57/91/20
f 57/91/21 58/93/21 60/97/21 59/95/21
f 59/95/22 60/97/22 62/101/22 61/99/22
f 61/99/23 62/101/23 64/105/23 63/103/23
f 63/103/24 64/105/24 66/109/24 65/107/24
f 65/107/25 66/109/25 68/113/25 67/111/25
f 67/111/26 68/113/26 70/117/26 69/115/26
f 69/115/27 70/117/27 72/121/27 71/119/27
f 71/119/28 72/121/28 74/125/28 73/123/28
f 73/123/29 74/125/29 76/129/29 75/127/29
f 75/127/30 76/129/30 78/133/30 77/131/30
f 77/131/31 78/133/31 80/137/31 79/135/31
f 79/135/32 80/137/32 82/141/32 81/139/32
f 81/139/33 82/141/33 84/145/33 83/143/33
f 83/143/34 84/145/34 86/149/34 85/147/34
f 85/147/35 86/149/35 88/153/35 87/151/35
f 87/151/36 88/153/36 90/157/36 89/155/36
f 89/155/37 90/157/37 92/161/37 91/159/37
f 91/159/38 92/161/38 94/165/38 93/163/38
f 93/163/39 94/165/39 96/169/39 95/167/39
f 95/167/40 96/169/40 98/173/40 97/171/40
f 97/171/41 98/173/41 100/177/41 99/175/41
f 99/175/42 100/177/42 102/182/42 101/179/42
f 44/66/43 42/61/43 104/185/43 102/181/43 100/178/43 98/174/43 96/170/43 94/166/43 92/162/43 90/158/43 88/154/43 86/150/43 84/146/43 82/142/43 80/138/43 78/134/43 76/130/43 74/126/43 72/122/43 70/118/43 68/114/43 66/110/43 64/106/43 62/102/43 60/98/43 58/94/43 56/90/43 54/86/43 52/82/43 50/78/43 48/74/43 46/70/43
f 101/179/44 102/182/44 104/186/44 103/183/44
f 103/183/45 104/186/45 42/62/45 41/58/45
f 41/59/46 43/64/46 45/68/46 47/72/46 49/76/46 51/80/46 53/84/46 55/88/46 57/92/46 59/96/46 61/100/46 63/104/46 65/108/46 67/112/46 69/116/46 71/120/46 73/124/46 75/128/46 77/132/46 79/136/46 81/140/46 83/144/46 85/148/46 87/152/46 89/156/46 91/160/46 93/164/46 95/168/46 97/172/46 99/176/46 101/180/46 103/184/46
