# Blender 3.4.0
# www.blender.org
mtllib long_table.mtl
o Cube
v -1.792626 1.423304 1.846589
v -1.654458 1.693567 1.708421
v -1.792626 1.423304 -13.055425
v -1.654458 1.693567 -12.917256
v 1.911792 1.423304 1.846589
v 1.773624 1.693567 1.708421
v 1.911792 1.423304 -13.055425
v 1.773624 1.693567 -12.917256
v -1.792626 1.693567 1.846589
v -1.792626 1.693567 -13.055425
v 1.911792 1.693567 -13.055425
v 1.911792 1.693567 1.846589
v -1.654458 1.545594 1.708421
v -1.654458 1.545594 -12.917256
v 1.773624 1.545594 -12.917256
v 1.773624 1.545594 1.708421
vn -1.0000 -0.0000 -0.0000
vn -0.0000 -0.0000 -1.0000
vn 1.0000 -0.0000 -0.0000
vn -0.0000 -0.0000 1.0000
vn -0.0000 -1.0000 -0.0000
vn -0.0000 1.0000 -0.0000
vt 0.375000 0.000000
vt 0.375000 1.000000
vt 0.125000 0.750000
vt 0.865675 0.747682
vt 0.375000 0.250000
vt 0.125000 0.500000
vt 0.865675 0.502318
vt 0.375000 0.750000
vt 0.634324 0.747682
vt 0.375000 0.500000
vt 0.634324 0.502318
vt 0.625000 0.000000
vt 0.625000 1.000000
vt 0.875000 0.750000
vt 0.625000 0.250000
vt 0.875000 0.500000
vt 0.625000 0.500000
vt 0.625000 0.750000
vt 0.865675 0.747682
vt 0.865675 0.502318
vt 0.634324 0.502318
vt 0.634324 0.747682
s 0
usemtl self_made_wood
f 1/1/1 9/12/1 10/15/1 3/5/1
f 3/5/2 10/15/2 11/17/2 7/10/2
f 7/10/3 11/17/3 12/18/3 5/8/3
f 5/8/4 12/18/4 9/13/4 1/2/4
f 3/6/5 7/10/5 5/8/5 1/3/5
f 6/9/1 8/11/1 15/21/1 16/22/1
f 2/4/6 4/7/6 10/16/6 9/14/6
f 4/7/6 8/11/6 11/17/6 10/16/6
f 8/11/6 6/9/6 12/18/6 11/17/6
f 6/9/6 2/4/6 9/14/6 12/18/6
f 15/21/6 14/20/6 13/19/6 16/22/6
f 4/7/3 2/4/3 13/19/3 14/20/3
f 2/4/2 6/9/2 16/22/2 13/19/2
f 8/11/4 4/7/4 14/20/4 15/21/4
o Plane
o Plane.001
v -1.734697 1.576157 1.734697
v 1.734697 1.576157 1.734697
v -1.734697 1.576157 0.616888
v 1.734697 1.576157 0.616888
v -1.734697 1.657810 0.616888
v -1.734697 1.657810 1.734697
v 1.734697 1.657810 1.734697
v 1.734697 1.657810 0.616888
vn -0.0000 -1.0000 -0.0000
vn -0.0000 1.0000 -0.0000
vn -0.0000 -0.0000 -1.0000
vn -0.0000 -0.0000 1.0000
vn 1.0000 -0.0000 -0.0000
vn -1.0000 -0.0000 -0.0000
vt 0.000000 0.000000
vt 1.000000 0.000000
vt 0.000000 0.076923
vt 1.000000 0.076923
vt 0.000000 0.076923
vt 0.000000 0.000000
vt 1.000000 0.000000
vt 1.000000 0.076923
s 0
usemtl Material
f 17/23/7 19/25/7 20/26/7 18/24/7
f 22/28/8 23/29/8 24/30/8 21/27/8
f 20/26/9 19/25/9 21/27/9 24/30/9
f 17/23/10 18/24/10 23/29/10 22/28/10
f 18/24/11 20/26/11 24/30/11 23/29/11
f 19/25/12 17/23/12 22/28/12 21/27/12
o Plane.002
v -1.734697 1.578892 -0.510922
v -1.734697 1.578892 0.606888
v 1.734697 1.578892 0.606888
v 1.734697 1.578892 -0.510922
v -1.734697 1.660546 -0.510922
v -1.734697 1.660546 0.606888
v 1.734697 1.660546 0.606888
v 1.734697 1.660546 -0.510922
vn -0.0000 -1.0000 -0.0000
vn -0.0000 1.0000 -0.0000
vn -0.0000 -0.0000 1.0000
vn -1.0000 -0.0000 -0.0000
vn -0.0000 -0.0000 -1.0000
vn 1.0000 -0.0000 -0.0000
vt 0.000000 0.153846
vt 0.000000 0.076923
vt 1.000000 0.076923
vt 1.000000 0.153846
vt 0.000000 0.153846
vt 0.000000 0.076923
vt 1.000000 0.076923
vt 1.000000 0.153846
s 0
usemtl Material
f 26/32/13 25/31/13 28/34/13 27/33/13
f 30/36/14 31/37/14 32/38/14 29/35/14
f 26/32/15 27/33/15 31/37/15 30/36/15
f 25/31/16 26/32/16 30/36/16 29/35/16
f 28/34/17 25/31/17 29/35/17 32/38/17
f 27/33/18 28/34/18 32/38/18 31/37/18
o Plane.003
v -1.734697 1.576157 -1.638731
v -1.734697 1.576157 -0.520922
v 1.734697 1.576157 -0.520922
v 1.734697 1.576157 -1.638731
v -1.734697 1.657810 -1.638731
v -1.734697 1.657810 -0.520922
v 1.734697 1.657810 -0.520922
v 1.734697 1.657810 -1.638731
vn -0.0000 -1.0000 -0.0000
vn -0.0000 1.0000 -0.0000
vn -0.0000 -0.0000 -1.0000
vn 1.0000 -0.0000 -0.0000
vn -0.0000 -0.0000 1.0000
vn -1.0000 -0.0000 -0.0000
vt 0.000000 0.230769
vt 0.000000 0.153846
vt 1.000000 0.153846
vt 1.000000 0.230769
vt 0.000000 0.230769
vt 0.000000 0.153846
vt 1.000000 0.153846
vt 1.000000 0.230769
s 0
usemtl Material
f 34/40/19 33/39/19 36/42/19 35/41/19
f 38/44/20 39/45/20 40/46/20 37/43/20
f 36/42/21 33/39/21 37/43/21 40/46/21
f 35/41/22 36/42/22 40/46/22 39/45/22
f 34/40/23 35/41/23 39/45/23 38/44/23
f 33/39/24 34/40/24 38/44/24 37/43/24
o Plane.004
v -1.734697 1.578892 -2.766540
v -1.734697 1.578892 -1.648731
v 1.734697 1.578892 -1.648731
v 1.734697 1.578892 -2.766540
v -1.734697 1.660546 -2.766540
v -1.734697 1.660546 -1.648731
v 1.734697 1.660546 -1.648731
v 1.734697 1.660546 -2.766540
vn -0.0000 -1.0000 -0.0000
vn -0.0000 1.0000 -0.0000
vn -0.0000 -0.0000 -1.0000
vn 1.0000 -0.0000 -0.0000
vn -0.0000 -0.0000 1.0000
vn -1.0000 -0.0000 -0.0000
vt 0.000000 0.307692
vt 0.000000 0.230769
vt 1.000000 0.230769
vt 1.000000 0.307692
vt 0.000000 0.307692
vt 0.000000 0.230769
vt 1.000000 0.230769
vt 1.000000 0.307692
s 0
usemtl Material
f 42/48/25 41/47/25 44/50/25 43/49/25
f 46/52/26 47/53/26 48/54/26 45/51/26
f 44/50/27 41/47/27 45/51/27 48/54/27
f 43/49/28 44/50/28 48/54/28 47/53/28
f 42/48/29 43/49/29 47/53/29 46/52/29
f 41/47/30 42/48/30 46/52/30 45/51/30
o Plane.005
v -1.734697 1.576157 -3.894350
v -1.734697 1.576157 -2.776540
v 1.734697 1.576157 -2.776540
v 1.734697 1.576157 -3.894350
v -1.734697 1.657810 -3.894350
v -1.734697 1.657810 -2.776540
v 1.734697 1.657810 -2.776540
v 1.734697 1.657810 -3.894350
vn -0.0000 -1.0000 -0.0000
vn -0.0000 1.0000 -0.0000
vn -0.0000 -0.0000 -1.0000
vn 1.0000 -0.0000 -0.0000
vn -0.0000 -0.0000 1.0000
vn -1.0000 -0.0000 -0.0000
vt 0.000000 0.384615
vt 0.000000 0.307692
vt 1.000000 0.307692
vt 1.000000 0.384615
vt 0.000000 0.384615
vt 0.000000 0.307692
vt 1.000000 0.307692
vt 1.000000 0.384615
s 0
usemtl Material
f 50/56/31 49/55/31 52/58/31 51/57/31
f 54/60/32 55/61/32 56/62/32 53/59/32
f 52/58/33 49/55/33 53/59/33 56/62/33
f 51/57/34 52/58/34 56/62/34 55/61/34
f 50/56/35 51/57/35 55/61/35 54/60/35
f 49/55/36 50/56/36 54/60/36 53/59/36
o Plane.006
v -1.734697 1.578892 -5.022159
v -1.734697 1.578892 -3.904350
v 1.734697 1.578892 -3.904350
v 1.734697 1.578892 -5.022159
v -1.734697 1.660546 -5.022159
v -1.734697 1.660546 -3.904350
v 1.734697 1.660546 -3.904350
v 1.734697 1.660546 -5.022159
vn -0.0000 -1.0000 -0.0000
vn -0.0000 1.0000 -0.0000
vn -0.0000 -0.0000 -1.0000
vn 1.0000 -0.0000 -0.0000
vn -0.0000 -0.0000 1.0000
vn -1.0000 -0.0000 -0.0000
vt 0.000000 0.461538
vt 0.000000 0.384615
vt 1.000000 0.384615
vt 1.000000 0.461538
vt 0.000000 0.461538
vt 0.000000 0.384615
vt 1.000000 0.384615
vt 1.000000 0.461538
s 0
usemtl Material
f 58/64/37 57/63/37 60/66/37 59/65/37
f 62/68/38 63/69/38 64/70/38 61/67/38
f 60/66/39 57/63/39 61/67/39 64/70/39
f 59/65/40 60/66/40 64/70/40 63/69/40
f 58/64/41 59/65/41 63/69/41 62/68/41
f 57/63/42 58/64/42 62/68/42 61/67/42
o Plane.007
v -1.734697 1.576157 -6.149968
v -1.734697 1.576157 -5.032159
v 1.734697 1.576157 -5.032159
v 1.734697 1.576157 -6.149968
v -1.734697 1.657810 -6.149968
v -1.734697 1.657810 -5.032159
v 1.734697 1.657810 -5.032159
v 1.734697 1.657810 -6.149968
vn -0.0000 -1.0000 -0.0000
vn -0.0000 1.0000 -0.0000
vn -1.0000 -0.0000 -0.0000
vn -0.0000 -0.0000 -1.0000
vn 1.0000 -0.0000 -0.0000
vn -0.0000 -0.0000 1.0000
vt 0.000000 0.538462
vt 0.000000 0.461538
vt 1.000000 0.461538
vt 1.000000 0.538462
vt 0.000000 0.538462
vt 0.000000 0.461538
vt 1.000000 0.461538
vt 1.000000 0.538462
s 0
usemtl Material
f 66/72/43 65/71/43 68/74/43 67/73/43
f 70/76/44 71/77/44 72/78/44 69/75/44
f 65/71/45 66/72/45 70/76/45 69/75/45
f 68/74/46 65/71/46 69/75/46 72/78/46
f 67/73/47 68/74/47 72/78/47 71/77/47
f 66/72/48 67/73/48 71/77/48 70/76/48
o Plane.008
v -1.734697 1.578892 -7.277778
v -1.734697 1.578892 -6.159968
v 1.734697 1.578892 -6.159968
v 1.734697 1.578892 -7.277778
v -1.734697 1.660546 -7.277778
v -1.734697 1.660546 -6.159968
v 1.734697 1.660546 -6.159968
v 1.734697 1.660546 -7.277778
vn -0.0000 -1.0000 -0.0000
vn -0.0000 1.0000 -0.0000
vn -0.0000 -0.0000 -1.0000
vn 1.0000 -0.0000 -0.0000
vn -0.0000 -0.0000 1.0000
vn -1.0000 -0.0000 -0.0000
vt 0.000000 0.615385
vt 0.000000 0.538462
vt 1.000000 0.538462
vt 1.000000 0.615385
vt 0.000000 0.615385
vt 0.000000 0.538462
vt 1.000000 0.538462
vt 1.000000 0.615385
s 0
usemtl Material
f 74/80/49 73/79/49 76/82/49 75/81/49
f 78/84/50 79/85/50 80/86/50 77/83/50
f 76/82/51 73/79/51 77/83/51 80/86/51
f 75/81/52 76/82/52 80/86/52 79/85/52
f 74/80/53 75/81/53 79/85/53 78/84/53
f 73/79/54 74/80/54 78/84/54 77/83/54
o Plane.009
v -1.734697 1.576157 -8.405587
v -1.734697 1.576157 -7.287778
v 1.734697 1.576157 -7.287778
v 1.734697 1.576157 -8.405587
v -1.734697 1.657810 -8.405587
v -1.734697 1.657810 -7.287778
v 1.734697 1.657810 -7.287778
v 1.734697 1.657810 -8.405587
vn -0.0000 -1.0000 -0.0000
vn -0.0000 1.0000 -0.0000
vn -0.0000 -0.0000 1.0000
vn -1.0000 -0.0000 -0.0000
vn -0.0000 -0.0000 -1.0000
vn 1.0000 -0.0000 -0.0000
vt 0.000000 0.692308
vt 0.000000 0.615385
vt 1.000000 0.615385
vt 1.000000 0.692308
vt 0.000000 0.692308
vt 0.000000 0.615385
vt 1.000000 0.615385
vt 1.000000 0.692308
s 0
usemtl Material
f 82/88/55 81/87/55 84/90/55 83/89/55
f 86/92/56 87/93/56 88/94/56 85/91/56
f 82/88/57 83/89/57 87/93/57 86/92/57
f 81/87/58 82/88/58 86/92/58 85/91/58
f 84/90/59 81/87/59 85/91/59 88/94/59
f 83/89/60 84/90/60 88/94/60 87/93/60
o Plane.010
v -1.734697 1.578892 -9.533397
v -1.734697 1.578892 -8.415586
v 1.734697 1.578892 -8.415586
v 1.734697 1.578892 -9.533396
v -1.734697 1.660546 -9.533397
v -1.734697 1.660546 -8.415586
v 1.734697 1.660546 -8.415586
v 1.734697 1.660546 -9.533396
vn -0.0000 -1.0000 -0.0000
vn -0.0000 1.0000 -0.0000
vn -0.0000 -0.0000 -1.0000
vn 1.0000 -0.0000 -0.0000
vn -0.0000 -0.0000 1.0000
vn -1.0000 -0.0000 -0.0000
vt 0.000000 0.769231
vt 0.000000 0.692308
vt 1.000000 0.692308
vt 1.000000 0.769231
vt 0.000000 0.769231
vt 0.000000 0.692308
vt 1.000000 0.692308
vt 1.000000 0.769231
s 0
usemtl Material
f 90/96/61 89/95/61 92/98/61 91/97/61
f 94/100/62 95/101/62 96/102/62 93/99/62
f 92/98/63 89/95/63 93/99/63 96/102/63
f 91/97/64 92/98/64 96/102/64 95/101/64
f 90/96/65 91/97/65 95/101/65 94/100/65
f 89/95/66 90/96/66 94/100/66 93/99/66
o Plane.011
v -1.734697 1.576157 -10.661206
v -1.734697 1.576157 -9.543396
v 1.734697 1.576157 -9.543396
v 1.734697 1.576157 -10.661206
v -1.734697 1.657810 -10.661206
v -1.734697 1.657810 -9.543396
v 1.734697 1.657810 -9.543396
v 1.734697 1.657810 -10.661206
vn -0.0000 -1.0000 -0.0000
vn -0.0000 1.0000 -0.0000
vn -0.0000 -0.0000 -1.0000
vn 1.0000 -0.0000 -0.0000
vn -0.0000 -0.0000 1.0000
vn -1.0000 -0.0000 -0.0000
vt 0.000000 0.846154
vt 0.000000 0.769231
vt 1.000000 0.769231
vt 1.000000 0.846154
vt 0.000000 0.846154
vt 0.000000 0.769231
vt 1.000000 0.769231
vt 1.000000 0.846154
s 0
usemtl Material
f 98/104/67 97/103/67 100/106/67 99/105/67
f 102/108/68 103/109/68 104/110/68 101/107/68
f 100/106/69 97/103/69 101/107/69 104/110/69
f 99/105/70 100/106/70 104/110/70 103/109/70
f 98/104/71 99/105/71 103/109/71 102/108/71
f 97/103/72 98/104/72 102/108/72 101/107/72
o Plane.012
v -1.734697 1.578892 -11.789016
v -1.734697 1.578892 -10.671206
v 1.734697 1.578892 -10.671206
v 1.734697 1.578892 -11.789016
v -1.734697 1.660546 -11.789016
v -1.734697 1.660546 -10.671206
v 1.734697 1.660546 -10.671206
v 1.734697 1.660546 -11.789016
vn -0.0000 -1.0000 -0.0000
vn -0.0000 1.0000 -0.0000
vn -0.0000 -0.0000 -1.0000
vn 1.0000 -0.0000 -0.0000
vn -0.0000 -0.0000 1.0000
vn -1.0000 -0.0000 -0.0000
vt 0.000000 0.923077
vt 0.000000 0.846154
vt 1.000000 0.846154
vt 1.000000 0.923077
vt 0.000000 0.923077
vt 0.000000 0.846154
vt 1.000000 0.846154
vt 1.000000 0.923077
s 0
usemtl Material
f 106/112/73 105/111/73 108/114/73 107/113/73
f 110/116/74 111/117/74 112/118/74 109/115/74
f 108/114/75 105/111/75 109/115/75 112/118/75
f 107/113/76 108/114/76 112/118/76 111/117/76
f 106/112/77 107/113/77 111/117/77 110/116/77
f 105/111/78 106/112/78 110/116/78 109/115/78
o Plane.013
v -1.734697 1.576157 -12.916824
v 1.734697 1.576157 -12.916824
v -1.734697 1.576157 -11.799015
v 1.734697 1.576157 -11.799015
v 1.734697 1.657810 -11.799015
v 1.734697 1.657810 -12.916824
v -1.734697 1.657810 -12.916824
v -1.734697 1.657810 -11.799015
vn -0.0000 -1.0000 -0.0000
vn -0.0000 1.0000 -0.0000
vn -0.0000 -0.0000 1.0000
vn -0.0000 -0.0000 -1.0000
vn -1.0000 -0.0000 -0.0000
vn 1.0000 -0.0000 -0.0000
vt 0.000000 1.000000
vt 1.000000 1.000000
vt 0.000000 0.923077
vt 1.000000 0.923077
vt 1.000000 0.923077
vt 1.000000 1.000000
vt 0.000000 1.000000
vt 0.000000 0.923077
s 0
usemtl Material
f 115/121/79 113/119/79 114/120/79 116/122/79
f 120/126/80 117/123/80 118/124/80 119/125/80
f 115/121/81 116/122/81 117/123/81 120/126/81
f 114/120/82 113/119/82 119/125/82 118/124/82
f 113/119/83 115/121/83 120/126/83 119/125/83
f 116/122/84 114/120/84 118/124/84 117/123/84
o Cube.001
v 1.201472 -0.431884 1.669733
v 1.201472 1.488908 1.669733
v 1.201472 -0.431884 1.148376
v 1.201472 1.488908 1.148376
v 1.722829 -0.431884 1.669733
v 1.722829 1.488908 1.669733
v 1.722829 -0.431884 1.148376
v 1.722829 1.488908 1.148376
vn -1.0000 -0.0000 -0.0000
vn -0.0000 -0.0000 -1.0000
vn 1.0000 -0.0000 -0.0000
vn -0.0000 -0.0000 1.0000
vn -0.0000 -1.0000 -0.0000
vn -0.0000 1.0000 -0.0000
vt 0.375000 0.000000
vt 0.375000 1.000000
vt 0.125000 0.750000
vt 0.625000 0.000000
vt 0.625000 1.000000
vt 0.875000 0.750000
vt 0.375000 0.250000
vt 0.125000 0.500000
vt 0.625000 0.250000
vt 0.875000 0.500000
vt 0.375000 0.750000
vt 0.625000 0.750000
vt 0.375000 0.500000
vt 0.625000 0.500000
s 0
usemtl dark
f 121/127/85 122/130/85 124/135/85 123/133/85
f 123/133/86 124/135/86 128/140/86 127/139/86
f 127/139/87 128/140/87 126/138/87 125/137/87
f 125/137/88 126/138/88 122/131/88 121/128/88
f 123/134/89 127/139/89 125/137/89 121/129/89
f 128/140/90 124/136/90 122/132/90 126/138/90
o Cube.002
v -1.623757 -0.431884 1.669733
v -1.623757 1.488908 1.669733
v -1.623757 -0.431884 1.148376
v -1.623757 1.488908 1.148376
v -1.102399 -0.431884 1.669733
v -1.102399 1.488908 1.669733
v -1.102399 -0.431884 1.148376
v -1.102399 1.488908 1.148376
vn -1.0000 -0.0000 -0.0000
vn -0.0000 -0.0000 -1.0000
vn 1.0000 -0.0000 -0.0000
vn -0.0000 -0.0000 1.0000
vn -0.0000 -1.0000 -0.0000
vn -0.0000 1.0000 -0.0000
vt 0.375000 0.000000
vt 0.375000 1.000000
vt 0.125000 0.750000
vt 0.625000 0.000000
vt 0.625000 1.000000
vt 0.875000 0.750000
vt 0.375000 0.250000
vt 0.125000 0.500000
vt 0.625000 0.250000
vt 0.875000 0.500000
vt 0.375000 0.750000
vt 0.625000 0.750000
vt 0.375000 0.500000
vt 0.625000 0.500000
s 0
usemtl dark
f 129/141/91 130/144/91 132/149/91 131/147/91
f 131/147/92 132/149/92 136/154/92 135/153/92
f 135/153/93 136/154/93 134/152/93 133/151/93
f 133/151/94 134/152/94 130/145/94 129/142/94
f 131/148/95 135/153/95 133/151/95 129/143/95
f 136/154/96 132/150/96 130/146/96 134/152/96
o Cube.003
v -1.623757 -0.431884 -12.381289
v -1.623757 1.488908 -12.381289
v -1.623757 -0.431884 -12.902645
v -1.623757 1.488908 -12.902645
v -1.102399 -0.431884 -12.381289
v -1.102399 1.488908 -12.381289
v -1.102399 -0.431884 -12.902645
v -1.102399 1.488908 -12.902645
vn -1.0000 -0.0000 -0.0000
vn -0.0000 -0.0000 -1.0000
vn 1.0000 -0.0000 -0.0000
vn -0.0000 -0.0000 1.0000
vn -0.0000 -1.0000 -0.0000
vn -0.0000 1.0000 -0.0000
vt 0.375000 0.000000
vt 0.375000 1.000000
vt 0.125000 0.750000
vt 0.625000 0.000000
vt 0.625000 1.000000
vt 0.875000 0.750000
vt 0.375000 0.250000
vt 0.125000 0.500000
vt 0.625000 0.250000
vt 0.875000 0.500000
vt 0.375000 0.750000
vt 0.625000 0.750000
vt 0.375000 0.500000
vt 0.625000 0.500000
s 0
usemtl dark
f 137/155/97 138/158/97 140/163/97 139/161/97
f 139/161/98 140/163/98 144/168/98 143/167/98
f 143/167/99 144/168/99 142/166/99 141/165/99
f 141/165/100 142/166/100 138/159/100 137/156/100
f 139/162/101 143/167/101 141/165/101 137/157/101
f 144/168/102 140/164/102 138/160/102 142/166/102
o Cube.004
v 1.178609 -0.431884 -12.381289
v 1.178609 1.488908 -12.381289
v 1.178609 -0.431884 -12.902645
v 1.178609 1.488908 -12.902645
v 1.699967 -0.431884 -12.381289
v 1.699967 1.488908 -12.381289
v 1.699967 -0.431884 -12.902645
v 1.699967 1.488908 -12.902645
vn -1.0000 -0.0000 -0.0000
vn -0.0000 -0.0000 -1.0000
vn 1.0000 -0.0000 -0.0000
vn -0.0000 -0.0000 1.0000
vn -0.0000 -1.0000 -0.0000
vn -0.0000 1.0000 -0.0000
vt 0.375000 0.000000
vt 0.375000 1.000000
vt 0.125000 0.750000
vt 0.625000 0.000000
vt 0.625000 1.000000
vt 0.875000 0.750000
vt 0.375000 0.250000
vt 0.125000 0.500000
vt 0.625000 0.250000
vt 0.875000 0.500000
vt 0.375000 0.750000
vt 0.625000 0.750000
vt 0.375000 0.500000
vt 0.625000 0.500000
s 0
usemtl dark
f 145/169/103 146/172/103 148/177/103 147/175/103
f 147/175/104 148/177/104 152/182/104 151/181/104
f 151/181/105 152/182/105 150/180/105 149/179/105
f 149/179/106 150/180/106 146/173/106 145/170/106
f 147/176/107 151/181/107 149/179/107 145/171/107
f 152/182/108 148/178/108 146/174/108 150/180/108
