# Blender 3.4.0
# www.blender.org
mtllib repair_storage.mtl
o Cube
v -1.000000 0.897892 1.375663
v -0.955821 0.085869 2.186643
v -1.000000 0.897892 -0.144842
v -0.955821 0.085869 -0.955821
v 1.000000 0.042734 2.230822
v 0.955821 0.085869 2.186643
v 1.000000 0.042734 -1.000000
v 0.955821 0.085869 -0.955821
v -1.000000 1.187575 1.375663
v -1.000000 1.187575 -0.144842
v 1.000000 2.042734 -1.000000
v 1.000000 2.042734 2.230822
v -1.000000 0.042734 -1.000000
v -1.000000 0.042734 2.230822
v -1.000000 2.042734 2.230822
v -1.000000 2.042734 -1.000000
v -1.047974 0.897892 -0.144842
v -1.047974 0.897892 1.375663
v -1.047974 1.187575 1.375663
v -1.047974 1.187575 -0.144842
vn -0.0000 -0.0000 1.0000
vn -0.0000 -0.0000 -1.0000
vn 1.0000 -0.0000 -0.0000
vn -0.0000 -1.0000 -0.0000
vn -0.0000 1.0000 -0.0000
vn 0.9997 0.0226 -0.0000
vn -0.0000 0.0226 0.9997
vn -0.9997 0.0226 -0.0000
vn -0.0000 0.0226 -0.9997
vn -1.0000 -0.0000 -0.0000
vt 0.481895 0.066172
vt 0.869478 0.746581
vt 0.481895 0.183828
vt 0.869478 0.503419
vt 0.375000 0.750000
vt 0.630522 0.746581
vt 0.375000 0.500000
vt 0.630522 0.503419
vt 0.518105 0.066172
vt 0.518105 0.183828
vt 0.625000 0.500000
vt 0.625000 0.750000
vt 0.125000 0.500000
vt 0.375000 0.250000
vt 0.375000 1.000000
vt 0.125000 0.750000
vt 0.375000 0.000000
vt 0.625000 1.000000
vt 0.875000 0.750000
vt 0.625000 0.000000
vt 0.875000 0.500000
vt 0.625000 0.250000
vt 0.481895 0.183828
vt 0.481895 0.066172
vt 0.518105 0.066172
vt 0.518105 0.183828
s 0
usemtl Material
f 1/1/1 9/9/1 19/25/1 18/24/1
f 13/14/2 16/22/2 11/11/2 7/7/2
f 7/7/3 11/11/3 12/12/3 5/5/3
f 5/5/1 12/12/1 15/18/1 14/15/1
f 13/13/4 7/7/4 5/5/4 14/16/4
f 8/8/5 4/4/5 2/2/5 6/6/5
f 2/2/6 4/4/6 16/21/6 15/19/6
f 4/4/7 8/8/7 11/11/7 16/21/7
f 8/8/8 6/6/8 12/12/8 11/11/8
f 6/6/9 2/2/9 15/19/9 12/12/9
f 1/1/10 3/3/10 13/14/10 14/17/10
f 9/9/10 1/1/10 14/17/10 15/20/10
f 10/10/10 9/9/10 15/20/10 16/22/10
f 3/3/10 10/10/10 16/22/10 13/14/10
f 18/24/10 19/25/10 20/26/10 17/23/10
f 9/9/5 10/10/5 20/26/5 19/25/5
f 3/3/4 1/1/4 18/24/4 17/23/4
f 10/10/2 3/3/2 17/23/2 20/26/2
