# Blender 3.6.2
# www.blender.org
mtllib shelves(small_ver).mtl
g bottom_part_Plane
v -1.000000 0.000000 1.973355
v 1.000000 0.000000 1.973355
v -1.000000 0.000000 -1.973355
v 1.000000 0.000000 -1.973355
v -0.922742 0.000000 -1.888909
v -0.922742 0.000000 1.888909
v 0.922742 0.000000 1.888909
v 0.922742 0.000000 -1.888909
v -0.922742 0.048031 -1.888909
v -0.922742 0.048031 1.888909
v 0.922742 0.048031 1.888909
v 0.922742 0.048031 -1.888909
v -1.000000 0.048031 -1.973355
v -1.000000 0.048031 1.973355
v 1.000000 0.048031 1.973355
v 1.000000 0.048031 -1.973355
v -0.922742 0.098616 -1.888909
v -0.922742 0.098616 1.888909
v 0.922742 0.098616 1.888909
v 0.922742 0.098616 -1.888909
v -1.000000 0.098616 -1.973355
v -1.000000 0.098616 1.973355
v 1.000000 0.098616 1.973355
v 1.000000 0.098616 -1.973355
vn -0.0000 -1.0000 -0.0000
vn -0.0000 1.0000 -0.0000
vn -1.0000 -0.0000 -0.0000
vn 1.0000 -0.0000 -0.0000
vn -0.0000 -0.0000 -1.0000
vn -0.0000 -0.0000 1.0000
vt 0.038629 0.038629
vt 0.038629 0.961371
vt 0.961371 0.961371
vt 0.961371 0.038629
vt 0.000000 0.000000
vt 0.000000 1.000000
vt 1.000000 0.000000
vt 1.000000 1.000000
s 0
g off
g bottom_part_brown_color(bot)
usemtl brown_color(bot)
f 6/1/1 5/2/1 8/3/1 7/4/1
f 6/1/1 1/5/1 3/6/1 5/2/1
f 7/4/1 2/7/1 1/5/1 6/1/1
f 8/3/1 4/8/1 2/7/1 7/4/1
f 5/2/1 3/6/1 4/8/1 8/3/1
f 10/1/2 11/4/2 12/3/2 9/2/2
f 13/6/3 14/5/3 22/5/3 21/6/3
f 15/7/4 16/8/4 24/8/4 23/7/4
f 11/4/5 10/1/5 18/1/5 19/4/5
f 9/2/6 12/3/6 20/3/6 17/2/6
f 3/6/3 1/5/3 14/5/3 13/6/3
f 4/8/5 3/6/5 13/6/5 16/8/5
f 1/5/6 2/7/6 15/7/6 14/5/6
f 2/7/4 4/8/4 16/8/4 15/7/4
f 18/1/2 17/2/2 21/6/2 22/5/2
f 19/4/2 18/1/2 22/5/2 23/7/2
f 20/3/2 19/4/2 23/7/2 24/8/2
f 17/2/2 20/3/2 24/8/2 21/6/2
f 12/3/3 11/4/3 19/4/3 20/3/3
f 10/1/4 9/2/4 17/2/4 18/1/4
f 16/8/5 13/6/5 21/6/5 24/8/5
f 14/5/6 15/7/6 23/7/6 22/5/6
g back_collumns_Cube.001
v -0.997568 0.008111 -1.891391
v -0.997568 2.304887 -1.891391
v -0.997568 0.008111 -1.971729
v -0.997568 2.304887 -1.971729
v -0.926018 0.008111 -1.891391
v -0.926018 2.304887 -1.891391
v -0.926018 0.008111 -1.971729
v -0.926018 2.304887 -1.971729
v -0.997568 0.008111 1.964838
v -0.997568 2.304887 1.964838
v -0.997568 0.008111 1.884500
v -0.997568 2.304887 1.884500
v -0.926018 0.008111 1.964838
v -0.926018 2.304887 1.964838
v -0.926018 0.008111 1.884500
v -0.926018 2.304887 1.884500
vn -1.0000 -0.0000 -0.0000
vn -0.0000 -0.0000 -1.0000
vn 1.0000 -0.0000 -0.0000
vn -0.0000 -0.0000 1.0000
vn -0.0000 -1.0000 -0.0000
vn -0.0000 1.0000 -0.0000
vt 0.375000 0.000000
vt 0.625000 0.000000
vt 0.625000 0.250000
vt 0.375000 0.250000
vt 0.625000 0.500000
vt 0.375000 0.500000
vt 0.625000 0.750000
vt 0.375000 0.750000
vt 0.625000 1.000000
vt 0.375000 1.000000
vt 0.125000 0.500000
vt 0.125000 0.750000
vt 0.875000 0.500000
vt 0.875000 0.750000
s 0
g off
g back_collumns_dark_blue(shelves)
usemtl dark_blue(shelves)
f 25/9/7 26/10/7 28/11/7 27/12/7
f 27/12/8 28/11/8 32/13/8 31/14/8
f 31/14/9 32/13/9 30/15/9 29/16/9
f 29/16/10 30/15/10 26/17/10 25/18/10
f 27/19/11 31/14/11 29/16/11 25/20/11
f 32/13/12 28/21/12 26/22/12 30/15/12
f 33/9/7 34/10/7 36/11/7 35/12/7
f 35/12/8 36/11/8 40/13/8 39/14/8
f 39/14/9 40/13/9 38/15/9 37/16/9
f 37/16/10 38/15/10 34/17/10 33/18/10
f 35/19/11 39/14/11 37/16/11 33/20/11
f 40/13/12 36/21/12 34/22/12 38/15/12
g front_collumns_Cube.003
v 0.924581 0.004286 -1.891391
v 0.924581 0.004286 -1.971729
v 0.995045 0.016711 -1.891391
v 0.995045 0.016711 -1.971729
v 0.924581 0.004286 1.964838
v 0.924581 0.004286 1.884500
v 0.995045 0.016711 1.964838
v 0.995045 0.016711 1.884500
v 0.519048 2.304178 -1.891391
v 0.519048 2.304178 -1.971729
v 0.591703 2.304178 -1.971729
v 0.591703 2.304178 -1.891391
v 0.519048 2.304178 1.964838
v 0.519048 2.304178 1.884500
v 0.591702 2.304178 1.884500
v 0.591702 2.304178 1.964838
vn -0.9848 -0.1736 -0.0000
vn -0.0000 -0.0000 -1.0000
vn 0.9848 0.1736 -0.0000
vn -0.0000 -0.0000 1.0000
vn 0.1736 -0.9848 -0.0000
vn -0.0000 1.0000 -0.0000
vt 0.375000 0.250000
vt 0.375000 0.000000
vt 0.613172 0.000000
vt 0.613172 0.250000
vt 0.375000 0.500000
vt 0.611885 0.500000
vt 0.611885 0.750000
vt 0.375000 0.750000
vt 0.613172 1.000000
vt 0.375000 1.000000
vt 0.125000 0.500000
vt 0.125000 0.750000
vt 0.795851 0.870743
vt 0.759524 0.870743
vt 0.759524 0.855637
vt 0.795851 0.855637
vt 0.759524 0.145658
vt 0.759524 0.130552
vt 0.795851 0.130552
vt 0.795851 0.145658
s 0
g off
g front_collumns_dark_blue(shelves)
usemtl dark_blue(shelves)
f 42/23/13 41/24/13 49/25/13 50/26/13
f 44/27/14 42/23/14 50/26/14 51/28/14
f 52/29/15 43/30/15 44/27/15 51/28/15
f 49/31/16 41/32/16 43/30/16 52/29/16
f 42/33/17 44/27/17 43/30/17 41/34/17
f 46/23/13 45/24/13 53/25/13 54/26/13
f 48/27/14 46/23/14 54/26/14 55/28/14
f 56/29/15 47/30/15 48/27/15 55/28/15
f 53/31/16 45/32/16 47/30/16 56/29/16
f 46/33/17 48/27/17 47/30/17 45/34/17
f 51/35/18 50/36/18 49/37/18 52/38/18
f 54/39/18 53/40/18 56/41/18 55/42/18
g middle_part_Plane.001
v -0.998293 1.118333 1.973355
v 0.810195 1.118333 1.973355
v -0.998293 1.118333 -1.973355
v 0.810195 1.118333 -1.973355
v -0.928432 1.118333 -1.888909
v -0.928432 1.118333 1.888909
v 0.740334 1.118333 1.888909
v 0.740334 1.118333 -1.888909
v -0.928432 1.166363 -1.888909
v -0.928432 1.166363 1.888909
v 0.740334 1.166363 1.888909
v 0.740334 1.166363 -1.888909
v -0.998293 1.166363 -1.973355
v -0.998293 1.166363 1.973355
v 0.810195 1.166363 1.973355
v 0.810195 1.166363 -1.973355
v -0.928432 1.216949 -1.888909
v -0.928432 1.216949 1.888909
v 0.740334 1.216949 1.888909
v 0.740334 1.216949 -1.888909
v -0.998293 1.216949 -1.973355
v -0.998293 1.216949 1.973355
v 0.810195 1.216949 1.973355
v 0.810195 1.216949 -1.973355
vn -0.0000 -1.0000 -0.0000
vn -0.0000 1.0000 -0.0000
vn -1.0000 -0.0000 -0.0000
vn 1.0000 -0.0000 -0.0000
vn -0.0000 -0.0000 -1.0000
vn -0.0000 -0.0000 1.0000
vt 0.038629 0.038629
vt 0.038629 0.961371
vt 0.961371 0.961371
vt 0.961371 0.038629
vt 0.000000 0.000000
vt 0.000000 1.000000
vt 1.000000 0.000000
vt 1.000000 1.000000
s 0
g off
g middle_part_dark_blue(shelves)
usemtl dark_blue(shelves)
f 62/43/19 61/44/19 64/45/19 63/46/19
f 62/43/19 57/47/19 59/48/19 61/44/19
f 63/46/19 58/49/19 57/47/19 62/43/19
f 64/45/19 60/50/19 58/49/19 63/46/19
f 61/44/19 59/48/19 60/50/19 64/45/19
f 69/48/21 70/47/21 78/47/21 77/48/21
f 71/49/22 72/50/22 80/50/22 79/49/22
f 67/46/23 66/43/23 74/43/23 75/46/23
f 65/44/24 68/45/24 76/45/24 73/44/24
f 59/48/21 57/47/21 70/47/21 69/48/21
f 60/50/23 59/48/23 69/48/23 72/50/23
f 57/47/24 58/49/24 71/49/24 70/47/24
f 58/49/22 60/50/22 72/50/22 71/49/22
f 74/43/20 73/44/20 77/48/20 78/47/20
f 75/46/20 74/43/20 78/47/20 79/49/20
f 76/45/20 75/46/20 79/49/20 80/50/20
f 73/44/20 76/45/20 80/50/20 77/48/20
f 68/45/21 67/46/21 75/46/21 76/45/21
f 66/43/22 65/44/22 73/44/22 74/43/22
f 72/50/23 69/48/23 77/48/23 80/50/23
f 70/47/24 71/49/24 79/49/24 78/47/24
g middle_part_brown_color(bot)
usemtl brown_color(bot)
f 66/43/20 67/46/20 68/45/20 65/44/20
g top_part_Plane.002
v -0.994843 2.244541 1.973355
v 0.631240 2.244541 1.973355
v -0.994843 2.244541 -1.973355
v 0.631240 2.244541 -1.973355
v -0.932029 2.244541 -1.888909
v -0.932029 2.244541 1.888909
v 0.568425 2.244541 1.888909
v 0.568425 2.244541 -1.888909
v -0.932029 2.292571 -1.888909
v -0.932029 2.292571 1.888909
v 0.568425 2.292571 1.888909
v 0.568425 2.292571 -1.888909
v -0.994843 2.292571 -1.973355
v -0.994843 2.292571 1.973355
v 0.631240 2.292571 1.973355
v 0.631240 2.292571 -1.973355
v -0.932029 2.343157 -1.888909
v -0.932029 2.343157 1.888909
v 0.568425 2.343157 1.888909
v 0.568425 2.343157 -1.888909
v -0.994843 2.343157 -1.973355
v -0.994843 2.343157 1.973355
v 0.631240 2.343157 1.973355
v 0.631240 2.343157 -1.973355
vn -0.0000 -1.0000 -0.0000
vn -0.0000 1.0000 -0.0000
vn -1.0000 -0.0000 -0.0000
vn 1.0000 -0.0000 -0.0000
vn -0.0000 -0.0000 -1.0000
vn -0.0000 -0.0000 1.0000
vt 0.038629 0.038629
vt 0.038629 0.961371
vt 0.961371 0.961371
vt 0.961371 0.038629
vt 0.000000 0.000000
vt 0.000000 1.000000
vt 1.000000 0.000000
vt 1.000000 1.000000
s 0
g off
g top_part_dark_blue(shelves)
usemtl dark_blue(shelves)
f 86/51/25 85/52/25 88/53/25 87/54/25
f 86/51/25 81/55/25 83/56/25 85/52/25
f 87/54/25 82/57/25 81/55/25 86/51/25
f 88/53/25 84/58/25 82/57/25 87/54/25
f 85/52/25 83/56/25 84/58/25 88/53/25
f 93/56/27 94/55/27 102/55/27 101/56/27
f 95/57/28 96/58/28 104/58/28 103/57/28
f 91/54/29 90/51/29 98/51/29 99/54/29
f 89/52/30 92/53/30 100/53/30 97/52/30
f 83/56/27 81/55/27 94/55/27 93/56/27
f 84/58/29 83/56/29 93/56/29 96/58/29
f 81/55/30 82/57/30 95/57/30 94/55/30
f 82/57/28 84/58/28 96/58/28 95/57/28
f 98/51/26 97/52/26 101/56/26 102/55/26
f 99/54/26 98/51/26 102/55/26 103/57/26
f 100/53/26 99/54/26 103/57/26 104/58/26
f 97/52/26 100/53/26 104/58/26 101/56/26
f 92/53/27 91/54/27 99/54/27 100/53/27
f 90/51/28 89/52/28 97/52/28 98/51/28
f 96/58/29 93/56/29 101/56/29 104/58/29
f 94/55/30 95/57/30 103/57/30 102/55/30
g top_part_brown_color(bot)
usemtl brown_color(bot)
f 90/51/26 91/54/26 92/53/26 89/52/26
