# Blender 3.3.1
# www.blender.org
mtllib shelves_v1.mtl
o shelves
v -0.490000 0.176486 0.490000
v -0.490000 0.197883 0.490000
v -0.490000 0.176486 -0.481624
v -0.490000 0.197883 -0.481624
v 0.490000 0.176486 0.490000
v 0.490000 0.197883 0.490000
v 0.490000 0.176486 -0.481624
v 0.490000 0.197883 -0.481624
v -0.490000 0.531341 0.490000
v -0.490000 0.552738 0.490000
v -0.490000 0.531341 -0.481624
v -0.490000 0.552738 -0.481624
v 0.490000 0.531341 0.490000
v 0.490000 0.552738 0.490000
v 0.490000 0.531341 -0.481624
v 0.490000 0.552738 -0.481624
v -0.490000 0.920824 0.490000
v -0.490000 0.942222 0.490000
v -0.490000 0.920824 -0.481624
v -0.490000 0.942222 -0.481624
v 0.490000 0.920824 0.490000
v 0.490000 0.942222 0.490000
v 0.490000 0.920824 -0.481624
v 0.490000 0.942222 -0.481624
vn -1.0000 -0.0000 -0.0000
vn -0.0000 -0.0000 -1.0000
vn 1.0000 -0.0000 -0.0000
vn -0.0000 -0.0000 1.0000
vn -0.0000 -1.0000 -0.0000
vn -0.0000 1.0000 -0.0000
vt 0.375000 0.000000
vt 0.375000 1.000000
vt 0.125000 0.750000
vt 0.625000 0.000000
vt 0.625000 1.000000
vt 0.875000 0.750000
vt 0.375000 0.250000
vt 0.125000 0.500000
vt 0.625000 0.250000
vt 0.875000 0.500000
vt 0.375000 0.750000
vt 0.625000 0.750000
vt 0.375000 0.500000
vt 0.625000 0.500000
vt 0.375000 0.000000
vt 0.375000 1.000000
vt 0.125000 0.750000
vt 0.625000 0.000000
vt 0.625000 1.000000
vt 0.875000 0.750000
vt 0.375000 0.250000
vt 0.125000 0.500000
vt 0.625000 0.250000
vt 0.875000 0.500000
vt 0.375000 0.750000
vt 0.625000 0.750000
vt 0.375000 0.500000
vt 0.625000 0.500000
vt 0.375000 0.000000
vt 0.375000 1.000000
vt 0.125000 0.750000
vt 0.625000 0.000000
vt 0.625000 1.000000
vt 0.875000 0.750000
vt 0.375000 0.250000
vt 0.125000 0.500000
vt 0.625000 0.250000
vt 0.875000 0.500000
vt 0.375000 0.750000
vt 0.625000 0.750000
vt 0.375000 0.500000
vt 0.625000 0.500000
s 0
usemtl metal
f 1/1/1 2/4/1 4/9/1 3/7/1
f 3/7/2 4/9/2 8/14/2 7/13/2
f 7/13/3 8/14/3 6/12/3 5/11/3
f 5/11/4 6/12/4 2/5/4 1/2/4
f 3/8/5 7/13/5 5/11/5 1/3/5
f 8/14/6 4/10/6 2/6/6 6/12/6
f 9/15/1 10/18/1 12/23/1 11/21/1
f 11/21/2 12/23/2 16/28/2 15/27/2
f 15/27/3 16/28/3 14/26/3 13/25/3
f 13/25/4 14/26/4 10/19/4 9/16/4
f 11/22/5 15/27/5 13/25/5 9/17/5
f 16/28/6 12/24/6 10/20/6 14/26/6
f 17/29/1 18/32/1 20/37/1 19/35/1
f 19/35/2 20/37/2 24/42/2 23/41/2
f 23/41/3 24/42/3 22/40/3 21/39/3
f 21/39/4 22/40/4 18/33/4 17/30/4
f 19/36/5 23/41/5 21/39/5 17/31/5
f 24/42/6 20/38/6 18/34/6 22/40/6
o branches
v -0.524748 0.004911 -0.440710
v -0.524748 0.944911 -0.440710
v -0.524748 0.004911 -0.517361
v -0.524748 0.944911 -0.517361
v -0.458621 0.004911 -0.440710
v -0.458621 0.944911 -0.440710
v -0.458621 0.004911 -0.517361
v -0.458621 0.944911 -0.517361
v 0.524748 0.004911 -0.440710
v 0.524748 0.944911 -0.440710
v 0.524748 0.004911 -0.517361
v 0.524748 0.944911 -0.517361
v 0.458621 0.004911 -0.440710
v 0.458621 0.944911 -0.440710
v 0.458621 0.004911 -0.517361
v 0.458621 0.944911 -0.517361
v -0.524748 0.004911 0.440709
v -0.524748 0.944911 0.440709
v -0.524748 0.004911 0.517361
v -0.524748 0.944911 0.517361
v -0.458621 0.004911 0.440709
v -0.458621 0.944911 0.440709
v -0.458621 0.004911 0.517361
v -0.458621 0.944911 0.517361
v 0.524748 0.004911 0.440709
v 0.524748 0.944911 0.440709
v 0.524748 0.004911 0.517361
v 0.524748 0.944911 0.517361
v 0.458621 0.004911 0.440709
v 0.458621 0.944911 0.440709
v 0.458621 0.004911 0.517361
v 0.458621 0.944911 0.517361
vn -1.0000 -0.0000 -0.0000
vn -0.0000 -0.0000 -1.0000
vn 1.0000 -0.0000 -0.0000
vn -0.0000 -0.0000 1.0000
vn -0.0000 -1.0000 -0.0000
vn -0.0000 1.0000 -0.0000
vt 0.375000 0.000000
vt 0.375000 1.000000
vt 0.125000 0.750000
vt 0.625000 0.000000
vt 0.625000 1.000000
vt 0.875000 0.750000
vt 0.375000 0.250000
vt 0.125000 0.500000
vt 0.625000 0.250000
vt 0.875000 0.500000
vt 0.375000 0.750000
vt 0.625000 0.750000
vt 0.375000 0.500000
vt 0.625000 0.500000
vt 0.375000 0.000000
vt 0.375000 1.000000
vt 0.125000 0.750000
vt 0.625000 0.000000
vt 0.625000 1.000000
vt 0.875000 0.750000
vt 0.375000 0.250000
vt 0.125000 0.500000
vt 0.625000 0.250000
vt 0.875000 0.500000
vt 0.375000 0.750000
vt 0.625000 0.750000
vt 0.375000 0.500000
vt 0.625000 0.500000
vt 0.375000 0.000000
vt 0.375000 1.000000
vt 0.125000 0.750000
vt 0.625000 0.000000
vt 0.625000 1.000000
vt 0.875000 0.750000
vt 0.375000 0.250000
vt 0.125000 0.500000
vt 0.625000 0.250000
vt 0.875000 0.500000
vt 0.375000 0.750000
vt 0.625000 0.750000
vt 0.375000 0.500000
vt 0.625000 0.500000
vt 0.375000 0.000000
vt 0.375000 1.000000
vt 0.125000 0.750000
vt 0.625000 0.000000
vt 0.625000 1.000000
vt 0.875000 0.750000
vt 0.375000 0.250000
vt 0.125000 0.500000
vt 0.625000 0.250000
vt 0.875000 0.500000
vt 0.375000 0.750000
vt 0.625000 0.750000
vt 0.375000 0.500000
vt 0.625000 0.500000
s 0
usemtl metal
f 25/43/7 26/46/7 28/51/7 27/49/7
f 27/49/8 28/51/8 32/56/8 31/55/8
f 31/55/9 32/56/9 30/54/9 29/53/9
f 29/53/10 30/54/10 26/47/10 25/44/10
f 27/50/11 31/55/11 29/53/11 25/45/11
f 32/56/12 28/52/12 26/48/12 30/54/12
f 33/57/9 35/63/9 36/65/9 34/60/9
f 35/63/8 39/69/8 40/70/8 36/65/8
f 39/69/7 37/67/7 38/68/7 40/70/7
f 37/67/10 33/58/10 34/61/10 38/68/10
f 35/64/11 33/59/11 37/67/11 39/69/11
f 40/70/12 38/68/12 34/62/12 36/66/12
f 41/71/7 43/77/7 44/79/7 42/74/7
f 43/77/10 47/83/10 48/84/10 44/79/10
f 47/83/9 45/81/9 46/82/9 48/84/9
f 45/81/8 41/72/8 42/75/8 46/82/8
f 43/78/11 41/73/11 45/81/11 47/83/11
f 48/84/12 46/82/12 42/76/12 44/80/12
f 49/85/9 50/88/9 52/93/9 51/91/9
f 51/91/10 52/93/10 56/98/10 55/97/10
f 55/97/7 56/98/7 54/96/7 53/95/7
f 53/95/8 54/96/8 50/89/8 49/86/8
f 51/92/11 55/97/11 53/95/11 49/87/11
f 56/98/12 52/94/12 50/90/12 54/96/12
