# Blender 3.4.1
# www.blender.org
mtllib ImageToStl.com_47 шпильки м16-3шт. для крепления грундбуксы сальника.mtl
o imagetostl_mesh0
v 59.657581 0.818527 0.682032
v -2.847041 0.343353 0.781462
v -2.680234 -0.968263 0.049106
v 59.521732 -0.971031 -0.443410
v -2.563838 1.001134 -0.308780
v 59.946098 -0.500526 0.511632
v 59.985165 0.338656 -0.624682
v -2.835792 0.044328 -0.824220
v -13.993236 7.980653 1.166907
v -14.002933 5.925936 5.688050
v 92.998276 7.674313 2.513068
v 92.988495 5.795031 5.596026
v 93.017059 2.154277 7.845392
v -14.015563 0.182100 8.177862
v -13.999228 -4.960096 6.424126
v 93.036682 -3.743974 7.319022
v -14.001541 -7.367523 3.247404
v -14.013179 -8.081718 -0.403343
v 92.997231 -7.526598 3.036569
v 92.994431 -7.826889 -2.457301
v -14.000257 -6.228069 -5.340912
v 93.000084 -4.320651 -6.870516
v -13.994549 -1.303882 -8.010586
v 93.006454 -0.246173 -8.061350
v -14.016186 4.070271 -7.104994
v 93.030815 4.670485 -6.744864
v -14.014216 7.571520 -2.905300
v 92.977005 7.892803 -2.006236
v 95.004066 -5.394660 -2.920557
v 95.000999 -2.550868 -5.502038
v 95.003212 1.110164 -6.017560
v 95.005081 -5.893968 1.777683
v 95.000626 4.204577 -4.346037
v 95.000969 -3.559597 4.903033
v 95.003334 5.990746 -1.267892
v 95.003029 -0.209517 6.121286
v 95.002792 5.438244 2.787528
v 95.000557 3.020486 5.231635
v -16.014259 -5.503695 -2.949294
v -16.005598 -1.071580 -6.077485
v -16.003014 -5.747451 2.078155
v -16.018707 4.489311 -4.362154
v -16.013115 -2.308945 5.805886
v -16.004972 6.055775 1.039293
v -16.009130 3.404948 5.144920
vn -0.0057 0.8569 0.5155
vn -0.0028 -0.4878 0.8730
vn 0.0025 -0.1276 0.9918
vn 0.0034 -0.8976 0.4407
vn -0.0060 -0.6536 -0.7568
vn 0.0038 -0.1384 -0.9904
vn 0.0006 0.4741 -0.8804
vn 0.0082 0.9393 -0.3429
vn -0.9905 -0.1363 0.0184
vn -0.9505 0.3043 -0.0633
vn 0.9072 -0.3527 -0.2293
vn 0.9666 0.1891 0.1729
vn 0.0023 0.9988 0.0483
vn -0.0026 0.9104 0.4137
vn 0.0015 0.8539 0.5205
vn 0.0014 0.5256 0.8507
vn -0.0045 0.3977 0.9175
vn 0.0047 -0.0889 0.9960
vn -0.0042 -0.3228 0.9465
vn 0.0030 -0.7495 0.6620
vn -0.0000 -0.7970 0.6040
vn -0.0011 -0.9814 0.1920
vn 0.0034 -0.9985 0.0546
vn -0.0045 -0.9362 -0.3515
vn 0.0051 -0.7830 -0.6220
vn -0.0041 -0.4766 -0.8791
vn 0.0023 -0.2805 -0.9598
vn -0.0021 0.1662 -0.9861
vn 0.0018 0.2586 -0.9660
vn -0.0022 0.7681 -0.6403
vn 0.0022 0.8269 -0.5623
vn -0.0021 0.9950 -0.1000
vn 1.0000 0.0010 -0.0001
vn 1.0000 0.0019 -0.0020
vn 1.0000 -0.0000 -0.0000
vn 1.0000 0.0006 -0.0003
vn 1.0000 -0.0015 0.0024
vn 1.0000 -0.0006 -0.0001
vn 1.0000 0.0014 0.0023
vn 1.0000 0.0001 0.0001
vn -1.0000 0.0037 0.0024
vn -1.0000 -0.0035 0.0035
vn -1.0000 0.0007 -0.0006
vn -1.0000 -0.0020 -0.0008
vn -1.0000 0.0006 -0.0006
vn -0.7624 -0.3721 -0.5293
vn -0.6691 -0.3536 -0.6536
vn -0.7806 0.1826 -0.5978
vn -0.6809 0.1190 -0.7226
vn -0.5822 0.6246 -0.5205
vn -0.7875 0.5924 -0.1698
vn -0.6874 0.7230 -0.0691
vn -0.6681 0.6779 0.3067
vn -0.7690 0.5374 0.3462
vn -0.5999 0.3193 0.7336
vn -0.7979 0.0698 0.5987
vn -0.5832 -0.2639 0.7683
vn -0.7622 -0.4769 0.4378
vn -0.7064 -0.5639 0.4278
vn -0.6721 -0.7263 0.1442
vn -0.7756 -0.6305 -0.0288
vn -0.6030 -0.7463 -0.2818
vn 0.7650 -0.2205 0.6051
vn 0.6061 -0.0687 0.7924
vn 0.7557 0.1745 0.6313
vn 0.7421 0.4762 0.4717
vn 0.6628 0.3973 0.6347
vn 0.6604 0.6402 0.3923
vn 0.7359 0.6709 0.0915
vn 0.6778 0.7346 0.0323
vn 0.6324 0.6698 -0.3892
vn 0.7011 0.5933 -0.3955
vn 0.7639 0.3072 -0.5676
vn 0.6325 0.1974 -0.7490
vn 0.7425 -0.0938 -0.6632
vn 0.6712 -0.2089 -0.7112
vn 0.7402 -0.4515 -0.4983
vn 0.6271 -0.6103 -0.4841
vn 0.7626 -0.6432 -0.0685
vn 0.6458 -0.7624 0.0413
vn 0.6304 -0.6216 0.4651
vn 0.7158 -0.5267 0.4586
s 0
usemtl mat0
f 1//1 5//1 2//1
f 6//2 2//2 3//2
f 6//3 1//3 2//3
f 4//4 6//4 3//4
f 4//5 3//5 8//5
f 7//6 4//6 8//6
f 7//7 8//7 5//7
f 1//8 7//8 5//8
f 3//9 2//9 8//9
f 5//10 8//10 2//10
f 4//11 7//11 6//11
f 1//12 6//12 7//12
f 11//13 28//13 9//13
f 11//14 9//14 10//14
f 12//15 11//15 10//15
f 13//16 12//16 10//16
f 13//17 10//17 14//17
f 16//18 13//18 14//18
f 16//19 14//19 15//19
f 19//20 16//20 15//20
f 19//21 15//21 17//21
f 19//22 17//22 18//22
f 20//23 19//23 18//23
f 20//24 18//24 21//24
f 22//25 20//25 21//25
f 22//26 21//26 23//26
f 24//27 22//27 23//27
f 24//28 23//28 25//28
f 26//29 24//29 25//29
f 26//30 25//30 27//30
f 28//31 26//31 27//31
f 28//32 27//32 9//32
f 32//33 29//33 30//33
f 35//34 31//34 33//34
f 36//35 31//35 35//35
f 36//36 32//36 30//36
f 36//37 34//37 32//37
f 36//38 30//38 31//38
f 37//39 38//39 36//39
f 37//40 36//40 35//40
f 39//41 41//41 40//41
f 40//42 44//42 42//42
f 40//43 43//43 44//43
f 41//44 43//44 40//44
f 43//45 45//45 44//45
f 21//46 39//46 40//46
f 23//47 21//47 40//47
f 25//48 40//48 42//48
f 25//49 23//49 40//49
f 27//50 25//50 42//50
f 27//51 42//51 44//51
f 27//52 44//52 9//52
f 10//53 9//53 44//53
f 10//54 44//54 45//54
f 14//55 10//55 45//55
f 43//56 14//56 45//56
f 15//57 14//57 43//57
f 15//58 43//58 41//58
f 17//59 15//59 41//59
f 18//60 17//60 41//60
f 18//61 41//61 39//61
f 21//62 18//62 39//62
f 16//63 34//63 36//63
f 13//64 16//64 36//64
f 13//65 36//65 38//65
f 12//66 38//66 37//66
f 12//67 13//67 38//67
f 11//68 12//68 37//68
f 11//69 37//69 35//69
f 11//70 35//70 28//70
f 26//71 35//71 33//71
f 26//72 28//72 35//72
f 31//73 26//73 33//73
f 24//74 26//74 31//74
f 30//75 24//75 31//75
f 22//76 24//76 30//76
f 22//77 30//77 29//77
f 20//78 22//78 29//78
f 32//79 20//79 29//79
f 19//80 20//80 32//80
f 16//81 32//81 34//81
f 16//82 19//82 32//82
