# Blender 3.4.1
# www.blender.org
mtllib ImageToStl.com_41. уплотнительное резиновое кольцо для нажимной втулки задневого концевого уплотнения.mtl
o imagetostl_mesh0
v 37.318836 -0.000482 -31.314213
v 36.664394 0.000578 -27.320145
v 26.421507 0.131311 -36.807934
v 25.700457 -0.000315 -41.335381
v 45.666515 -0.000587 -17.030020
v 13.490918 0.000792 -43.736504
v 43.396252 0.000312 -14.208016
v 13.517893 -0.000173 -46.701588
v 45.117405 0.157855 -3.346960
v 2.763781 -0.000080 -48.494888
v -1.923529 0.000296 -45.622402
v 48.806427 -0.000970 0.827446
v 44.797478 0.125773 6.949144
v -9.793528 0.117665 -47.907181
v -16.712814 0.000703 -42.583595
v 45.809788 -0.000173 16.286047
v 41.038139 0.000551 20.162874
v -18.735287 0.127536 -45.137501
v 39.536320 -0.000412 28.424669
v -28.429092 0.000121 -35.648964
v -32.265175 -0.000713 -36.560883
v 32.936661 0.142870 31.075552
v 30.027811 -0.000173 38.237450
v -38.268639 0.000949 -25.151594
v 23.801003 0.000238 38.948578
v -40.988182 -0.000087 -26.064562
v 21.539371 0.175269 43.915375
v -45.242207 0.134939 -18.448153
v -44.838863 0.000639 -9.064377
v 11.272327 0.000386 44.269169
v 10.815201 -0.000137 47.384518
v -47.806923 0.155912 -10.366735
v 1.505500 0.134200 48.836521
v -2.134266 0.144570 45.285938
v -48.542683 -0.000137 2.422660
v -44.985821 0.150210 5.033800
v -12.830224 -0.000587 47.019543
v -11.609385 0.000312 44.162479
v -46.158138 -0.000412 15.508335
v -42.272087 0.000578 17.428106
v -23.100752 0.000162 39.328690
v -27.658581 0.094742 40.269104
v -38.618023 -0.000560 29.733873
v -33.762016 0.000551 30.834991
v 29.983685 1.999422 -34.520237
v 28.128351 1.897214 -39.974464
v 40.076195 1.907151 -27.951504
v 38.103577 1.999925 -24.993076
v 19.224453 1.850905 -40.947277
v 17.798058 2.000482 -45.348698
v 42.875317 1.999795 -15.605334
v 46.685059 2.000587 -13.998479
v 10.225415 1.844871 -44.112637
v 45.370148 1.999879 -4.539961
v 7.125946 1.848551 -48.374699
v 48.732174 1.898425 -2.793259
v 1.149369 1.845074 -45.232979
v -6.882195 2.000333 -48.184650
v 44.887241 1.999422 8.706519
v 47.535610 2.000333 10.463790
v -11.272328 1.999634 -44.269188
v -20.003071 2.000218 -44.331390
v 39.202450 1.999474 23.533823
v 42.844082 1.857565 23.498505
v -22.492283 1.894705 -39.405838
v -32.234871 2.000482 -36.526546
v 38.641037 1.871012 29.890070
v -32.091061 1.999838 -32.412254
v 27.941105 1.999090 36.282085
v 29.088587 2.000333 39.025368
v -37.894833 1.865914 -24.725647
v -41.500065 2.000234 -25.360170
v 17.756712 2.000147 45.243336
v -42.430550 1.999904 -16.652784
v 14.585242 1.818210 42.844707
v -46.563026 1.885033 -14.761475
v -45.691818 1.999050 -3.057612
v 4.279983 1.859955 48.721352
v 4.897632 1.999688 45.399509
v -48.880795 1.914826 0.129666
v -1.211714 2.000137 48.587994
v -6.473288 1.999925 45.106911
v -43.859325 1.999688 12.706766
v -47.703876 1.814988 10.888115
v -14.872375 1.851801 46.604805
v -17.411259 1.999670 42.213131
v -22.917025 1.875769 43.216480
v -44.476830 1.873633 20.270397
v -37.574650 1.999449 26.054104
v -28.170403 1.999848 35.872272
v -29.321644 2.000069 38.709980
v -37.256828 2.000218 31.262184
v -44.871559 1.499590 4.490086
v -44.992924 0.500087 -1.964206
v -42.165592 1.499074 16.173758
v -42.951321 0.500087 13.542719
v -39.501877 0.486431 21.783943
v -36.777550 1.499778 26.049206
v -32.924129 0.516285 30.837343
v -29.295572 1.499074 34.370003
v -23.250015 0.500927 38.716461
v -20.795401 1.499914 39.947124
v -13.471637 1.487355 43.008034
v -13.066064 0.489376 43.132896
v -3.609601 1.513570 44.965645
v 3.707794 0.500481 44.957436
v 5.320995 1.499914 44.720337
v 15.773584 0.500926 42.316921
v 24.189911 1.499519 38.075806
v 25.650229 0.500223 37.056915
v 31.243900 1.499911 32.435165
v 36.549423 1.511281 26.389486
v 37.460899 0.500480 25.131655
v 41.069763 1.476278 18.531368
v 42.919369 0.500926 14.051876
v 43.887222 1.510625 10.250884
v 45.154446 1.499074 -0.776892
v 43.468952 1.499777 -11.899548
v 43.005207 0.500481 -13.618775
v 39.777054 1.499520 -21.276861
v 38.870129 0.500223 -22.809259
v 33.296814 1.499518 -30.434210
v 33.579880 0.500223 -30.058956
v 25.650229 1.499778 -37.056915
v 20.366629 0.486430 -40.250950
v 9.831906 0.516285 -44.025829
v -0.228056 0.489375 -45.067909
v -7.500461 1.499519 -44.482155
v -10.243869 0.516285 -43.931805
v -18.244825 1.499519 -41.255852
v -18.778351 0.500086 -40.934032
v -26.606199 0.500482 -36.428410
v -31.254869 1.499518 -32.527710
v -34.772442 0.500481 -28.736670
v -40.249207 0.500222 -20.276846
v -41.910515 1.499074 -16.823677
v -43.797268 0.500481 -10.803623
v -44.730682 1.499736 -5.605481
v -49.120499 0.497418 0.122917
v -47.861839 0.487025 10.786801
v -45.229946 0.508727 18.974506
v -41.161476 0.497823 26.722725
v -39.989948 1.488431 28.445004
v -35.050335 0.497824 34.348881
v -32.776737 1.500522 36.584782
v -18.964521 0.479293 45.350845
v -7.218016 0.512285 48.554245
v -6.105796 1.500445 48.723068
v 11.154417 0.482268 47.836857
v 13.052760 1.485224 47.354088
v 24.240742 1.500524 42.721741
v 30.912432 0.499475 38.173058
v 33.124107 1.500240 36.208904
v 39.142509 0.499554 29.649313
v 44.702923 0.512284 20.279615
v 46.860397 1.485225 14.727084
v 48.191238 0.482267 9.507369
v 48.921001 1.513767 3.880479
v 49.052505 0.511570 -1.471712
v 47.870365 1.502178 -10.807381
v 47.818848 0.497823 -11.033090
v 44.779781 1.502176 -20.078415
v 44.202717 0.497418 -21.423311
v 36.711552 0.478179 -32.718590
v 34.483414 1.485223 -34.981113
v 26.430748 0.514774 -41.402889
v 17.951685 1.500621 -45.740089
v 14.264992 0.478177 -47.061172
v 0.856905 0.499478 -49.112389
v -4.657194 1.521820 -48.954620
v -16.550961 1.488432 -46.199348
v -27.502790 1.521823 -40.765675
v -26.753376 0.497417 -41.195816
v -34.373085 0.490232 -34.976406
v -36.630436 1.488430 -32.657703
v -40.731064 0.514775 -27.454769
v -43.027866 1.517733 -23.693638
v -48.719109 1.487714 -6.005218
vn -0.0113 -0.9999 -0.0016
vn -0.0291 -0.9990 0.0337
vn -0.0004 -1.0000 0.0002
vn -0.0060 -0.9995 0.0300
vn -0.0003 -1.0000 0.0001
vn -0.0002 -1.0000 0.0003
vn 0.0147 -0.9998 0.0122
vn -0.0536 -0.9985 0.0094
vn -0.0001 -1.0000 0.0003
vn -0.0000 -1.0000 0.0002
vn -0.0382 -0.9993 -0.0043
vn -0.0101 -0.9998 -0.0164
vn -0.0062 -0.9995 -0.0300
vn -0.0447 -0.9990 -0.0086
vn -0.0102 -0.9999 -0.0124
vn -0.0132 -0.9991 -0.0391
vn -0.0003 -1.0000 -0.0002
vn 0.0027 -0.9999 -0.0106
vn -0.0200 -0.9992 -0.0338
vn -0.0235 -0.9997 -0.0044
vn -0.0355 -0.9988 -0.0344
vn 0.0002 -1.0000 0.0002
vn -0.0025 -0.9998 -0.0210
vn 0.0003 -1.0000 0.0003
vn 0.0042 -0.9993 0.0371
vn -0.0047 -0.9999 0.0151
vn -0.0316 -0.9994 -0.0129
vn 0.0185 -0.9989 0.0436
vn 0.0171 -0.9999 0.0023
vn -0.0469 -0.9988 -0.0123
vn -0.0148 -0.9999 -0.0023
vn -0.0102 -0.9999 0.0075
vn -0.0458 -0.9988 -0.0148
vn 0.0342 -0.9994 0.0110
vn 0.0112 -0.9998 -0.0144
vn 0.0145 -0.9999 0.0059
vn 0.0488 -0.9988 -0.0089
vn 0.0070 -0.9999 -0.0136
vn 0.0001 -1.0000 -0.0003
vn -0.0163 -0.9996 0.0216
vn 0.0004 -1.0000 -0.0002
vn 0.0003 -1.0000 -0.0002
vn -0.0165 -0.9997 0.0206
vn -0.0024 -0.9999 0.0115
vn 0.0274 0.9992 -0.0280
vn 0.0206 0.9996 -0.0176
vn -0.0092 0.9993 0.0370
vn -0.0033 0.9998 -0.0176
vn 0.0267 0.9996 -0.0136
vn 0.0033 1.0000 -0.0082
vn -0.0142 0.9992 0.0386
vn -0.0002 1.0000 -0.0000
vn -0.0182 0.9997 0.0141
vn 0.0281 0.9996 0.0040
vn -0.0001 1.0000 0.0009
vn 0.0111 0.9997 0.0223
vn 0.0296 0.9996 0.0011
vn 0.0045 1.0000 -0.0073
vn 0.0136 0.9998 0.0155
vn 0.0001 1.0000 0.0003
vn -0.0003 1.0000 -0.0001
vn 0.0392 0.9989 0.0250
vn -0.0001 0.9998 0.0214
vn 0.0202 0.9993 0.0316
vn 0.0392 0.9990 0.0236
vn 0.0108 0.9999 -0.0002
vn 0.0254 0.9994 0.0224
vn 0.0094 0.9999 -0.0044
vn -0.0219 0.9998 0.0009
vn 0.0325 0.9991 0.0270
vn -0.0002 1.0000 -0.0004
vn 0.0365 0.9993 0.0039
vn -0.0308 0.9989 -0.0351
vn -0.0292 0.9996 -0.0031
vn -0.0312 0.9995 -0.0074
vn 0.0313 0.9984 0.0478
vn -0.0223 0.9987 -0.0462
vn -0.0336 0.9994 -0.0072
vn 0.0244 0.9986 0.0465
vn -0.0000 1.0000 -0.0001
vn -0.0237 0.9997 0.0027
vn -0.0552 0.9984 0.0153
vn -0.0139 0.9997 0.0209
vn -0.0105 0.9992 0.0397
vn -0.0148 0.9990 0.0422
vn -0.0538 0.9985 0.0123
vn -0.0301 0.9994 0.0142
vn -0.0172 0.9994 0.0292
vn 0.0151 0.9999 0.0061
vn -0.0191 0.9998 0.0010
vn 0.0001 1.0000 -0.0002
vn 0.0001 1.0000 -0.0001
vn 0.9962 -0.0865 -0.0053
vn 0.9602 -0.1688 -0.2226
vn 0.9599 -0.1709 -0.2223
vn 0.8861 0.2786 -0.3704
vn 0.8301 -0.3255 -0.4529
vn 0.7738 0.2901 -0.5631
vn 0.7036 -0.3235 -0.6327
vn 0.5757 0.4124 -0.7061
vn 0.5228 -0.3030 -0.7968
vn 0.3975 0.0469 -0.9164
vn 0.3792 0.1851 -0.9066
vn 0.1925 -0.0221 -0.9810
vn 0.1946 -0.0435 -0.9799
vn -0.0379 -0.2662 -0.9632
vn -0.0273 -0.1889 -0.9816
vn -0.2097 0.1947 -0.9582
vn -0.2006 0.0925 -0.9753
vn -0.4455 -0.0436 -0.8942
vn -0.4597 0.2084 -0.8633
vn -0.6203 -0.1155 -0.7758
vn -0.6349 -0.0182 -0.7724
vn -0.7243 -0.2661 -0.6361
vn -0.7962 0.0337 -0.6040
vn -0.8560 -0.1600 -0.4917
vn -0.8523 0.3121 -0.4199
vn -0.9039 -0.2960 -0.3088
vn -0.9667 -0.0297 -0.2541
vn -0.9282 -0.3567 -0.1063
vn -0.9958 0.0863 -0.0307
vn -0.9570 -0.2514 0.1450
vn -0.9738 0.1016 0.2036
vn -0.9127 -0.1947 0.3593
vn -0.8945 0.1947 0.4025
vn -0.8078 -0.0075 0.5894
vn -0.8078 -0.1435 0.5717
vn -0.6860 0.0773 0.7234
vn -0.6378 -0.2255 0.7364
vn -0.4960 -0.1232 0.8595
vn -0.5178 0.0032 0.8555
vn -0.3253 0.1994 0.9243
vn -0.3326 0.1593 0.9295
vn -0.1219 0.1006 0.9874
vn -0.1011 0.2208 0.9701
vn 0.0850 0.0348 0.9958
vn 0.1102 0.2333 0.9661
vn 0.2779 -0.2574 0.9255
vn 0.3285 0.1260 0.9360
vn 0.4988 0.0128 0.8666
vn 0.3825 0.5128 0.7686
vn 0.6139 -0.1610 0.7728
vn 0.6475 0.3288 0.6875
vn 0.7442 -0.1841 0.6420
vn 0.7988 0.3075 0.5171
vn 0.8905 -0.0719 0.4492
vn 0.8853 0.3262 0.3316
vn 0.9118 -0.3408 0.2292
vn 0.9661 0.2226 0.1307
vn 0.9783 -0.2069 0.0136
vn -0.9872 0.1085 0.1166
vn -0.9802 0.1653 0.1088
vn -0.9483 0.0896 0.3046
vn -0.9250 0.2096 0.3169
vn -0.8844 0.0470 0.4644
vn -0.8585 0.1812 0.4797
vn -0.7700 -0.1622 0.6171
vn -0.7313 0.2138 0.6477
vn -0.6103 -0.2738 0.7434
vn -0.5570 0.1241 0.8212
vn -0.4991 -0.0964 0.8612
vn -0.3697 0.2984 0.8799
vn -0.2616 -0.0974 0.9603
vn -0.2303 0.0937 0.9686
vn -0.0376 -0.1270 0.9912
vn -0.0023 0.0702 0.9975
vn 0.1062 -0.1048 0.9888
vn 0.1588 0.1678 0.9730
vn 0.3407 -0.2029 0.9180
vn 0.3820 0.0525 0.9227
vn 0.5055 -0.3026 0.8080
vn 0.5699 0.2662 0.7774
vn 0.7016 -0.2210 0.6774
vn 0.7396 0.1555 0.6549
vn 0.8180 0.2048 0.5375
vn 0.8595 -0.0327 0.5100
vn 0.8774 0.2795 0.3899
vn 0.8988 -0.3269 0.2920
vn 0.9334 0.3114 0.1781
vn 0.9594 -0.2722 0.0745
vn 0.9774 0.2110 -0.0155
vn 0.9863 0.1210 -0.1120
vn 0.9915 -0.0221 -0.1279
vn 0.9484 0.0224 -0.3162
vn 0.9395 -0.1019 -0.3270
vn 0.8486 0.1789 -0.4978
vn 0.8276 -0.1183 -0.5487
vn 0.7434 0.2784 -0.6082
vn 0.6190 -0.2795 -0.7340
vn 0.6191 0.0497 -0.7838
vn 0.4620 0.2963 -0.8359
vn 0.3985 -0.3326 -0.8547
vn 0.2328 0.3387 -0.9117
vn 0.1491 -0.1590 -0.9760
vn 0.0367 0.3428 -0.9387
vn -0.0925 -0.3554 -0.9301
vn -0.2248 0.0993 -0.9693
vn -0.2859 -0.2606 -0.9221
vn -0.4384 0.0559 -0.8970
vn -0.4444 0.0143 -0.8957
vn -0.6264 -0.1359 -0.7676
vn -0.6473 0.2267 -0.7278
vn -0.7447 -0.2236 -0.6288
vn -0.7752 0.3032 -0.5542
vn -0.8474 -0.3013 -0.4372
vn -0.9257 0.0801 -0.3697
vn -0.9500 -0.0823 -0.3013
vn -0.9670 0.1023 -0.2335
vn -0.9501 -0.2923 -0.1095
vn -0.9853 0.1668 -0.0376
vn -0.8462 -0.5234 0.0994
vn -0.4983 -0.8623 0.0908
vn -0.8972 -0.3338 0.2893
vn -0.4520 -0.8593 0.2396
vn -0.4832 -0.8383 0.2525
vn -0.7646 -0.2002 0.6127
vn -0.3257 -0.8796 0.3468
vn -0.1696 -0.9176 0.3596
vn -0.2631 -0.0081 0.9647
vn -0.0535 -0.8717 0.4871
vn 0.0974 -0.7163 0.6909
vn 0.2165 -0.7445 0.6316
vn 0.4134 -0.6496 0.6381
vn 0.4639 -0.7634 0.4495
vn 0.4756 -0.7502 0.4592
vn 0.7471 -0.4959 0.4427
vn 0.4586 -0.8564 0.2370
vn 0.8967 -0.3333 0.2913
vn 0.4108 -0.9082 0.0797
vn 0.9887 -0.1283 0.0772
vn 0.6863 -0.7220 -0.0875
vn 0.4124 -0.9081 -0.0725
vn 0.9373 -0.1227 -0.3262
vn 0.3999 -0.8863 -0.2337
vn 0.7270 -0.4898 -0.4813
vn 0.3809 -0.8124 -0.4416
vn 0.4520 -0.7114 -0.5381
vn 0.3438 -0.5839 -0.7355
vn 0.2437 -0.7965 -0.5533
vn 0.1164 -0.7065 -0.6980
vn 0.1260 -0.5442 -0.8294
vn -0.0341 -0.8259 -0.5629
vn -0.2166 -0.9093 -0.3553
vn -0.6182 -0.2091 -0.7577
vn -0.4874 -0.7712 -0.4095
vn -0.4596 -0.8018 -0.3819
vn -0.6712 -0.6461 -0.3634
vn -0.5510 -0.8334 -0.0419
vn -0.4567 0.8409 0.2903
vn -0.7069 0.3295 0.6259
vn -0.3577 0.8525 0.3811
vn -0.5207 0.4056 0.7512
vn -0.0772 0.8816 0.4656
vn -0.0129 0.3765 0.9263
vn 0.1091 0.8821 0.4583
vn 0.3664 0.2842 0.8860
vn 0.2318 0.8762 0.4225
vn 0.5763 0.2235 0.7861
vn 0.3618 0.8573 0.3662
vn 0.4709 0.8638 0.1790
vn 0.9501 0.2540 0.1812
vn 0.4823 0.8752 0.0368
vn 0.6113 0.7845 -0.1045
vn 0.9243 0.2254 -0.3081
vn 0.4163 0.8863 -0.2031
vn 0.2753 0.9214 -0.2743
vn 0.3592 0.6413 -0.6780
vn 0.2008 0.6415 -0.7404
vn 0.0021 0.8521 -0.5234
vn -0.2021 0.4553 -0.8671
vn -0.1493 0.8482 -0.5082
vn -0.4276 0.2674 -0.8635
vn -0.2270 0.9066 -0.3557
vn -0.6633 0.0537 -0.7465
vn -0.3766 0.8721 -0.3125
vn -0.7082 0.4912 -0.5071
vn -0.5202 0.8197 -0.2396
vn -0.4622 0.8837 -0.0737
vn 0.9154 -0.3468 -0.2046
vn 0.4533 -0.8706 -0.1912
vn 0.8442 -0.0093 -0.5359
vn 0.4909 -0.7960 -0.3541
vn 0.4412 -0.7144 -0.5431
vn 0.4936 -0.6103 -0.6196
vn 0.3179 -0.5996 -0.7345
vn 0.2726 -0.7111 -0.6481
vn 0.0736 -0.8564 -0.5110
vn -0.0701 0.2633 -0.9622
vn -0.1000 -0.8837 -0.4572
vn -0.3898 -0.0746 -0.9179
vn -0.2491 -0.8480 -0.4677
vn -0.5843 -0.4339 -0.6858
vn -0.7852 0.2013 -0.5856
vn -0.3971 -0.8967 -0.1957
vn -0.9194 0.2964 -0.2587
vn -0.7070 -0.6966 0.1221
vn -0.5848 -0.7673 0.2632
vn -0.8730 -0.1925 0.4482
vn -0.3998 -0.8689 0.2917
vn -0.6691 -0.1850 0.7198
vn -0.4385 0.3871 0.8111
vn -0.1593 -0.8850 0.4375
vn -0.1162 -0.2916 0.9495
vn -0.0797 -0.6140 0.7853
vn 0.0602 -0.8327 0.5504
vn 0.2011 0.0361 0.9789
vn 0.1673 -0.8658 0.4716
vn 0.3896 -0.6245 0.6769
vn 0.4528 -0.4580 0.7650
vn 0.4054 -0.8065 0.4304
vn 0.7157 -0.1944 0.6708
vn 0.3791 -0.8922 0.2454
vn 0.7560 -0.5901 0.2832
vn 0.9256 -0.0192 0.3780
vn 0.5255 -0.8478 0.0710
vn 0.9826 0.1855 0.0083
vn 0.9870 -0.1128 -0.1147
vn 0.4867 0.8663 -0.1127
vn 0.8992 0.1101 -0.4234
vn 0.5090 0.8147 -0.2778
vn 0.4777 0.7663 -0.4295
vn 0.6579 0.4123 -0.6302
vn 0.3383 0.7871 -0.5158
vn 0.4598 0.4240 -0.7803
vn 0.2100 0.8407 -0.4991
vn 0.2318 0.4229 -0.8760
vn 0.1105 0.8157 -0.5678
vn 0.0235 0.4042 -0.9144
vn -0.0152 0.8008 -0.5988
vn -0.1566 0.7464 -0.6468
vn -0.4399 0.0984 -0.8926
vn -0.2926 0.8835 -0.3659
vn -0.7473 0.1080 -0.6556
vn -0.7349 0.1964 -0.6492
vn -0.4300 0.8672 -0.2512
vn -0.9299 0.0900 -0.3565
vn -0.6933 0.6820 -0.2331
vn -0.5112 0.8574 -0.0596
vn -0.9873 0.1548 -0.0360
vn -0.5354 0.8407 0.0812
vn -0.8822 0.4267 0.1989
vn -0.4909 0.8495 0.1933
vn -0.8322 0.3584 0.4230
vn -0.4405 0.8419 0.3117
vn -0.7370 0.2496 0.6281
vn -0.3126 0.8786 0.3610
vn -0.5112 0.1007 0.8535
vn 0.0783 0.1726 0.9819
vn 0.1420 0.8696 0.4729
vn 0.3978 -0.0188 0.9173
vn 0.4625 0.6286 0.6253
vn 0.5108 0.7616 0.3989
vn 0.7027 0.5983 0.3849
vn 0.7120 0.6810 0.1708
vn 0.8232 0.5287 0.2069
vn 0.4748 0.8801 0.0066
s 0
usemtl mat0
f 2//1 3//1 1//1
f 1//2 3//2 4//2
f 5//3 2//3 1//3
f 3//4 6//4 4//4
f 5//5 7//5 2//5
f 4//6 6//6 8//6
f 5//7 9//7 7//7
f 12//8 9//8 5//8
f 8//9 6//9 10//9
f 6//10 11//10 10//10
f 12//11 13//11 9//11
f 10//12 11//12 14//12
f 11//13 15//13 14//13
f 16//14 13//14 12//14
f 16//15 17//15 13//15
f 14//16 15//16 18//16
f 19//17 17//17 16//17
f 18//18 20//18 21//18
f 15//19 20//19 18//19
f 19//20 22//20 17//20
f 19//21 23//21 22//21
f 24//22 21//22 20//22
f 23//23 25//23 22//23
f 24//24 26//24 21//24
f 23//25 27//25 25//25
f 24//26 28//26 26//26
f 24//27 29//27 28//27
f 25//28 27//28 30//28
f 27//29 31//29 30//29
f 29//30 32//30 28//30
f 31//31 33//31 30//31
f 30//32 33//32 34//32
f 29//33 35//33 32//33
f 36//34 35//34 29//34
f 33//35 37//35 34//35
f 34//36 37//36 38//36
f 36//37 39//37 35//37
f 40//38 39//38 36//38
f 38//39 37//39 41//39
f 37//40 42//40 41//40
f 40//41 43//41 39//41
f 44//42 43//42 40//42
f 41//43 42//43 44//43
f 42//44 43//44 44//44
f 45//45 47//45 46//45
f 48//46 47//46 45//46
f 49//47 46//47 50//47
f 49//48 45//48 46//48
f 51//49 47//49 48//49
f 51//50 52//50 47//50
f 53//51 49//51 50//51
f 54//52 52//52 51//52
f 53//53 50//53 55//53
f 54//54 56//54 52//54
f 57//55 53//55 55//55
f 57//56 55//56 58//56
f 59//57 56//57 54//57
f 59//58 60//58 56//58
f 61//59 57//59 58//59
f 61//60 58//60 62//60
f 63//61 60//61 59//61
f 63//62 64//62 60//62
f 65//63 61//63 62//63
f 65//64 62//64 66//64
f 67//65 64//65 63//65
f 68//66 65//66 66//66
f 69//67 67//67 63//67
f 70//68 67//68 69//68
f 71//69 68//69 66//69
f 72//70 71//70 66//70
f 73//71 70//71 69//71
f 72//72 74//72 71//72
f 73//73 69//73 75//73
f 76//74 74//74 72//74
f 76//75 77//75 74//75
f 78//76 75//76 79//76
f 78//77 73//77 75//77
f 80//78 77//78 76//78
f 81//79 78//79 79//79
f 81//80 79//80 82//80
f 80//81 83//81 77//81
f 84//82 83//82 80//82
f 85//83 81//83 82//83
f 85//84 82//84 86//84
f 87//85 85//85 86//85
f 88//86 83//86 84//86
f 88//87 89//87 83//87
f 87//88 86//88 90//88
f 91//89 87//89 90//89
f 92//90 89//90 88//90
f 92//91 90//91 89//91
f 92//92 91//92 90//92
f 94//93 93//93 36//93
f 36//94 95//94 96//94
f 93//95 95//95 36//95
f 96//96 95//96 97//96
f 95//97 98//97 97//97
f 97//98 98//98 99//98
f 98//99 100//99 99//99
f 99//100 100//100 101//100
f 100//101 102//101 101//101
f 101//102 103//102 104//102
f 102//103 103//103 101//103
f 104//104 105//104 34//104
f 103//105 105//105 104//105
f 34//106 105//106 106//106
f 105//107 107//107 106//107
f 106//108 75//108 108//108
f 107//109 75//109 106//109
f 75//110 109//110 108//110
f 108//111 109//111 110//111
f 109//112 111//112 110//112
f 110//113 111//113 22//113
f 111//114 112//114 22//114
f 22//115 112//115 113//115
f 112//116 114//116 113//116
f 113//117 114//117 115//117
f 114//118 116//118 115//118
f 115//119 116//119 13//119
f 116//120 117//120 13//120
f 13//121 117//121 9//121
f 117//122 118//122 9//122
f 9//123 118//123 119//123
f 118//124 120//124 119//124
f 119//125 120//125 121//125
f 121//126 122//126 123//126
f 120//127 122//127 121//127
f 123//128 122//128 3//128
f 122//129 124//129 3//129
f 3//130 124//130 125//130
f 124//131 49//131 125//131
f 49//132 53//132 125//132
f 125//133 53//133 126//133
f 53//134 57//134 126//134
f 126//135 57//135 127//135
f 57//136 128//136 127//136
f 127//137 128//137 129//137
f 128//138 130//138 129//138
f 129//139 130//139 131//139
f 131//140 130//140 132//140
f 130//141 65//141 132//141
f 65//142 133//142 132//142
f 132//143 133//143 134//143
f 133//144 71//144 134//144
f 134//145 71//145 135//145
f 71//146 136//146 135//146
f 135//147 136//147 137//147
f 136//148 138//148 137//148
f 137//149 138//149 94//149
f 138//150 93//150 94//150
f 84//151 139//151 140//151
f 84//152 80//152 139//152
f 84//153 140//153 141//153
f 88//154 84//154 141//154
f 88//155 141//155 142//155
f 143//156 88//156 142//156
f 143//157 142//157 144//157
f 145//158 143//158 144//158
f 145//159 144//159 42//159
f 87//160 145//160 42//160
f 87//161 42//161 146//161
f 85//162 87//162 146//162
f 85//163 146//163 147//163
f 148//164 85//164 147//164
f 148//165 147//165 33//165
f 78//166 148//166 33//166
f 78//167 33//167 149//167
f 150//168 78//168 149//168
f 150//169 149//169 27//169
f 151//170 150//170 27//170
f 151//171 27//171 152//171
f 153//172 151//172 152//172
f 153//173 152//173 154//173
f 67//174 153//174 154//174
f 64//175 67//175 154//175
f 64//176 154//176 155//176
f 156//177 64//177 155//177
f 156//178 155//178 157//178
f 158//179 156//179 157//179
f 158//180 157//180 159//180
f 56//181 158//181 159//181
f 160//182 56//182 159//182
f 160//183 159//183 161//183
f 162//184 160//184 161//184
f 162//185 161//185 163//185
f 47//186 162//186 163//186
f 47//187 163//187 164//187
f 165//188 47//188 164//188
f 165//189 164//189 166//189
f 46//190 165//190 166//190
f 167//191 46//191 166//191
f 167//192 166//192 168//192
f 55//193 167//193 168//193
f 55//194 168//194 169//194
f 170//195 55//195 169//195
f 170//196 169//196 14//196
f 171//197 170//197 14//197
f 171//198 14//198 18//198
f 172//199 18//199 173//199
f 172//200 171//200 18//200
f 172//201 173//201 174//201
f 175//202 172//202 174//202
f 175//203 174//203 176//203
f 177//204 175//204 176//204
f 177//205 176//205 28//205
f 76//206 177//206 28//206
f 76//207 28//207 32//207
f 178//208 76//208 32//208
f 178//209 32//209 139//209
f 80//210 178//210 139//210
f 140//211 139//211 35//211
f 39//212 140//212 35//212
f 141//213 140//213 39//213
f 142//214 39//214 43//214
f 142//215 141//215 39//215
f 144//216 142//216 43//216
f 144//217 43//217 42//217
f 146//218 42//218 37//218
f 147//219 146//219 37//219
f 147//220 37//220 33//220
f 149//221 33//221 31//221
f 27//222 149//222 31//222
f 152//223 27//223 23//223
f 19//224 152//224 23//224
f 154//225 152//225 19//225
f 155//226 154//226 19//226
f 155//227 19//227 16//227
f 157//228 155//228 16//228
f 157//229 16//229 12//229
f 159//230 157//230 12//230
f 161//231 159//231 12//231
f 161//232 12//232 5//232
f 163//233 161//233 5//233
f 163//234 5//234 1//234
f 164//235 163//235 1//235
f 4//236 164//236 1//236
f 166//237 164//237 4//237
f 168//238 166//238 4//238
f 8//239 168//239 4//239
f 10//240 168//240 8//240
f 169//241 168//241 10//241
f 14//242 169//242 10//242
f 21//243 173//243 18//243
f 174//244 173//244 21//244
f 176//245 174//245 21//245
f 176//246 21//246 26//246
f 28//247 176//247 26//247
f 139//248 32//248 35//248
f 92//249 88//249 143//249
f 145//250 92//250 143//250
f 91//251 92//251 145//251
f 87//252 91//252 145//252
f 81//253 85//253 148//253
f 78//254 81//254 148//254
f 73//255 78//255 150//255
f 151//256 73//256 150//256
f 70//257 73//257 151//257
f 153//258 70//258 151//258
f 67//259 70//259 153//259
f 60//260 64//260 156//260
f 158//261 60//261 156//261
f 56//262 60//262 158//262
f 52//263 56//263 160//263
f 52//264 160//264 162//264
f 47//265 52//265 162//265
f 46//266 47//266 165//266
f 167//267 50//267 46//267
f 50//268 167//268 55//268
f 58//269 55//269 170//269
f 58//270 170//270 171//270
f 62//271 58//271 171//271
f 172//272 62//272 171//272
f 66//273 62//273 172//273
f 66//274 172//274 175//274
f 72//275 66//275 175//275
f 177//276 72//276 175//276
f 76//277 72//277 177//277
f 80//278 76//278 178//278
f 40//279 36//279 96//279
f 40//280 96//280 97//280
f 44//281 40//281 97//281
f 99//282 44//282 97//282
f 44//283 99//283 101//283
f 41//284 44//284 101//284
f 38//285 101//285 104//285
f 38//286 41//286 101//286
f 34//287 38//287 104//287
f 30//288 34//288 106//288
f 30//289 106//289 108//289
f 25//290 30//290 108//290
f 25//291 108//291 110//291
f 22//292 25//292 110//292
f 17//293 22//293 113//293
f 17//294 113//294 115//294
f 13//295 17//295 115//295
f 7//296 9//296 119//296
f 7//297 119//297 121//297
f 2//298 7//298 121//298
f 2//299 121//299 123//299
f 3//300 2//300 123//300
f 6//301 3//301 125//301
f 126//302 6//302 125//302
f 11//303 6//303 126//303
f 11//304 126//304 127//304
f 129//305 11//305 127//305
f 15//306 11//306 129//306
f 15//307 129//307 131//307
f 15//308 131//308 132//308
f 20//309 15//309 132//309
f 20//310 132//310 134//310
f 24//311 20//311 134//311
f 24//312 134//312 135//312
f 29//313 135//313 137//313
f 29//314 24//314 135//314
f 29//315 137//315 94//315
f 36//316 29//316 94//316
f 93//317 77//317 83//317
f 95//318 93//318 83//318
f 95//319 83//319 89//319
f 98//320 95//320 89//320
f 100//321 98//321 89//321
f 100//322 89//322 90//322
f 102//323 100//323 90//323
f 102//324 90//324 86//324
f 103//325 102//325 86//325
f 103//326 86//326 82//326
f 105//327 103//327 82//327
f 105//328 82//328 79//328
f 107//329 105//329 79//329
f 75//330 107//330 79//330
f 109//331 75//331 69//331
f 111//332 109//332 69//332
f 112//333 111//333 69//333
f 112//334 69//334 63//334
f 114//335 112//335 63//335
f 114//336 63//336 59//336
f 116//337 114//337 59//337
f 117//338 116//338 59//338
f 117//339 59//339 54//339
f 118//340 117//340 54//340
f 51//341 118//341 54//341
f 120//342 118//342 51//342
f 120//343 51//343 48//343
f 122//344 120//344 48//344
f 122//345 48//345 45//345
f 124//346 122//346 45//346
f 124//347 45//347 49//347
f 61//348 128//348 57//348
f 130//349 128//349 61//349
f 130//350 61//350 65//350
f 133//351 65//351 68//351
f 71//352 133//352 68//352
f 74//353 136//353 71//353
f 136//354 74//354 77//354
f 138//355 136//355 77//355
f 93//356 138//356 77//356
