# Blender 3.4.1
# www.blender.org
mtllib ImageToStl.com_63. шпильки м12-6шт. для крепления передней крышки подшипника со стороны всасывания.mtl
o imagetostl_mesh0
v 33.253910 6.025103 -0.290041
v -10.244439 5.831346 1.481902
v 33.250336 5.837673 1.425376
v 33.252602 5.320848 2.814653
v -10.255759 5.269923 2.898696
v -10.254845 4.054812 4.470614
v 33.245049 4.221443 4.305101
v 33.256699 2.483723 5.493960
v -10.244151 2.474590 5.484251
v -10.252600 1.045393 5.923151
v 33.246498 0.765273 5.965821
v -10.249396 -0.369886 5.997663
v -10.248146 -2.131625 5.649647
v 33.250286 -0.823355 5.964816
v -10.247062 -4.232425 4.321612
v 33.250732 -2.823563 5.337643
v 33.249725 -4.461276 4.044040
v -10.256658 -5.549736 2.348752
v 33.255043 -5.558395 2.343059
v -10.246614 -6.038284 0.100504
v 33.251457 -5.971070 0.665929
v 33.250019 -5.968340 -0.803808
v -10.247930 -5.688276 -1.983585
v 33.246498 -5.549191 -2.320160
v -10.249852 -4.670927 -3.826987
v 33.249851 -4.579945 -3.935416
v -10.248713 -3.262161 -5.050814
v 33.247551 -2.683146 -5.413694
v -10.253232 -1.671032 -5.796023
v 33.251671 -0.973752 -5.928623
v -10.251109 0.385063 -6.009093
v 33.250286 0.525011 -5.998442
v -10.246584 2.486351 -5.510320
v 33.247314 2.574755 -5.465910
v -10.253909 4.414581 -4.110652
v 33.252419 4.266417 -4.246078
v -10.250732 5.647311 -2.137948
v 33.253399 5.462146 -2.574710
v -10.252419 6.018596 -0.089416
v 35.000164 -2.795263 -3.220309
v 35.000206 -3.634924 -2.234510
v 35.000996 -1.355232 -4.070908
v 35.000813 0.733506 -4.228666
v 35.000614 -4.032207 1.467603
v 35.001171 -4.246859 -0.616549
v 35.000130 2.301447 -3.590638
v 35.000183 -3.136407 2.889956
v 35.000420 3.403175 -2.594033
v 35.000839 -1.795550 3.897042
v 35.000141 4.067048 -1.281771
v 35.000214 -0.126337 4.264390
v 35.000404 4.273564 0.186334
v 35.000790 1.578434 3.992122
v 35.000168 3.939420 1.632343
v 35.000431 3.153948 2.889719
v -12.000391 -2.320183 -3.591749
v -12.000141 -3.390714 -2.586948
v -12.000945 -4.129357 -1.147465
v -12.000177 -0.925221 -4.165576
v -12.000429 0.558589 -4.240970
v -12.000535 -4.162238 1.034498
v -12.000823 2.356906 -3.586575
v -12.000769 -3.160798 2.899848
v -12.000127 3.532114 -2.389237
v -12.001057 -1.363231 4.072856
v -12.000144 4.073185 -1.262462
v -12.000388 4.272436 0.195816
v -12.000367 0.591386 4.235886
v -12.000170 3.939420 1.632340
v -12.000032 1.777763 3.867714
v -12.000761 3.001187 3.063715
vn 0.0004 0.9930 0.1183
vn -0.0000 0.9941 0.1086
vn 0.0003 0.9372 0.3487
vn -0.0004 0.9297 0.3684
vn 0.0002 0.8048 0.5936
vn -0.0007 0.7912 0.6116
vn 0.0010 0.5647 0.8253
vn -0.0003 0.5399 0.8417
vn -0.0003 0.2936 0.9559
vn 0.0008 0.2648 0.9643
vn -0.0006 0.0526 0.9986
vn 0.0007 -0.0006 1.0000
vn -0.0013 -0.1938 0.9810
vn 0.0021 -0.2992 0.9542
vn -0.0024 -0.5343 0.8453
vn 0.0017 -0.6198 0.7847
vn -0.0010 -0.8404 0.5420
vn -0.0001 -0.8316 0.5553
vn -0.0002 -0.9772 0.2123
vn -0.0016 -0.9710 0.2389
vn 0.0016 -1.0000 -0.0019
vn -0.0019 -0.9862 -0.1656
vn 0.0010 -0.9639 -0.2664
vn -0.0009 -0.8755 -0.4832
vn 0.0005 -0.8575 -0.5145
vn -0.0005 -0.6558 -0.7549
vn 0.0016 -0.6147 -0.7887
vn -0.0019 -0.4241 -0.9056
vn 0.0017 -0.2884 -0.9575
vn -0.0014 -0.1031 -0.9947
vn 0.0004 -0.0465 -0.9989
vn -0.0005 0.2309 -0.9730
vn 0.0005 0.2515 -0.9679
vn -0.0004 0.5874 -0.8093
vn -0.0005 0.5849 -0.8111
vn 0.0010 0.8133 -0.5818
vn -0.0017 0.8480 -0.5299
vn 0.0017 0.9710 -0.2393
vn -0.0010 0.9840 -0.1783
vn 1.0000 -0.0001 -0.0001
vn 1.0000 0.0018 0.0001
vn 1.0000 -0.0008 -0.0003
vn 1.0000 0.0001 0.0007
vn 1.0000 -0.0014 0.0012
vn 1.0000 0.0011 -0.0003
vn 1.0000 -0.0004 0.0001
vn 1.0000 -0.0000 0.0019
vn 1.0000 -0.0000 -0.0001
vn 1.0000 0.0009 0.0004
vn 1.0000 -0.0000 0.0001
vn 1.0000 -0.0001 -0.0000
vn 1.0000 0.0002 -0.0001
vn 1.0000 0.0001 -0.0002
vn -1.0000 -0.0002 -0.0009
vn -1.0000 -0.0004 -0.0002
vn -1.0000 0.0015 0.0002
vn -1.0000 -0.0001 -0.0004
vn -1.0000 0.0004 -0.0002
vn -1.0000 0.0010 -0.0004
vn -1.0000 0.0003 0.0002
vn -1.0000 0.0003 -0.0007
vn -1.0000 -0.0000 0.0009
vn -1.0000 -0.0000 -0.0001
vn -1.0000 0.0013 0.0005
vn -1.0000 -0.0000 -0.0000
vn -1.0000 0.0003 -0.0000
vn -1.0000 -0.0001 -0.0000
vn -0.7009 -0.3041 -0.6451
vn -0.7160 -0.2655 -0.6457
vn -0.6970 -0.0732 -0.7133
vn -0.7122 -0.0357 -0.7011
vn -0.6925 0.1680 -0.7016
vn -0.7260 0.2350 -0.6463
vn -0.6820 0.4279 -0.5931
vn -0.7245 0.4921 -0.4826
vn -0.6888 0.6153 -0.3834
vn -0.7167 0.6286 -0.3019
vn -0.6981 0.7045 -0.1283
vn -0.7113 0.6964 -0.0953
vn -0.6967 0.7119 0.0884
vn -0.7176 0.6784 0.1574
vn -0.6976 0.6680 0.2591
vn -0.7194 0.5810 0.3806
vn -0.6964 0.5676 0.4392
vn -0.7088 0.3871 0.5897
vn -0.7036 0.3803 0.6003
vn -0.7067 0.2099 0.6756
vn -0.7061 0.2117 0.6757
vn -0.7235 -0.0571 0.6879
vn -0.6989 0.0360 0.7143
vn -0.6954 -0.1397 0.7049
vn -0.7116 -0.3840 0.5883
vn -0.7052 -0.3791 0.5992
vn -0.6924 -0.5985 0.4030
vn -0.7266 -0.6054 0.3249
vn -0.6830 -0.7143 0.1522
vn -0.7330 -0.6802 -0.0101
vn -0.6910 -0.7130 -0.1193
vn -0.7103 -0.6261 -0.3217
vn -0.7008 -0.6248 -0.3441
vn -0.7131 -0.4799 -0.5111
vn -0.7005 -0.4677 -0.5390
vn 0.7109 -0.4226 0.5621
vn 0.7023 -0.4415 0.5584
vn 0.6930 -0.2156 0.6880
vn 0.7190 -0.1491 0.6788
vn 0.6966 0.0012 0.7174
vn 0.7202 0.1092 0.6851
vn 0.6949 0.1866 0.6945
vn 0.7083 0.4018 0.5804
vn 0.7104 0.4036 0.5766
vn 0.6959 0.5762 0.4285
vn 0.7171 0.5912 0.3692
vn 0.6986 0.6710 0.2485
vn 0.7176 0.6786 0.1569
vn 0.6950 0.7146 0.0795
vn 0.7179 0.6894 -0.0971
vn 0.6898 0.7030 -0.1734
vn 0.7231 0.6164 -0.3117
vn 0.6894 0.5889 -0.4217
vn 0.7182 0.4667 -0.5161
vn 0.6926 0.4205 -0.5861
vn 0.7240 0.2603 -0.6388
vn 0.6880 0.1834 -0.7021
vn 0.7217 -0.0521 -0.6903
vn 0.7125 -0.0320 -0.7010
vn 0.6898 -0.2103 -0.6928
vn 0.7224 -0.3520 -0.5952
vn 0.6882 -0.4455 -0.5727
vn 0.7212 -0.5273 -0.4492
vn 0.6933 -0.6186 -0.3697
vn 0.7202 -0.6488 -0.2458
vn 0.6983 -0.6895 -0.1922
vn 0.7011 -0.7130 -0.0020
vn 0.7259 -0.6841 0.0706
vn 0.6956 -0.6979 0.1703
vn 0.7096 -0.5961 0.3757
vn 0.7049 -0.5951 0.3860
s 0
usemtl mat0
f 1//1 39//1 2//1
f 3//2 1//2 2//2
f 4//3 3//3 2//3
f 4//4 2//4 5//4
f 7//5 4//5 5//5
f 7//6 5//6 6//6
f 8//7 7//7 6//7
f 8//8 6//8 9//8
f 8//9 9//9 10//9
f 11//10 8//10 10//10
f 11//11 10//11 12//11
f 14//12 11//12 12//12
f 14//13 12//13 13//13
f 16//14 14//14 13//14
f 16//15 13//15 15//15
f 17//16 16//16 15//16
f 19//17 17//17 15//17
f 19//18 15//18 18//18
f 19//19 18//19 20//19
f 21//20 19//20 20//20
f 22//21 21//21 20//21
f 22//22 20//22 23//22
f 24//23 22//23 23//23
f 24//24 23//24 25//24
f 26//25 24//25 25//25
f 26//26 25//26 27//26
f 28//27 26//27 27//27
f 28//28 27//28 29//28
f 30//29 28//29 29//29
f 30//30 29//30 31//30
f 32//31 30//31 31//31
f 32//32 31//32 33//32
f 34//33 32//33 33//33
f 34//34 33//34 35//34
f 36//35 34//35 35//35
f 38//36 36//36 35//36
f 38//37 35//37 37//37
f 1//38 38//38 37//38
f 1//39 37//39 39//39
f 44//40 41//40 40//40
f 44//41 45//41 41//41
f 44//42 40//42 42//42
f 46//43 42//43 43//43
f 49//44 47//44 44//44
f 52//45 48//45 50//45
f 52//46 46//46 48//46
f 53//47 51//47 49//47
f 53//48 49//48 44//48
f 55//49 52//49 54//49
f 55//50 44//50 42//50
f 55//51 46//51 52//51
f 55//52 42//52 46//52
f 55//53 53//53 44//53
f 56//54 60//54 59//54
f 57//55 61//55 56//55
f 58//56 61//56 57//56
f 56//57 62//57 60//57
f 64//58 67//58 66//58
f 62//59 67//59 64//59
f 68//60 70//60 65//60
f 65//61 70//61 63//61
f 70//62 71//62 63//62
f 63//63 71//63 61//63
f 67//64 71//64 69//64
f 61//65 71//65 56//65
f 62//66 71//66 67//66
f 56//67 71//67 62//67
f 29//68 27//68 56//68
f 59//69 29//69 56//69
f 31//70 29//70 59//70
f 31//71 59//71 60//71
f 33//72 31//72 60//72
f 33//73 60//73 62//73
f 35//74 33//74 62//74
f 35//75 62//75 64//75
f 37//76 35//76 64//76
f 37//77 64//77 66//77
f 39//78 37//78 66//78
f 39//79 66//79 67//79
f 2//80 39//80 67//80
f 69//81 2//81 67//81
f 5//82 2//82 69//82
f 5//83 69//83 71//83
f 6//84 5//84 71//84
f 70//85 6//85 71//85
f 9//86 6//86 70//86
f 10//87 70//87 68//87
f 10//88 9//88 70//88
f 65//89 12//89 68//89
f 12//90 10//90 68//90
f 13//91 12//91 65//91
f 15//92 65//92 63//92
f 15//93 13//93 65//93
f 18//94 15//94 63//94
f 18//95 63//95 61//95
f 20//96 18//96 61//96
f 20//97 61//97 58//97
f 23//98 20//98 58//98
f 57//99 23//99 58//99
f 25//100 23//100 57//100
f 25//101 57//101 56//101
f 27//102 25//102 56//102
f 16//103 47//103 49//103
f 16//104 17//104 47//104
f 14//105 16//105 49//105
f 51//106 14//106 49//106
f 11//107 14//107 51//107
f 53//108 11//108 51//108
f 8//109 11//109 53//109
f 7//110 8//110 53//110
f 7//111 53//111 55//111
f 4//112 7//112 55//112
f 4//113 55//113 54//113
f 3//114 4//114 54//114
f 3//115 54//115 52//115
f 1//116 3//116 52//116
f 1//117 52//117 50//117
f 38//118 1//118 50//118
f 38//119 50//119 48//119
f 36//120 38//120 48//120
f 46//121 36//121 48//121
f 34//122 36//122 46//122
f 34//123 46//123 43//123
f 32//124 34//124 43//124
f 30//125 43//125 42//125
f 30//126 32//126 43//126
f 28//127 30//127 42//127
f 40//128 28//128 42//128
f 26//129 28//129 40//129
f 41//130 26//130 40//130
f 24//131 26//131 41//131
f 24//132 41//132 45//132
f 22//133 24//133 45//133
f 21//134 22//134 45//134
f 21//135 45//135 44//135
f 19//136 21//136 44//136
f 47//137 19//137 44//137
f 17//138 19//138 47//138
