# Blender 3.4.1
# www.blender.org
mtllib ImageToStl.com_59. гайки м16-8шт. для крепления крышки подшипника.mtl
o imagetostl_mesh0
v -7.627382 -0.000303 7.276814
v -5.655726 0.000118 5.674449
v -4.091201 0.000223 6.907407
v -6.868484 0.000182 4.152762
v -4.096539 -0.000099 9.666960
v -9.989072 -0.000222 3.338292
v -1.755889 0.000150 7.846107
v -7.813694 0.000063 1.815813
v -1.030307 0.000030 10.419557
v -8.004951 0.000405 -0.798741
v -10.475388 -0.000064 -0.511577
v 1.002557 0.000405 7.981986
v 2.632560 -0.000238 10.199629
v -9.567131 -0.000325 -4.427716
v -7.247834 0.000182 -3.448248
v 3.840785 0.000244 7.055637
v 5.893116 -0.000034 8.659279
v -5.845938 0.000220 -5.505270
v -7.472467 -0.000060 -7.367680
v 5.960937 0.000132 5.364696
v 8.181402 -0.000107 6.583133
v -3.945915 0.000160 -6.999808
v -4.596222 -0.000078 -9.440138
v 7.232200 0.000086 3.458437
v 10.115598 -0.000303 2.967097
v -1.397012 0.000400 -7.922850
v 7.955216 0.000400 1.199057
v -1.571016 0.000009 -10.356771
v 10.420101 -0.000099 -1.285778
v 1.610455 -0.000107 -10.376869
v 1.335879 0.000220 -7.918233
v 7.934620 0.000118 -1.108342
v 7.376297 0.000220 -3.173836
v 9.534341 0.000027 -4.328732
v 4.552599 -0.000034 -9.433227
v 3.821298 0.000112 -7.046536
v 5.736818 0.000250 -5.624938
v 7.516858 -0.000238 -7.379678
v -11.000440 11.706793 -6.349422
v -10.998980 1.293208 -6.351950
v -10.999901 0.729469 -4.161997
v -10.999894 12.390763 -3.468334
v -10.999922 0.290613 -0.040693
v -10.999922 12.709388 0.040703
v -10.999942 0.552320 3.090992
v -10.999832 12.343943 3.743770
v -11.002326 1.281959 6.338473
v -10.990441 11.718041 6.359058
v -0.011885 11.718041 -12.697530
v 0.011885 1.281959 -12.697530
v -2.257720 0.656057 -11.398017
v -2.823106 12.447682 -11.071718
v -5.464721 0.290613 -9.546557
v -5.535208 12.709388 -9.505861
v -8.503618 0.609238 -7.792018
v -9.104343 12.270531 -7.445197
v 10.998876 11.705380 -6.352060
v 11.000440 1.293208 -6.349422
v 9.104339 0.729468 -7.445199
v 8.503615 12.390763 -7.792020
v 5.535204 0.290613 -9.505864
v 5.464716 12.709388 -9.546560
v 2.823104 0.552319 -11.071719
v 2.257714 12.343942 -11.398021
v 11.002326 11.718041 6.338473
v 10.990441 1.281959 6.359058
v 10.999832 0.656056 3.743762
v 10.999942 12.447680 3.090990
v 10.999922 0.290613 0.040693
v 10.999922 12.709388 -0.040703
v 10.999894 0.609237 -3.468337
v 10.999901 12.270530 -4.162002
v 0.001608 11.705380 12.701336
v -0.001608 1.294620 12.701336
v 1.895557 0.729469 11.607191
v 2.496287 12.390764 11.260352
v 5.464721 0.290613 9.546557
v 5.535208 12.709388 9.505861
v 8.176844 0.552319 7.980736
v 8.742117 12.343942 7.654249
v -8.742110 0.656057 7.654253
v -8.176842 12.447681 7.980737
v -5.535204 0.290613 9.505864
v -5.464716 12.709388 9.546560
v -2.496284 0.609236 11.260354
v -1.895552 12.270530 11.607194
v 7.149126 12.196959 -1.033952
v 7.191635 0.815060 -0.528589
v 6.775674 0.806916 -2.459376
v 6.551253 12.185255 -2.985701
v 5.753046 0.805629 -4.362707
v 5.870436 12.187922 -4.166998
v 4.795574 12.186345 -5.378201
v 4.212910 0.806916 -5.848904
v 3.381238 12.190964 -6.363289
v 2.533759 0.809036 -6.745686
v 1.300166 12.187601 -7.105535
v 1.044579 0.812315 -7.122884
v -0.575326 0.813655 -7.182727
v -1.083761 12.190750 -7.135007
v -2.163465 0.812079 -6.866244
v -2.771614 12.185254 -6.644658
v -3.635186 0.804085 -6.221591
v -4.061512 12.186071 -5.941730
v -5.029675 0.815908 -5.156665
v -5.256699 12.195915 -4.928477
v -6.098811 0.815176 -3.837631
v -6.487823 12.187601 -3.176037
v -6.808283 0.807521 -2.339578
v -7.119180 12.186331 -1.130453
v -7.200412 0.817626 -0.488741
v -7.177742 12.186071 0.529197
v -7.054718 0.808835 1.467590
v -6.893392 12.190003 2.098740
v -6.627837 0.814970 2.793870
v -6.159628 12.184517 3.739259
v -5.955678 0.811105 4.060511
v -5.183812 12.187922 4.995397
v -4.599580 0.812202 5.557298
v -3.940435 12.186345 6.032872
v -3.084300 0.812079 6.504844
v -2.489181 12.187685 6.755043
v -1.650226 0.809427 7.015002
v -0.952617 12.186330 7.145150
v 0.028702 0.812315 7.199014
v 0.707975 12.186071 7.162318
v 1.643014 0.808835 7.015938
v 2.493663 12.182400 6.769667
v 3.162658 0.812079 6.467108
v 4.184906 12.190003 5.866014
v 4.675400 0.804285 5.493696
v 5.263330 12.186387 4.904186
v 6.012746 0.809036 3.971285
v 6.324977 12.185535 3.489110
v 6.972543 0.812719 1.929668
v 7.087179 12.189193 1.346308
v 1.571015 12.999991 -10.356771
v 4.596222 13.000077 -9.440138
v 7.472466 13.000060 -7.367681
v 10.475388 13.000064 -0.511584
v 9.989073 13.000222 3.338290
v 4.096540 13.000098 9.666959
v -2.632562 13.000237 10.199628
v -5.893114 13.000034 8.659280
v -8.181400 13.000107 6.583136
v -10.420101 13.000098 -1.285780
v -7.516855 13.000237 -7.379680
v -4.552602 13.000034 -9.433226
v -1.610459 13.000107 -10.376868
v 9.565797 13.000322 -4.435171
v 7.627381 13.000303 7.276815
v 1.030307 12.999969 10.419556
v -10.115598 13.000303 2.967096
v -9.534340 12.999972 -4.328732
v -5.845938 12.999780 5.505269
v -3.936388 12.999777 6.996788
v -7.332167 12.999957 3.271337
v -1.418639 12.999674 7.926417
v -7.934010 12.999808 1.195861
v -7.980002 12.999882 -0.711451
v 0.910176 12.999882 7.959785
v -7.555152 12.999818 -2.709461
v 2.574007 12.999913 7.592100
v 4.552033 12.999904 6.602973
v -6.535861 12.999904 -4.647880
v 6.252041 12.999937 5.026227
v -5.062624 12.999882 -6.209383
v -3.731880 12.999882 -7.089406
v 7.180239 12.999882 3.553979
v -2.150041 12.999913 -7.722876
v 7.887444 12.999850 1.559736
v 0.200568 12.999600 -8.042571
v 7.996909 12.999882 -0.485851
v 7.471263 12.999750 -2.954865
v 2.574007 12.999913 -7.592100
v 4.850575 12.999798 -6.407049
v 6.333666 12.999882 -4.906249
vn 0.0001 -1.0000 -0.0001
vn 0.0002 -1.0000 -0.0001
vn -0.0000 -1.0000 -0.0001
vn 0.0001 -1.0000 -0.0000
vn -0.0001 -1.0000 -0.0002
vn 0.0002 -1.0000 0.0001
vn -0.0000 -1.0000 -0.0002
vn 0.0002 -1.0000 -0.0000
vn -0.0001 -1.0000 -0.0001
vn 0.0001 -1.0000 0.0001
vn -0.0001 -1.0000 -0.0000
vn -0.0002 -1.0000 -0.0002
vn 0.0001 -1.0000 0.0002
vn -0.0003 -1.0000 -0.0001
vn -0.0000 -1.0000 0.0002
vn -0.0001 -1.0000 0.0001
vn -0.0000 -1.0000 0.0001
vn -0.0002 -1.0000 0.0001
vn -0.0001 -1.0000 0.0002
vn -1.0000 -0.0001 -0.0005
vn -1.0000 -0.0000 0.0002
vn -1.0000 -0.0000 -0.0000
vn -1.0000 0.0001 -0.0007
vn -1.0000 0.0011 0.0039
vn -0.4967 -0.0011 -0.8679
vn -0.5006 -0.0001 -0.8657
vn -0.5000 -0.0000 -0.8660
vn -0.4998 -0.0000 -0.8661
vn -0.5004 0.0001 -0.8658
vn 0.5004 -0.0001 -0.8658
vn 0.4998 -0.0000 -0.8661
vn 0.5000 -0.0000 -0.8660
vn 0.5006 0.0001 -0.8657
vn 0.4967 0.0011 -0.8679
vn 1.0000 -0.0011 0.0039
vn 1.0000 -0.0001 -0.0007
vn 1.0000 -0.0000 -0.0000
vn 1.0000 -0.0000 0.0002
vn 1.0000 0.0002 -0.0005
vn 0.4996 -0.0002 0.8663
vn 0.5002 -0.0000 0.8659
vn 0.5000 -0.0000 0.8660
vn 0.4994 0.0001 0.8664
vn 0.5033 0.0011 0.8641
vn -0.5033 -0.0011 0.8641
vn -0.4994 -0.0001 0.8664
vn -0.5000 -0.0000 0.8660
vn -0.5002 -0.0000 0.8659
vn -0.4996 0.0002 0.8663
vn -0.0031 -0.8762 -0.4819
vn -0.1395 -0.8767 -0.4604
vn -0.2108 -0.8229 -0.5276
vn -0.2569 -0.8982 -0.3566
vn -0.3293 -0.8474 -0.4165
vn -0.4671 -0.8776 -0.1083
vn -0.5427 -0.8352 -0.0889
vn -0.4449 -0.8938 0.0562
vn -0.4920 -0.8676 0.0725
vn -0.3445 -0.8335 0.4321
vn -0.2223 -0.9180 0.3284
vn -0.2245 -0.8135 0.5365
vn 0.2072 -0.8200 0.5336
vn 0.1816 -0.9052 0.3842
vn 0.3171 -0.8816 0.3495
vn 0.3316 -0.8374 0.4344
vn 0.5464 -0.8335 0.0823
vn 0.3956 -0.9180 0.0283
vn 0.5769 -0.8135 -0.0739
vn 0.3585 -0.8200 -0.4463
vn 0.2419 -0.9052 -0.3493
vn 0.2104 -0.8374 -0.5044
vn 0.1441 -0.8816 -0.4494
vn -0.0531 -0.8603 -0.5070
vn -0.3985 -0.8721 -0.2840
vn -0.4028 -0.8698 -0.2849
vn -0.4748 -0.8522 -0.2196
vn -0.5062 -0.8415 0.1887
vn -0.4026 -0.8830 0.2414
vn -0.4096 -0.8640 0.2927
vn -0.1104 -0.8863 0.4498
vn -0.0613 -0.8560 0.5133
vn 0.0283 -0.8813 0.4717
vn 0.0203 -0.8735 0.4864
vn 0.4131 -0.8465 0.3359
vn 0.4194 -0.8796 0.2244
vn 0.4583 -0.8640 0.2084
vn 0.4444 -0.8864 -0.1294
vn 0.4751 -0.8561 -0.2032
vn 0.3943 -0.8812 -0.2607
vn 0.4106 -0.8736 -0.2611
vn 0.0844 -0.8465 -0.5257
vn -0.9776 0.0057 0.2106
vn -0.9561 -0.0053 0.2929
vn -0.8809 0.0045 0.4733
vn -0.8664 0.0003 0.4993
vn -0.7479 -0.0037 0.6638
vn -0.6944 0.0058 0.7196
vn -0.5715 -0.0047 0.8206
vn -0.4711 0.0054 0.8821
vn -0.3359 -0.0066 0.9419
vn -0.2455 0.0040 0.9694
vn -0.0369 -0.0007 0.9993
vn -0.0124 -0.0047 0.9999
vn 0.1954 0.0046 0.9807
vn 0.2790 -0.0038 0.9603
vn 0.4012 0.0036 0.9160
vn 0.4785 -0.0037 0.8781
vn 0.6069 0.0032 0.7947
vn 0.6467 -0.0024 0.7628
vn 0.7769 0.0029 0.6297
vn 0.8183 -0.0055 0.5748
vn 0.9037 0.0060 0.4280
vn 0.9555 -0.0052 0.2949
vn 0.9783 0.0047 0.2072
vn 0.9994 -0.0052 0.0353
vn 0.9972 0.0047 -0.0742
vn 0.9840 -0.0041 -0.1783
vn 0.9519 0.0035 -0.3064
vn 0.9128 -0.0036 -0.4083
vn 0.8833 0.0026 -0.4687
vn 0.7897 -0.0032 -0.6135
vn 0.7411 0.0049 -0.6714
vn 0.6407 -0.0050 -0.7678
vn 0.5302 0.0047 -0.8479
vn 0.4455 -0.0036 -0.8953
vn 0.3352 0.0032 -0.9422
vn 0.2461 -0.0040 -0.9692
vn 0.1089 0.0047 -0.9940
vn 0.0103 -0.0038 -0.9999
vn -0.1127 0.0035 -0.9936
vn -0.2148 -0.0051 -0.9767
vn -0.3397 0.0050 -0.9405
vn -0.4712 -0.0043 -0.8820
vn -0.5411 0.0042 -0.8409
vn -0.6656 -0.0043 -0.7463
vn -0.7513 0.0046 -0.6600
vn -0.7999 -0.0035 -0.6001
vn -0.9050 0.0068 -0.4254
vn -0.9421 -0.0077 -0.3351
vn -0.9960 0.0055 -0.0888
vn -0.9996 -0.0049 -0.0260
vn 0.0031 0.8762 -0.4819
vn 0.1395 0.8767 -0.4604
vn 0.2108 0.8229 -0.5276
vn 0.2569 0.8982 -0.3566
vn 0.3293 0.8474 -0.4165
vn 0.4672 0.8775 -0.1082
vn 0.5427 0.8352 -0.0889
vn 0.4449 0.8938 0.0562
vn 0.4920 0.8676 0.0725
vn 0.3445 0.8335 0.4321
vn 0.2223 0.9180 0.3284
vn 0.2245 0.8135 0.5365
vn -0.2072 0.8200 0.5336
vn -0.1816 0.9052 0.3842
vn -0.3316 0.8374 0.4344
vn -0.3171 0.8816 0.3495
vn -0.5464 0.8335 0.0823
vn -0.3956 0.9180 0.0283
vn -0.5769 0.8135 -0.0739
vn -0.3585 0.8200 -0.4463
vn -0.2419 0.9052 -0.3493
vn -0.2104 0.8374 -0.5044
vn -0.1441 0.8816 -0.4494
vn 0.0531 0.8603 -0.5070
vn 0.3983 0.8721 -0.2844
vn 0.4035 0.8693 -0.2855
vn 0.4754 0.8518 -0.2200
vn 0.5062 0.8415 0.1887
vn 0.4026 0.8830 0.2414
vn 0.4096 0.8640 0.2927
vn 0.1104 0.8863 0.4498
vn 0.0613 0.8560 0.5133
vn -0.0203 0.8735 0.4864
vn -0.0283 0.8813 0.4717
vn -0.4131 0.8465 0.3359
vn -0.4194 0.8796 0.2244
vn -0.4583 0.8640 0.2084
vn -0.4444 0.8864 -0.1294
vn -0.4751 0.8561 -0.2032
vn -0.3943 0.8812 -0.2607
vn -0.4106 0.8736 -0.2611
vn -0.0844 0.8465 -0.5257
vn 0.0001 1.0000 -0.0001
vn 0.0001 1.0000 -0.0000
vn -0.0000 1.0000 -0.0001
vn 0.0001 1.0000 -0.0002
vn 0.0002 1.0000 -0.0001
vn -0.0001 1.0000 -0.0000
vn -0.0000 1.0000 -0.0000
vn -0.0000 1.0000 0.0001
vn -0.0001 1.0000 -0.0001
vn 0.0001 1.0000 0.0001
vn -0.0000 1.0000 0.0002
vn -0.0001 1.0000 0.0001
vn -0.0002 1.0000 0.0001
vn -0.0002 1.0000 0.0002
vn -0.6823 0.7309 -0.0154
vn -0.7304 0.6651 0.1555
vn -0.6537 0.7310 0.1959
vn -0.6242 0.6913 0.3639
vn -0.6275 0.6887 0.3632
vn -0.5213 0.7177 0.4617
vn -0.5190 0.6838 0.5129
vn -0.3870 0.7333 0.5591
vn -0.3454 0.6635 0.6637
vn -0.2278 0.7378 0.6354
vn -0.1400 0.6611 0.7371
vn -0.0072 0.7515 0.6597
vn 0.1004 0.6680 0.7374
vn 0.1891 0.7280 0.6590
vn 0.2702 0.6868 0.6747
vn 0.3314 0.7221 0.6072
vn 0.3993 0.6898 0.6039
vn 0.4492 0.7245 0.5228
vn 0.5359 0.6762 0.5056
vn 0.5498 0.7388 0.3898
vn 0.6593 0.6672 0.3467
vn 0.6472 0.7355 0.2002
vn 0.7170 0.6802 0.1524
vn 0.6930 0.7206 0.0246
vn 0.7252 0.6883 -0.0175
vn 0.6742 0.7281 -0.1240
vn 0.7055 0.6785 -0.2046
vn 0.6205 0.7344 -0.2751
vn 0.6252 0.6604 -0.4159
vn 0.5493 0.7173 -0.4287
vn 0.4524 0.7088 -0.5411
vn 0.4506 0.6813 -0.5769
vn 0.3053 0.7271 -0.6149
vn 0.2579 0.6676 -0.6985
vn 0.1684 0.7313 -0.6609
vn 0.0075 0.6950 -0.7190
vn 0.0102 0.6986 -0.7155
vn -0.1497 0.7107 -0.6874
vn -0.1523 0.7083 -0.6892
vn -0.3253 0.6864 -0.6505
vn -0.3331 0.7127 -0.6173
vn -0.4964 0.6835 -0.5352
vn -0.4737 0.7005 -0.5338
vn -0.5482 0.7280 -0.4117
vn -0.6192 0.6814 -0.3904
vn -0.6611 0.7129 -0.2339
vn -0.6603 0.7135 -0.2342
vn -0.7062 0.7070 -0.0378
vn -0.6620 -0.7471 -0.0597
vn -0.7157 -0.6597 -0.2291
vn -0.6106 -0.7376 -0.2884
vn -0.6177 -0.6700 -0.4119
vn -0.5062 -0.7375 -0.4470
vn -0.4701 -0.6570 -0.5894
vn -0.3734 -0.7284 -0.5745
vn -0.2432 -0.6942 -0.6774
vn -0.2318 -0.6649 -0.7101
vn -0.0775 -0.7387 -0.6696
vn 0.0366 -0.6706 -0.7409
vn 0.0769 -0.7192 -0.6905
vn 0.2635 -0.7077 -0.6556
vn 0.2504 -0.6612 -0.7072
vn 0.3605 -0.7331 -0.5767
vn 0.4559 -0.6764 -0.5785
vn 0.5085 -0.7277 -0.4602
vn 0.5666 -0.6892 -0.4516
vn 0.6094 -0.7230 -0.3256
vn 0.6894 -0.6686 -0.2788
vn 0.6658 -0.7157 -0.2110
vn 0.7158 -0.6960 -0.0564
vn 0.7216 -0.6903 -0.0529
vn 0.6764 -0.7217 0.1472
vn 0.7144 -0.6693 0.2042
vn 0.6171 -0.7321 0.2885
vn 0.6155 -0.6673 0.4194
vn 0.5369 -0.7230 0.4347
vn 0.4241 -0.7092 0.5632
vn 0.4472 -0.6905 0.5685
vn 0.2812 -0.7214 0.6329
vn 0.2528 -0.6699 0.6980
vn 0.1328 -0.7371 0.6626
vn -0.0268 -0.7043 0.7094
vn -0.0013 -0.6724 0.7402
vn -0.1719 -0.7201 0.6723
vn -0.2488 -0.6597 0.7092
vn -0.3209 -0.7336 0.5991
vn -0.4423 -0.6701 0.5961
vn -0.4644 -0.7439 0.4806
vn -0.6319 -0.6497 0.4227
vn -0.5997 -0.7323 0.3227
vn -0.6758 -0.7219 0.1486
vn -0.6999 -0.6887 0.1892
vn -0.7366 -0.6763 0.0067
s 0
usemtl mat0
f 2//1 3//1 1//1
f 1//1 4//1 2//1
f 1//1 3//1 5//1
f 6//2 4//2 1//2
f 3//3 7//3 5//3
f 6//4 8//4 4//4
f 5//1 7//1 9//1
f 6//3 10//3 8//3
f 11//2 10//2 6//2
f 7//1 12//1 9//1
f 9//5 12//5 13//5
f 14//6 10//6 11//6
f 14//6 15//6 10//6
f 12//5 16//5 13//5
f 13//7 16//7 17//7
f 14//6 18//6 15//6
f 19//8 18//8 14//8
f 16//9 20//9 17//9
f 20//9 21//9 17//9
f 18//10 19//10 22//10
f 19//10 23//10 22//10
f 24//11 21//11 20//11
f 24//11 25//11 21//11
f 22//10 23//10 26//10
f 27//12 25//12 24//12
f 23//13 28//13 26//13
f 27//14 29//14 25//14
f 28//15 30//15 26//15
f 26//16 30//16 31//16
f 32//16 29//16 27//16
f 33//11 29//11 32//11
f 33//11 34//11 29//11
f 30//17 35//17 31//17
f 31//11 35//11 36//11
f 37//18 38//18 33//18
f 33//17 38//17 34//17
f 35//11 38//11 36//11
f 36//19 38//19 37//19
f 39//20 40//20 41//20
f 42//21 39//21 41//21
f 42//22 41//22 43//22
f 44//22 42//22 43//22
f 44//22 43//22 45//22
f 46//22 44//22 45//22
f 46//23 45//23 47//23
f 48//24 46//24 47//24
f 49//25 50//25 51//25
f 52//26 49//26 51//26
f 52//27 51//27 53//27
f 54//27 52//27 53//27
f 54//27 53//27 55//27
f 56//27 54//27 55//27
f 56//28 55//28 40//28
f 39//29 56//29 40//29
f 57//30 58//30 59//30
f 60//31 57//31 59//31
f 60//32 59//32 61//32
f 62//32 60//32 61//32
f 62//32 61//32 63//32
f 64//32 62//32 63//32
f 64//33 63//33 50//33
f 49//34 64//34 50//34
f 65//35 66//35 67//35
f 68//36 65//36 67//36
f 68//37 67//37 69//37
f 70//37 68//37 69//37
f 70//37 69//37 71//37
f 72//37 70//37 71//37
f 72//38 71//38 58//38
f 57//39 72//39 58//39
f 73//40 74//40 75//40
f 76//41 73//41 75//41
f 76//42 75//42 77//42
f 78//42 76//42 77//42
f 78//42 77//42 79//42
f 80//42 78//42 79//42
f 80//43 79//43 66//43
f 65//44 80//44 66//44
f 48//45 47//45 81//45
f 82//46 48//46 81//46
f 82//47 81//47 83//47
f 84//47 82//47 83//47
f 84//47 83//47 85//47
f 86//47 84//47 85//47
f 86//48 85//48 74//48
f 73//49 86//49 74//49
f 50//50 30//50 28//50
f 51//51 28//51 23//51
f 53//52 51//52 23//52
f 53//53 23//53 19//53
f 55//54 53//54 19//54
f 41//55 14//55 11//55
f 43//56 41//56 11//56
f 43//57 11//57 6//57
f 45//58 43//58 6//58
f 83//59 81//59 1//59
f 83//60 1//60 5//60
f 85//61 83//61 5//61
f 77//62 75//62 13//62
f 77//63 13//63 17//63
f 79//64 17//64 21//64
f 79//65 77//65 17//65
f 69//66 67//66 25//66
f 69//67 25//67 29//67
f 71//68 69//68 29//68
f 61//69 59//69 38//69
f 61//70 38//70 35//70
f 63//71 61//71 35//71
f 63//72 35//72 30//72
f 28//73 51//73 50//73
f 14//74 55//74 19//74
f 40//75 55//75 14//75
f 41//76 40//76 14//76
f 47//77 45//77 6//77
f 47//78 6//78 1//78
f 1//79 81//79 47//79
f 85//80 5//80 9//80
f 74//81 85//81 9//81
f 75//82 9//82 13//82
f 75//83 74//83 9//83
f 66//84 79//84 21//84
f 66//85 21//85 25//85
f 25//86 67//86 66//86
f 71//87 29//87 34//87
f 58//88 71//88 34//88
f 59//89 34//89 38//89
f 59//90 58//90 34//90
f 50//91 63//91 30//91
f 88//92 87//92 89//92
f 87//93 90//93 89//93
f 89//94 90//94 91//94
f 90//95 92//95 91//95
f 92//96 93//96 91//96
f 91//97 93//97 94//97
f 93//98 95//98 94//98
f 94//99 95//99 96//99
f 95//100 97//100 96//100
f 96//101 97//101 98//101
f 98//102 97//102 99//102
f 97//103 100//103 99//103
f 99//104 100//104 101//104
f 100//105 102//105 101//105
f 101//106 102//106 103//106
f 102//107 104//107 103//107
f 103//108 104//108 105//108
f 104//109 106//109 105//109
f 105//110 106//110 107//110
f 106//111 108//111 107//111
f 107//112 108//112 109//112
f 108//113 110//113 109//113
f 109//114 110//114 111//114
f 110//115 112//115 111//115
f 111//116 112//116 113//116
f 112//117 114//117 113//117
f 113//118 114//118 115//118
f 114//119 116//119 115//119
f 115//120 116//120 117//120
f 116//121 118//121 117//121
f 117//122 118//122 119//122
f 118//123 120//123 119//123
f 119//124 120//124 121//124
f 120//125 122//125 121//125
f 121//126 122//126 123//126
f 122//127 124//127 123//127
f 123//128 124//128 125//128
f 124//129 126//129 125//129
f 125//130 126//130 127//130
f 126//131 128//131 127//131
f 127//132 128//132 129//132
f 128//133 130//133 129//133
f 129//134 130//134 131//134
f 130//135 132//135 131//135
f 131//136 132//136 133//136
f 132//137 134//137 133//137
f 133//138 134//138 135//138
f 134//139 136//139 135//139
f 135//140 136//140 88//140
f 136//141 87//141 88//141
f 49//142 149//142 137//142
f 64//143 137//143 138//143
f 62//144 64//144 138//144
f 62//145 138//145 139//145
f 60//146 62//146 139//146
f 72//147 150//147 140//147
f 70//148 72//148 140//148
f 70//149 140//149 141//149
f 68//150 70//150 141//150
f 78//151 80//151 151//151
f 78//152 151//152 142//152
f 76//153 78//153 142//153
f 84//154 86//154 143//154
f 84//155 143//155 144//155
f 82//156 84//156 144//156
f 82//157 144//157 145//157
f 44//158 46//158 153//158
f 44//159 153//159 146//159
f 42//160 44//160 146//160
f 54//161 56//161 147//161
f 54//162 147//162 148//162
f 52//163 54//163 148//163
f 52//164 148//164 149//164
f 137//165 64//165 49//165
f 150//166 60//166 139//166
f 57//167 60//167 150//167
f 72//168 57//168 150//168
f 65//169 68//169 141//169
f 65//170 141//170 151//170
f 151//171 80//171 65//171
f 76//172 142//172 152//172
f 73//173 76//173 152//173
f 86//174 73//174 152//174
f 86//175 152//175 143//175
f 48//176 82//176 145//176
f 48//177 145//177 153//177
f 153//178 46//178 48//178
f 42//179 146//179 154//179
f 39//180 42//180 154//180
f 56//181 154//181 147//181
f 56//182 39//182 154//182
f 49//183 52//183 149//183
f 155//184 145//184 144//184
f 156//184 155//184 144//184
f 157//185 145//185 155//185
f 157//185 153//185 145//185
f 156//186 144//186 143//186
f 158//187 156//187 143//187
f 159//184 153//184 157//184
f 159//188 146//188 153//188
f 158//187 143//187 152//187
f 160//185 146//185 159//185
f 161//189 158//189 152//189
f 162//185 146//185 160//185
f 163//190 161//190 152//190
f 163//189 152//189 142//189
f 162//185 154//185 146//185
f 164//186 163//186 142//186
f 165//191 154//191 162//191
f 165//191 147//191 154//191
f 164//192 142//192 151//192
f 166//192 164//192 151//192
f 167//193 147//193 165//193
f 147//193 167//193 168//193
f 151//192 169//192 166//192
f 148//185 147//185 168//185
f 141//192 169//192 151//192
f 148//191 168//191 170//191
f 141//192 171//192 169//192
f 149//191 148//191 170//191
f 149//193 170//193 172//193
f 140//192 171//192 141//192
f 140//189 173//189 171//189
f 137//194 149//194 172//194
f 140//189 174//189 173//189
f 137//195 172//195 175//195
f 150//196 174//196 140//196
f 138//190 137//190 175//190
f 138//191 175//191 176//191
f 150//197 177//197 174//197
f 139//195 138//195 176//195
f 139//189 177//189 150//189
f 139//189 176//189 177//189
f 136//198 173//198 87//198
f 174//199 87//199 173//199
f 87//200 174//200 90//200
f 174//201 177//201 90//201
f 90//202 177//202 92//202
f 92//203 177//203 93//203
f 177//204 176//204 93//204
f 176//205 95//205 93//205
f 175//206 95//206 176//206
f 95//207 175//207 97//207
f 175//208 172//208 97//208
f 97//209 172//209 100//209
f 172//210 170//210 100//210
f 170//211 102//211 100//211
f 170//212 168//212 102//212
f 102//213 168//213 104//213
f 168//214 167//214 104//214
f 104//215 167//215 106//215
f 165//216 106//216 167//216
f 106//217 165//217 108//217
f 165//218 162//218 108//218
f 162//219 110//219 108//219
f 162//220 160//220 110//220
f 110//221 160//221 112//221
f 160//222 159//222 112//222
f 112//223 159//223 114//223
f 157//224 114//224 159//224
f 157//225 116//225 114//225
f 155//226 116//226 157//226
f 116//227 155//227 118//227
f 118//228 155//228 120//228
f 155//229 156//229 120//229
f 120//230 156//230 122//230
f 156//231 158//231 122//231
f 158//232 124//232 122//232
f 124//233 158//233 126//233
f 158//234 161//234 126//234
f 126//235 161//235 128//235
f 163//236 128//236 161//236
f 164//237 128//237 163//237
f 128//238 164//238 130//238
f 166//239 132//239 164//239
f 164//240 132//240 130//240
f 132//241 166//241 134//241
f 166//242 169//242 134//242
f 169//243 136//243 134//243
f 171//244 136//244 169//244
f 136//245 171//245 173//245
f 88//246 27//246 135//246
f 27//247 24//247 135//247
f 24//248 133//248 135//248
f 20//249 133//249 24//249
f 133//250 20//250 131//250
f 16//251 131//251 20//251
f 131//252 16//252 129//252
f 129//253 16//253 127//253
f 12//254 127//254 16//254
f 127//255 12//255 125//255
f 12//256 7//256 125//256
f 125//257 7//257 123//257
f 7//258 3//258 123//258
f 123//259 3//259 121//259
f 121//260 3//260 119//260
f 3//261 2//261 119//261
f 119//262 2//262 117//262
f 2//263 4//263 117//263
f 4//264 115//264 117//264
f 8//265 115//265 4//265
f 8//266 113//266 115//266
f 8//267 111//267 113//267
f 10//268 111//268 8//268
f 111//269 10//269 109//269
f 15//270 109//270 10//270
f 109//271 15//271 107//271
f 18//272 107//272 15//272
f 107//273 18//273 105//273
f 105//274 22//274 103//274
f 18//275 22//275 105//275
f 103//276 22//276 101//276
f 22//277 26//277 101//277
f 101//278 26//278 99//278
f 99//279 31//279 98//279
f 26//280 31//280 99//280
f 31//281 96//281 98//281
f 36//282 96//282 31//282
f 96//283 36//283 94//283
f 37//284 94//284 36//284
f 94//285 37//285 91//285
f 33//286 91//286 37//286
f 91//287 33//287 89//287
f 89//288 32//288 88//288
f 33//289 32//289 89//289
f 88//290 32//290 27//290
