# Blender 3.4.1
# www.blender.org
mtllib ImageToStl.com_12. шпонка под рабочие колеса.mtl
o imagetostl_mesh
v 16.487392 -3.972073 -0.096274
v -16.465307 3.972416 -0.092072
v -19.190256 2.347486 -6.972917
v -18.722845 2.885334 -6.957759
v -18.420807 3.068484 -6.996222
v -19.859858 0.928570 -6.969808
v -16.511911 3.941826 -6.972468
v -19.906528 -0.031535 -6.992671
v -19.798439 -1.157879 -6.967357
v -19.160786 -2.319993 -6.988325
v -17.305792 -3.740029 -6.974792
v 17.269491 3.757602 -6.974425
v 19.179251 2.299986 -6.986868
v 19.775362 1.088442 -6.988812
v 16.471367 -3.943749 -6.971754
v 19.906191 -0.415294 -6.992804
v 17.829212 -3.457336 -6.991220
v 19.441555 -1.987837 -6.964767
v 18.462469 -3.123969 -6.946535
v 18.683401 -2.906445 -6.975742
v -19.162741 2.320139 -0.011457
v -18.482857 3.024568 -0.010900
v -19.739538 1.307456 -0.027507
v -16.650595 3.856292 -0.004694
v -19.933455 0.150271 -0.014589
v -19.597425 -1.628645 -0.009318
v -18.703459 -2.796279 -0.008127
v -18.392473 -3.138252 -0.008069
v -16.633764 -3.871899 -0.009706
v 16.505821 3.883566 -0.010249
v 18.797462 2.737984 -0.001948
v 17.073521 -3.801310 -0.006455
v 19.915066 -0.154662 -0.011543
v 19.671474 -1.406014 -0.013648
v 18.473413 -3.114665 -0.050967
v 18.668526 -2.873826 -0.014424
v -18.413916 3.193344 -6.905411
v -18.451109 3.176072 -0.147443
v -18.770742 2.865865 -0.076098
v -19.357561 2.179524 -0.082982
v -19.675554 1.585595 -6.905500
v -19.974445 0.455597 -0.094393
v -19.997452 -0.155529 -6.905605
v -19.942379 -0.690943 -0.092564
v -19.514523 -1.918557 -0.082944
v -19.396164 -2.118823 -6.905477
v -18.765329 -2.894637 -0.102420
v -18.769329 -2.866274 -6.920691
v -18.508440 -3.056564 -6.973384
v -17.885277 -3.532252 -0.095690
v -18.069210 -3.421581 -6.904993
v -16.654448 -3.957512 -0.101775
v -16.506002 -3.949598 -6.962053
v 17.522104 -3.712400 -6.891528
v 17.685236 -3.641165 -0.108477
v 18.991835 -2.607708 -0.038476
v 19.629829 -1.710104 -0.094659
v 19.838621 -1.139091 -6.908351
v 19.975277 -0.450555 -0.095870
v 20.001427 0.057542 -6.914865
v 19.933136 0.508390 -0.027175
v 19.801918 1.237378 -6.912488
v 19.797487 1.261704 -0.095235
v 19.317795 2.240820 -6.906624
v 19.460068 1.957664 -0.046764
v 18.877373 2.781837 -0.079304
v 18.766891 2.866416 -6.925735
v 18.488482 3.118225 -0.065807
v 18.490786 3.057365 -6.982097
v 17.954504 3.488469 -6.894413
v 17.683975 3.592174 -0.028595
v 16.660309 3.956842 -0.101191
v 16.517366 3.946959 -6.964777
v -17.464911 3.717004 -0.058342
v 18.994864 -2.618865 -6.943401
v -17.407705 3.726298 -6.945891
vn 0.0002 -1.0000 -0.0041
vn -0.0004 -1.0000 -0.0012
vn -0.0002 1.0000 -0.0044
vn 0.0005 1.0000 -0.0014
vn 0.3067 -0.6515 -0.6938
vn -0.0343 0.0580 -0.9977
vn -0.0613 0.0267 -0.9978
vn -0.0058 0.0101 -0.9999
vn -0.0891 -0.0309 -0.9955
vn 0.0328 0.0088 -0.9994
vn -0.0065 -0.0094 -0.9999
vn 0.0075 -0.0013 -1.0000
vn 0.0180 0.0078 -0.9998
vn -0.0179 -0.0204 -0.9996
vn -0.0113 -0.0039 -0.9999
vn 0.0002 0.0009 -1.0000
vn -0.0003 -0.0013 -1.0000
vn -0.0084 0.0009 -1.0000
vn -0.0154 0.0030 -0.9999
vn -0.0535 -0.0020 -0.9986
vn 0.0276 -0.0108 -0.9996
vn -0.0072 -0.0013 -1.0000
vn 0.2675 -0.3899 -0.8811
vn 0.0184 -0.0005 -0.9998
vn 0.0107 -0.0220 0.9997
vn -0.0054 0.0044 1.0000
vn 0.0230 0.0073 0.9997
vn 0.0059 0.0056 1.0000
vn -0.0068 -0.0007 1.0000
vn 0.0050 0.0064 1.0000
vn 0.0019 0.0024 1.0000
vn 0.0342 0.0757 0.9965
vn 0.0002 0.0005 1.0000
vn -0.0001 -0.0006 1.0000
vn -0.0035 0.0002 1.0000
vn -0.1491 0.0274 0.9884
vn -0.0139 0.0090 0.9999
vn 0.1674 -0.1149 0.9792
vn 0.0171 -0.0026 0.9999
vn 0.1667 -0.2786 0.9458
vn 0.0064 -0.0024 1.0000
vn -0.2476 0.9688 -0.0026
vn -0.2339 0.9723 -0.0006
vn -0.4681 0.8836 -0.0027
vn -0.4809 0.8768 -0.0004
vn -0.7058 0.7084 -0.0029
vn -0.6967 0.7174 -0.0020
vn -0.7548 0.6560 -0.0034
vn -0.7600 0.6499 -0.0026
vn -0.8437 0.5368 -0.0074
vn -0.9158 0.4016 0.0077
vn -0.9629 0.2699 0.0020
vn -0.9641 0.2657 0.0022
vn -0.9921 0.1254 -0.0079
vn -0.9996 -0.0279 0.0059
vn -0.9809 -0.1943 -0.0073
vn -0.9443 -0.3291 0.0026
vn -0.9223 -0.3864 -0.0047
vn -0.7932 -0.6089 0.0041
vn -0.7662 -0.6425 -0.0022
vn -0.5897 -0.8076 -0.0030
vn -0.5867 -0.8098 -0.0029
vn -0.6396 -0.7687 0.0048
vn -0.3853 -0.9228 -0.0046
vn -0.3266 -0.9452 0.0010
vn -0.2534 -0.9673 -0.0066
vn 0.2154 -0.9765 -0.0045
vn 0.2663 -0.9639 0.0037
vn 0.5303 -0.8478 -0.0038
vn 0.5555 -0.8315 0.0002
vn 0.7016 -0.7126 -0.0002
vn 0.6783 -0.7348 0.0015
vn 0.6992 -0.7150 -0.0003
vn 0.8162 -0.5777 0.0010
vn 0.8151 -0.5793 0.0013
vn 0.9059 -0.4233 -0.0077
vn 0.9644 -0.2645 0.0074
vn 0.9908 -0.1348 -0.0062
vn 0.9990 0.0434 0.0071
vn 0.9860 0.1667 -0.0011
vn 0.9842 0.1772 -0.0000
vn 0.9007 0.4345 -0.0010
vn 0.8998 0.4363 -0.0007
vn 0.8164 0.5775 0.0069
vn 0.7505 0.6608 -0.0039
vn 0.6542 0.7563 -0.0012
vn 0.5698 0.8218 -0.0070
vn 0.6259 0.7799 -0.0067
vn 0.5078 0.8614 0.0070
vn 0.3656 0.9308 0.0003
vn 0.3354 0.9421 0.0024
vn 0.2441 0.9697 -0.0065
vn -0.0004 -0.7323 0.6810
vn 0.0009 -0.4679 0.8838
vn -0.2334 -0.6854 0.6898
vn -0.1762 -0.4243 0.8882
vn -0.5724 -0.7876 0.2283
vn -0.4767 -0.4334 0.7648
vn -0.5097 -0.4064 0.7583
vn -0.4419 -0.3374 0.8312
vn -0.9216 -0.3195 0.2203
vn -0.4310 -0.0788 0.8989
vn -0.9252 -0.0253 0.3786
vn -0.6340 0.1148 0.7648
vn -0.4977 0.2704 0.8241
vn -0.5929 0.5006 0.6308
vn -0.4012 0.3865 0.8305
vn -0.4870 0.6388 0.5956
vn -0.4164 0.6553 0.6303
vn -0.1007 0.2146 0.9715
vn -0.1705 0.7516 0.6372
vn 0.0005 0.7782 0.6280
vn -0.0004 0.6016 0.7988
vn 0.2661 -0.9599 0.0886
vn 0.2667 -0.4899 0.8300
vn 0.4505 -0.4793 0.7532
vn 0.4765 -0.2867 0.8311
vn 0.8643 -0.2366 0.4439
vn 0.5760 -0.1135 0.8095
vn 0.8008 -0.0077 0.5989
vn 0.4587 0.1615 0.8738
vn 0.1343 0.0572 0.9893
vn 0.5174 0.3957 0.7588
vn 0.4512 0.4917 0.7448
vn 0.2508 0.3551 0.9006
vn 0.1638 0.6135 0.7725
vn 0.1816 -0.5399 -0.8219
vn 0.4181 -0.7199 -0.5540
vn 0.3491 -0.2774 -0.8951
vn 0.4348 -0.1443 -0.8889
vn 0.9259 -0.1279 -0.3555
vn 0.4896 0.0449 -0.8708
vn 0.8186 0.1395 -0.5572
vn 0.5807 0.2869 -0.7619
vn 0.5676 0.2784 -0.7748
vn 0.4463 0.4107 -0.7950
vn 0.5840 0.4946 -0.6436
vn 0.3029 0.5370 -0.7873
vn -0.0748 0.1900 -0.9789
vn -0.3307 0.5670 -0.7545
vn -0.4241 0.5479 -0.7211
vn -0.4528 0.2118 -0.8661
vn -0.7266 0.0516 -0.6852
vn -0.6320 -0.0780 -0.7710
vn -0.5157 -0.2683 -0.8137
vn -0.6467 -0.5312 -0.5474
vn -0.4708 -0.4326 -0.7689
vn -0.2806 -0.4921 -0.8241
s 0
usemtl mat0
f 53//1 15//1 1//1
f 53//2 1//2 52//2
f 73//3 7//3 2//3
f 73//4 2//4 72//4
f 7//5 4//5 5//5
f 7//6 3//6 4//6
f 8//7 6//7 3//7
f 8//8 3//8 7//8
f 10//9 9//9 8//9
f 49//10 10//10 8//10
f 11//11 49//11 8//11
f 53//12 8//12 7//12
f 53//13 11//13 8//13
f 69//14 73//14 12//14
f 14//15 69//15 13//15
f 15//16 7//16 73//16
f 15//17 53//17 7//17
f 15//18 73//18 69//18
f 17//19 15//19 69//19
f 18//20 14//20 16//20
f 20//21 14//21 18//21
f 20//22 69//22 14//22
f 20//23 19//23 17//23
f 20//24 17//24 69//24
f 23//25 24//25 21//25
f 21//26 24//26 22//26
f 25//27 26//27 23//27
f 27//28 28//28 26//28
f 23//29 29//29 24//29
f 26//30 29//30 23//30
f 28//31 29//31 26//31
f 30//32 31//32 71//32
f 24//33 32//33 30//33
f 29//34 32//34 24//34
f 30//35 32//35 31//35
f 61//36 34//36 33//36
f 61//37 36//37 34//37
f 34//38 36//38 56//38
f 31//39 36//39 61//39
f 35//40 36//40 32//40
f 32//41 36//41 31//41
f 74//42 2//42 7//42
f 74//43 7//43 76//43
f 74//44 76//44 37//44
f 38//45 74//45 37//45
f 39//46 37//46 4//46
f 39//47 38//47 37//47
f 39//48 4//48 3//48
f 40//49 39//49 3//49
f 40//50 3//50 41//50
f 23//51 40//51 41//51
f 23//52 41//52 6//52
f 42//53 23//53 6//53
f 42//54 6//54 43//54
f 44//55 42//55 43//55
f 44//56 43//56 9//56
f 45//57 44//57 9//57
f 45//58 9//58 46//58
f 47//59 45//59 46//59
f 47//60 46//60 48//60
f 47//61 48//61 49//61
f 50//62 47//62 49//62
f 50//63 49//63 51//63
f 50//64 51//64 11//64
f 52//65 50//65 11//65
f 52//66 11//66 53//66
f 1//67 15//67 54//67
f 55//68 1//68 54//68
f 55//69 54//69 19//69
f 35//70 55//70 19//70
f 35//71 19//71 20//71
f 56//72 20//72 75//72
f 56//73 35//73 20//73
f 57//74 75//74 18//74
f 57//75 56//75 75//75
f 57//76 18//76 58//76
f 59//77 57//77 58//77
f 59//78 58//78 60//78
f 61//79 59//79 60//79
f 61//80 60//80 62//80
f 63//81 61//81 62//81
f 63//82 62//82 64//82
f 65//83 63//83 64//83
f 66//84 65//84 64//84
f 66//85 64//85 67//85
f 68//86 66//86 67//86
f 68//87 67//87 69//87
f 68//88 69//88 70//88
f 71//89 68//89 70//89
f 71//90 70//90 12//90
f 72//91 71//91 12//91
f 72//92 12//92 73//92
f 1//93 29//93 52//93
f 1//94 32//94 29//94
f 50//95 52//95 29//95
f 50//96 29//96 28//96
f 28//97 47//97 50//97
f 47//98 28//98 27//98
f 45//99 47//99 27//99
f 45//100 27//100 26//100
f 44//101 45//101 26//101
f 44//102 26//102 25//102
f 42//103 44//103 25//103
f 23//104 42//104 25//104
f 21//105 40//105 23//105
f 39//106 40//106 21//106
f 22//107 39//107 21//107
f 22//108 38//108 39//108
f 74//109 38//109 22//109
f 74//110 22//110 24//110
f 2//111 74//111 24//111
f 2//112 30//112 72//112
f 2//113 24//113 30//113
f 32//114 1//114 55//114
f 35//115 32//115 55//115
f 56//116 36//116 35//116
f 34//117 56//117 57//117
f 34//118 57//118 59//118
f 33//119 34//119 59//119
f 61//120 33//120 59//120
f 65//121 61//121 63//121
f 65//122 31//122 61//122
f 31//123 65//123 66//123
f 68//124 31//124 66//124
f 68//125 71//125 31//125
f 30//126 71//126 72//126
f 54//127 15//127 17//127
f 19//128 54//128 17//128
f 75//129 20//129 18//129
f 58//130 18//130 16//130
f 60//131 58//131 16//131
f 14//132 60//132 16//132
f 62//133 60//133 14//133
f 13//134 62//134 14//134
f 64//135 62//135 13//135
f 67//136 13//136 69//136
f 67//137 64//137 13//137
f 70//138 69//138 12//138
f 76//139 7//139 5//139
f 37//140 76//140 5//140
f 4//141 37//141 5//141
f 41//142 3//142 6//142
f 43//143 6//143 8//143
f 43//144 8//144 9//144
f 46//145 9//145 10//145
f 48//146 46//146 10//146
f 49//147 48//147 10//147
f 51//148 49//148 11//148
