# Blender 3.4.1
# www.blender.org
mtllib ImageToStl.com_31. шпонка под рубашку со стороны выкида.mtl
o imagetostl_mesh
v 0.000000 6.000000 0.000000
v -45.454197 0.000000 -0.024219
v 0.000000 0.000000 0.000000
v -45.517754 6.000000 -0.035457
v 0.000000 6.000000 -5.000000
v 0.000000 0.000000 -5.000000
v -45.454193 6.000000 -4.975781
v -45.517754 0.000000 -4.964543
v -46.348888 6.000000 -4.617668
v -46.274212 0.000000 -4.655369
v -46.851257 0.000000 -4.196135
v -46.901348 6.000000 -4.129141
v -47.238930 6.000000 -3.624428
v -47.303249 0.000000 -3.493518
v -47.478745 6.000000 -2.899820
v -47.483784 0.000000 -2.816327
v -47.461914 0.000000 -1.959381
v -47.483784 6.000000 -2.183673
v -47.249435 6.000000 -1.370297
v -47.016113 0.000000 -0.999033
v -46.538437 6.000000 -0.503379
v -46.348888 0.000000 -0.382332
vn -0.0005 -0.0000 1.0000
vn -0.0008 0.0019 1.0000
vn 1.0000 -0.0000 -0.0000
vn -0.0008 -0.0019 -1.0000
vn -0.0005 -0.0000 -1.0000
vn -0.3783 0.0011 -0.9257
vn -0.3716 0.0022 -0.9284
vn -0.6227 -0.0028 -0.7825
vn -0.6624 0.0028 -0.7491
vn -0.8410 -0.0028 -0.5410
vn -0.8312 -0.0007 -0.5560
vn -0.9493 0.0033 -0.3142
vn -0.9663 -0.0028 -0.2576
vn -0.9997 0.0012 0.0255
vn -1.0000 -0.0039 -0.0070
vn -0.9609 0.0068 0.2769
vn -0.9070 -0.0092 0.4210
vn -0.7732 0.0092 0.6341
vn -0.6787 -0.0066 0.7343
vn -0.3716 -0.0022 0.9284
vn -0.4167 0.0052 0.9090
vn -0.0000 1.0000 -0.0000
vn -0.0000 -1.0000 -0.0000
s 0
usemtl mat0
f 1//1 2//1 3//1
f 1//2 4//2 2//2
f 5//3 3//3 6//3
f 5//3 1//3 3//3
f 7//4 6//4 8//4
f 7//5 5//5 6//5
f 9//6 8//6 10//6
f 9//7 7//7 8//7
f 9//8 10//8 11//8
f 12//9 9//9 11//9
f 13//10 11//10 14//10
f 13//11 12//11 11//11
f 15//12 13//12 14//12
f 15//13 14//13 16//13
f 15//14 16//14 17//14
f 18//15 15//15 17//15
f 19//16 18//16 17//16
f 19//17 17//17 20//17
f 21//18 19//18 20//18
f 21//19 20//19 22//19
f 4//20 22//20 2//20
f 4//21 21//21 22//21
f 12//22 7//22 9//22
f 13//22 7//22 12//22
f 15//22 7//22 13//22
f 4//22 1//22 5//22
f 4//22 5//22 7//22
f 19//22 7//22 15//22
f 19//22 15//22 18//22
f 21//22 4//22 7//22
f 21//22 7//22 19//22
f 8//23 11//23 10//23
f 8//23 14//23 11//23
f 8//23 16//23 14//23
f 3//23 2//23 6//23
f 6//23 2//23 8//23
f 8//23 17//23 16//23
f 2//23 20//23 8//23
f 8//23 20//23 17//23
f 22//23 20//23 2//23
