# Blender 3.4.1
# www.blender.org
mtllib ImageToStl.com_62. болты м12-6шт. для крепления передней крышки подшипника со стороны выкида.mtl
o imagetostl_mesh0
v -8.265822 7.443490 3.655207
v -5.230303 7.375794 7.799429
v 0.027653 7.443939 9.097744
v -9.126899 7.444257 -0.707265
v 4.210972 7.360545 8.425485
v 8.285006 7.444865 4.026962
v -7.094373 7.444126 -5.808677
v -4.625668 7.368850 -8.224287
v 1.328510 7.444423 -9.108523
v 8.969732 7.444393 -2.060519
v 6.212530 7.443860 -6.726132
v -0.076662 6.408086 10.924664
v 0.018215 -0.056595 10.955165
v 9.518214 -0.056595 5.470337
v 9.477938 6.390030 5.515835
v 9.517411 7.205682 1.157302
v 9.518214 -0.056595 -5.499318
v 9.541739 6.400884 -5.390563
v 6.030764 7.193696 -7.511518
v 0.018215 -0.056595 -10.984145
v 0.051049 6.394383 -10.979539
v -9.481786 -0.056595 -5.499318
v -9.502108 6.408660 -5.424524
v -9.480522 7.191384 1.518462
v -9.481786 -0.056595 5.470337
v -9.465538 6.338436 5.482909
v -4.504380 -0.148804 4.382397
v -6.554861 -0.057783 1.429123
v -0.544920 -0.059263 6.751203
v -6.080235 -0.057182 -2.766214
v -3.673090 -0.187368 -5.023657
v 4.989466 -0.060660 4.675143
v 6.328403 -0.158822 0.476886
v -0.094114 -0.056814 -6.667389
v 3.722388 -0.156521 -5.153424
v 5.733196 -0.158612 -2.664145
v -5.428861 -0.303424 -2.863326
v -5.917078 -43.319698 -1.178533
v -4.382832 -0.658278 -4.164498
v -4.680251 -43.304207 -3.849244
v -2.726049 -43.304424 -5.380011
v -1.386459 -0.320083 -5.989392
v 1.280288 -0.304330 -6.022571
v -0.453012 -43.312729 -6.044638
v 2.802521 -0.649450 -5.384824
v 2.226892 -43.299957 -5.645848
v 4.051062 -43.307705 -4.485912
v 5.050785 -0.671670 -3.414504
v 6.104820 -0.661737 -0.116551
v 5.475791 -43.312088 -2.630712
v 6.063497 -43.304108 -0.007496
v 5.121922 -0.305916 3.455555
v 3.548743 -0.649361 4.933164
v 5.324898 -43.309723 2.966206
v 3.021545 -43.319195 5.236030
v 1.975053 -0.296909 5.867204
v 0.788719 -43.302254 5.965516
v -1.206168 -0.319923 5.991804
v -1.603461 -43.314346 5.812644
v -3.167473 -0.315708 5.192958
v -4.832979 -0.658278 3.599054
v -4.388885 -43.303612 4.190963
v -5.841856 -43.304108 1.470451
v -5.891989 -0.310988 1.637445
v -6.084630 -0.331899 -0.363482
v 3.970300 -45.057026 1.622242
v 0.292918 -45.058113 4.279697
v 2.706985 -45.058701 3.356444
v 4.302831 -45.057323 -0.262349
v -1.859205 -45.057240 3.840004
v 3.459499 -45.059734 -2.643085
v -3.384961 -45.057014 2.579543
v 1.319091 -45.057373 -4.104023
v -4.247292 -45.058235 0.626946
v -1.208810 -45.059235 -4.164403
v -3.696868 -45.062737 -2.282651
vn 0.0302 0.9995 -0.0058
vn 0.0094 0.9999 0.0037
vn -0.0147 0.9999 0.0070
vn 0.0185 0.9998 -0.0088
vn -0.0204 0.9984 -0.0519
vn -0.0236 0.9997 -0.0027
vn 0.0004 1.0000 0.0056
vn -0.0000 1.0000 0.0002
vn -0.0078 1.0000 0.0045
vn 0.5016 0.0114 0.8650
vn 0.5000 0.0127 0.8660
vn 0.4831 -0.0032 0.8756
vn 0.9999 0.0062 0.0102
vn 1.0000 0.0001 -0.0000
vn 1.0000 -0.0037 0.0042
vn 0.5191 0.0125 -0.8546
vn 0.5000 0.0002 -0.8660
vn 0.5019 -0.0019 -0.8649
vn -0.5071 0.0032 -0.8619
vn -0.5000 0.0092 -0.8660
vn -0.4991 0.0085 -0.8665
vn -1.0000 -0.0032 0.0035
vn -1.0000 0.0002 -0.0000
vn -1.0000 0.0025 0.0043
vn -0.4798 -0.0005 0.8774
vn -0.4999 0.0146 0.8659
vn -0.5190 -0.0036 0.8548
vn 0.2431 0.7656 -0.5956
vn 0.1628 0.9286 -0.3335
vn 0.7475 0.6596 -0.0783
vn 0.2540 0.9668 0.0285
vn 0.3486 0.8736 0.3396
vn -0.3029 0.9511 0.0599
vn -0.8116 0.5808 -0.0630
vn 0.3707 0.9025 -0.2192
vn 0.4077 0.8385 -0.3614
vn 0.5341 0.8301 0.1602
vn 0.0968 0.8634 0.4951
vn -0.1306 0.8656 0.4834
vn -0.3735 0.8818 0.2880
vn -0.4994 0.8466 0.1840
vn -0.4117 0.8964 -0.1641
vn -0.4127 0.7939 -0.4465
vn -0.0777 0.8911 -0.4471
vn -0.0219 -0.9996 -0.0156
vn -0.0134 -0.9996 0.0233
vn 0.0242 -0.9997 -0.0026
vn -0.0001 -1.0000 -0.0001
vn -0.0004 -1.0000 -0.0000
vn -0.0000 -1.0000 0.0006
vn -0.0250 -0.9992 0.0309
vn 0.0007 -1.0000 0.0012
vn -0.0030 -0.9997 0.0224
vn 0.0369 -0.9993 0.0009
vn -0.0258 -0.9997 -0.0007
vn -0.0197 -0.9992 -0.0341
vn 0.0320 -0.9995 -0.0000
vn 0.0164 -0.9998 -0.0141
vn 0.0236 -0.9997 -0.0045
vn 0.0156 -0.9995 -0.0271
vn -0.9673 0.0010 -0.2537
vn -0.9074 -0.0062 -0.4203
vn -0.7793 0.0008 -0.6267
vn -0.6167 -0.0015 -0.7872
vn -0.7678 -0.0116 -0.6406
vn -0.3891 -0.0009 -0.9212
vn -0.2807 -0.0049 -0.9598
vn -0.0124 0.0010 -0.9999
vn 0.1472 -0.0054 -0.9891
vn 0.3865 0.0004 -0.9223
vn 0.5366 -0.0021 -0.8439
vn 0.6591 0.0034 -0.7520
vn 0.7931 -0.0033 -0.6091
vn 0.9525 0.0039 -0.3044
vn 0.9758 -0.0015 -0.2186
vn 0.9705 -0.0003 0.2411
vn 0.9642 0.0015 0.2652
vn 0.6852 -0.0051 0.7283
vn 0.7019 -0.0036 0.7123
vn 0.5104 -0.0002 0.8600
vn 0.3105 -0.0064 0.9506
vn 0.0391 0.0012 0.9992
vn -0.0638 -0.0036 0.9980
vn -0.3772 -0.0004 0.9261
vn -0.5031 -0.0058 0.8642
vn -0.6917 0.0028 0.7222
vn -0.8821 -0.0026 0.4711
vn -0.8802 -0.0029 0.4747
vn -0.9954 -0.0015 0.0958
vn -0.9996 -0.0044 0.0284
vn 0.0020 -1.0000 0.0005
vn -0.0003 -1.0000 -0.0003
vn -0.0011 -1.0000 0.0011
vn 0.0008 -1.0000 -0.0028
vn -0.0005 -1.0000 0.0012
vn 0.0007 -1.0000 -0.0001
vn -0.0013 -1.0000 0.0013
vn -0.0002 -1.0000 0.0010
vn 0.0009 -1.0000 -0.0007
vn -0.7138 -0.6957 -0.0808
vn -0.3654 -0.9247 -0.1064
vn -0.3764 -0.8570 -0.3520
vn -0.7764 0.0210 -0.6299
vn -0.3829 -0.3362 -0.8604
vn 0.0010 -0.9328 -0.3603
vn 0.3285 -0.4023 -0.8546
vn 0.3392 -0.2017 -0.9188
vn 0.4946 -0.6546 -0.5718
vn 0.7727 -0.1147 -0.6243
vn 0.7350 -0.6368 -0.2330
vn 0.9601 -0.2121 -0.1820
vn 0.7272 -0.6339 0.2632
vn 0.6299 -0.7454 0.2183
vn 0.1591 -0.9644 0.2112
vn 0.5180 0.5268 0.6739
vn 0.3414 0.2353 0.9100
vn 0.0190 -0.9506 0.3097
vn -0.1904 -0.8657 0.4630
vn -0.5136 0.0467 0.8567
vn -0.4520 -0.6492 0.6118
vn -0.8820 -0.1283 0.4534
vn -0.4150 -0.8715 0.2613
vn -0.3688 -0.9284 0.0452
vn 0.3642 -0.7305 -0.5776
vn 0.3949 -0.7127 -0.5798
vn 0.1102 -0.6870 -0.7182
vn 0.0167 -0.7359 -0.6769
vn -0.2099 -0.6729 -0.7094
vn -0.4193 -0.7333 -0.5352
vn -0.4158 -0.7235 -0.5511
vn -0.6782 -0.6625 -0.3179
vn -0.6497 -0.7504 -0.1217
vn -0.7338 -0.6790 0.0248
vn -0.6814 -0.6670 0.3013
vn -0.6149 -0.7169 0.3285
vn -0.4343 -0.7316 0.5255
vn -0.3755 -0.6699 0.6405
vn -0.1363 -0.7336 0.6658
vn -0.0430 -0.6856 0.7267
vn 0.2147 -0.7073 0.6735
vn 0.2433 -0.7318 0.6366
vn 0.5244 -0.6669 0.5294
vn 0.5497 -0.7336 0.3997
vn 0.6914 -0.7121 0.1221
vn 0.7086 -0.6837 0.1747
vn 0.7082 -0.6884 -0.1566
vn 0.6389 -0.7355 -0.2256
vn 0.5860 -0.6728 -0.4516
s 0
usemtl mat0
f 4//1 1//1 2//1
f 7//2 4//2 2//2
f 7//3 2//3 3//3
f 7//4 3//4 5//4
f 9//5 8//5 7//5
f 10//6 5//6 6//6
f 11//7 7//7 5//7
f 11//8 9//8 7//8
f 11//9 5//9 10//9
f 5//10 12//10 13//10
f 5//11 13//11 14//11
f 15//12 5//12 14//12
f 16//13 15//13 14//13
f 16//14 14//14 17//14
f 18//15 16//15 17//15
f 19//16 18//16 17//16
f 19//17 17//17 20//17
f 21//18 19//18 20//18
f 8//19 21//19 20//19
f 8//20 20//20 22//20
f 23//21 8//21 22//21
f 24//22 23//22 22//22
f 24//23 22//23 25//23
f 26//24 24//24 25//24
f 2//25 26//25 25//25
f 2//26 25//26 13//26
f 12//27 2//27 13//27
f 19//28 21//28 9//28
f 19//29 9//29 11//29
f 16//30 18//30 10//30
f 16//31 10//31 6//31
f 15//32 6//32 5//32
f 24//33 1//33 4//33
f 23//34 24//34 4//34
f 18//35 11//35 10//35
f 18//36 19//36 11//36
f 15//37 16//37 6//37
f 12//38 5//38 3//38
f 12//39 3//39 2//39
f 26//40 2//40 1//40
f 1//41 24//41 26//41
f 23//42 4//42 7//42
f 8//43 23//43 7//43
f 9//44 21//44 8//44
f 25//45 28//45 27//45
f 25//46 27//46 13//46
f 27//47 29//47 13//47
f 28//48 22//48 30//48
f 25//49 22//49 28//49
f 29//50 32//50 13//50
f 22//51 31//51 30//51
f 32//52 14//52 13//52
f 32//53 33//53 14//53
f 31//54 20//54 34//54
f 34//55 20//55 35//55
f 22//56 20//56 31//56
f 33//57 17//57 14//57
f 35//58 17//58 36//58
f 36//59 17//59 33//59
f 20//60 17//60 35//60
f 38//61 65//61 37//61
f 40//62 38//62 37//62
f 40//63 37//63 39//63
f 41//64 40//64 39//64
f 41//65 39//65 31//65
f 41//66 31//66 42//66
f 44//67 41//67 42//67
f 44//68 42//68 43//68
f 46//69 44//69 43//69
f 46//70 43//70 45//70
f 47//71 46//71 45//71
f 47//72 45//72 48//72
f 50//73 47//73 48//73
f 50//74 48//74 49//74
f 51//75 50//75 49//75
f 54//76 51//76 49//76
f 54//77 49//77 52//77
f 54//78 52//78 53//78
f 55//79 54//79 53//79
f 55//80 53//80 56//80
f 57//81 55//81 56//81
f 57//82 56//82 58//82
f 59//83 57//83 58//83
f 59//84 58//84 60//84
f 62//85 59//85 60//85
f 62//86 60//86 61//86
f 63//87 62//87 61//87
f 63//88 61//88 64//88
f 63//89 64//89 65//89
f 38//90 63//90 65//90
f 69//91 66//91 68//91
f 70//92 68//92 67//92
f 74//93 70//93 72//93
f 75//94 73//94 71//94
f 75//95 71//95 69//95
f 76//96 69//96 68//96
f 76//97 70//97 74//97
f 76//98 68//98 70//98
f 76//99 75//99 69//99
f 30//100 65//100 28//100
f 30//101 37//101 65//101
f 31//102 37//102 30//102
f 37//103 31//103 39//103
f 34//104 42//104 31//104
f 34//105 43//105 42//105
f 35//106 43//106 34//106
f 43//107 35//107 45//107
f 45//108 35//108 48//108
f 35//109 36//109 48//109
f 48//110 36//110 49//110
f 36//111 33//111 49//111
f 49//112 33//112 52//112
f 32//113 52//113 33//113
f 32//114 56//114 52//114
f 52//115 56//115 53//115
f 29//116 56//116 32//116
f 29//117 58//117 56//117
f 29//118 60//118 58//118
f 27//119 60//119 29//119
f 60//120 27//120 61//120
f 27//121 64//121 61//121
f 28//122 64//122 27//122
f 65//123 64//123 28//123
f 46//124 47//124 71//124
f 46//125 71//125 73//125
f 44//126 46//126 73//126
f 44//127 73//127 75//127
f 41//128 44//128 75//128
f 40//129 41//129 75//129
f 40//130 75//130 76//130
f 38//131 40//131 76//131
f 38//132 76//132 74//132
f 63//133 38//133 74//133
f 62//134 74//134 72//134
f 62//135 63//135 74//135
f 62//136 72//136 70//136
f 59//137 62//137 70//137
f 59//138 70//138 67//138
f 57//139 59//139 67//139
f 55//140 57//140 67//140
f 68//141 55//141 67//141
f 54//142 55//142 68//142
f 54//143 68//143 66//143
f 51//144 66//144 69//144
f 51//145 54//145 66//145
f 50//146 51//146 69//146
f 50//147 69//147 71//147
f 47//148 50//148 71//148
