# Blender 3.4.1
# www.blender.org
mtllib ImageToStl.com_51. гайки м16-2шт. для крепления грундбуксы сальника со стороны всасывания.mtl
o imagetostl_mesh0
v -7.627382 -0.000303 7.276814
v -6.416680 0.000820 4.893238
v -4.091201 0.000223 6.907407
v -4.096539 -0.000099 9.666960
v -9.989072 -0.000222 3.338292
v -1.755889 0.000150 7.846107
v -7.813694 0.000063 1.815813
v -1.030307 0.000030 10.419557
v -8.004951 0.000405 -0.798741
v -10.475388 -0.000064 -0.511577
v 1.002557 0.000405 7.981986
v 2.632560 -0.000238 10.199629
v -9.567131 -0.000325 -4.427716
v -7.247834 0.000182 -3.448248
v 3.840785 0.000244 7.055637
v 7.377042 -0.000697 7.608536
v -5.845938 0.000220 -5.505270
v -7.472467 -0.000060 -7.367680
v 6.719008 0.000823 4.542582
v -3.945915 0.000160 -6.999808
v -3.227238 -0.000937 -10.119720
v 10.115598 -0.000303 2.967097
v -1.397012 0.000400 -7.922850
v 7.955216 0.000400 1.199057
v 10.420101 -0.000099 -1.285778
v 2.900665 -0.000697 -10.192974
v 1.335879 0.000220 -7.918233
v 7.934620 0.000118 -1.108342
v 7.376297 0.000220 -3.173836
v 9.534341 0.000027 -4.328732
v 3.821298 0.000112 -7.046536
v 5.736818 0.000250 -5.624938
v 7.516858 -0.000238 -7.379678
v -11.000440 11.706793 -6.349422
v -10.998980 1.293208 -6.351950
v -10.999901 0.729469 -4.161997
v -10.999894 12.390763 -3.468334
v -10.999336 0.275412 1.356847
v -10.999922 12.709388 0.040703
v -10.999832 12.343943 3.743770
v -11.002326 1.281959 6.338473
v -10.990441 11.718041 6.359058
v -0.011885 11.718041 -12.697530
v 0.011885 1.281959 -12.697530
v -2.257720 0.656057 -11.398017
v -4.324611 12.724588 -10.204124
v -5.464721 0.290613 -9.546557
v -8.503618 0.609238 -7.792018
v -9.104343 12.270531 -7.445197
v 10.998876 11.705380 -6.352060
v 11.000440 1.293208 -6.349422
v 9.104339 0.729468 -7.445199
v 8.503615 12.390763 -7.792020
v 4.324607 0.275412 -10.204127
v 5.464716 12.709388 -9.546560
v 2.257714 12.343942 -11.398021
v 11.002326 11.718041 6.338473
v 10.990441 1.281959 6.359058
v 10.999832 0.656056 3.743762
v 10.999336 12.724588 1.356845
v 10.999922 0.290613 0.040693
v 10.999894 0.609237 -3.468337
v 10.999901 12.270530 -4.162002
v 0.001608 11.705380 12.701336
v -0.001608 1.294620 12.701336
v 1.895557 0.729469 11.607191
v 2.496287 12.390764 11.260352
v 6.674730 0.275412 8.847282
v 5.535208 12.709388 9.505861
v 8.742117 12.343942 7.654249
v -8.742110 0.656057 7.654253
v -6.674726 12.724588 8.847285
v -5.535204 0.290613 9.505864
v -2.496284 0.609236 11.260354
v -1.895552 12.270530 11.607194
v 7.149126 12.196959 -1.033952
v 7.191635 0.815060 -0.528589
v 6.775674 0.806916 -2.459376
v 6.288647 12.200747 -3.576644
v 5.753046 0.805629 -4.362707
v 4.795574 12.186345 -5.378201
v 4.212910 0.806916 -5.848904
v 3.381238 12.190964 -6.363289
v 2.533759 0.809036 -6.745686
v 1.300166 12.187601 -7.105535
v 0.140243 0.815484 -7.245812
v -1.083761 12.190750 -7.135007
v -3.014580 0.803397 -6.590436
v -3.398714 12.168723 -6.382417
v -5.029675 0.815908 -5.156665
v -5.256699 12.195915 -4.928477
v -6.475442 0.822103 -3.254413
v -6.487823 12.187601 -3.176037
v -7.119180 12.186331 -1.130453
v -7.200412 0.817626 -0.488741
v -7.094921 12.176387 1.456139
v -6.937473 0.811480 2.039691
v -5.851367 12.194136 4.275944
v -5.955678 0.811105 4.060511
v -4.599580 0.812202 5.557298
v -3.342178 12.184516 6.430499
v -2.267160 0.792630 6.883400
v -0.293714 12.172037 7.241221
v 0.957224 0.818159 7.183623
v 2.493663 12.182400 6.769667
v 3.162658 0.812079 6.467108
v 4.686930 12.191531 5.511908
v 4.675400 0.804285 5.493696
v 6.012746 0.809036 3.971285
v 6.324977 12.185535 3.489110
v 6.972543 0.812719 1.929668
v 7.087179 12.189193 1.346308
v 1.571015 12.999991 -10.356771
v 4.596222 13.000077 -9.440138
v 7.472466 13.000060 -7.367681
v 10.475388 13.000064 -0.511584
v 9.989073 13.000222 3.338290
v 4.096540 13.000098 9.666959
v -2.632562 13.000237 10.199628
v -7.377041 13.000697 7.608537
v -10.420101 13.000098 -1.285780
v -7.516855 13.000237 -7.379680
v -2.900665 13.000697 -10.192973
v 9.565797 13.000322 -4.435171
v 7.627381 13.000303 7.276815
v 1.030307 12.999969 10.419556
v -10.115598 13.000303 2.967096
v -9.534340 12.999972 -4.328732
v -5.845938 12.999780 5.505269
v -3.936388 12.999777 6.996788
v -7.332167 12.999957 3.271337
v -1.418639 12.999674 7.926417
v -8.062826 12.999163 0.402400
v 1.815543 12.999534 7.858772
v -7.555152 12.999818 -2.709461
v 4.552033 12.999904 6.602973
v -6.535861 12.999904 -4.647880
v 6.789249 12.999512 4.335166
v -4.443927 12.999528 -6.713401
v -2.150041 12.999913 -7.722876
v 8.050365 12.999113 0.697662
v 0.200568 12.999600 -8.042571
v 7.471263 12.999750 -2.954865
v 2.574007 12.999913 -7.592100
v 4.850575 12.999798 -6.407049
v 6.333666 12.999882 -4.906249
vn 0.0001 -1.0000 -0.0004
vn 0.0001 -1.0000 -0.0001
vn 0.0004 -1.0000 -0.0003
vn -0.0000 -1.0000 -0.0001
vn 0.0002 -1.0000 0.0001
vn 0.0002 -1.0000 -0.0001
vn -0.0001 -1.0000 -0.0002
vn -0.0002 -1.0000 -0.0002
vn 0.0002 -1.0000 -0.0000
vn -0.0002 -1.0000 -0.0005
vn 0.0001 -1.0000 0.0001
vn -0.0000 -1.0000 0.0004
vn -0.0005 -1.0000 -0.0004
vn 0.0002 -1.0000 0.0004
vn -0.0003 -1.0000 -0.0000
vn -0.0003 -1.0000 -0.0001
vn -0.0000 -1.0000 0.0006
vn -0.0001 -1.0000 0.0004
vn -0.0001 -1.0000 0.0001
vn -0.0001 -1.0000 -0.0000
vn -0.0001 -1.0000 0.0003
vn -0.0002 -1.0000 0.0001
vn -0.0000 -1.0000 0.0001
vn -0.0001 -1.0000 0.0002
vn -1.0000 -0.0001 -0.0005
vn -1.0000 -0.0000 0.0002
vn -1.0000 -0.0000 0.0001
vn -1.0000 -0.0000 -0.0000
vn -1.0000 0.0001 -0.0006
vn -1.0000 0.0011 0.0039
vn -0.4967 -0.0011 -0.8679
vn -0.5005 -0.0001 -0.8657
vn -0.5000 -0.0000 -0.8660
vn -0.4999 -0.0000 -0.8661
vn -0.4998 -0.0000 -0.8661
vn -0.5004 0.0001 -0.8658
vn 0.5004 -0.0001 -0.8658
vn 0.4998 -0.0000 -0.8661
vn 0.4999 -0.0000 -0.8661
vn 0.5000 -0.0000 -0.8660
vn 0.5005 0.0001 -0.8657
vn 0.4967 0.0011 -0.8679
vn 1.0000 -0.0011 0.0039
vn 1.0000 -0.0001 -0.0006
vn 1.0000 -0.0000 -0.0000
vn 1.0000 -0.0000 0.0001
vn 1.0000 -0.0000 0.0002
vn 1.0000 0.0002 -0.0005
vn 0.4996 -0.0002 0.8663
vn 0.5002 -0.0000 0.8659
vn 0.5001 -0.0000 0.8660
vn 0.5000 -0.0000 0.8660
vn 0.4995 0.0001 0.8663
vn 0.5033 0.0011 0.8641
vn -0.5033 -0.0011 0.8641
vn -0.4995 -0.0001 0.8663
vn -0.5000 -0.0000 0.8660
vn -0.5001 -0.0000 0.8660
vn -0.5002 -0.0000 0.8659
vn -0.4996 0.0002 0.8663
vn -0.0054 -0.8925 -0.4509
vn -0.2505 -0.7706 -0.5861
vn -0.2002 -0.9299 -0.3085
vn -0.3293 -0.8474 -0.4165
vn -0.4671 -0.8776 -0.1083
vn -0.6323 -0.7721 -0.0635
vn -0.3406 -0.9392 0.0430
vn -0.3445 -0.8335 0.4321
vn -0.2223 -0.9180 0.3284
vn -0.2245 -0.8135 0.5365
vn 0.2363 -0.8066 0.5419
vn 0.1654 -0.9386 0.3029
vn 0.5464 -0.8335 0.0823
vn 0.3956 -0.9180 0.0283
vn 0.5769 -0.8135 -0.0739
vn 0.3511 -0.8066 -0.4756
vn 0.1797 -0.9386 -0.2947
vn -0.0288 -0.8800 -0.4741
vn -0.3985 -0.8721 -0.2840
vn -0.4028 -0.8698 -0.2849
vn -0.4748 -0.8522 -0.2196
vn -0.5480 -0.8200 0.1653
vn -0.4026 -0.8830 0.2414
vn -0.4096 -0.8640 0.2927
vn -0.1104 -0.8863 0.4498
vn -0.0613 -0.8560 0.5133
vn 0.0283 -0.8813 0.4717
vn 0.0203 -0.8735 0.4864
vn 0.4293 -0.7988 0.4214
vn 0.3960 -0.8880 0.2336
vn 0.4583 -0.8640 0.2084
vn 0.4444 -0.8864 -0.1294
vn 0.4751 -0.8561 -0.2032
vn 0.3943 -0.8812 -0.2607
vn 0.4106 -0.8736 -0.2611
vn 0.1503 -0.7988 -0.5825
vn -0.9776 0.0057 0.2106
vn -0.9472 -0.0091 0.3205
vn -0.8809 0.0088 0.4733
vn -0.7699 -0.0078 0.6381
vn -0.6944 0.0058 0.7196
vn -0.5715 -0.0047 0.8206
vn -0.4711 0.0054 0.8821
vn -0.3359 -0.0066 0.9419
vn -0.2045 0.0088 0.9788
vn -0.0124 -0.0111 0.9999
vn 0.2033 0.0123 0.9790
vn 0.3092 -0.0070 0.9510
vn 0.5798 0.0047 0.8148
vn 0.6162 -0.0035 0.7876
vn 0.7962 0.0037 0.6051
vn 0.8183 -0.0031 0.5748
vn 0.9555 -0.0010 0.2949
vn 0.9673 0.0074 0.2536
vn 0.9999 -0.0077 -0.0094
vn 0.9946 0.0085 -0.1034
vn 0.9150 -0.0080 -0.4035
vn 0.8995 -0.0000 -0.4370
vn 0.7411 0.0059 -0.6714
vn 0.6514 -0.0138 -0.7586
vn 0.4943 0.0121 -0.8692
vn 0.2569 -0.0142 -0.9663
vn 0.0926 0.0153 -0.9956
vn -0.1667 -0.0134 -0.9859
vn -0.3090 0.0071 -0.9510
vn -0.4974 -0.0062 -0.8675
vn -0.5411 0.0019 -0.8409
vn -0.7513 0.0018 -0.6600
vn -0.7771 -0.0053 -0.6293
vn -0.9050 0.0068 -0.4254
vn -0.9421 -0.0077 -0.3351
vn -0.9960 0.0055 -0.0888
vn -0.9996 -0.0049 -0.0260
vn -0.0171 0.8818 -0.4713
vn 0.1395 0.8767 -0.4604
vn 0.2108 0.8229 -0.5276
vn 0.2569 0.8982 -0.3566
vn 0.3293 0.8474 -0.4165
vn 0.4672 0.8775 -0.1082
vn 0.6323 0.7721 -0.0635
vn 0.3406 0.9392 0.0430
vn 0.3445 0.8335 0.4321
vn 0.2223 0.9180 0.3284
vn 0.2245 0.8135 0.5365
vn -0.2363 0.8066 0.5419
vn -0.1654 0.9386 0.3029
vn -0.5464 0.8335 0.0823
vn -0.3956 0.9180 0.0283
vn -0.5769 0.8135 -0.0739
vn -0.3511 0.8066 -0.4756
vn -0.1797 0.9386 -0.2947
vn 0.0531 0.8603 -0.5070
vn 0.3983 0.8721 -0.2844
vn 0.4035 0.8693 -0.2855
vn 0.4754 0.8518 -0.2200
vn 0.5480 0.8200 0.1653
vn 0.4026 0.8830 0.2414
vn 0.4096 0.8640 0.2927
vn 0.1104 0.8863 0.4498
vn 0.0613 0.8560 0.5133
vn -0.0203 0.8735 0.4864
vn -0.0283 0.8813 0.4717
vn -0.4293 0.7988 0.4214
vn -0.3960 0.8880 0.2336
vn -0.4583 0.8640 0.2084
vn -0.4444 0.8864 -0.1294
vn -0.4751 0.8561 -0.2032
vn -0.3943 0.8812 -0.2607
vn -0.4106 0.8736 -0.2611
vn -0.1503 0.7988 -0.5825
vn 0.0002 1.0000 -0.0003
vn 0.0004 1.0000 -0.0002
vn 0.0001 1.0000 -0.0002
vn 0.0002 1.0000 -0.0002
vn 0.0005 1.0000 -0.0001
vn -0.0000 1.0000 -0.0002
vn 0.0002 1.0000 0.0002
vn -0.0001 1.0000 -0.0002
vn 0.0001 1.0000 -0.0000
vn -0.0002 1.0000 -0.0001
vn -0.0000 1.0000 0.0001
vn -0.0001 1.0000 -0.0001
vn 0.0002 1.0000 -0.0000
vn 0.0001 1.0000 0.0004
vn -0.0003 1.0000 -0.0002
vn -0.0000 1.0000 0.0003
vn 0.0002 1.0000 0.0003
vn -0.0004 1.0000 -0.0001
vn -0.0003 1.0000 0.0002
vn -0.0001 1.0000 0.0001
vn -0.0002 1.0000 0.0001
vn -0.0000 1.0000 -0.0000
vn -0.0002 1.0000 0.0002
vn -0.0001 1.0000 -0.0000
vn -0.6492 0.7605 -0.0144
vn -0.7820 0.6107 0.1241
vn -0.6210 0.7548 0.2113
vn -0.6464 0.6634 0.3769
vn -0.5217 0.7389 0.4264
vn -0.5190 0.6838 0.5129
vn -0.3870 0.7333 0.5591
vn -0.3454 0.6635 0.6637
vn -0.2278 0.7378 0.6354
vn -0.1400 0.6611 0.7371
vn -0.0072 0.7515 0.6597
vn 0.1004 0.6680 0.7374
vn 0.2029 0.7363 0.6455
vn 0.3036 0.6569 0.6901
vn 0.4216 0.7395 0.5249
vn 0.5302 0.6562 0.5369
vn 0.5498 0.7388 0.3898
vn 0.6593 0.6672 0.3467
vn 0.6472 0.7355 0.2002
vn 0.7550 0.6440 0.1233
vn 0.6497 0.7602 -0.0032
vn 0.7480 0.6357 -0.1907
vn 0.5940 0.7590 -0.2667
vn 0.6377 0.6430 -0.4242
vn 0.4292 0.7546 -0.4964
vn 0.4361 0.7057 -0.5584
vn 0.2570 0.6706 -0.6959
vn 0.1712 0.7559 -0.6320
vn -0.0163 0.6244 -0.7810
vn -0.1111 0.7605 -0.6397
vn -0.3155 0.6543 -0.6873
vn -0.3395 0.7352 -0.5867
vn -0.5479 0.6383 -0.5407
vn -0.5221 0.7395 -0.4250
vn -0.7060 0.6626 -0.2500
vn -0.7159 0.6526 -0.2483
vn -0.6620 -0.7471 -0.0597
vn -0.7243 -0.6354 -0.2677
vn -0.6107 -0.7375 -0.2884
vn -0.4985 -0.7468 -0.4402
vn -0.5183 -0.6154 -0.5938
vn -0.3734 -0.7284 -0.5745
vn -0.2258 -0.6884 -0.6893
vn -0.2255 -0.6869 -0.6908
vn 0.0353 -0.6971 -0.7161
vn 0.0670 -0.7526 -0.6551
vn 0.2791 -0.6634 -0.6943
vn 0.3199 -0.7539 -0.5739
vn 0.4994 -0.6464 -0.5768
vn 0.4960 -0.7434 -0.4488
vn 0.6485 -0.6929 -0.3152
vn 0.6872 -0.6561 -0.3118
vn 0.6876 -0.7223 -0.0733
vn 0.7216 -0.6903 -0.0529
vn 0.6680 -0.7236 0.1739
vn 0.6907 -0.6957 0.1974
vn 0.6114 -0.6728 0.4166
vn 0.5467 -0.7256 0.4179
vn 0.3901 -0.7350 0.5547
vn 0.4472 -0.6905 0.5685
vn 0.2564 -0.6581 0.7079
vn 0.1328 -0.7694 0.6248
vn -0.0013 -0.6375 0.7705
vn -0.1387 -0.7433 0.6544
vn -0.2488 -0.6597 0.7092
vn -0.3209 -0.7336 0.5991
vn -0.4423 -0.6701 0.5961
vn -0.4644 -0.7439 0.4806
vn -0.6319 -0.6497 0.4227
vn -0.5997 -0.7323 0.3227
vn -0.6758 -0.7219 0.1486
vn -0.6999 -0.6887 0.1892
vn -0.7366 -0.6763 0.0067
s 0
usemtl mat0
f 2//1 3//1 1//1
f 1//2 3//2 4//2
f 5//3 2//3 1//3
f 3//4 6//4 4//4
f 5//5 7//5 2//5
f 4//2 6//2 8//2
f 5//4 9//4 7//4
f 10//6 9//6 5//6
f 6//2 11//2 8//2
f 8//7 11//7 12//7
f 13//5 9//5 10//5
f 13//5 14//5 9//5
f 11//7 15//7 12//7
f 12//8 15//8 16//8
f 13//5 17//5 14//5
f 18//9 17//9 13//9
f 15//10 19//10 16//10
f 17//11 18//11 20//11
f 18//12 21//12 20//12
f 19//13 22//13 16//13
f 20//14 21//14 23//14
f 24//15 22//15 19//15
f 24//16 25//16 22//16
f 21//17 26//17 23//17
f 23//18 26//18 27//18
f 28//19 25//19 24//19
f 29//20 25//20 28//20
f 29//20 30//20 25//20
f 27//21 26//21 31//21
f 32//22 33//22 29//22
f 29//23 33//23 30//23
f 26//21 33//21 31//21
f 31//24 33//24 32//24
f 34//25 35//25 36//25
f 37//26 34//26 36//26
f 37//27 36//27 38//27
f 39//28 37//28 38//28
f 40//28 39//28 38//28
f 40//29 38//29 41//29
f 42//30 40//30 41//30
f 43//31 44//31 45//31
f 46//32 43//32 45//32
f 46//33 45//33 47//33
f 46//33 47//33 48//33
f 49//34 46//34 48//34
f 49//35 48//35 35//35
f 34//36 49//36 35//36
f 50//37 51//37 52//37
f 53//38 50//38 52//38
f 53//39 52//39 54//39
f 55//40 53//40 54//40
f 56//40 55//40 54//40
f 56//41 54//41 44//41
f 43//42 56//42 44//42
f 57//43 58//43 59//43
f 60//44 57//44 59//44
f 60//45 59//45 61//45
f 60//45 61//45 62//45
f 63//46 60//46 62//46
f 63//47 62//47 51//47
f 50//48 63//48 51//48
f 64//49 65//49 66//49
f 67//50 64//50 66//50
f 67//51 66//51 68//51
f 69//52 67//52 68//52
f 70//52 69//52 68//52
f 70//53 68//53 58//53
f 57//54 70//54 58//54
f 42//55 41//55 71//55
f 72//56 42//56 71//56
f 72//57 71//57 73//57
f 72//57 73//57 74//57
f 75//58 72//58 74//58
f 75//59 74//59 65//59
f 64//60 75//60 65//60
f 44//61 26//61 21//61
f 47//62 45//62 21//62
f 47//63 21//63 18//63
f 48//64 47//64 18//64
f 36//65 13//65 10//65
f 38//66 36//66 10//66
f 38//67 10//67 5//67
f 73//68 71//68 1//68
f 73//69 1//69 4//69
f 74//70 73//70 4//70
f 68//71 66//71 12//71
f 68//72 12//72 16//72
f 61//73 59//73 22//73
f 61//74 22//74 25//74
f 62//75 61//75 25//75
f 54//76 52//76 33//76
f 54//77 33//77 26//77
f 21//78 45//78 44//78
f 13//79 48//79 18//79
f 35//80 48//80 13//80
f 36//81 35//81 13//81
f 41//82 38//82 5//82
f 41//83 5//83 1//83
f 1//84 71//84 41//84
f 74//85 4//85 8//85
f 65//86 74//86 8//86
f 66//87 8//87 12//87
f 66//88 65//88 8//88
f 58//89 68//89 16//89
f 58//90 16//90 22//90
f 22//91 59//91 58//91
f 62//92 25//92 30//92
f 51//93 62//93 30//93
f 52//94 30//94 33//94
f 52//95 51//95 30//95
f 44//96 54//96 26//96
f 77//97 76//97 78//97
f 76//98 79//98 78//98
f 78//99 79//99 80//99
f 79//100 81//100 80//100
f 80//101 81//101 82//101
f 81//102 83//102 82//102
f 82//103 83//103 84//103
f 83//104 85//104 84//104
f 84//105 85//105 86//105
f 85//106 87//106 86//106
f 86//107 87//107 88//107
f 87//108 89//108 88//108
f 88//109 89//109 90//109
f 89//110 91//110 90//110
f 90//111 91//111 92//111
f 91//112 93//112 92//112
f 93//113 94//113 92//113
f 92//114 94//114 95//114
f 94//115 96//115 95//115
f 95//116 96//116 97//116
f 96//117 98//117 97//117
f 97//118 98//118 99//118
f 99//119 98//119 100//119
f 98//120 101//120 100//120
f 100//121 101//121 102//121
f 101//122 103//122 102//122
f 102//123 103//123 104//123
f 103//124 105//124 104//124
f 104//125 105//125 106//125
f 105//126 107//126 106//126
f 106//127 107//127 108//127
f 108//128 107//128 109//128
f 107//129 110//129 109//129
f 109//130 110//130 111//130
f 110//131 112//131 111//131
f 111//132 112//132 77//132
f 112//133 76//133 77//133
f 43//134 123//134 113//134
f 56//135 113//135 114//135
f 55//136 56//136 114//136
f 55//137 114//137 115//137
f 53//138 55//138 115//138
f 63//139 124//139 116//139
f 60//140 63//140 116//140
f 60//141 116//141 117//141
f 69//142 70//142 125//142
f 69//143 125//143 118//143
f 67//144 69//144 118//144
f 72//145 75//145 119//145
f 72//146 119//146 120//146
f 39//147 40//147 127//147
f 39//148 127//148 121//148
f 37//149 39//149 121//149
f 46//150 49//150 122//150
f 46//151 122//151 123//151
f 113//152 56//152 43//152
f 124//153 53//153 115//153
f 50//154 53//154 124//154
f 63//155 50//155 124//155
f 57//156 60//156 117//156
f 57//157 117//157 125//157
f 125//158 70//158 57//158
f 67//159 118//159 126//159
f 64//160 67//160 126//160
f 75//161 64//161 126//161
f 75//162 126//162 119//162
f 42//163 72//163 120//163
f 42//164 120//164 127//164
f 127//165 40//165 42//165
f 37//166 121//166 128//166
f 34//167 37//167 128//167
f 49//168 128//168 122//168
f 49//169 34//169 128//169
f 43//170 46//170 123//170
f 130//171 129//171 120//171
f 131//172 120//172 129//172
f 131//173 127//173 120//173
f 130//174 120//174 119//174
f 132//173 130//173 119//173
f 133//171 127//171 131//171
f 133//175 121//175 127//175
f 132//173 119//173 126//173
f 134//176 132//176 126//176
f 135//177 121//177 133//177
f 134//178 126//178 118//178
f 135//179 128//179 121//179
f 136//180 134//180 118//180
f 137//181 128//181 135//181
f 137//181 122//181 128//181
f 136//182 118//182 125//182
f 138//178 136//178 125//178
f 139//183 122//183 137//183
f 123//184 122//184 139//184
f 117//185 138//185 125//185
f 123//186 139//186 140//186
f 117//185 141//185 138//185
f 123//187 140//187 142//187
f 116//188 141//188 117//188
f 113//187 123//187 142//187
f 116//189 143//189 141//189
f 113//190 142//190 144//190
f 124//191 143//191 116//191
f 114//192 113//192 144//192
f 114//181 144//181 145//181
f 124//193 146//193 143//193
f 115//190 114//190 145//190
f 115//194 146//194 124//194
f 115//194 145//194 146//194
f 112//195 141//195 76//195
f 143//196 76//196 141//196
f 76//197 143//197 79//197
f 143//198 146//198 79//198
f 79//199 146//199 81//199
f 146//200 145//200 81//200
f 145//201 83//201 81//201
f 144//202 83//202 145//202
f 83//203 144//203 85//203
f 144//204 142//204 85//204
f 85//205 142//205 87//205
f 142//206 140//206 87//206
f 140//207 89//207 87//207
f 140//208 139//208 89//208
f 89//209 139//209 91//209
f 137//210 91//210 139//210
f 91//211 137//211 93//211
f 137//212 135//212 93//212
f 135//213 94//213 93//213
f 135//214 133//214 94//214
f 94//215 133//215 96//215
f 131//216 96//216 133//216
f 131//217 98//217 96//217
f 129//218 98//218 131//218
f 98//219 129//219 101//219
f 129//220 130//220 101//220
f 130//221 132//221 101//221
f 132//222 103//222 101//222
f 132//223 134//223 103//223
f 103//224 134//224 105//224
f 136//225 105//225 134//225
f 105//226 136//226 107//226
f 138//227 107//227 136//227
f 107//228 138//228 110//228
f 138//229 112//229 110//229
f 141//230 112//230 138//230
f 77//231 24//231 111//231
f 24//232 19//232 111//232
f 19//233 109//233 111//233
f 109//234 19//234 108//234
f 15//235 108//235 19//235
f 108//236 15//236 106//236
f 106//237 15//237 104//237
f 11//238 104//238 15//238
f 11//239 6//239 104//239
f 104//240 6//240 102//240
f 6//241 3//241 102//241
f 102//242 3//242 100//242
f 3//243 2//243 100//243
f 100//244 2//244 99//244
f 2//245 97//245 99//245
f 7//246 97//246 2//246
f 7//247 95//247 97//247
f 9//248 95//248 7//248
f 95//249 9//249 92//249
f 14//250 92//250 9//250
f 17//251 92//251 14//251
f 92//252 17//252 90//252
f 90//253 20//253 88//253
f 17//254 20//254 90//254
f 20//255 23//255 88//255
f 88//256 23//256 86//256
f 23//257 27//257 86//257
f 27//258 84//258 86//258
f 31//259 84//259 27//259
f 84//260 31//260 82//260
f 32//261 82//261 31//261
f 82//262 32//262 80//262
f 29//263 80//263 32//263
f 80//264 29//264 78//264
f 78//265 28//265 77//265
f 29//266 28//266 78//266
f 77//267 28//267 24//267
