# Blender 3.4.1
# www.blender.org
mtllib ImageToStl.com_54. гайки м20-4шт. для крепления корпуса подшипника.mtl
o imagetostl_mesh0
v -10.986192 -0.000544 6.828435
v -8.254994 0.000676 5.805209
v -7.213041 -0.000095 10.677899
v -4.694134 0.000367 8.928271
v -2.414356 -0.000334 12.710583
v -9.942219 0.000439 1.498549
v -12.781946 -0.000143 1.672916
v -1.358499 0.000307 9.942637
v 1.875789 0.000395 9.871106
v 3.230871 -0.000292 12.517725
v -12.456104 -0.000292 -3.460845
v -9.548069 0.001015 -3.345628
v 4.986647 0.000126 8.691772
v 8.988311 -0.000775 9.390042
v -9.185438 -0.001081 -9.217105
v -6.940033 0.000633 -7.286031
v 7.371763 0.000518 6.839999
v 9.040117 0.000126 4.323173
v -4.036733 0.000214 -9.197299
v 12.377540 -0.000482 3.796548
v -3.053721 -0.000372 -12.572075
v 9.943859 0.000535 1.496118
v -0.528810 0.000355 -10.086194
v 12.574966 -0.001081 -3.346271
v 3.499029 -0.000927 -12.530097
v 9.830591 0.000263 -1.987298
v 3.380059 0.000134 -9.437926
v 8.771771 0.000295 -4.922301
v 6.266650 0.000263 -7.858129
v 9.225233 -0.000292 -9.056879
v -13.486278 14.442202 -7.808851
v -13.498620 1.588852 -7.795710
v -13.499878 0.895256 -5.107897
v -13.499017 15.649928 -1.882048
v -13.499186 0.338006 1.665220
v -13.512299 14.519714 7.762543
v -13.502854 1.573313 7.779034
v 0.033590 14.519714 -15.583265
v 0.049210 1.530285 -15.568611
v -2.770840 0.805161 -13.988474
v -7.097348 15.757797 -11.489128
v -8.379416 0.350073 -10.749464
v 13.498620 14.411149 -7.795710
v 13.485987 1.559006 -7.809165
v 8.379411 15.649928 -10.749468
v 7.097348 0.242203 -11.489128
v 13.502854 14.426687 7.779035
v 13.458209 1.530286 7.826922
v 13.499794 0.805160 4.594617
v 13.499186 15.661995 1.665215
v 13.499017 0.350073 -1.882055
v 13.499878 15.104745 -5.107895
v -0.019525 14.442203 15.583884
v 0.019525 1.557798 15.583884
v 3.012604 15.241326 13.848954
v 6.401205 0.242203 11.891047
v 8.635988 15.641562 10.600998
v -8.635993 0.358438 10.600995
v -6.401205 15.757798 11.891047
v -3.012605 0.758673 13.848953
v 9.176154 15.183891 -0.796644
v 8.371003 15.199594 -3.980977
v 8.485019 0.812545 -3.641376
v 7.024990 0.801926 -5.956998
v 6.034668 15.171244 -6.983235
v 5.108267 0.819638 -7.676791
v 3.938294 15.187180 -8.319730
v 2.922730 0.811620 -8.731525
v 1.544664 15.187455 -9.103251
v 0.260663 0.819070 -9.229539
v -1.391390 15.194694 -9.111853
v -2.781080 0.819242 -8.795828
v -4.388213 15.208185 -8.140167
v -5.036781 0.814142 -7.711469
v -6.873819 15.184306 -6.152396
v -7.066692 0.803897 -5.936154
v -8.310584 15.175605 -3.971218
v -8.736806 0.806703 -3.030685
v -9.222425 15.186769 -0.871492
v -9.219660 0.807825 0.159702
v -8.783715 15.181966 2.834542
v -8.537619 0.792940 3.609714
v -7.267262 15.204271 5.718751
v -6.732897 0.824396 6.285258
v -4.093066 15.208539 8.330209
v -3.992096 0.782350 8.379154
v -0.080693 15.186837 9.247154
v -0.180041 0.815177 9.231624
v 2.784954 0.807824 8.790430
v 4.058119 15.183421 8.347397
v 5.638519 0.804271 7.329668
v 7.371742 15.176886 5.610120
v 8.292534 0.791461 4.168866
v 9.006880 15.187053 2.096180
v 9.263435 0.790049 -0.053206
v 3.053723 16.000372 -12.572074
v 9.185435 16.001081 -9.217108
v 12.456104 16.000292 -3.460843
v 12.781948 16.000143 1.672912
v 7.213037 16.000095 10.677903
v 2.414359 16.000334 12.710582
v -3.230874 16.000292 12.517724
v -8.988308 16.000774 9.390044
v -12.567894 16.001143 -3.385595
v -9.225231 16.000292 -9.056880
v -3.499032 16.000927 -12.530096
v 10.986191 16.000544 6.828435
v -12.377540 16.000483 3.796546
v -6.940032 15.999367 7.286030
v -9.093798 15.999785 4.264778
v -4.036733 15.999785 9.197298
v -10.038799 15.999704 0.628910
v -0.275301 15.999032 10.094057
v -9.467390 15.999728 -3.434861
v 4.113724 15.999702 9.204891
v -6.682071 15.999107 -7.571707
v 7.369604 15.999465 6.841609
v 9.648349 15.998941 2.941657
v -2.716500 15.999803 -9.655000
v 1.347738 15.999301 -9.999314
v 9.814428 15.998318 -2.527142
v 4.986647 15.999874 -8.691772
v 7.371762 15.999482 -6.839998
vn 0.0004 -1.0000 -0.0002
vn 0.0001 -1.0000 -0.0002
vn -0.0000 -1.0000 -0.0002
vn 0.0004 -1.0000 -0.0001
vn 0.0002 -1.0000 -0.0001
vn -0.0000 -1.0000 -0.0003
vn 0.0002 -1.0000 -0.0000
vn 0.0005 -1.0000 -0.0001
vn -0.0002 -1.0000 -0.0002
vn 0.0004 -1.0000 0.0004
vn -0.0002 -1.0000 -0.0004
vn -0.0005 -1.0000 -0.0002
vn 0.0002 -1.0000 0.0006
vn 0.0003 -1.0000 0.0002
vn 0.0001 -1.0000 0.0002
vn -0.0005 -1.0000 0.0001
vn -0.0001 -1.0000 0.0004
vn -0.0004 -1.0000 0.0001
vn -0.0001 -1.0000 0.0003
vn -0.0001 -1.0000 0.0001
vn -1.0000 0.0010 -0.0002
vn -1.0000 0.0006 -0.0023
vn -1.0000 -0.0000 0.0001
vn -1.0000 -0.0003 -0.0014
vn -1.0000 -0.0007 -0.0005
vn -0.4885 -0.0016 -0.8726
vn -0.4978 0.0009 -0.8673
vn -0.5001 -0.0000 -0.8660
vn -0.4991 -0.0001 -0.8665
vn -0.4998 -0.0004 -0.8661
vn 0.4998 0.0004 -0.8661
vn 0.4991 0.0001 -0.8665
vn 0.5012 -0.0002 -0.8653
vn 0.5009 -0.0004 -0.8655
vn 0.9999 -0.0034 0.0136
vn 1.0000 -0.0001 -0.0006
vn 1.0000 -0.0000 -0.0001
vn 1.0000 -0.0000 0.0001
vn 1.0000 -0.0006 -0.0023
vn 1.0000 -0.0010 -0.0002
vn 0.4963 0.0015 0.8681
vn 0.5009 0.0002 0.8655
vn 0.5002 -0.0000 0.8659
vn 0.4990 0.0002 0.8666
vn 0.5019 0.0015 0.8649
vn -0.5015 0.0007 0.8652
vn -0.5021 0.0004 0.8648
vn -0.5002 -0.0000 0.8659
vn -0.5009 -0.0002 0.8655
vn -0.4963 -0.0015 0.8681
vn 0.0028 -0.8917 -0.4526
vn -0.2307 -0.8253 -0.5154
vn -0.1651 -0.9389 -0.3020
vn -0.5874 -0.8066 -0.0663
vn -0.4260 -0.9043 -0.0270
vn -0.2493 -0.9371 0.2445
vn -0.2321 -0.8037 0.5479
vn -0.2073 -0.8607 0.4650
vn 0.1166 -0.9697 0.2149
vn 0.5545 -0.8301 0.0583
vn 0.3420 -0.9397 0.0095
vn 0.1253 -0.9704 -0.2063
vn -0.0598 -0.8625 -0.5025
vn -0.4315 -0.8031 -0.4110
vn -0.4022 -0.8865 -0.2289
vn -0.4014 -0.8871 -0.2280
vn -0.4231 -0.8940 0.1473
vn -0.4740 -0.8631 0.1741
vn -0.4059 -0.8507 0.3338
vn -0.0769 -0.8477 0.5248
vn 0.0159 -0.8845 0.4662
vn 0.1764 -0.7905 0.5865
vn 0.4339 -0.7356 0.5203
vn 0.3874 -0.8915 0.2347
vn 0.4745 -0.8576 0.1985
vn 0.5686 -0.8058 -0.1656
vn 0.3933 -0.8900 -0.2308
vn 0.4199 -0.7903 -0.4461
vn 0.2337 -0.7355 -0.6359
vn -0.9773 -0.0027 0.2120
vn -0.9695 0.0068 0.2452
vn -0.8459 0.0059 0.5333
vn -0.7891 -0.0105 0.6142
vn -0.6678 0.0071 0.7443
vn -0.5376 -0.0060 0.8432
vn -0.4346 0.0049 0.9006
vn -0.3111 -0.0052 0.9504
vn -0.1839 0.0078 0.9829
vn -0.0030 -0.0085 1.0000
vn 0.1412 0.0081 0.9900
vn 0.3084 -0.0089 0.9512
vn 0.4332 0.0073 0.9013
vn 0.6246 -0.0049 0.7809
vn 0.6583 0.0025 0.7527
vn 0.8351 -0.0029 0.5501
vn 0.8670 0.0069 0.4983
vn 0.9593 -0.0100 0.2822
vn 0.9887 0.0109 0.1496
vn 0.9930 -0.0082 -0.1176
vn 0.9810 0.0063 -0.1939
vn 0.8851 -0.0099 -0.4653
vn 0.8290 0.0088 -0.5593
vn 0.6071 0.0016 -0.7946
vn 0.6353 -0.0068 -0.7722
vn 0.2228 -0.0017 -0.9749
vn 0.2182 -0.0005 -0.9759
vn -0.1472 0.0021 -0.9891
vn -0.2124 -0.0113 -0.9771
vn -0.4556 0.0129 -0.8901
vn -0.6368 -0.0154 -0.7709
vn -0.7657 0.0154 -0.6430
vn -0.9065 -0.0158 -0.4219
vn -0.9744 0.0161 -0.2241
vn -0.9983 -0.0091 -0.0584
vn -0.0027 0.8985 -0.4390
vn 0.2622 0.7356 -0.6247
vn 0.1651 0.9389 -0.3020
vn 0.5874 0.8066 -0.0663
vn 0.4260 0.9043 -0.0270
vn 0.2493 0.9371 0.2445
vn 0.2321 0.8037 0.5479
vn 0.2073 0.8607 0.4650
vn -0.1166 0.9697 0.2149
vn -0.6664 0.7407 0.0859
vn -0.3400 0.9404 0.0091
vn -0.1253 0.9704 -0.2063
vn 0.4315 0.8031 -0.4110
vn 0.4022 0.8865 -0.2289
vn 0.4014 0.8871 -0.2280
vn 0.4231 0.8940 0.1473
vn 0.4740 0.8631 0.1741
vn 0.4059 0.8507 0.3338
vn 0.0769 0.8477 0.5248
vn -0.0159 0.8845 0.4662
vn -0.1764 0.7905 0.5865
vn -0.4284 0.7423 0.5152
vn -0.3760 0.8982 0.2278
vn -0.5703 0.8047 -0.1652
vn -0.3933 0.8897 -0.2319
vn -0.4197 0.7905 -0.4460
vn -0.2320 0.7423 -0.6286
vn 0.0005 1.0000 -0.0002
vn 0.0002 1.0000 -0.0002
vn 0.0002 1.0000 -0.0005
vn 0.0002 1.0000 -0.0001
vn 0.0003 1.0000 -0.0002
vn 0.0004 1.0000 0.0001
vn -0.0000 1.0000 -0.0005
vn 0.0005 1.0000 0.0001
vn -0.0002 1.0000 -0.0003
vn -0.0000 1.0000 -0.0002
vn -0.0003 1.0000 -0.0002
vn -0.0003 1.0000 -0.0003
vn 0.0002 1.0000 0.0005
vn -0.0000 1.0000 0.0004
vn -0.0005 1.0000 -0.0002
vn 0.0002 1.0000 0.0003
vn -0.0004 1.0000 -0.0001
vn 0.0001 1.0000 0.0005
vn -0.0007 1.0000 0.0001
vn -0.0002 1.0000 0.0003
vn -0.0003 1.0000 0.0003
vn -0.0006 1.0000 0.0005
vn -0.0003 1.0000 0.0004
vn -0.0002 1.0000 0.0005
vn -0.5924 0.7908 0.1537
vn -0.7211 0.5595 0.4086
vn -0.5143 0.7623 0.3930
vn -0.4664 0.6491 0.6009
vn -0.3624 0.7318 0.5772
vn -0.2556 0.6551 0.7110
vn -0.2228 0.6976 0.6810
vn -0.0001 0.7411 0.6714
vn 0.0656 0.6300 0.7738
vn 0.2049 0.7563 0.6213
vn 0.3787 0.5801 0.7211
vn 0.3904 0.7747 0.4975
vn 0.6619 0.6080 0.4384
vn 0.6475 0.6252 0.4358
vn 0.6250 0.7594 0.1811
vn 0.7970 0.5935 0.1121
vn 0.6323 0.7712 -0.0738
vn 0.7532 0.6280 -0.1958
vn 0.5754 0.7575 -0.3084
vn 0.6331 0.6289 -0.4512
vn 0.3938 0.7840 -0.4799
vn 0.4135 0.6590 -0.6283
vn 0.1559 0.7306 -0.6648
vn 0.1601 0.7239 -0.6710
vn -0.1521 0.6957 -0.7021
vn -0.1375 0.7219 -0.6782
vn -0.4387 0.6649 -0.6045
vn -0.4161 0.7558 -0.5056
vn -0.6897 0.6016 -0.4030
vn -0.5946 0.7557 -0.2745
vn -0.7604 0.6479 -0.0452
vn -0.8117 0.5836 -0.0247
vn -0.6003 -0.7878 -0.1378
vn -0.6874 -0.6922 -0.2198
vn -0.6211 -0.6670 -0.4116
vn -0.4760 -0.7850 -0.3965
vn -0.4693 -0.6436 -0.6046
vn -0.3017 -0.7508 -0.5876
vn -0.2698 -0.6486 -0.7117
vn -0.0982 -0.7558 -0.6473
vn -0.0169 -0.6434 -0.7654
vn 0.1474 -0.7627 -0.6298
vn 0.2127 -0.6822 -0.6995
vn 0.4014 -0.7397 -0.5402
vn 0.5198 -0.6151 -0.5928
vn 0.5287 -0.7744 -0.3475
vn 0.7705 -0.5615 -0.3018
vn 0.6252 -0.7700 -0.1269
vn 0.7944 -0.6039 0.0646
vn 0.6804 -0.7255 0.1032
vn 0.5924 -0.7298 0.3412
vn 0.6524 -0.6228 0.4318
vn 0.4329 -0.7562 0.4906
vn 0.4190 -0.6474 0.6367
vn 0.2916 -0.7426 0.6030
vn 0.1870 -0.6484 0.7379
vn 0.0916 -0.7607 0.6426
vn -0.1232 -0.6583 0.7426
vn -0.1345 -0.6927 0.7086
vn -0.3617 -0.6576 0.6609
vn -0.3009 -0.7170 0.6288
vn -0.4495 -0.7447 0.4933
vn -0.5883 -0.6340 0.5020
vn -0.5549 -0.7531 0.3533
vn -0.7107 -0.6552 0.2564
vn -0.6253 -0.7694 0.1308
vn -0.7814 -0.6235 0.0255
s 0
usemtl mat0
f 1//1 2//1 3//1
f 2//2 4//2 3//2
f 3//3 4//3 5//3
f 1//4 6//4 2//4
f 7//5 6//5 1//5
f 4//3 8//3 5//3
f 5//6 9//6 10//6
f 8//3 9//3 5//3
f 11//7 6//7 7//7
f 11//8 12//8 6//8
f 9//9 13//9 10//9
f 10//9 13//9 14//9
f 15//10 12//10 11//10
f 15//10 16//10 12//10
f 13//11 17//11 14//11
f 18//12 14//12 17//12
f 16//13 15//13 19//13
f 18//9 20//9 14//9
f 15//14 21//14 19//14
f 22//9 20//9 18//9
f 19//15 21//15 23//15
f 22//16 24//16 20//16
f 21//17 25//17 23//17
f 26//18 24//18 22//18
f 23//19 25//19 27//19
f 28//18 24//18 26//18
f 27//19 25//19 29//19
f 28//18 30//18 24//18
f 25//19 30//19 29//19
f 29//20 30//20 28//20
f 31//21 32//21 33//21
f 34//22 31//22 33//22
f 34//23 33//23 35//23
f 36//24 34//24 35//24
f 36//25 35//25 37//25
f 38//26 39//26 40//26
f 41//27 38//27 40//27
f 41//28 40//28 42//28
f 31//29 41//29 42//29
f 31//30 42//30 32//30
f 45//31 43//31 44//31
f 45//32 44//32 46//32
f 38//33 45//33 46//33
f 38//34 46//34 39//34
f 47//35 48//35 49//35
f 50//36 47//36 49//36
f 50//37 49//37 51//37
f 52//38 50//38 51//38
f 52//39 51//39 44//39
f 43//40 52//40 44//40
f 55//41 53//41 54//41
f 55//42 54//42 56//42
f 57//43 55//43 56//43
f 57//44 56//44 48//44
f 47//45 57//45 48//45
f 36//46 37//46 58//46
f 59//47 36//47 58//47
f 59//48 58//48 60//48
f 53//49 59//49 60//49
f 53//50 60//50 54//50
f 39//51 25//51 21//51
f 42//52 40//52 21//52
f 42//53 21//53 15//53
f 35//54 33//54 11//54
f 35//55 11//55 7//55
f 58//56 1//56 3//56
f 58//57 3//57 5//57
f 60//58 58//58 5//58
f 56//59 10//59 14//59
f 51//60 49//60 20//60
f 51//61 20//61 24//61
f 46//62 30//62 25//62
f 21//63 40//63 39//63
f 32//64 42//64 15//64
f 33//65 32//65 15//65
f 33//66 15//66 11//66
f 35//67 7//67 1//67
f 37//68 35//68 1//68
f 1//69 58//69 37//69
f 54//70 60//70 5//70
f 54//71 5//71 10//71
f 56//72 54//72 10//72
f 48//73 56//73 14//73
f 48//74 14//74 20//74
f 20//75 49//75 48//75
f 44//76 51//76 24//76
f 44//77 24//77 30//77
f 46//78 44//78 30//78
f 39//79 46//79 25//79
f 95//80 62//80 63//80
f 61//81 62//81 95//81
f 63//82 62//82 64//82
f 62//83 65//83 64//83
f 64//84 65//84 66//84
f 65//85 67//85 66//85
f 66//86 67//86 68//86
f 67//87 69//87 68//87
f 68//88 69//88 70//88
f 69//89 71//89 70//89
f 70//90 71//90 72//90
f 71//91 73//91 72//91
f 72//92 73//92 74//92
f 73//93 75//93 74//93
f 74//94 75//94 76//94
f 75//95 77//95 76//95
f 76//96 77//96 78//96
f 77//97 79//97 78//97
f 78//98 79//98 80//98
f 79//99 81//99 80//99
f 80//100 81//100 82//100
f 81//101 83//101 82//101
f 82//102 83//102 84//102
f 84//103 85//103 86//103
f 83//104 85//104 84//104
f 85//105 87//105 86//105
f 86//106 87//106 88//106
f 88//107 87//107 89//107
f 87//108 90//108 89//108
f 89//109 90//109 91//109
f 90//110 92//110 91//110
f 91//111 92//111 93//111
f 92//112 94//112 93//112
f 93//113 94//113 95//113
f 94//114 61//114 95//114
f 38//115 106//115 96//115
f 45//116 38//116 96//116
f 45//117 96//117 97//117
f 50//118 52//118 98//118
f 50//119 98//119 99//119
f 57//120 107//120 100//120
f 57//121 100//121 101//121
f 55//122 57//122 101//122
f 59//123 102//123 103//123
f 34//124 36//124 108//124
f 34//125 108//125 104//125
f 41//126 105//126 106//126
f 43//127 45//127 97//127
f 52//128 43//128 97//128
f 52//129 97//129 98//129
f 50//130 99//130 107//130
f 47//131 50//131 107//131
f 107//132 57//132 47//132
f 53//133 55//133 101//133
f 53//134 101//134 102//134
f 59//135 53//135 102//135
f 36//136 59//136 103//136
f 36//137 103//137 108//137
f 31//138 34//138 104//138
f 31//139 104//139 105//139
f 41//140 31//140 105//140
f 38//141 41//141 106//141
f 110//142 103//142 109//142
f 110//143 108//143 103//143
f 111//144 109//144 103//144
f 111//143 103//143 102//143
f 112//145 108//145 110//145
f 113//146 111//146 102//146
f 112//147 104//147 108//147
f 113//148 102//148 101//148
f 114//149 104//149 112//149
f 115//150 113//150 101//150
f 115//151 101//151 100//151
f 114//149 105//149 104//149
f 116//147 105//147 114//147
f 117//151 115//151 100//151
f 107//152 117//152 100//152
f 107//153 118//153 117//153
f 106//154 105//154 116//154
f 106//155 116//155 119//155
f 99//156 118//156 107//156
f 106//157 119//157 120//157
f 99//158 121//158 118//158
f 96//159 106//159 120//159
f 98//160 121//160 99//160
f 96//161 120//161 122//161
f 97//162 96//162 122//162
f 97//163 121//163 98//163
f 97//164 123//164 121//164
f 97//165 122//165 123//165
f 61//166 121//166 62//166
f 121//167 123//167 62//167
f 62//168 123//168 65//168
f 122//169 65//169 123//169
f 65//170 122//170 67//170
f 120//171 67//171 122//171
f 67//172 120//172 69//172
f 69//173 120//173 71//173
f 119//174 71//174 120//174
f 71//175 119//175 73//175
f 116//176 73//176 119//176
f 116//177 75//177 73//177
f 116//178 77//178 75//178
f 114//179 77//179 116//179
f 114//180 79//180 77//180
f 112//181 79//181 114//181
f 79//182 112//182 81//182
f 110//183 81//183 112//183
f 81//184 110//184 83//184
f 109//185 83//185 110//185
f 83//186 109//186 85//186
f 109//187 111//187 85//187
f 85//188 113//188 87//188
f 111//189 113//189 85//189
f 87//190 113//190 90//190
f 115//191 90//191 113//191
f 117//192 90//192 115//192
f 90//193 117//193 92//193
f 118//194 92//194 117//194
f 92//195 118//195 94//195
f 94//196 118//196 61//196
f 61//197 118//197 121//197
f 95//198 22//198 93//198
f 22//199 18//199 93//199
f 18//200 17//200 93//200
f 93//201 17//201 91//201
f 13//202 91//202 17//202
f 91//203 13//203 89//203
f 9//204 89//204 13//204
f 89//205 9//205 88//205
f 9//206 8//206 88//206
f 88//207 8//207 86//207
f 8//208 4//208 86//208
f 4//209 84//209 86//209
f 2//210 84//210 4//210
f 84//211 2//211 82//211
f 6//212 82//212 2//212
f 82//213 6//213 80//213
f 12//214 80//214 6//214
f 80//215 12//215 78//215
f 78//216 12//216 76//216
f 16//217 76//217 12//217
f 76//218 16//218 74//218
f 16//219 19//219 74//219
f 19//220 72//220 74//220
f 19//221 23//221 72//221
f 23//222 70//222 72//222
f 27//223 70//223 23//223
f 27//224 68//224 70//224
f 29//225 66//225 27//225
f 27//226 66//226 68//226
f 66//227 29//227 64//227
f 28//228 64//228 29//228
f 64//229 28//229 63//229
f 28//230 26//230 63//230
f 63//231 26//231 95//231
f 95//232 26//232 22//232
