# Blender 3.4.1
# www.blender.org
mtllib ImageToStl.com_53. шпильки м20-4шт. для крепления корпуса подшипника.mtl
o imagetostl_mesh0
v 47.500572 9.996439 -1.914168
v -17.493856 9.847592 1.978562
v 47.489449 9.598322 2.976428
v -17.505789 8.521894 5.365628
v 47.508930 7.925930 6.194132
v -17.518482 4.594922 9.072116
v 47.498581 4.518352 9.042569
v -17.504204 -1.100238 10.040597
v 47.505535 -1.421675 10.087825
v -17.506954 -5.738146 8.304850
v 47.506172 -6.808953 7.460664
v -17.497740 -9.269471 4.143045
v 47.501888 -9.461585 3.480589
v -17.504545 -10.004016 -1.393246
v 47.498238 -10.031807 -0.881930
v 47.494411 -9.056993 -4.342809
v -17.511692 -8.379500 -5.566097
v -17.490116 -5.628663 -8.350004
v 47.502670 -6.584196 -7.659357
v -17.501375 -2.388682 -9.747248
v 47.508465 -2.624202 -9.716272
v -17.499605 1.119059 -10.001880
v -17.499060 5.316592 -8.588343
v 47.490219 2.502656 -9.839932
v -17.502134 8.495584 -5.395604
v 47.520409 7.141617 -7.134397
v -17.503551 9.923326 -1.678615
v 50.001736 -7.586045 -0.668943
v 50.001087 -6.047073 -4.546418
v 50.001099 -3.081532 -6.933962
v 50.000557 0.202696 -7.541273
v 50.002880 -6.467145 4.062703
v 50.001888 3.860169 -6.576550
v 50.006912 7.229416 -2.623591
v 50.000565 -3.446059 6.721784
v 50.002190 0.306128 7.607027
v 50.000744 7.257533 2.167667
v 50.003265 4.805163 5.951185
v -20.003340 -7.157084 -2.695364
v -20.002302 -4.002589 -6.462870
v -20.000948 -7.310203 2.006238
v -20.002222 0.236861 -7.610186
v -20.005510 5.136604 -5.707145
v -20.004354 -5.024887 5.751091
v -20.000217 -1.675440 7.340593
v -20.000565 7.306653 -1.888408
v -20.002134 1.839603 7.375500
v -20.002192 7.398315 1.819022
v -20.001104 5.380345 5.328772
vn -0.0010 0.9998 0.0207
vn 0.0026 0.9967 0.0811
vn -0.0020 0.9312 0.3645
vn 0.0023 0.8873 0.4612
vn -0.0030 0.6864 0.7272
vn 0.0011 0.6413 0.7672
vn 0.0007 0.1733 0.9849
vn 0.0001 0.1676 0.9858
vn -0.0024 -0.3505 0.9366
vn 0.0045 -0.4383 0.8988
vn -0.0042 -0.7625 0.6470
vn 0.0032 -0.8321 0.5546
vn -0.0015 -0.9913 0.1315
vn -0.0016 -0.9916 0.1296
vn 0.0017 -0.9625 -0.2711
vn -0.0029 -0.9319 -0.3628
vn 0.0029 -0.8017 -0.5977
vn -0.0030 -0.7113 -0.7029
vn 0.0027 -0.4610 -0.8874
vn -0.0010 -0.3960 -0.9183
vn 0.0002 -0.0724 -0.9974
vn 0.0030 -0.0241 -0.9997
vn -0.0044 0.3191 -0.9477
vn 0.0052 0.5038 -0.8638
vn -0.0041 0.7086 -0.7056
vn 0.0054 0.8774 -0.4798
vn -0.0023 0.9335 -0.3586
vn 1.0000 -0.0002 -0.0002
vn 1.0000 -0.0001 -0.0012
vn 1.0000 -0.0001 -0.0002
vn 1.0000 0.0001 -0.0003
vn 1.0000 -0.0000 0.0001
vn 1.0000 -0.0030 0.0013
vn 1.0000 -0.0004 -0.0003
vn 1.0000 -0.0002 0.0011
vn 1.0000 0.0001 -0.0006
vn -1.0000 -0.0003 -0.0005
vn -1.0000 -0.0003 -0.0010
vn -1.0000 -0.0001 0.0005
vn -1.0000 0.0032 -0.0005
vn -1.0000 0.0003 -0.0011
vn -1.0000 -0.0005 -0.0014
vn -1.0000 0.0004 0.0018
vn -1.0000 -0.0001 0.0003
vn -0.6876 -0.2895 -0.6659
vn -0.7397 -0.1758 -0.6496
vn -0.6802 -0.0527 -0.7312
vn -0.7393 0.2434 -0.6279
vn -0.7135 0.2237 -0.6640
vn -0.6531 0.5363 -0.5346
vn -0.7418 0.5835 -0.3306
vn -0.6880 0.6774 -0.2605
vn -0.7226 0.6910 -0.0174
vn -0.6991 0.7149 0.0167
vn -0.6823 0.6816 0.2644
vn -0.7395 0.5835 0.3357
vn -0.6593 0.5172 0.5458
vn -0.7537 0.3291 0.5689
vn -0.6509 0.1257 0.7487
vn -0.7335 -0.0071 0.6796
vn -0.6603 -0.3213 0.6788
vn -0.7267 -0.2404 0.6435
vn -0.6600 -0.5736 0.4852
vn -0.7437 -0.5709 0.3477
vn -0.6644 -0.7408 0.0991
vn -0.7465 -0.6650 -0.0213
vn -0.6580 -0.7021 -0.2722
vn -0.7447 -0.5116 -0.4285
vn -0.7031 -0.5031 -0.5025
vn 0.7437 -0.4413 0.5021
vn 0.6508 -0.3327 0.6825
vn 0.7478 -0.1528 0.6461
vn 0.7456 0.2300 0.6254
vn 0.6511 0.1323 0.7474
vn 0.6586 0.4814 0.5783
vn 0.7409 0.5638 0.3649
vn 0.6986 0.6366 0.3266
vn 0.6909 0.7204 0.0602
vn 0.7408 0.6717 -0.0030
vn 0.6409 0.6745 -0.3664
vn 0.7550 0.4986 -0.4259
vn 0.6500 0.3797 -0.6582
vn 0.7456 0.1697 -0.6444
vn 0.6674 -0.0156 -0.7445
vn 0.7288 -0.1244 -0.6734
vn 0.6711 -0.3425 -0.6575
vn 0.7416 -0.4207 -0.5226
vn 0.6753 -0.5921 -0.4398
vn 0.7356 -0.6296 -0.2500
vn 0.6937 -0.6931 -0.1960
vn 0.7435 -0.6508 0.1537
vn 0.6917 -0.7161 0.0930
vn 0.6555 -0.6288 0.4184
s 0
usemtl mat0
f 1//1 27//1 2//1
f 3//2 1//2 2//2
f 3//3 2//3 4//3
f 5//4 3//4 4//4
f 5//5 4//5 6//5
f 7//6 5//6 6//6
f 9//7 7//7 6//7
f 9//8 6//8 8//8
f 9//9 8//9 10//9
f 11//10 9//10 10//10
f 11//11 10//11 12//11
f 13//12 11//12 12//12
f 15//13 12//13 14//13
f 15//14 13//14 12//14
f 16//15 15//15 14//15
f 16//16 14//16 17//16
f 19//17 16//17 17//17
f 19//18 17//18 18//18
f 21//19 19//19 18//19
f 21//20 18//20 20//20
f 21//21 20//21 22//21
f 24//22 21//22 22//22
f 24//23 22//23 23//23
f 26//24 24//24 23//24
f 26//25 23//25 25//25
f 1//26 26//26 25//26
f 1//27 25//27 27//27
f 28//28 29//28 30//28
f 33//29 30//29 31//29
f 33//30 28//30 30//30
f 37//31 32//31 28//31
f 37//32 28//32 33//32
f 37//33 33//33 34//33
f 38//34 36//34 35//34
f 38//35 35//35 32//35
f 38//36 32//36 37//36
f 39//37 43//37 40//37
f 40//38 43//38 42//38
f 41//39 48//39 39//39
f 39//39 48//39 43//39
f 43//40 48//40 46//40
f 44//41 49//41 41//41
f 47//42 49//42 45//42
f 45//43 49//43 44//43
f 41//44 49//44 48//44
f 20//45 18//45 40//45
f 20//46 40//46 42//46
f 22//47 20//47 42//47
f 23//48 42//48 43//48
f 22//49 42//49 23//49
f 25//50 23//50 43//50
f 46//51 25//51 43//51
f 25//52 46//52 27//52
f 27//53 46//53 48//53
f 2//54 27//54 48//54
f 4//55 2//55 48//55
f 4//56 48//56 49//56
f 6//57 4//57 49//57
f 47//58 6//58 49//58
f 6//59 47//59 8//59
f 45//60 8//60 47//60
f 8//61 45//61 44//61
f 10//62 8//62 44//62
f 12//63 10//63 44//63
f 12//64 44//64 41//64
f 12//65 41//65 14//65
f 14//66 41//66 39//66
f 17//67 14//67 39//67
f 17//68 39//68 40//68
f 18//69 17//69 40//69
f 11//70 32//70 35//70
f 9//71 11//71 35//71
f 9//72 35//72 36//72
f 7//73 36//73 38//73
f 7//74 9//74 36//74
f 5//75 7//75 38//75
f 5//76 38//76 37//76
f 3//77 5//77 37//77
f 1//78 3//78 37//78
f 1//79 37//79 34//79
f 26//80 1//80 34//80
f 26//81 34//81 33//81
f 24//82 26//82 33//82
f 24//83 33//83 31//83
f 21//84 24//84 31//84
f 21//85 31//85 30//85
f 19//86 21//86 30//86
f 19//87 30//87 29//87
f 16//88 19//88 29//88
f 16//89 29//89 28//89
f 15//90 16//90 28//90
f 13//91 28//91 32//91
f 13//92 15//92 28//92
f 11//93 13//93 32//93
