# Blender 3.4.1
# www.blender.org
mtllib ImageToStl.com_29 гайки м83 - 16шт. для стяжки секций.mtl
o imagetostl_mesh
v -0.000000 -68.113258 39.062988
v -0.000000 -29.726919 28.994812
v -0.000000 -26.024858 32.340900
v -0.000000 -33.570328 24.454548
v -0.000000 -21.661127 35.446735
v -0.000000 -0.227091 78.519310
v -0.000000 -36.840115 19.178059
v -0.000000 -15.893873 38.371563
v -0.000000 -39.378090 13.230326
v -0.000000 -11.241968 39.956348
v -0.000000 -40.946259 6.956727
v -0.000000 -5.459244 41.202942
v -0.000000 -41.552704 0.000000
v 0.000000 1.035081 41.503670
v 0.000000 6.446273 41.029716
v 0.000000 13.515192 39.304264
v -0.000000 -67.886169 -39.456322
v -0.000000 -40.750053 -8.237743
v -0.000000 -38.566597 -15.414590
v 0.000000 20.776375 35.985680
v -0.000000 -35.456551 -21.667027
v -0.000000 -31.803545 -26.686340
v -0.000000 -28.059128 -30.621515
v -0.000000 -23.181822 -34.461502
v -0.000000 -17.090094 -37.875530
v 0.000000 67.886169 39.456322
v 0.000000 38.180740 16.292889
v 0.000000 39.909725 11.498076
v 0.000000 35.962368 20.762884
v 0.000000 32.478252 25.900553
v 0.000000 27.280901 31.356625
v 0.000000 41.326237 4.430350
v 0.000000 4.393128 -41.300030
v 0.000000 0.227091 -78.519310
v -0.000000 -0.852218 -41.503021
v 0.000000 11.254133 -39.999645
v 0.000000 17.075214 -37.842613
v 0.000000 21.877510 -35.303917
v -0.000000 -11.244375 -39.964867
v -0.000000 -5.933872 -41.106949
v 0.000000 68.113258 -39.062988
v 0.000000 27.494846 -31.155422
v 0.000000 31.682060 -26.823017
v 0.000000 34.747578 -22.750776
v 0.000000 37.405136 -18.013380
v 0.000000 39.802025 -11.970140
v 0.000000 41.384693 -3.846167
v 70.000000 -25.907682 32.487209
v 70.000000 -68.113258 39.062988
v 70.000000 -31.649635 26.940418
v 70.000000 -35.838398 20.990507
v 70.000000 -20.914042 35.858471
v 70.000000 -0.227091 78.519310
v 70.000000 -16.371378 38.170277
v 70.000000 -38.566593 15.414591
v 70.000000 -10.250637 40.256680
v 70.000000 -40.679768 8.523039
v 70.000000 -3.877477 41.351627
v 70.000000 -41.512848 1.294420
v 70.000000 4.140878 41.381672
v 70.000000 11.244375 39.964867
v 70.000000 -67.886169 -39.456322
v 70.000000 -41.242111 -4.907193
v 70.000000 -40.272820 -10.066133
v 70.000000 -38.755917 -14.932205
v 70.000000 16.371376 38.170277
v 70.000000 -36.543587 -19.692478
v 70.000000 -33.307671 -24.861309
v 70.000000 -27.721098 -30.968147
v 70.000000 -21.877510 -35.303917
v 70.000000 67.886169 39.456322
v 70.000000 38.655254 15.171032
v 70.000000 36.543587 19.692478
v 70.000000 33.872841 24.033777
v 70.000000 29.738016 29.005617
v 70.000000 23.427549 34.361893
v 70.000000 40.750053 8.237747
v 70.000000 41.561996 -0.293544
v 70.000000 0.227091 -78.519310
v 70.000000 -0.259126 -41.532211
v 70.000000 6.928091 -40.981548
v 70.000000 13.222415 -39.354721
v 70.000000 18.017282 -37.413456
v 70.000000 22.368315 -34.969784
v 70.000000 -16.136127 -38.279251
v 70.000000 -10.246840 -40.241665
v 70.000000 -5.343096 -41.166473
v 70.000000 68.113258 -39.062988
v 70.000000 26.702217 -31.822428
v 70.000000 31.311525 -27.287001
v 70.000000 35.028736 -22.315462
v 70.000000 38.412422 -15.873607
v 70.000000 40.728825 -8.233453
vn -1.0000 -0.0000 -0.0000
vn 1.0000 -0.0000 -0.0000
vn 0.0007 -0.0387 0.9993
vn -0.0018 -0.0764 0.9971
vn 0.0023 -0.1862 0.9825
vn -0.0019 -0.2502 0.9682
vn 0.0011 -0.3475 0.9377
vn -0.0006 -0.3753 0.9269
vn 0.0009 -0.4674 0.8841
vn -0.0007 -0.4897 0.8719
vn 0.0003 -0.5876 0.8091
vn 0.0009 -0.5941 0.8044
vn -0.0011 -0.7014 0.7128
vn 0.0008 -0.7191 0.6950
vn -0.0002 -0.7989 0.6014
vn -0.0005 -0.8009 0.5988
vn 0.0005 -0.8721 0.4893
vn -0.0015 -0.8853 0.4650
vn 0.0021 -0.9296 0.3687
vn -0.0028 -0.9570 0.2901
vn 0.0028 -0.9815 0.1912
vn -0.0028 -0.9945 0.1044
vn 0.0029 -1.0000 -0.0071
vn -0.0030 -0.9955 -0.0947
vn 0.0026 -0.9805 -0.1965
vn -0.0020 -0.9573 -0.2892
vn 0.0009 -0.9407 -0.3392
vn -0.0006 -0.9061 -0.4232
vn 0.0006 -0.8958 -0.4445
vn -0.0009 -0.8517 -0.5240
vn 0.0015 -0.8276 -0.5613
vn -0.0017 -0.7689 -0.6394
vn 0.0023 -0.7241 -0.6897
vn -0.0029 -0.6471 -0.7624
vn 0.0031 -0.5798 -0.8147
vn -0.0024 -0.4750 -0.8800
vn 0.0022 -0.4157 -0.9095
vn -0.0018 -0.3304 -0.9438
vn 0.0015 -0.2371 -0.9715
vn -0.0015 -0.1956 -0.9807
vn 0.0021 -0.0873 -0.9962
vn -0.0019 0.0037 -1.0000
vn 0.0011 0.0463 -0.9989
vn -0.0017 0.1693 -0.9856
vn 0.0012 0.2107 -0.9775
vn -0.0005 0.3225 -0.9466
vn -0.0005 0.3226 -0.9465
vn 0.0005 0.4523 -0.8919
vn 0.0004 0.4536 -0.8912
vn -0.0011 0.5595 -0.8288
vn 0.0007 0.5799 -0.8147
vn 0.0004 0.6705 -0.7419
vn -0.0020 0.6948 -0.7192
vn 0.0020 0.7632 -0.6461
vn 0.0015 0.8500 -0.5267
vn -0.0020 0.8177 -0.5757
vn 0.0016 0.9198 -0.3925
vn -0.0015 0.8982 -0.4395
vn -0.0019 0.9561 -0.2932
vn 0.0017 0.9701 -0.2425
vn 0.0010 0.9962 -0.0868
vn -0.0012 0.9934 -0.1145
vn 0.0024 0.9953 0.0970
vn -0.0014 0.9990 0.0436
vn -0.0019 0.9828 0.1847
vn 0.0006 0.9567 0.2911
vn 0.0013 0.9547 0.2976
vn 0.0013 0.8954 0.4454
vn -0.0005 0.9068 0.4215
vn -0.0018 0.8476 0.5306
vn 0.0020 0.8085 0.5884
vn -0.0001 0.7244 0.6893
vn -0.0017 0.7378 0.6750
vn 0.0009 0.6186 0.7857
vn -0.0014 0.5959 0.8031
vn 0.0014 0.4889 0.8723
vn -0.0011 0.4601 0.8879
vn 0.0008 0.3366 0.9417
vn -0.0008 0.3161 0.9487
vn 0.0009 0.2103 0.9776
vn -0.0007 0.1853 0.9827
vn -0.0002 0.0777 0.9970
vn 0.0002 0.0718 0.9974
vn -0.0000 1.0000 0.0029
vn -0.0000 0.5025 -0.8646
vn -0.0000 -0.4975 -0.8675
vn -0.0000 -1.0000 -0.0029
vn -0.0000 -0.5025 0.8646
vn -0.0000 0.4975 0.8675
s 0
usemtl mat0
f 1//1 3//1 2//1
f 2//1 4//1 1//1
f 1//1 5//1 3//1
f 6//1 5//1 1//1
f 4//1 7//1 1//1
f 6//1 8//1 5//1
f 7//1 9//1 1//1
f 6//1 10//1 8//1
f 9//1 11//1 1//1
f 6//1 12//1 10//1
f 11//1 13//1 1//1
f 6//1 14//1 12//1
f 6//1 15//1 14//1
f 6//1 16//1 15//1
f 18//1 17//1 13//1
f 13//1 17//1 1//1
f 18//1 19//1 17//1
f 6//1 20//1 16//1
f 19//1 21//1 17//1
f 21//1 22//1 17//1
f 22//1 23//1 17//1
f 23//1 24//1 17//1
f 24//1 25//1 17//1
f 6//1 26//1 20//1
f 27//1 26//1 28//1
f 29//1 26//1 27//1
f 30//1 26//1 29//1
f 31//1 26//1 30//1
f 20//1 26//1 31//1
f 26//1 32//1 28//1
f 33//1 34//1 35//1
f 36//1 34//1 33//1
f 37//1 34//1 36//1
f 38//1 34//1 37//1
f 39//1 34//1 25//1
f 40//1 34//1 39//1
f 35//1 34//1 40//1
f 25//1 34//1 17//1
f 26//1 41//1 32//1
f 42//1 41//1 38//1
f 43//1 41//1 42//1
f 44//1 41//1 43//1
f 45//1 41//1 44//1
f 46//1 41//1 45//1
f 47//1 41//1 46//1
f 38//1 41//1 34//1
f 32//1 41//1 47//1
f 48//2 49//2 50//2
f 51//2 50//2 49//2
f 52//2 53//2 49//2
f 52//2 49//2 48//2
f 54//2 53//2 52//2
f 55//2 51//2 49//2
f 56//2 53//2 54//2
f 57//2 55//2 49//2
f 58//2 53//2 56//2
f 59//2 57//2 49//2
f 60//2 53//2 58//2
f 61//2 53//2 60//2
f 62//2 63//2 59//2
f 62//2 64//2 63//2
f 62//2 59//2 49//2
f 65//2 64//2 62//2
f 66//2 53//2 61//2
f 67//2 65//2 62//2
f 76//2 53//2 66//2
f 68//2 67//2 62//2
f 69//2 68//2 62//2
f 70//2 69//2 62//2
f 71//2 53//2 76//2
f 71//2 73//2 72//2
f 71//2 74//2 73//2
f 71//2 75//2 74//2
f 71//2 76//2 75//2
f 77//2 71//2 72//2
f 78//2 71//2 77//2
f 79//2 81//2 80//2
f 79//2 82//2 81//2
f 79//2 83//2 82//2
f 79//2 84//2 83//2
f 79//2 85//2 70//2
f 79//2 86//2 85//2
f 79//2 87//2 86//2
f 79//2 80//2 87//2
f 79//2 70//2 62//2
f 88//2 89//2 84//2
f 88//2 90//2 89//2
f 88//2 91//2 90//2
f 88//2 92//2 91//2
f 88//2 93//2 92//2
f 88//2 84//2 79//2
f 88//2 78//2 93//2
f 88//2 71//2 78//2
f 35//3 80//3 33//3
f 80//4 81//4 33//4
f 33//5 81//5 36//5
f 81//6 82//6 36//6
f 36//7 82//7 37//7
f 82//8 83//8 37//8
f 37//9 83//9 38//9
f 83//10 84//10 38//10
f 84//11 89//11 38//11
f 38//12 89//12 42//12
f 89//13 90//13 42//13
f 42//14 90//14 43//14
f 43//15 90//15 44//15
f 90//16 91//16 44//16
f 44//17 91//17 45//17
f 91//18 92//18 45//18
f 45//19 92//19 46//19
f 92//20 93//20 46//20
f 46//21 93//21 47//21
f 93//22 78//22 47//22
f 47//23 78//23 32//23
f 78//24 77//24 32//24
f 32//25 77//25 28//25
f 77//26 72//26 28//26
f 28//27 72//27 27//27
f 72//28 73//28 27//28
f 27//29 73//29 29//29
f 73//30 74//30 29//30
f 29//31 74//31 30//31
f 74//32 75//32 30//32
f 30//33 75//33 31//33
f 75//34 76//34 31//34
f 31//35 76//35 20//35
f 76//36 66//36 20//36
f 20//37 66//37 16//37
f 66//38 61//38 16//38
f 16//39 61//39 15//39
f 61//40 60//40 15//40
f 15//41 60//41 14//41
f 60//42 58//42 14//42
f 14//43 58//43 12//43
f 58//44 56//44 12//44
f 12//45 56//45 10//45
f 10//46 56//46 8//46
f 56//47 54//47 8//47
f 8//48 54//48 5//48
f 54//49 52//49 5//49
f 52//50 48//50 5//50
f 5//51 48//51 3//51
f 3//52 48//52 2//52
f 48//53 50//53 2//53
f 2//54 50//54 4//54
f 4//55 51//55 7//55
f 50//56 51//56 4//56
f 7//57 55//57 9//57
f 51//58 55//58 7//58
f 55//59 57//59 9//59
f 9//60 57//60 11//60
f 11//61 59//61 13//61
f 57//62 59//62 11//62
f 13//63 63//63 18//63
f 59//64 63//64 13//64
f 63//65 64//65 18//65
f 18//66 65//66 19//66
f 64//67 65//67 18//67
f 19//68 67//68 21//68
f 65//69 67//69 19//69
f 67//70 68//70 21//70
f 21//71 68//71 22//71
f 22//72 69//72 23//72
f 68//73 69//73 22//73
f 23//74 69//74 24//74
f 69//75 70//75 24//75
f 24//76 70//76 25//76
f 70//77 85//77 25//77
f 25//78 85//78 39//78
f 85//79 86//79 39//79
f 39//80 86//80 40//80
f 86//81 87//81 40//81
f 40//82 80//82 35//82
f 87//83 80//83 40//83
f 71//84 41//84 26//84
f 71//84 88//84 41//84
f 41//85 79//85 34//85
f 88//85 79//85 41//85
f 79//86 17//86 34//86
f 79//86 62//86 17//86
f 17//87 49//87 1//87
f 62//87 49//87 17//87
f 49//88 6//88 1//88
f 49//88 53//88 6//88
f 6//89 71//89 26//89
f 53//89 71//89 6//89
