# Blender 3.4.1
# www.blender.org
mtllib ImageToStl.com_28 шпильки м83x4 - 8шт. для стяжки секций.mtl
o imagetostl_mesh
v -40.593124 8.628335 -1990.000000
v -41.500000 0.000000 -1990.000000
v -41.500000 -0.000000 -10.000000
v -40.593124 8.628335 -10.000000
v -37.912136 16.879570 -1990.000000
v -37.912136 16.879570 -10.000000
v -33.574203 24.393087 -1990.000000
v -33.574203 24.393087 -10.000000
v -27.768921 30.840509 -1990.000000
v -27.768921 30.840509 -10.000000
v -20.750000 35.940056 -1990.000000
v -20.750000 35.940056 -10.000000
v -12.824205 39.468845 -1990.000000
v -12.824205 39.468845 -10.000000
v -4.337931 41.272659 -1990.000000
v -4.337931 41.272659 -10.000000
v 4.337931 41.272659 -1990.000000
v 4.337931 41.272659 -10.000000
v 12.824205 39.468845 -1990.000000
v 12.824205 39.468845 -10.000000
v 20.750000 35.940056 -1990.000000
v 20.750000 35.940056 -10.000000
v 27.768921 30.840509 -10.000000
v 27.768921 30.840509 -1990.000000
v 33.574203 24.393087 -1990.000000
v 33.574203 24.393087 -10.000000
v 37.912136 16.879570 -10.000000
v 37.912136 16.879570 -1990.000000
v 40.593124 8.628335 -1990.000000
v 40.593124 8.628335 -10.000000
v 41.500000 0.000000 -1990.000000
v 41.500000 0.000000 -10.000000
v 40.593124 -8.628335 -1990.000000
v 40.593124 -8.628335 -10.000000
v 37.912136 -16.879570 -1990.000000
v 37.912136 -16.879570 -10.000000
v 33.574203 -24.393087 -1990.000000
v 33.574203 -24.393087 -10.000000
v 27.768921 -30.840509 -10.000000
v 27.768921 -30.840509 -1990.000000
v 20.750000 -35.940056 -1990.000000
v 20.750000 -35.940056 -10.000000
v 12.824205 -39.468845 -1990.000000
v 12.824205 -39.468845 -10.000000
v 4.337931 -41.272659 -10.000000
v 4.337931 -41.272659 -1990.000000
v -4.337931 -41.272659 -10.000000
v -4.337931 -41.272659 -1990.000000
v -12.824205 -39.468845 -1990.000000
v -12.824205 -39.468845 -10.000000
v -20.750000 -35.940056 -10.000000
v -20.750000 -35.940056 -1990.000000
v -27.768921 -30.840509 -10.000000
v -27.768921 -30.840509 -1990.000000
v -33.574203 -24.393087 -1990.000000
v -33.574203 -24.393087 -10.000000
v -37.912136 -16.879570 -10.000000
v -37.912136 -16.879570 -1990.000000
v -40.593124 -8.628335 -1990.000000
v -40.593124 -8.628335 -10.000000
v -14.492048 -27.968384 -2000.000000
v 24.434906 -19.879271 -2000.000000
v 18.165430 -25.734552 -2000.000000
v 10.548708 -29.681219 -2000.000000
v 2.149636 -31.426567 -2000.000000
v -6.408864 -30.841148 -2000.000000
v -21.500423 -23.021334 -2000.000000
v 28.892157 -12.549634 -2000.000000
v 18.165430 25.734552 -2000.000000
v 24.434906 19.879271 -2000.000000
v 28.892157 12.549634 -2000.000000
v -30.331894 -8.498598 -2000.000000
v -26.914211 -16.366894 -2000.000000
v -31.500000 0.000000 -2000.000000
v -30.331894 8.498598 -2000.000000
v 31.206608 4.289249 -2000.000000
v 31.206608 -4.289249 -2000.000000
v -14.492048 27.968384 -2000.000000
v -6.408864 30.841148 -2000.000000
v 2.149636 31.426567 -2000.000000
v -21.500423 23.021334 -2000.000000
v -26.914211 16.366894 -2000.000000
v 10.548708 29.681219 -2000.000000
v 24.434906 -19.879271 -0.000000
v -14.492048 -27.968384 -0.000000
v 18.165430 -25.734552 -0.000000
v 10.548708 -29.681219 -0.000000
v 2.149636 -31.426567 -0.000000
v -6.408864 -30.841148 -0.000000
v 28.892157 -12.549634 -0.000000
v -21.500423 -23.021334 -0.000000
v 24.434906 19.879271 0.000000
v 18.165430 25.734552 0.000000
v 28.892157 12.549634 0.000000
v -30.331894 -8.498598 -0.000000
v -26.914211 -16.366894 -0.000000
v -31.500000 -0.000000 -0.000000
v -30.331894 8.498598 0.000000
v 31.206608 4.289249 0.000000
v 31.206608 -4.289249 -0.000000
v -6.408864 30.841148 0.000000
v -14.492048 27.968384 0.000000
v 2.149636 31.426567 0.000000
v -21.500423 23.021334 0.000000
v -26.914211 16.366894 0.000000
v 10.548708 29.681219 0.000000
v -36.500000 0.000000 -1995.000000
v -35.702389 -7.588777 -1995.000000
v -33.344410 -14.845887 -1995.000000
v -29.529119 -21.454163 -1995.000000
v -24.423267 -27.124786 -1995.000000
v -18.250000 -31.609928 -1995.000000
v -11.279120 -34.713562 -1995.000000
v -3.815289 -36.300049 -1995.000000
v 3.815289 -36.300049 -1995.000000
v 11.279120 -34.713562 -1995.000000
v 18.250000 -31.609928 -1995.000000
v 24.423267 -27.124786 -1995.000000
v 29.529119 -21.454163 -1995.000000
v 33.344410 -14.845887 -1995.000000
v 35.702389 -7.588777 -1995.000000
v 36.500000 0.000000 -1995.000000
v 35.702389 7.588777 -1995.000000
v 33.344410 14.845887 -1995.000000
v 29.529119 21.454163 -1995.000000
v 24.423267 27.124786 -1995.000000
v 18.250000 31.609928 -1995.000000
v 11.279120 34.713562 -1995.000000
v 3.815289 36.300049 -1995.000000
v -3.815289 36.300049 -1995.000000
v -11.279120 34.713562 -1995.000000
v -18.250000 31.609928 -1995.000000
v -24.423267 27.124786 -1995.000000
v -29.529119 21.454163 -1995.000000
v -33.344410 14.845887 -1995.000000
v -35.702389 7.588777 -1995.000000
v -35.702389 7.588777 -5.000000
v -36.500000 -0.000000 -5.000000
v -33.344410 14.845887 -5.000000
v -29.529119 21.454163 -5.000000
v -24.423267 27.124786 -5.000000
v -18.250000 31.609928 -5.000000
v -11.279120 34.713562 -5.000000
v -3.815289 36.300049 -5.000000
v 3.815289 36.300049 -5.000000
v 11.279120 34.713562 -5.000000
v 18.250000 31.609928 -5.000000
v 24.423267 27.124786 -5.000000
v 29.529119 21.454163 -5.000000
v 33.344410 14.845887 -5.000000
v 35.702389 7.588777 -5.000000
v 36.500000 0.000000 -5.000000
v 35.702389 -7.588777 -5.000000
v 33.344410 -14.845887 -5.000000
v 29.529119 -21.454163 -5.000000
v 24.423267 -27.124786 -5.000000
v 18.250000 -31.609928 -5.000000
v 11.279120 -34.713562 -5.000000
v 3.815289 -36.300049 -5.000000
v -3.815289 -36.300049 -5.000000
v -11.279120 -34.713562 -5.000000
v -18.250000 -31.609928 -5.000000
v -24.423267 -27.124786 -5.000000
v -29.529119 -21.454163 -5.000000
v -33.344410 -14.845887 -5.000000
v -35.702389 -7.588777 -5.000000
vn -0.9945 0.1045 -0.0000
vn -0.9511 0.3090 -0.0000
vn -0.8660 0.5000 -0.0000
vn -0.7431 0.6691 -0.0000
vn -0.5878 0.8090 -0.0000
vn -0.4067 0.9135 -0.0000
vn -0.2079 0.9781 -0.0000
vn -0.0000 1.0000 -0.0000
vn 0.2079 0.9781 -0.0000
vn 0.4067 0.9135 -0.0000
vn 0.5878 0.8090 -0.0000
vn 0.7431 0.6691 -0.0000
vn 0.8660 0.5000 -0.0000
vn 0.9511 0.3090 -0.0000
vn 0.9945 0.1045 -0.0000
vn 0.9945 -0.1045 -0.0000
vn 0.9511 -0.3090 -0.0000
vn 0.8660 -0.5000 -0.0000
vn 0.7431 -0.6691 -0.0000
vn 0.5878 -0.8090 -0.0000
vn 0.4067 -0.9135 -0.0000
vn 0.2079 -0.9781 -0.0000
vn -0.0000 -1.0000 -0.0000
vn -0.2079 -0.9781 -0.0000
vn -0.4067 -0.9135 -0.0000
vn -0.5878 -0.8090 -0.0000
vn -0.7431 -0.6691 -0.0000
vn -0.8660 -0.5000 -0.0000
vn -0.9511 -0.3090 -0.0000
vn -0.9945 -0.1045 -0.0000
vn -0.0000 -0.0001 -1.0000
vn -0.0000 -0.0000 -1.0000
vn -0.0000 0.0001 -1.0000
vn -0.0000 -0.0000 1.0000
vn -0.7052 -0.0741 -0.7052
vn -0.6869 -0.0944 -0.7206
vn -0.6743 -0.2191 -0.7052
vn -0.6299 -0.2736 -0.7269
vn -0.6141 -0.3545 -0.7052
vn -0.6843 -0.2223 -0.6945
vn -0.5356 -0.4357 -0.7234
vn -0.6242 -0.3604 -0.6931
vn -0.5269 -0.4744 -0.7052
vn -0.5298 -0.4771 -0.7012
vn -0.4020 -0.5695 -0.7170
vn -0.4168 -0.5736 -0.7052
vn -0.4141 -0.5699 -0.7098
vn -0.2303 -0.6479 -0.7261
vn -0.2884 -0.6477 -0.7052
vn -0.2884 -0.6478 -0.7052
vn -0.2918 -0.6554 -0.6966
vn -0.0470 -0.6867 -0.7254
vn -0.1474 -0.6935 -0.7052
vn -0.1500 -0.7056 -0.6926
vn -0.0000 -0.7090 -0.7052
vn 0.1423 -0.6847 -0.7148
vn -0.0000 -0.7161 -0.6980
vn 0.1474 -0.6935 -0.7052
vn 0.1474 -0.6936 -0.7052
vn 0.1459 -0.6865 -0.7123
vn 0.3171 -0.6120 -0.7245
vn 0.2884 -0.6477 -0.7052
vn 0.2907 -0.6528 -0.6995
vn 0.4690 -0.5022 -0.7266
vn 0.4168 -0.5736 -0.7052
vn 0.4239 -0.5835 -0.6927
vn 0.5939 -0.3612 -0.7189
vn 0.6141 -0.3545 -0.7052
vn 0.5269 -0.4744 -0.7052
vn 0.5340 -0.4808 -0.6955
vn 0.6140 -0.3546 -0.7052
vn 0.6121 -0.3534 -0.7074
vn 0.6661 -0.1866 -0.7221
vn 0.7052 -0.0741 -0.7052
vn 0.6743 -0.2191 -0.7052
vn 0.6763 -0.2197 -0.7031
vn 0.6867 -0.0000 -0.7270
vn 0.7163 -0.0753 -0.6937
vn 0.6661 0.1866 -0.7221
vn 0.7163 0.0753 -0.6937
vn 0.7052 0.0741 -0.7052
vn 0.6743 0.2191 -0.7052
vn 0.6141 0.3545 -0.7052
vn 0.6763 0.2197 -0.7031
vn 0.5939 0.3612 -0.7189
vn 0.5269 0.4744 -0.7052
vn 0.6121 0.3534 -0.7074
vn 0.4690 0.5022 -0.7266
vn 0.4168 0.5736 -0.7052
vn 0.5340 0.4808 -0.6955
vn 0.3171 0.6120 -0.7245
vn 0.4239 0.5835 -0.6927
vn 0.2907 0.6528 -0.6995
vn 0.2884 0.6478 -0.7052
vn 0.1474 0.6935 -0.7052
vn 0.2884 0.6477 -0.7052
vn 0.1423 0.6847 -0.7148
vn 0.1474 0.6936 -0.7052
vn 0.1459 0.6865 -0.7123
vn -0.0000 0.7090 -0.7052
vn -0.0470 0.6867 -0.7254
vn -0.0000 0.7161 -0.6980
vn -0.2303 0.6479 -0.7261
vn -0.2884 0.6477 -0.7052
vn -0.1474 0.6935 -0.7052
vn -0.1500 0.7056 -0.6926
vn -0.1474 0.6936 -0.7052
vn -0.4020 0.5695 -0.7170
vn -0.2884 0.6478 -0.7052
vn -0.2918 0.6554 -0.6966
vn -0.5269 0.4744 -0.7052
vn -0.4168 0.5736 -0.7052
vn -0.4141 0.5699 -0.7098
vn -0.5356 0.4357 -0.7234
vn -0.5298 0.4771 -0.7012
vn -0.6299 0.2736 -0.7269
vn -0.6141 0.3545 -0.7052
vn -0.6242 0.3604 -0.6931
vn -0.6869 0.0944 -0.7206
vn -0.7052 0.0741 -0.7052
vn -0.6743 0.2191 -0.7052
vn -0.6843 0.2223 -0.6945
vn -0.6869 0.0944 0.7206
vn -0.7052 0.0741 0.7052
vn -0.6743 0.2191 0.7052
vn -0.6299 0.2736 0.7269
vn -0.6141 0.3545 0.7052
vn -0.6843 0.2223 0.6945
vn -0.6242 0.3604 0.6931
vn -0.5356 0.4357 0.7234
vn -0.5269 0.4744 0.7052
vn -0.5298 0.4771 0.7012
vn -0.4020 0.5695 0.7169
vn -0.4168 0.5736 0.7052
vn -0.2884 0.6477 0.7052
vn -0.4141 0.5699 0.7098
vn -0.2303 0.6479 0.7261
vn -0.2918 0.6554 0.6966
vn -0.0470 0.6867 0.7254
vn -0.1474 0.6936 0.7052
vn -0.1500 0.7056 0.6926
vn 0.1423 0.6847 0.7148
vn -0.0000 0.7161 0.6980
vn -0.0000 0.7090 0.7052
vn 0.1474 0.6936 0.7052
vn 0.1459 0.6865 0.7123
vn 0.3171 0.6120 0.7245
vn 0.2884 0.6477 0.7052
vn 0.2907 0.6528 0.6995
vn 0.4690 0.5021 0.7266
vn 0.4168 0.5736 0.7052
vn 0.4239 0.5834 0.6928
vn 0.5939 0.3612 0.7189
vn 0.5269 0.4744 0.7052
vn 0.5340 0.4808 0.6955
vn 0.6141 0.3545 0.7052
vn 0.6121 0.3534 0.7074
vn 0.6661 0.1866 0.7221
vn 0.6743 0.2191 0.7052
vn 0.6763 0.2197 0.7031
vn 0.7052 0.0741 0.7052
vn 0.6867 -0.0000 0.7270
vn 0.7163 0.0753 0.6937
vn 0.6661 -0.1866 0.7221
vn 0.7052 -0.0741 0.7052
vn 0.7163 -0.0753 0.6937
vn 0.6763 -0.2197 0.7031
vn 0.6743 -0.2191 0.7052
vn 0.6141 -0.3545 0.7052
vn 0.6121 -0.3534 0.7074
vn 0.5939 -0.3612 0.7189
vn 0.4690 -0.5021 0.7266
vn 0.5340 -0.4808 0.6955
vn 0.5269 -0.4744 0.7052
vn 0.4168 -0.5736 0.7052
vn 0.3171 -0.6120 0.7245
vn 0.2884 -0.6477 0.7052
vn 0.4239 -0.5834 0.6928
vn 0.2907 -0.6528 0.6995
vn 0.1423 -0.6847 0.7148
vn 0.1459 -0.6865 0.7123
vn 0.1474 -0.6936 0.7052
vn -0.0000 -0.7090 0.7052
vn -0.0470 -0.6867 0.7254
vn -0.0000 -0.7161 0.6980
vn -0.2303 -0.6479 0.7261
vn -0.1500 -0.7056 0.6926
vn -0.1474 -0.6936 0.7052
vn -0.4020 -0.5695 0.7169
vn -0.2884 -0.6477 0.7052
vn -0.2918 -0.6554 0.6966
vn -0.4168 -0.5736 0.7052
vn -0.4141 -0.5699 0.7098
vn -0.5356 -0.4357 0.7234
vn -0.5269 -0.4744 0.7052
vn -0.6141 -0.3545 0.7052
vn -0.5298 -0.4771 0.7012
vn -0.6299 -0.2736 0.7269
vn -0.6242 -0.3604 0.6931
vn -0.6869 -0.0944 0.7206
vn -0.7052 -0.0741 0.7052
vn -0.6743 -0.2191 0.7052
vn -0.6843 -0.2223 0.6945
s 0
usemtl mat0
f 1//1 2//1 3//1
f 1//1 3//1 4//1
f 5//2 4//2 6//2
f 5//2 1//2 4//2
f 7//3 6//3 8//3
f 7//3 5//3 6//3
f 9//4 8//4 10//4
f 9//4 7//4 8//4
f 11//5 10//5 12//5
f 11//5 9//5 10//5
f 13//6 12//6 14//6
f 13//6 11//6 12//6
f 15//7 14//7 16//7
f 15//7 13//7 14//7
f 17//8 16//8 18//8
f 17//8 15//8 16//8
f 19//9 17//9 18//9
f 19//9 18//9 20//9
f 21//10 19//10 20//10
f 21//10 20//10 22//10
f 21//11 22//11 23//11
f 24//11 21//11 23//11
f 25//12 24//12 23//12
f 25//12 23//12 26//12
f 25//13 26//13 27//13
f 28//13 25//13 27//13
f 29//14 28//14 27//14
f 29//14 27//14 30//14
f 31//15 29//15 30//15
f 31//15 30//15 32//15
f 33//16 31//16 32//16
f 33//16 32//16 34//16
f 35//17 33//17 34//17
f 35//17 34//17 36//17
f 37//18 35//18 36//18
f 37//18 36//18 38//18
f 37//19 38//19 39//19
f 40//19 37//19 39//19
f 41//20 40//20 39//20
f 41//20 39//20 42//20
f 43//21 41//21 42//21
f 43//21 42//21 44//21
f 43//22 44//22 45//22
f 46//23 45//23 47//23
f 46//22 43//22 45//22
f 48//23 46//23 47//23
f 49//24 47//24 50//24
f 49//25 50//25 51//25
f 49//24 48//24 47//24
f 52//26 51//26 53//26
f 52//25 49//25 51//25
f 54//26 52//26 53//26
f 55//27 53//27 56//27
f 55//28 56//28 57//28
f 55//27 54//27 53//27
f 58//28 55//28 57//28
f 59//29 57//29 60//29
f 59//29 58//29 57//29
f 2//30 60//30 3//30
f 2//30 59//30 60//30
f 61//31 62//31 63//31
f 61//32 63//32 64//32
f 61//31 64//31 65//31
f 61//32 65//32 66//32
f 67//32 68//32 62//32
f 67//33 62//33 61//33
f 69//32 70//32 71//32
f 72//32 67//32 73//32
f 72//32 68//32 67//32
f 74//32 68//32 72//32
f 75//32 71//32 76//32
f 75//32 76//32 77//32
f 75//32 77//32 68//32
f 75//32 69//32 71//32
f 75//32 68//32 74//32
f 78//32 79//32 80//32
f 81//32 75//32 82//32
f 81//33 80//33 83//33
f 81//32 83//32 69//32
f 81//31 69//31 75//31
f 81//32 78//32 80//32
f 84//34 85//34 86//34
f 86//34 85//34 87//34
f 87//34 85//34 88//34
f 88//34 85//34 89//34
f 90//34 91//34 84//34
f 84//34 91//34 85//34
f 92//34 93//34 94//34
f 91//34 95//34 96//34
f 90//34 95//34 91//34
f 90//34 97//34 95//34
f 94//34 98//34 99//34
f 99//34 98//34 100//34
f 100//34 98//34 90//34
f 93//34 98//34 94//34
f 90//34 98//34 97//34
f 101//34 102//34 103//34
f 98//34 104//34 105//34
f 103//34 104//34 106//34
f 106//34 104//34 93//34
f 93//34 104//34 98//34
f 102//34 104//34 103//34
f 59//35 2//35 107//35
f 108//36 74//36 72//36
f 108//37 58//37 59//37
f 108//35 107//35 74//35
f 108//35 59//35 107//35
f 109//38 72//38 73//38
f 109//37 58//37 108//37
f 109//39 55//39 58//39
f 109//40 108//40 72//40
f 110//39 55//39 109//39
f 110//41 73//41 67//41
f 110//42 109//42 73//42
f 111//43 54//43 55//43
f 111//44 110//44 67//44
f 111//43 55//43 110//43
f 112//45 67//45 61//45
f 112//46 52//46 54//46
f 112//46 54//46 111//46
f 112//47 111//47 67//47
f 113//48 61//48 66//48
f 113//49 49//49 52//49
f 113//50 52//50 112//50
f 113//51 112//51 61//51
f 114//52 66//52 65//52
f 114//53 49//53 113//53
f 114//54 113//54 66//54
f 114//53 48//53 49//53
f 115//55 48//55 114//55
f 115//56 65//56 64//56
f 115//57 114//57 65//57
f 115//55 46//55 48//55
f 116//58 43//58 46//58
f 116//59 46//59 115//59
f 116//60 115//60 64//60
f 117//61 64//61 63//61
f 117//62 41//62 43//62
f 117//62 43//62 116//62
f 117//63 116//63 64//63
f 118//64 63//64 62//64
f 118//65 40//65 41//65
f 118//65 41//65 117//65
f 118//66 117//66 63//66
f 119//67 62//67 68//67
f 119//68 35//68 37//68
f 119//69 37//69 40//69
f 119//70 118//70 62//70
f 119//69 40//69 118//69
f 120//71 35//71 119//71
f 120//72 119//72 68//72
f 121//73 68//73 77//73
f 121//74 31//74 33//74
f 121//75 33//75 35//75
f 121//76 120//76 68//76
f 121//75 35//75 120//75
f 122//77 77//77 76//77
f 122//74 31//74 121//74
f 122//78 121//78 77//78
f 123//79 76//79 71//79
f 123//80 122//80 76//80
f 123//81 29//81 31//81
f 123//81 31//81 122//81
f 124//82 29//82 123//82
f 124//83 25//83 28//83
f 124//82 28//82 29//82
f 124//84 123//84 71//84
f 125//85 71//85 70//85
f 125//83 25//83 124//83
f 125//86 24//86 25//86
f 125//87 124//87 71//87
f 126//88 70//88 69//88
f 126//86 24//86 125//86
f 126//89 21//89 24//89
f 126//90 125//90 70//90
f 127//91 69//91 83//91
f 127//92 126//92 69//92
f 127//89 21//89 126//89
f 128//93 127//93 83//93
f 128//94 21//94 127//94
f 128//95 17//95 19//95
f 128//96 19//96 21//96
f 129//97 83//97 80//97
f 129//98 17//98 128//98
f 129//99 128//99 83//99
f 129//100 15//100 17//100
f 130//101 80//101 79//101
f 130//102 129//102 80//102
f 130//100 15//100 129//100
f 131//103 79//103 78//103
f 131//104 11//104 13//104
f 131//105 13//105 15//105
f 131//106 130//106 79//106
f 131//107 15//107 130//107
f 132//108 78//108 81//108
f 132//109 11//109 131//109
f 132//110 131//110 78//110
f 133//111 7//111 9//111
f 133//112 9//112 11//112
f 133//113 132//113 81//113
f 133//112 11//112 132//112
f 134//114 81//114 82//114
f 134//111 7//111 133//111
f 134//115 133//115 81//115
f 135//116 82//116 75//116
f 135//117 5//117 7//117
f 135//118 134//118 82//118
f 135//117 7//117 134//117
f 136//119 75//119 74//119
f 136//120 74//120 107//120
f 136//120 107//120 2//120
f 136//120 2//120 1//120
f 136//121 1//121 5//121
f 136//122 135//122 75//122
f 136//121 5//121 135//121
f 137//123 97//123 98//123
f 137//124 4//124 3//124
f 137//125 6//125 4//125
f 137//124 138//124 97//124
f 137//124 3//124 138//124
f 139//126 98//126 105//126
f 139//127 8//127 6//127
f 139//128 137//128 98//128
f 139//125 6//125 137//125
f 140//129 139//129 105//129
f 140//130 105//130 104//130
f 140//131 10//131 8//131
f 140//127 8//127 139//127
f 141//132 140//132 104//132
f 141//131 10//131 140//131
f 142//133 104//133 102//133
f 142//134 12//134 10//134
f 142//135 14//135 12//135
f 142//136 141//136 104//136
f 142//134 10//134 141//134
f 143//137 102//137 101//137
f 143//138 142//138 102//138
f 143//135 14//135 142//135
f 144//139 101//139 103//139
f 144//140 16//140 14//140
f 144//140 14//140 143//140
f 144//141 143//141 101//141
f 145//142 103//142 106//142
f 145//143 144//143 103//143
f 145//144 16//144 144//144
f 145//144 18//144 16//144
f 146//145 20//145 18//145
f 146//146 145//146 106//146
f 146//145 18//145 145//145
f 147//147 106//147 93//147
f 147//148 22//148 20//148
f 147//149 146//149 106//149
f 147//148 20//148 146//148
f 148//150 93//150 92//150
f 148//151 22//151 147//151
f 148//151 23//151 22//151
f 148//152 147//152 93//152
f 149//153 92//153 94//153
f 149//154 26//154 23//154
f 149//155 148//155 92//155
f 149//154 23//154 148//154
f 150//156 27//156 26//156
f 150//156 26//156 149//156
f 150//157 149//157 94//157
f 151//158 94//158 99//158
f 151//159 30//159 27//159
f 151//159 27//159 150//159
f 151//160 150//160 94//160
f 152//161 30//161 151//161
f 152//162 99//162 100//162
f 152//161 32//161 30//161
f 152//163 151//163 99//163
f 153//164 100//164 90//164
f 153//165 34//165 32//165
f 153//165 32//165 152//165
f 153//166 152//166 100//166
f 154//167 153//167 90//167
f 154//168 36//168 34//168
f 154//169 38//169 36//169
f 154//168 34//168 153//168
f 155//170 154//170 90//170
f 155//171 90//171 84//171
f 155//169 38//169 154//169
f 156//172 84//172 86//172
f 156//173 155//173 84//173
f 156//174 39//174 38//174
f 156//174 38//174 155//174
f 157//175 39//175 156//175
f 157//176 86//176 87//176
f 157//175 42//175 39//175
f 157//177 44//177 42//177
f 157//178 156//178 86//178
f 158//179 157//179 87//179
f 158//177 44//177 157//177
f 159//180 87//180 88//180
f 159//181 158//181 87//181
f 159//182 44//182 158//182
f 159//182 45//182 44//182
f 159//183 47//183 45//183
f 160//184 88//184 89//184
f 160//185 159//185 88//185
f 160//183 47//183 159//183
f 161//186 89//186 85//186
f 161//187 160//187 89//187
f 161//188 50//188 47//188
f 161//188 47//188 160//188
f 162//189 85//189 91//189
f 162//190 51//190 50//190
f 162//191 161//191 85//191
f 162//190 50//190 161//190
f 163//192 53//192 51//192
f 163//192 51//192 162//192
f 163//193 162//193 91//193
f 164//194 91//194 96//194
f 164//195 56//195 53//195
f 164//196 57//196 56//196
f 164//195 53//195 163//195
f 164//197 163//197 91//197
f 165//198 96//198 95//198
f 165//199 164//199 96//199
f 165//196 57//196 164//196
f 166//200 95//200 97//200
f 166//201 97//201 138//201
f 166//201 138//201 3//201
f 166//202 60//202 57//202
f 166//201 3//201 60//201
f 166//203 165//203 95//203
f 166//202 57//202 165//202
