# Blender 3.4.1
# www.blender.org
mtllib ImageToStl.com_21 пункт.дистанционная втулка.mtl
o imagetostl_mesh0
v -117.500000 70.043457 0.000009
v -0.000000 69.989731 -2.053863
v -117.500000 69.514114 -8.400492
v -0.000000 69.261116 -10.439506
v -117.500000 67.995911 -16.862894
v -0.000000 67.835411 -17.273018
v -0.000000 65.680054 -24.370703
v -117.500000 64.567429 -27.217518
v -0.000000 62.302628 -31.940681
v -117.500000 59.767429 -36.523148
v -0.000000 58.825298 -37.993416
v -117.500000 53.945663 -44.695263
v -0.000000 54.550934 -43.897335
v -0.000000 49.909100 -49.110710
v -117.500000 46.364029 -52.536873
v -0.000000 43.336498 -55.043156
v -117.500000 38.001827 -58.838310
v -0.000000 36.247410 -59.907471
v -117.500000 30.658033 -62.951290
v -0.000000 30.102463 -63.218838
v -117.500000 24.237715 -65.691048
v -0.000000 23.658276 -65.901947
v -117.500000 16.014641 -68.200684
v -0.000000 15.162453 -68.395187
v -117.500000 7.278291 -69.640556
v -0.000000 6.664706 -69.701950
v -117.500000 0.308328 -70.019173
v -0.000000 -0.308328 -70.019173
v -117.500000 -6.664706 -69.701950
v -0.000000 -7.278291 -69.640556
v -117.500000 -15.162453 -68.395187
v -0.000000 -16.014641 -68.200684
v -117.500000 -23.658276 -65.901947
v -0.000000 -24.237715 -65.691048
v -117.500000 -30.102463 -63.218838
v -0.000000 -30.658033 -62.951290
v -117.500000 -36.515072 -59.754200
v -0.000000 -38.374863 -58.610329
v -117.500000 -44.019901 -54.498161
v -0.000000 -46.681644 -52.236244
v -117.500000 -50.119980 -48.885700
v -0.000000 -53.945663 -44.695263
v -117.500000 -55.854736 -42.308327
v -0.000000 -58.985203 -37.729652
v -117.500000 -61.513680 -33.498554
v -0.000000 -62.448765 -31.669106
v -117.500000 -65.066345 -25.867949
v -0.000000 -65.291626 -25.293957
v -117.500000 -67.318634 -19.260889
v -0.000000 -67.877518 -17.283768
v -117.500000 -69.206741 -10.873277
v -0.000000 -69.721397 -6.976550
v -117.500000 -69.989731 -2.053863
v -0.000000 -69.945473 3.928403
v -117.500000 -69.749748 6.540153
v -0.000000 -68.901878 12.462407
v -117.500000 -68.332268 15.280111
v -0.000000 -67.318634 19.260889
v -117.500000 -65.979027 23.549286
v -0.000000 -65.066345 25.867949
v -117.500000 -63.067822 30.371862
v -0.000000 -62.302628 31.940681
v -117.500000 -59.548817 36.901756
v -0.000000 -58.985203 37.729652
v -0.000000 -54.750038 43.661755
v -117.500000 -54.738361 43.652451
v -117.500000 -50.130672 48.896122
v -0.000000 -50.119980 48.885700
v -0.000000 -44.019901 54.498161
v -117.500000 -45.003510 53.633091
v -117.500000 -38.374863 58.610329
v -0.000000 -35.034779 60.682041
v -117.500000 -28.818686 63.868843
v -0.000000 -27.195395 64.515381
v -0.000000 -19.394203 67.317650
v -117.500000 -18.552795 67.554390
v -0.000000 -8.712683 69.525787
v -117.500000 -8.709436 69.499863
v -117.500000 -0.308328 70.019173
v -0.000000 0.308328 70.019173
v -117.500000 6.664706 69.701950
v -0.000000 8.709436 69.499863
v -117.500000 15.162453 68.395187
v -0.000000 17.279943 67.862503
v -117.500000 23.658276 65.901947
v -0.000000 24.237715 65.691048
v -117.500000 30.384054 63.092979
v -0.000000 30.377594 63.079521
v -0.000000 36.515072 59.754200
v -117.500000 38.374863 58.610332
v -0.000000 42.274212 55.809635
v -117.500000 46.681652 52.236237
v -0.000000 47.399109 51.537411
v -0.000000 53.676414 45.039852
v -117.500000 52.494495 46.326584
v -117.500000 56.671268 41.123566
v -0.000000 58.812756 37.985317
v -117.500000 61.314209 33.887596
v -0.000000 62.315922 31.947481
v -117.500000 64.503334 27.190435
v -0.000000 65.979027 23.549290
v -117.500000 66.931618 20.645679
v -0.000000 68.332268 15.280111
v -117.500000 69.286949 10.443374
v -0.000000 69.749748 6.540153
v -0.000000 -43.762444 -41.116665
v -0.000000 -37.145508 -47.179901
v -0.000000 -48.575352 -35.248798
v -0.000000 -30.018618 -51.993786
v -0.000000 -51.982281 -30.011984
v -0.000000 -54.814049 -24.443060
v -0.000000 -23.556004 -55.201061
v -0.000000 -56.975388 -18.863928
v -0.000000 -16.623682 -57.700817
v -0.000000 -58.930225 -11.530825
v -0.000000 -9.206356 -59.306709
v -0.000000 -59.868370 -4.221473
v -0.000000 -3.255574 -59.928658
v -0.000000 -59.992519 1.496083
v -0.000000 2.727696 -59.955002
v -0.000000 -59.558128 7.463626
v -0.000000 8.683733 -59.385479
v -0.000000 -58.452888 13.612576
v -0.000000 15.902451 -57.903740
v -0.000000 -56.807053 19.364958
v -0.000000 23.068962 -55.406368
v -0.000000 -54.700550 24.681787
v -0.000000 29.698866 -52.189167
v -0.000000 -51.982277 30.011988
v -0.000000 -48.575352 35.248798
v -0.000000 35.024620 -48.716282
v -0.000000 39.725822 -45.014778
v -0.000000 -44.010410 40.835709
v -0.000000 44.824352 -39.910152
v -0.000000 -39.701149 44.986874
v -0.000000 -34.747643 48.972778
v -0.000000 48.575352 -35.248795
v -0.000000 52.555031 -29.046515
v -0.000000 -28.471073 52.834087
v -0.000000 -23.310442 55.298859
v -0.000000 56.297184 -20.889202
v -0.000000 -16.623657 57.700825
v -0.000000 58.144638 -14.805444
v -0.000000 -8.946197 59.353535
v -0.000000 59.366680 -8.948091
v -0.000000 59.991196 -1.760399
v -0.000000 -2.727696 59.955002
v -0.000000 3.255574 59.928658
v -0.000000 59.785488 5.605960
v -0.000000 8.944279 59.340881
v -0.000000 14.811376 58.167858
v -0.000000 58.570503 13.097278
v -0.000000 56.898357 19.116840
v -0.000000 20.775185 56.306610
v -0.000000 54.700550 24.681784
v -0.000000 27.727297 53.262825
v -0.000000 51.432545 30.990719
v -0.000000 35.046391 48.746506
v -0.000000 46.008350 38.605591
v -0.000000 40.627838 44.174900
v -117.500000 60.037247 0.000002
v -117.500000 59.583519 -7.200463
v -117.500000 58.282207 -14.453918
v -117.500000 55.343529 -23.329254
v -117.500000 51.971188 -30.005598
v -117.500000 48.883896 -34.819633
v -117.500000 45.174065 -39.513878
v -117.500000 41.015285 -43.815399
v -117.500000 35.355984 -48.535408
v -117.500000 28.935259 -52.581303
v -117.500000 23.556004 -55.201061
v -117.500000 16.623682 -57.700817
v -117.500000 9.206356 -59.306709
v -117.500000 3.255574 -59.928658
v -117.500000 -2.727696 -59.955002
v -117.500000 -8.683733 -59.385479
v -117.500000 -15.902451 -57.903740
v -117.500000 -23.068962 -55.406368
v -117.500000 -28.471073 -52.834087
v -117.500000 -34.747646 -48.972775
v -117.500000 -41.658566 -43.246910
v -117.500000 -47.875465 -36.264305
v -117.500000 -51.971188 -30.005598
v -117.500000 -54.596661 -24.924837
v -117.500000 -56.807053 -19.364958
v -117.500000 -58.519039 -13.356593
v -117.500000 -59.545429 -7.462046
v -117.500000 -59.991196 -1.760399
v -117.500000 -59.785488 5.605960
v -117.500000 -58.282207 14.453918
v -117.500000 -55.343533 23.329252
v -117.500000 -51.041862 31.630041
v -117.500000 -46.918594 37.416386
v -117.500000 -42.969158 41.910957
v -117.500000 -37.145512 47.179897
v -117.500000 -28.731695 52.760201
v -117.500000 -19.479151 56.800476
v -117.500000 -10.795940 59.069275
v -117.500000 -3.255574 59.928658
v -117.500000 2.727696 59.955002
v -117.500000 8.946159 59.353539
v -117.500000 14.808235 58.155453
v -117.500000 20.278498 56.487389
v -117.500000 26.043421 54.079723
v -117.500000 31.291862 51.207031
v -117.500000 37.145519 47.179890
v -117.500000 43.762436 41.116673
v -117.500000 48.575352 35.248795
v -117.500000 52.555031 29.046516
v -117.500000 56.297180 20.889210
v -117.500000 58.452888 13.612576
v -117.500000 59.558128 7.463626
vn 0.0006 0.9962 -0.0866
vn -0.0006 0.9980 -0.0629
vn 0.0006 0.9789 -0.2042
vn -0.0009 0.9843 -0.1766
vn 0.0003 0.9569 -0.2906
vn -0.0014 0.9493 -0.3143
vn 0.0012 0.9132 -0.4074
vn 0.0007 0.8671 -0.4981
vn -0.0013 0.8887 -0.4584
vn -0.0007 0.8145 -0.5802
vn -0.0002 0.8100 -0.5864
vn 0.0007 0.7469 -0.6650
vn -0.0014 0.7189 -0.6951
vn 0.0014 0.6700 -0.7423
vn -0.0015 0.6018 -0.7986
vn 0.0009 0.5658 -0.8246
vn 0.0002 0.4744 -0.8803
vn -0.0006 0.4886 -0.8725
vn 0.0002 0.3844 -0.9232
vn -0.0002 0.3925 -0.9198
vn 0.0005 0.2816 -0.9595
vn -0.0003 0.2919 -0.9564
vn 0.0003 0.1520 -0.9884
vn -0.0005 0.1626 -0.9867
vn 0.0002 0.0454 -0.9990
vn -0.0002 0.0542 -0.9985
vn 0.0002 -0.0542 -0.9985
vn -0.0002 -0.0454 -0.9990
vn 0.0005 -0.1626 -0.9867
vn -0.0003 -0.1520 -0.9884
vn -0.0005 -0.2816 -0.9595
vn 0.0003 -0.2919 -0.9564
vn -0.0002 -0.3844 -0.9232
vn 0.0002 -0.3925 -0.9198
vn -0.0002 -0.4753 -0.8798
vn 0.0007 -0.4903 -0.8716
vn -0.0011 -0.5737 -0.8191
vn 0.0015 -0.6088 -0.7933
vn -0.0012 -0.6771 -0.7359
vn 0.0013 -0.7202 -0.6938
vn -0.0011 -0.7537 -0.6572
vn 0.0013 -0.8102 -0.5862
vn -0.0014 -0.8414 -0.5405
vn 0.0008 -0.8682 -0.4962
vn 0.0002 -0.9133 -0.4073
vn -0.0006 -0.9066 -0.4221
vn 0.0006 -0.9516 -0.3072
vn -0.0002 -0.9465 -0.3227
vn 0.0015 -0.9844 -0.1761
vn -0.0009 -0.9756 -0.2196
vn -0.0014 -0.9961 -0.0884
vn 0.0014 -0.9998 -0.0205
vn -0.0010 -0.9996 0.0279
vn 0.0010 -0.9926 0.1214
vn -0.0009 -0.9871 0.1601
vn 0.0007 -0.9739 0.2268
vn -0.0010 -0.9618 0.2737
vn 0.0010 -0.9465 0.3227
vn -0.0006 -0.9198 0.3925
vn 0.0004 -0.9102 0.4142
vn -0.0006 -0.8803 0.4744
vn 0.0007 -0.8676 0.4972
vn -0.0002 -0.8139 0.5811
vn -0.0001 -0.8144 0.5803
vn -0.0001 -0.7512 0.6601
vn 0.0001 -0.7484 0.6633
vn 0.0001 -0.6771 0.7359
vn 0.0003 -0.6786 0.7345
vn -0.0009 -0.6004 0.7997
vn 0.0016 -0.5669 0.8238
vn -0.0017 -0.4821 0.8761
vn 0.0011 -0.4393 0.8984
vn -0.0005 -0.3381 0.9411
vn -0.0005 -0.3379 0.9412
vn 0.0005 -0.2024 0.9793
vn -0.0002 -0.1939 0.9810
vn -0.0002 -0.0617 0.9981
vn 0.0003 -0.0546 0.9985
vn -0.0002 0.0454 0.9990
vn 0.0006 0.0617 0.9981
vn -0.0009 0.1520 0.9884
vn 0.0011 0.1877 0.9822
vn 0.0002 0.2979 0.9546
vn -0.0007 0.2816 0.9595
vn 0.0001 0.3914 0.9202
vn -0.0002 0.3854 0.9228
vn 0.0001 0.4764 0.8792
vn -0.0007 0.4893 0.8721
vn 0.0009 0.5651 0.8250
vn 0.0007 0.6403 0.7681
vn -0.0013 0.6088 0.7933
vn -0.0003 0.7192 0.6948
vn 0.0005 0.7129 0.7012
vn -0.0010 0.7798 0.6260
vn 0.0010 0.8084 0.5886
vn 0.0009 0.8650 0.5018
vn -0.0009 0.8416 0.5400
vn 0.0009 0.9166 0.3998
vn -0.0006 0.9029 0.4299
vn -0.0010 0.9375 0.3479
vn 0.0010 0.9618 0.2737
vn -0.0013 0.9744 0.2249
vn 0.0014 0.9871 0.1601
vn -0.0015 0.9974 0.0722
vn 0.0009 0.9996 0.0279
vn 1.0000 -0.0000 -0.0000
vn -0.0006 -0.9962 0.0866
vn 0.0006 -0.9980 0.0629
vn -0.0005 -0.9789 0.2042
vn 0.0008 -0.9843 0.1766
vn -0.0003 -0.9569 0.2906
vn 0.0012 -0.9493 0.3143
vn -0.0013 -0.9089 0.4170
vn 0.0008 -0.8926 0.4509
vn -0.0002 -0.8418 0.5398
vn -0.0002 -0.8416 0.5400
vn -0.0002 -0.7791 0.6269
vn 0.0002 -0.7846 0.6200
vn -0.0006 -0.7075 0.7067
vn 0.0002 -0.7189 0.6951
vn -0.0005 -0.6186 0.7857
vn 0.0008 -0.6405 0.7680
vn -0.0003 -0.5462 0.8376
vn 0.0006 -0.5331 0.8460
vn -0.0002 -0.4366 0.8997
vn -0.0002 -0.4378 0.8990
vn -0.0004 -0.3291 0.9443
vn 0.0002 -0.3392 0.9407
vn -0.0002 -0.2011 0.9796
vn 0.0004 -0.2116 0.9774
vn -0.0002 -0.0952 0.9955
vn 0.0002 -0.1039 0.9946
vn -0.0002 0.0044 1.0000
vn 0.0002 -0.0044 1.0000
vn -0.0002 0.1039 0.9946
vn 0.0002 0.0952 0.9955
vn -0.0004 0.2116 0.9774
vn 0.0002 0.2011 0.9796
vn 0.0004 0.3291 0.9443
vn -0.0002 0.3392 0.9407
vn 0.0002 0.4299 0.9029
vn -0.0006 0.4445 0.8958
vn 0.0008 0.5240 0.8517
vn -0.0012 0.5597 0.8287
vn 0.0013 0.6380 0.7700
vn -0.0013 0.6756 0.7373
vn 0.0013 0.7469 0.6650
vn -0.0009 0.7732 0.6342
vn 0.0003 0.8382 0.5453
vn 0.0001 0.8368 0.5476
vn -0.0002 0.8914 0.4533
vn 0.0001 0.8884 0.4591
vn -0.0002 0.9325 0.3612
vn 0.0002 0.9293 0.3694
vn -0.0006 0.9663 0.2576
vn 0.0002 0.9617 0.2740
vn 0.0008 0.9852 0.1715
vn -0.0008 0.9919 0.1273
vn 0.0006 0.9970 0.0779
vn -0.0006 0.9998 0.0217
vn 0.0008 0.9996 -0.0279
vn -0.0008 0.9974 -0.0726
vn 0.0007 0.9859 -0.1675
vn 0.0002 0.9842 -0.1769
vn -0.0006 0.9614 -0.2751
vn 0.0012 0.9493 -0.3143
vn -0.0008 0.9297 -0.3683
vn 0.0004 0.8908 -0.4543
vn 0.0008 0.8879 -0.4601
vn -0.0008 0.8382 -0.5453
vn 0.0008 0.8144 -0.5803
vn -0.0008 0.7744 -0.6327
vn 0.0006 0.7512 -0.6601
vn -0.0004 0.6938 -0.7202
vn 0.0008 0.6709 -0.7415
vn -0.0009 0.6269 -0.7791
vn 0.0014 0.5527 -0.8334
vn -0.0006 0.5240 -0.8517
vn -0.0004 0.4310 -0.9024
vn -0.0010 0.3381 -0.9411
vn 0.0013 0.4002 -0.9164
vn 0.0013 0.2528 -0.9675
vn -0.0009 0.2104 -0.9776
vn 0.0006 0.1132 -0.9936
vn -0.0002 0.0963 -0.9954
vn 0.0002 0.0044 -1.0000
vn -0.0002 -0.0044 -1.0000
vn 0.0002 -0.0963 -0.9954
vn -0.0001 -0.1028 -0.9947
vn -0.0001 -0.1961 -0.9806
vn 0.0001 -0.2002 -0.9797
vn -0.0002 -0.2979 -0.9546
vn 0.0001 -0.2917 -0.9565
vn -0.0006 -0.4011 -0.9160
vn 0.0002 -0.3854 -0.9228
vn 0.0008 -0.4801 -0.8772
vn -0.0010 -0.5251 -0.8510
vn 0.0009 -0.5668 -0.8239
vn -0.0010 -0.6336 -0.7736
vn -0.0011 -0.7192 -0.6948
vn 0.0012 -0.6756 -0.7373
vn 0.0012 -0.7732 -0.6342
vn -0.0012 -0.8145 -0.5802
vn 0.0009 -0.8416 -0.5400
vn -0.0009 -0.8879 -0.4600
vn -0.0008 -0.9301 -0.3673
vn 0.0011 -0.9089 -0.4170
vn -0.0002 -0.9635 -0.2677
vn 0.0006 -0.9588 -0.2840
vn -0.0006 -0.9871 -0.1601
vn 0.0002 -0.9842 -0.1769
vn 0.0009 -0.9979 -0.0641
vn -0.0008 -0.9996 -0.0279
vn -1.0000 -0.0000 -0.0000
s 0
usemtl mat0
f 3//1 2//1 4//1
f 3//2 1//2 2//2
f 5//3 4//3 6//3
f 5//4 3//4 4//4
f 5//5 6//5 7//5
f 8//6 5//6 7//6
f 8//7 7//7 9//7
f 10//8 9//8 11//8
f 10//9 8//9 9//9
f 12//10 10//10 11//10
f 12//11 11//11 13//11
f 12//12 13//12 14//12
f 15//13 12//13 14//13
f 15//14 14//14 16//14
f 17//15 15//15 16//15
f 17//16 16//16 18//16
f 19//17 18//17 20//17
f 19//18 17//18 18//18
f 21//19 20//19 22//19
f 21//20 19//20 20//20
f 23//21 22//21 24//21
f 23//22 21//22 22//22
f 25//23 24//23 26//23
f 25//24 23//24 24//24
f 27//25 26//25 28//25
f 27//26 25//26 26//26
f 29//27 28//27 30//27
f 29//28 27//28 28//28
f 31//29 30//29 32//29
f 31//30 29//30 30//30
f 33//31 31//31 32//31
f 33//32 32//32 34//32
f 35//33 33//33 34//33
f 35//34 34//34 36//34
f 37//35 35//35 36//35
f 37//36 36//36 38//36
f 39//37 37//37 38//37
f 39//38 38//38 40//38
f 41//39 39//39 40//39
f 41//40 40//40 42//40
f 43//41 41//41 42//41
f 43//42 42//42 44//42
f 45//43 43//43 44//43
f 45//44 44//44 46//44
f 47//45 46//45 48//45
f 47//46 45//46 46//46
f 49//47 48//47 50//47
f 49//48 47//48 48//48
f 51//49 50//49 52//49
f 51//50 49//50 50//50
f 53//51 51//51 52//51
f 53//52 52//52 54//52
f 55//53 53//53 54//53
f 55//54 54//54 56//54
f 57//55 55//55 56//55
f 57//56 56//56 58//56
f 59//57 57//57 58//57
f 59//58 58//58 60//58
f 61//59 59//59 60//59
f 61//60 60//60 62//60
f 63//61 61//61 62//61
f 63//62 62//62 64//62
f 63//63 64//63 65//63
f 66//64 63//64 65//64
f 67//65 66//65 65//65
f 67//66 65//66 68//66
f 67//67 68//67 69//67
f 70//68 67//68 69//68
f 71//69 70//69 69//69
f 71//70 69//70 72//70
f 73//71 71//71 72//71
f 73//72 72//72 74//72
f 73//73 74//73 75//73
f 76//74 73//74 75//74
f 76//75 75//75 77//75
f 78//76 76//76 77//76
f 79//77 78//77 77//77
f 79//78 77//78 80//78
f 81//79 79//79 80//79
f 81//80 80//80 82//80
f 83//81 81//81 82//81
f 83//82 82//82 84//82
f 85//83 84//83 86//83
f 85//84 83//84 84//84
f 87//85 86//85 88//85
f 87//86 85//86 86//86
f 87//87 88//87 89//87
f 90//88 87//88 89//88
f 90//89 89//89 91//89
f 92//90 91//90 93//90
f 92//91 90//91 91//91
f 92//92 93//92 94//92
f 95//93 92//93 94//93
f 96//94 95//94 94//94
f 96//95 94//95 97//95
f 98//96 97//96 99//96
f 98//97 96//97 97//97
f 100//98 99//98 101//98
f 100//99 98//99 99//99
f 102//100 100//100 101//100
f 102//101 101//101 103//101
f 104//102 102//102 103//102
f 104//103 103//103 105//103
f 1//104 104//104 105//104
f 1//105 105//105 2//105
f 106//106 42//106 40//106
f 107//106 106//106 40//106
f 108//106 42//106 106//106
f 108//106 44//106 42//106
f 107//106 40//106 38//106
f 109//106 107//106 38//106
f 110//106 44//106 108//106
f 110//106 46//106 44//106
f 109//106 38//106 36//106
f 111//106 46//106 110//106
f 112//106 109//106 36//106
f 111//106 48//106 46//106
f 112//106 36//106 34//106
f 113//106 48//106 111//106
f 113//106 50//106 48//106
f 114//106 112//106 34//106
f 114//106 34//106 32//106
f 115//106 50//106 113//106
f 116//106 32//106 30//106
f 116//106 114//106 32//106
f 115//106 52//106 50//106
f 117//106 52//106 115//106
f 118//106 30//106 28//106
f 118//106 116//106 30//106
f 117//106 54//106 52//106
f 119//106 54//106 117//106
f 120//106 28//106 26//106
f 120//106 118//106 28//106
f 121//106 54//106 119//106
f 122//106 26//106 24//106
f 122//106 120//106 26//106
f 121//106 56//106 54//106
f 123//106 56//106 121//106
f 124//106 122//106 24//106
f 123//106 58//106 56//106
f 124//106 24//106 22//106
f 125//106 58//106 123//106
f 125//106 60//106 58//106
f 126//106 124//106 22//106
f 127//106 60//106 125//106
f 126//106 22//106 20//106
f 127//106 62//106 60//106
f 128//106 126//106 20//106
f 129//106 62//106 127//106
f 128//106 20//106 18//106
f 129//106 64//106 62//106
f 16//106 128//106 18//106
f 130//106 64//106 129//106
f 131//106 128//106 16//106
f 130//106 65//106 64//106
f 132//106 131//106 16//106
f 133//106 65//106 130//106
f 133//106 68//106 65//106
f 132//106 16//106 14//106
f 14//106 134//106 132//106
f 69//106 133//106 135//106
f 69//106 68//106 133//106
f 13//106 134//106 14//106
f 69//106 135//106 136//106
f 137//106 134//106 13//106
f 11//106 137//106 13//106
f 72//106 69//106 136//106
f 11//106 138//106 137//106
f 72//106 136//106 139//106
f 9//106 138//106 11//106
f 72//106 139//106 140//106
f 74//106 72//106 140//106
f 7//106 138//106 9//106
f 7//106 141//106 138//106
f 75//106 140//106 142//106
f 75//106 74//106 140//106
f 7//106 143//106 141//106
f 6//106 143//106 7//106
f 75//106 142//106 144//106
f 4//106 145//106 143//106
f 4//106 143//106 6//106
f 77//106 75//106 144//106
f 4//106 146//106 145//106
f 77//106 144//106 147//106
f 2//106 146//106 4//106
f 80//106 77//106 147//106
f 80//106 147//106 148//106
f 105//106 146//106 2//106
f 105//106 149//106 146//106
f 82//106 148//106 150//106
f 82//106 80//106 148//106
f 82//106 150//106 151//106
f 103//106 149//106 105//106
f 103//106 152//106 149//106
f 84//106 82//106 151//106
f 103//106 153//106 152//106
f 101//106 153//106 103//106
f 86//106 151//106 154//106
f 86//106 84//106 151//106
f 101//106 155//106 153//106
f 88//106 154//106 156//106
f 88//106 86//106 154//106
f 99//106 155//106 101//106
f 99//106 157//106 155//106
f 89//106 88//106 156//106
f 89//106 156//106 158//106
f 97//106 157//106 99//106
f 91//106 89//106 158//106
f 94//106 157//106 97//106
f 94//106 159//106 157//106
f 91//106 158//106 160//106
f 93//106 91//106 160//106
f 93//106 160//106 159//106
f 93//106 159//106 94//106
f 146//107 162//107 145//107
f 161//108 162//108 146//108
f 145//109 163//109 143//109
f 162//110 163//110 145//110
f 143//111 163//111 141//111
f 163//112 164//112 141//112
f 141//113 164//113 138//113
f 164//114 165//114 138//114
f 165//115 166//115 138//115
f 138//116 166//116 137//116
f 137//117 167//117 134//117
f 166//118 167//118 137//118
f 134//119 168//119 132//119
f 167//120 168//120 134//120
f 132//121 169//121 131//121
f 168//122 169//122 132//122
f 131//123 169//123 128//123
f 169//124 170//124 128//124
f 128//125 171//125 126//125
f 170//126 171//126 128//126
f 126//127 172//127 124//127
f 171//128 172//128 126//128
f 124//129 173//129 122//129
f 172//130 173//130 124//130
f 122//131 174//131 120//131
f 173//132 174//132 122//132
f 120//133 175//133 118//133
f 174//134 175//134 120//134
f 118//135 176//135 116//135
f 175//136 176//136 118//136
f 116//137 177//137 114//137
f 176//138 177//138 116//138
f 177//139 178//139 114//139
f 114//140 178//140 112//140
f 178//141 179//141 112//141
f 112//142 179//142 109//142
f 179//143 180//143 109//143
f 109//144 180//144 107//144
f 180//145 181//145 107//145
f 107//146 181//146 106//146
f 181//147 182//147 106//147
f 106//148 182//148 108//148
f 108//149 182//149 110//149
f 182//150 183//150 110//150
f 110//151 184//151 111//151
f 183//152 184//152 110//152
f 111//153 185//153 113//153
f 184//154 185//154 111//154
f 113//155 186//155 115//155
f 185//156 186//156 113//156
f 186//157 187//157 115//157
f 115//158 187//158 117//158
f 187//159 188//159 117//159
f 117//160 188//160 119//160
f 188//161 189//161 119//161
f 119//162 189//162 121//162
f 189//163 190//163 121//163
f 121//164 190//164 123//164
f 123//165 190//165 125//165
f 190//166 191//166 125//166
f 125//167 191//167 127//167
f 127//168 191//168 129//168
f 191//169 192//169 129//169
f 129//170 192//170 130//170
f 192//171 193//171 130//171
f 130//172 193//172 133//172
f 193//173 194//173 133//173
f 133//174 194//174 135//174
f 194//175 195//175 135//175
f 135//176 195//176 136//176
f 195//177 196//177 136//177
f 136//178 196//178 139//178
f 139//179 196//179 140//179
f 140//180 197//180 142//180
f 196//181 197//181 140//181
f 197//182 198//182 142//182
f 142//183 198//183 144//183
f 198//184 199//184 144//184
f 144//185 199//185 147//185
f 199//186 200//186 147//186
f 147//187 200//187 148//187
f 200//188 201//188 148//188
f 148//189 201//189 150//189
f 150//190 201//190 151//190
f 201//191 202//191 151//191
f 151//192 203//192 154//192
f 202//193 203//193 151//193
f 154//194 204//194 156//194
f 203//195 204//195 154//195
f 204//196 205//196 156//196
f 156//197 205//197 158//197
f 205//198 206//198 158//198
f 158//199 206//199 160//199
f 160//200 207//200 159//200
f 206//201 207//201 160//201
f 207//202 208//202 159//202
f 159//203 208//203 157//203
f 208//204 209//204 157//204
f 157//205 209//205 155//205
f 155//206 210//206 153//206
f 209//207 210//207 155//207
f 153//208 211//208 152//208
f 210//209 211//209 153//209
f 152//210 212//210 149//210
f 211//211 212//211 152//211
f 212//212 161//212 149//212
f 149//213 161//213 146//213
f 195//214 67//214 70//214
f 195//214 194//214 67//214
f 193//214 67//214 194//214
f 193//214 66//214 67//214
f 193//214 63//214 66//214
f 195//214 70//214 71//214
f 192//214 63//214 193//214
f 196//214 195//214 71//214
f 196//214 71//214 73//214
f 191//214 63//214 192//214
f 191//214 59//214 61//214
f 191//214 61//214 63//214
f 197//214 196//214 73//214
f 197//214 73//214 76//214
f 190//214 59//214 191//214
f 190//214 57//214 59//214
f 198//214 197//214 76//214
f 198//214 76//214 78//214
f 189//214 57//214 190//214
f 189//214 55//214 57//214
f 199//214 198//214 78//214
f 199//214 78//214 79//214
f 188//214 53//214 55//214
f 188//214 55//214 189//214
f 200//214 199//214 79//214
f 200//214 79//214 81//214
f 187//214 51//214 53//214
f 187//214 53//214 188//214
f 201//214 200//214 81//214
f 201//214 81//214 83//214
f 186//214 49//214 51//214
f 186//214 51//214 187//214
f 202//214 201//214 83//214
f 185//214 49//214 186//214
f 185//214 47//214 49//214
f 203//214 83//214 85//214
f 203//214 202//214 83//214
f 184//214 47//214 185//214
f 204//214 85//214 87//214
f 204//214 203//214 85//214
f 184//214 45//214 47//214
f 183//214 45//214 184//214
f 205//214 87//214 90//214
f 205//214 204//214 87//214
f 182//214 45//214 183//214
f 182//214 43//214 45//214
f 206//214 205//214 90//214
f 206//214 90//214 92//214
f 181//214 41//214 43//214
f 181//214 43//214 182//214
f 207//214 206//214 92//214
f 95//214 207//214 92//214
f 39//214 41//214 181//214
f 39//214 181//214 180//214
f 208//214 207//214 95//214
f 96//214 208//214 95//214
f 37//214 39//214 180//214
f 179//214 37//214 180//214
f 98//214 208//214 96//214
f 98//214 209//214 208//214
f 35//214 37//214 179//214
f 35//214 179//214 178//214
f 100//214 209//214 98//214
f 100//214 210//214 209//214
f 33//214 35//214 178//214
f 102//214 210//214 100//214
f 33//214 178//214 177//214
f 102//214 211//214 210//214
f 31//214 33//214 177//214
f 104//214 211//214 102//214
f 31//214 177//214 176//214
f 104//214 212//214 211//214
f 29//214 31//214 176//214
f 29//214 176//214 175//214
f 104//214 161//214 212//214
f 1//214 161//214 104//214
f 27//214 29//214 175//214
f 27//214 175//214 174//214
f 25//214 27//214 174//214
f 3//214 162//214 161//214
f 3//214 161//214 1//214
f 25//214 174//214 173//214
f 23//214 25//214 173//214
f 5//214 163//214 162//214
f 5//214 162//214 3//214
f 23//214 173//214 172//214
f 21//214 23//214 172//214
f 8//214 164//214 163//214
f 8//214 163//214 5//214
f 21//214 172//214 171//214
f 19//214 21//214 171//214
f 19//214 171//214 170//214
f 10//214 165//214 164//214
f 10//214 164//214 8//214
f 17//214 19//214 170//214
f 17//214 170//214 169//214
f 10//214 166//214 165//214
f 12//214 166//214 10//214
f 15//214 17//214 169//214
f 12//214 167//214 166//214
f 15//214 169//214 168//214
f 15//214 168//214 167//214
f 15//214 167//214 12//214
