# Blender 3.4.1
# www.blender.org
mtllib ImageToStl.com_14. резиновое кольцо для уплотнения секций.mtl
o imagetostl_mesh
v -0.000000 205.206268 6.568059
v -6.300001 205.278580 3.668817
v -0.000000 201.496933 -40.733467
v -6.300001 201.935364 -37.079113
v -6.300001 194.090698 -66.163826
v -0.000000 184.478333 -90.547745
v -6.300001 182.655441 -93.641861
v -6.300001 158.408417 -130.911896
v -0.000000 159.610840 -129.139984
v -0.000000 126.921989 -161.622879
v -6.300001 120.001915 -166.912460
v -0.000000 89.059151 -184.933167
v -6.300001 79.730316 -189.142487
v -0.000000 60.449188 -195.970596
v -6.300001 45.662018 -200.058914
v -0.000000 24.025698 -204.092911
v -6.300001 10.231395 -205.005173
v 0.000000 -20.437410 -204.240341
v -6.300001 -34.168953 -202.641632
v 0.000000 -65.472198 -194.868210
v -6.300001 -73.761574 -191.444870
v -6.300001 -105.816597 -175.942032
v 0.000000 -108.291321 -174.429764
v -6.300001 -131.824097 -157.101822
v 0.000000 -136.710602 -152.977509
v -6.300001 -153.900391 -135.817795
v 0.000000 -160.479080 -127.977638
v -6.300001 -174.392944 -108.069481
v 0.000000 -185.214844 -89.194710
v -6.300001 -191.171021 -75.029198
v 0.000000 -201.363068 -40.706444
v -6.300001 -201.344925 -39.397030
v -6.300001 -204.967911 -8.947817
v 0.000000 -205.159134 -1.279899
v -6.300001 -204.012207 21.700689
v 0.000000 -203.058426 29.311691
v -6.300001 -195.913315 62.041313
v 0.000000 -195.077194 64.012825
v 0.000000 -180.787354 96.994003
v -6.300001 -179.563034 99.242249
v 0.000000 -158.408401 130.911911
v -6.300001 -156.430481 133.269104
v 0.000000 -127.942360 160.434845
v -6.300001 -123.937065 163.619705
v 0.000000 -92.380470 183.567413
v -6.300001 -93.616104 182.605072
v -6.300001 -55.640400 197.758041
v 0.000000 -49.255535 199.315445
v -6.300001 -11.681993 204.978729
v 0.000000 -5.121737 205.372498
v -6.300001 34.168941 202.641632
v -0.000000 35.633286 202.086258
v -0.000000 70.203323 192.881561
v -6.300001 74.969398 191.018784
v -0.000000 101.471054 178.313004
v -6.300001 103.687988 177.033066
v -0.000000 126.913818 161.197983
v -6.300001 128.915237 159.601898
v -0.000000 149.521667 140.481934
v -6.300001 151.262817 138.605423
v -0.000000 172.513748 111.421463
v -6.300001 175.296921 107.121849
v -0.000000 191.071457 74.990051
v -6.300001 192.828476 70.183823
v -0.000000 200.837723 41.906029
v -6.300001 201.344940 39.396969
v -6.300001 -146.759476 152.736252
v -6.300001 -113.620819 178.351013
v -6.300001 -179.910080 111.799255
v -6.300001 -77.360947 197.112274
v -6.300001 -201.934097 63.947865
v -6.300001 -42.792328 206.982697
v -6.300001 -210.281845 22.367861
v -6.300001 -12.040881 211.278091
v -6.300001 -211.266922 -9.222856
v -6.300001 35.219063 208.869141
v -6.300001 -207.532623 -40.607655
v -6.300001 -197.046097 -77.334793
v -6.300001 80.821579 195.579361
v -6.300001 -174.113770 -120.627945
v -6.300001 110.223396 180.372314
v -6.300001 140.111893 158.765945
v -6.300001 -146.707458 -152.301346
v -6.300001 167.768341 128.734436
v -6.300001 -117.972351 -175.687057
v -6.300001 185.081360 102.292061
v -6.300001 -80.821564 -195.579376
v -6.300001 201.934097 63.947853
v -6.300001 -35.219070 -208.869141
v -6.300001 210.281845 22.367861
v -6.300001 10.545804 -211.305344
v -6.300001 211.318710 -5.269937
v -6.300001 208.141190 -38.218651
v -6.300001 47.065365 -206.207047
v -6.300001 200.055481 -68.196999
v -6.300001 82.180481 -194.955200
v -6.300001 188.268631 -96.519852
v -6.300001 113.620819 -178.351013
v -6.300001 169.361511 -126.631172
v -6.300001 143.978073 -155.171356
v -0.000000 211.512619 6.769774
v -0.000000 209.743866 -26.284550
v -0.000000 203.660797 -57.301342
v -0.000000 188.366776 -96.570137
v -0.000000 167.768341 -128.734436
v -0.000000 143.903046 -155.090546
v -0.000000 115.837250 -176.919495
v -0.000000 77.412376 -197.243301
v -0.000000 31.532709 -209.205276
v 0.000000 -5.273184 -211.444290
v 0.000000 -38.019852 -208.022263
v 0.000000 -78.859741 -196.590546
v 0.000000 -123.607544 -171.927734
v 0.000000 -155.047806 -143.863388
v 0.000000 -178.573532 -113.555786
v 0.000000 -195.371567 -80.924156
v 0.000000 -207.551285 -41.957470
v 0.000000 -211.464020 -1.319275
v 0.000000 -207.689270 41.985355
v 0.000000 -194.346619 83.355621
v 0.000000 -174.113770 120.627945
v 0.000000 -143.903030 155.090546
v 0.000000 -115.837250 176.919495
v 0.000000 -82.223289 195.056824
v 0.000000 -45.769062 206.455719
v 0.000000 -9.055348 211.427094
v -0.000000 33.017784 209.029282
v -0.000000 78.859734 196.590546
v -0.000000 115.837296 176.919464
v -0.000000 140.911926 157.678802
v -0.000000 168.792694 127.855362
v -0.000000 190.563889 91.770905
v -0.000000 205.201874 52.250931
vn -0.0474 -0.9958 0.0781
vn -0.0219 -0.9964 0.0818
vn 0.0836 -0.9621 0.2595
vn -0.1891 -0.9292 0.3175
vn 0.0782 -0.9204 0.3830
vn -0.0253 -0.8380 0.5452
vn 0.0081 -0.8406 0.5416
vn -0.0648 -0.7034 0.7078
vn 0.1373 -0.6774 0.7227
vn -0.1378 -0.5193 0.8434
vn 0.1296 -0.4792 0.8681
vn -0.0900 -0.3585 0.9292
vn 0.0978 -0.3037 0.9477
vn -0.1216 -0.2160 0.9688
vn 0.1573 -0.1365 0.9781
vn -0.1363 -0.0033 0.9907
vn 0.1363 0.0527 0.9893
vn -0.1920 0.2000 0.9608
vn 0.1626 0.2685 0.9495
vn -0.0834 0.4339 0.8971
vn -0.0474 0.4303 0.9015
vn 0.0360 0.5863 0.8093
vn -0.0551 0.6016 0.7969
vn 0.0669 0.6925 0.7183
vn -0.1002 0.7211 0.6856
vn -0.1607 0.8322 0.5308
vn 0.1002 0.8004 0.5911
vn 0.1725 0.8783 0.4460
vn -0.1834 0.9327 0.3106
vn 0.0597 0.9599 0.2741
vn -0.0861 0.9917 0.0955
vn 0.0274 0.9926 0.1181
vn 0.0681 0.9972 -0.0311
vn -0.0681 0.9953 -0.0683
vn 0.0890 0.9765 -0.1961
vn -0.0591 0.9729 -0.2238
vn 0.0026 0.9176 -0.3976
vn 0.0343 0.9149 -0.4021
vn -0.0343 0.8342 -0.5504
vn 0.0492 0.8260 -0.5615
vn -0.0501 0.6950 -0.7172
vn 0.0644 0.6812 -0.7293
vn -0.0769 0.5437 -0.8358
vn 0.0254 0.5305 -0.8473
vn 0.0690 0.3697 -0.9266
vn -0.1147 0.3408 -0.9331
vn 0.0794 0.1616 -0.9837
vn -0.0794 0.1355 -0.9876
vn 0.1147 -0.0506 -0.9921
vn -0.0690 -0.0802 -0.9944
vn -0.0254 -0.2572 -0.9660
vn 0.0769 -0.2732 -0.9589
vn -0.0514 -0.4218 -0.9052
vn 0.0286 -0.4377 -0.8987
vn -0.0278 -0.5579 -0.8294
vn 0.0278 -0.5682 -0.8224
vn -0.0278 -0.6753 -0.7370
vn 0.0278 -0.6845 -0.7285
vn -0.0319 -0.7838 -0.6202
vn 0.0628 -0.7933 -0.6056
vn -0.0836 -0.8879 -0.4523
vn 0.0749 -0.9009 -0.4276
vn -0.0514 -0.9578 -0.2827
vn 0.0286 -0.9634 -0.2665
vn -0.0310 -0.9920 -0.1226
vn 0.0389 -0.9932 -0.1094
vn -1.0000 -0.0000 -0.0000
vn 0.0712 0.9960 -0.0533
vn -0.0712 0.9929 -0.0957
vn 0.1142 0.9749 -0.1912
vn -0.1016 0.9605 -0.2591
vn 0.0940 0.9277 -0.3613
vn -0.0174 0.9231 -0.3842
vn -0.0174 0.8468 -0.5317
vn 0.0329 0.8417 -0.5390
vn 0.0174 0.7412 -0.6711
vn -0.0329 0.7468 -0.6642
vn 0.0174 0.6138 -0.7892
vn -0.0329 0.6065 -0.7944
vn 0.0363 0.4672 -0.8834
vn 0.0323 0.4668 -0.8838
vn -0.1142 0.3031 -0.9461
vn 0.1594 0.2491 -0.9553
vn -0.1294 0.1371 -0.9821
vn 0.1294 0.0602 -0.9898
vn -0.1537 -0.0525 -0.9867
vn 0.0872 -0.1035 -0.9908
vn 0.0096 -0.2695 -0.9629
vn -0.0668 -0.2792 -0.9579
vn 0.0055 -0.4720 -0.8816
vn 0.0905 -0.4807 -0.8722
vn -0.1013 -0.6280 -0.7716
vn 0.1168 -0.6614 -0.7409
vn -0.1238 -0.7504 -0.6493
vn 0.1281 -0.7834 -0.6081
vn -0.0244 -0.8888 -0.4576
vn -0.0996 -0.8793 -0.4658
vn 0.0834 -0.9511 -0.2973
vn -0.0616 -0.9597 -0.2740
vn 0.0887 -0.9915 -0.0955
vn -0.0282 -0.9926 -0.1181
vn -0.0702 -0.9970 0.0311
vn 0.1382 -0.9867 0.0860
vn -0.2050 -0.9596 0.1927
vn 0.1967 -0.9331 0.3010
vn -0.1904 -0.8918 0.4105
vn 0.1387 -0.8704 0.4725
vn -0.1646 -0.7665 0.6207
vn 0.0942 -0.7486 0.6563
vn -0.0166 -0.6139 0.7892
vn -0.0354 -0.6112 0.7907
vn 0.0329 -0.4746 0.8796
vn -0.0648 -0.4586 0.8863
vn 0.0808 -0.2975 0.9513
vn -0.0492 -0.2742 0.9604
vn 0.0175 -0.1383 0.9902
vn 0.0401 -0.1341 0.9902
vn -0.0477 0.0508 0.9976
vn -0.0055 0.0569 0.9984
vn 0.0668 0.2613 0.9629
vn -0.0668 0.2792 0.9579
vn 0.0652 0.4687 0.8810
vn 0.0005 0.4594 0.8882
vn -0.0776 0.5841 0.8080
vn 0.0595 0.6077 0.7919
vn 0.0251 0.7303 0.6827
vn -0.0251 0.7354 0.6772
vn 0.1168 0.8504 0.5131
vn -0.0595 0.8351 0.5468
vn -0.1238 0.9084 0.3993
vn 0.1565 0.9262 0.3431
vn 0.1452 0.9800 0.1360
vn -0.1416 0.9706 0.1949
vn -0.1019 0.9941 0.0373
vn 1.0000 -0.0000 -0.0000
s 0
usemtl mat0
f 1//1 2//1 3//1
f 2//2 4//2 3//2
f 4//3 5//3 3//3
f 3//4 5//4 6//4
f 5//5 7//5 6//5
f 7//6 8//6 6//6
f 6//7 8//7 9//7
f 9//8 8//8 10//8
f 8//9 11//9 10//9
f 10//10 11//10 12//10
f 11//11 13//11 12//11
f 12//12 13//12 14//12
f 13//13 15//13 14//13
f 14//14 15//14 16//14
f 15//15 17//15 16//15
f 16//16 17//16 18//16
f 17//17 19//17 18//17
f 18//18 19//18 20//18
f 19//19 21//19 20//19
f 21//20 22//20 20//20
f 20//21 22//21 23//21
f 22//22 24//22 23//22
f 23//23 24//23 25//23
f 24//24 26//24 25//24
f 25//25 26//25 27//25
f 27//26 28//26 29//26
f 26//27 28//27 27//27
f 28//28 30//28 29//28
f 29//29 30//29 31//29
f 30//30 32//30 31//30
f 31//31 33//31 34//31
f 32//32 33//32 31//32
f 33//33 35//33 34//33
f 34//34 35//34 36//34
f 35//35 37//35 36//35
f 36//36 37//36 38//36
f 38//37 37//37 39//37
f 37//38 40//38 39//38
f 39//39 40//39 41//39
f 40//40 42//40 41//40
f 41//41 42//41 43//41
f 42//42 44//42 43//42
f 43//43 44//43 45//43
f 44//44 46//44 45//44
f 46//45 47//45 45//45
f 45//46 47//46 48//46
f 47//47 49//47 48//47
f 48//48 49//48 50//48
f 49//49 51//49 50//49
f 50//50 51//50 52//50
f 52//51 51//51 53//51
f 51//52 54//52 53//52
f 53//53 54//53 55//53
f 54//54 56//54 55//54
f 55//55 56//55 57//55
f 56//56 58//56 57//56
f 57//57 58//57 59//57
f 58//58 60//58 59//58
f 59//59 60//59 61//59
f 60//60 62//60 61//60
f 61//61 62//61 63//61
f 62//62 64//62 63//62
f 63//63 64//63 65//63
f 64//64 66//64 65//64
f 65//65 66//65 1//65
f 66//66 2//66 1//66
f 44//67 42//67 67//67
f 42//67 69//67 67//67
f 44//67 67//67 68//67
f 40//67 69//67 42//67
f 46//67 44//67 68//67
f 46//67 68//67 70//67
f 37//67 69//67 40//67
f 37//67 71//67 69//67
f 47//67 46//67 70//67
f 47//67 70//67 72//67
f 35//67 71//67 37//67
f 35//67 73//67 71//67
f 49//67 47//67 72//67
f 49//67 72//67 74//67
f 75//67 73//67 35//67
f 33//67 75//67 35//67
f 51//67 49//67 74//67
f 51//67 74//67 76//67
f 32//67 77//67 75//67
f 32//67 75//67 33//67
f 30//67 78//67 77//67
f 30//67 77//67 32//67
f 54//67 76//67 79//67
f 54//67 51//67 76//67
f 56//67 54//67 79//67
f 28//67 78//67 30//67
f 28//67 80//67 78//67
f 56//67 79//67 81//67
f 82//67 56//67 81//67
f 58//67 56//67 82//67
f 26//67 80//67 28//67
f 26//67 83//67 80//67
f 60//67 58//67 82//67
f 83//67 26//67 24//67
f 84//67 60//67 82//67
f 85//67 83//67 24//67
f 62//67 60//67 84//67
f 85//67 24//67 22//67
f 86//67 62//67 84//67
f 87//67 85//67 22//67
f 87//67 22//67 21//67
f 88//67 64//67 62//67
f 88//67 62//67 86//67
f 89//67 21//67 19//67
f 89//67 87//67 21//67
f 88//67 66//67 64//67
f 90//67 66//67 88//67
f 90//67 2//67 66//67
f 91//67 89//67 19//67
f 91//67 19//67 17//67
f 92//67 2//67 90//67
f 93//67 4//67 2//67
f 93//67 2//67 92//67
f 94//67 91//67 17//67
f 94//67 17//67 15//67
f 93//67 5//67 4//67
f 95//67 5//67 93//67
f 96//67 15//67 13//67
f 96//67 94//67 15//67
f 95//67 7//67 5//67
f 97//67 7//67 95//67
f 98//67 96//67 13//67
f 98//67 13//67 11//67
f 99//67 7//67 97//67
f 99//67 8//67 7//67
f 100//67 98//67 11//67
f 100//67 8//67 99//67
f 100//67 11//67 8//67
f 92//68 101//68 102//68
f 93//69 92//69 102//69
f 93//70 102//70 103//70
f 95//71 93//71 103//71
f 95//72 103//72 104//72
f 97//73 95//73 104//73
f 99//74 97//74 104//74
f 99//75 104//75 105//75
f 100//76 105//76 106//76
f 100//77 99//77 105//77
f 100//78 106//78 107//78
f 98//79 100//79 107//79
f 98//80 107//80 108//80
f 96//81 98//81 108//81
f 94//82 96//82 108//82
f 94//83 108//83 109//83
f 91//84 94//84 109//84
f 91//85 109//85 110//85
f 89//86 91//86 110//86
f 89//87 110//87 111//87
f 89//88 111//88 112//88
f 87//89 89//89 112//89
f 85//90 87//90 112//90
f 85//91 112//91 113//91
f 83//92 85//92 113//92
f 83//93 113//93 114//93
f 80//94 83//94 114//94
f 80//95 114//95 115//95
f 78//96 115//96 116//96
f 78//97 80//97 115//97
f 78//98 116//98 117//98
f 77//99 78//99 117//99
f 75//100 117//100 118//100
f 75//101 77//101 117//101
f 73//102 75//102 118//102
f 73//103 118//103 119//103
f 71//104 73//104 119//104
f 71//105 119//105 120//105
f 69//106 71//106 120//106
f 69//107 120//107 121//107
f 67//108 69//108 121//108
f 67//109 121//109 122//109
f 67//110 122//110 123//110
f 68//111 67//111 123//111
f 68//112 123//112 124//112
f 70//113 68//113 124//113
f 70//114 124//114 125//114
f 72//115 70//115 125//115
f 74//116 72//116 125//116
f 74//117 125//117 126//117
f 76//118 74//118 126//118
f 76//119 126//119 127//119
f 76//120 127//120 128//120
f 79//121 76//121 128//121
f 81//122 128//122 129//122
f 81//123 79//123 128//123
f 82//124 81//124 129//124
f 82//125 129//125 130//125
f 82//126 130//126 131//126
f 84//127 82//127 131//127
f 86//128 131//128 132//128
f 86//129 84//129 131//129
f 88//130 86//130 132//130
f 88//131 132//131 133//131
f 90//132 133//132 101//132
f 90//133 88//133 133//133
f 92//134 90//134 101//134
f 27//135 114//135 25//135
f 25//135 114//135 113//135
f 27//135 115//135 114//135
f 23//135 25//135 113//135
f 29//135 115//135 27//135
f 23//135 113//135 112//135
f 29//135 116//135 115//135
f 20//135 23//135 112//135
f 29//135 117//135 116//135
f 31//135 117//135 29//135
f 20//135 112//135 111//135
f 18//135 20//135 111//135
f 18//135 111//135 110//135
f 34//135 117//135 31//135
f 34//135 118//135 117//135
f 16//135 18//135 110//135
f 16//135 110//135 109//135
f 36//135 119//135 118//135
f 36//135 118//135 34//135
f 38//135 119//135 36//135
f 14//135 16//135 109//135
f 14//135 109//135 108//135
f 38//135 120//135 119//135
f 12//135 14//135 108//135
f 39//135 120//135 38//135
f 39//135 121//135 120//135
f 12//135 108//135 107//135
f 10//135 12//135 107//135
f 41//135 121//135 39//135
f 106//135 10//135 107//135
f 122//135 121//135 41//135
f 9//135 10//135 106//135
f 122//135 41//135 43//135
f 105//135 9//135 106//135
f 123//135 122//135 43//135
f 45//135 123//135 43//135
f 104//135 9//135 105//135
f 104//135 6//135 9//135
f 124//135 123//135 45//135
f 103//135 6//135 104//135
f 48//135 124//135 45//135
f 103//135 3//135 6//135
f 125//135 124//135 48//135
f 102//135 3//135 103//135
f 126//135 125//135 48//135
f 126//135 48//135 50//135
f 101//135 3//135 102//135
f 101//135 1//135 3//135
f 127//135 126//135 50//135
f 52//135 127//135 50//135
f 65//135 1//135 101//135
f 133//135 65//135 101//135
f 133//135 63//135 65//135
f 128//135 52//135 53//135
f 128//135 127//135 52//135
f 132//135 63//135 133//135
f 128//135 53//135 55//135
f 132//135 61//135 63//135
f 129//135 128//135 55//135
f 131//135 61//135 132//135
f 129//135 55//135 57//135
f 131//135 59//135 61//135
f 130//135 129//135 57//135
f 130//135 57//135 59//135
f 130//135 59//135 131//135
