# Blender 3.4.1
# www.blender.org
mtllib ImageToStl.com_25. шпильки для крепления втулки пяты м12-6 шт.mtl
o imagetostl_mesh
v 28.246534 5.997231 0.593735
v -10.249009 5.356519 2.834453
v 28.247360 5.282861 2.969234
v -10.250732 3.587561 4.857195
v 28.247250 3.676332 4.772135
v -10.256968 1.105683 5.954813
v -10.242811 -2.437268 5.617055
v 28.272320 0.996850 6.018164
v 28.247566 -2.226163 5.620397
v -10.251407 -5.292001 2.996680
v 28.261921 -4.882076 3.666322
v -10.243626 -6.041399 0.086003
v 28.245554 -6.061289 0.297643
v -10.251616 -5.379269 -2.847786
v 28.248587 -5.631529 -2.131325
v -10.250967 -3.091050 -5.212574
v 28.244698 -4.395395 -4.172068
v -10.255594 -0.236668 -6.055460
v 28.249146 -1.292522 -5.978579
v -10.244423 2.223197 -5.604599
v 28.250109 1.923065 -5.717290
v -10.259128 4.227339 -4.326121
v 28.249369 4.414765 -4.189628
v -10.247514 5.678315 -2.074180
v 28.251068 5.842782 -1.525472
v -10.255041 6.024556 0.300672
v 30.002771 -2.594891 -3.467738
v 30.000118 -0.547008 -4.230567
v 30.002569 1.480422 -4.069174
v 30.000252 -4.080184 1.291245
v 30.003620 -4.202566 -1.060711
v 30.003391 -2.836492 3.271317
v 30.007397 0.411107 4.363677
v 30.002672 3.754636 -2.144356
v 30.000837 4.273171 0.450895
v 30.002169 3.298429 2.783100
v -12.003474 -1.769596 -3.960627
v -12.005053 -3.960428 -1.785613
v -12.008087 1.623730 -4.071362
v -12.000535 -4.162238 1.034498
v -12.000769 -3.160798 2.899848
v -12.001687 3.885022 -1.862487
v -12.001057 -1.363231 4.072856
v -12.003266 4.250078 0.829401
v -12.001447 1.036306 4.183725
v -12.000761 3.001187 3.063715
vn -0.0013 0.9670 0.2549
vn 0.0008 0.9576 0.2880
vn -0.0009 0.7528 0.6583
vn -0.0003 0.7466 0.6653
vn 0.0010 0.4217 0.9067
vn -0.0004 0.4045 0.9146
vn -0.0019 -0.0949 0.9955
vn 0.0006 -0.1225 0.9925
vn 0.0032 -0.5926 0.8055
vn -0.0056 -0.6762 0.7367
vn 0.0043 -0.9438 0.3304
vn -0.0019 -0.9684 0.2493
vn 0.0007 -0.9755 -0.2202
vn -0.0032 -0.9847 -0.1742
vn 0.0040 -0.8553 -0.5181
vn -0.0056 -0.7186 -0.6954
vn 0.0063 -0.5031 -0.8642
vn -0.0059 -0.2832 -0.9590
vn 0.0042 0.0810 -0.9967
vn -0.0015 0.1803 -0.9836
vn 0.0016 0.5227 -0.8525
vn 0.0004 0.5378 -0.8431
vn -0.0022 0.8406 -0.5416
vn 0.0030 0.8814 -0.4724
vn -0.0022 0.9895 -0.1443
vn 0.0013 0.9974 -0.0727
vn 1.0000 0.0025 0.0013
vn 1.0000 -0.0008 -0.0055
vn 1.0000 -0.0008 0.0009
vn 1.0000 -0.0001 -0.0034
vn 1.0000 0.0001 -0.0016
vn 1.0000 -0.0003 0.0004
vn 1.0000 0.0009 -0.0002
vn 1.0000 0.0001 -0.0000
vn -1.0000 0.0025 0.0018
vn -1.0000 0.0039 -0.0011
vn -1.0000 -0.0002 -0.0000
vn -1.0000 -0.0000 -0.0006
vn -1.0000 -0.0000 -0.0001
vn -1.0000 -0.0002 0.0005
vn -1.0000 -0.0001 0.0011
vn -1.0000 -0.0013 0.0013
vn -0.6687 -0.2116 -0.7128
vn -0.7596 -0.0222 -0.6500
vn -0.6759 0.1358 -0.7244
vn -0.6758 0.3929 -0.6237
vn -0.7537 0.4604 -0.4691
vn -0.6796 0.6182 -0.3948
vn -0.7171 0.6893 -0.1028
vn -0.7230 0.6845 -0.0933
vn -0.6703 0.7172 0.1907
vn -0.7426 0.5842 0.3274
vn -0.6797 0.5525 0.4826
vn -0.7262 0.3407 0.5972
vn -0.6864 0.2956 0.6645
vn -0.7114 -0.0326 0.7020
vn -0.6827 -0.0721 0.7272
vn -0.7304 -0.3734 0.5720
vn -0.6533 -0.5109 0.5587
vn -0.7398 -0.5928 0.3182
vn -0.6702 -0.7192 0.1834
vn -0.7413 -0.6695 -0.0467
vn -0.6777 -0.7177 -0.1601
vn -0.7202 -0.4885 -0.4926
vn -0.7081 -0.5074 -0.4911
vn 0.6588 -0.4435 0.6077
vn 0.7564 -0.2094 0.6197
vn 0.6697 -0.0960 0.7364
vn 0.7390 0.3245 0.5904
vn 0.7093 0.3027 0.6366
vn 0.6750 0.5508 0.4909
vn 0.7352 0.6256 0.2611
vn 0.6943 0.6893 0.2070
vn 0.6979 0.7144 -0.0506
vn 0.7400 0.6597 -0.1313
vn 0.6620 0.6604 -0.3544
vn 0.7499 0.4273 -0.5050
vn 0.6825 0.3822 -0.6230
vn 0.6917 0.0583 -0.7198
vn 0.6933 0.0564 -0.7185
vn 0.7350 -0.2358 -0.6357
vn 0.6530 -0.3818 -0.6541
vn 0.7319 -0.5665 -0.3786
vn 0.7115 -0.6004 -0.3650
vn 0.6720 -0.7293 -0.1282
vn 0.7391 -0.6727 0.0361
vn 0.6616 -0.7088 0.2449
vn 0.7447 -0.5656 0.3541
s 0
usemtl mat0
f 1//1 26//1 2//1
f 3//2 1//2 2//2
f 3//3 2//3 4//3
f 5//4 3//4 4//4
f 8//5 5//5 4//5
f 8//6 4//6 6//6
f 8//7 6//7 7//7
f 9//8 8//8 7//8
f 11//9 9//9 7//9
f 11//10 7//10 10//10
f 13//11 11//11 10//11
f 13//12 10//12 12//12
f 13//13 12//13 14//13
f 15//14 13//14 14//14
f 17//15 15//15 14//15
f 17//16 14//16 16//16
f 19//17 17//17 16//17
f 19//18 16//18 18//18
f 21//19 19//19 18//19
f 21//20 18//20 20//20
f 23//21 21//21 20//21
f 23//22 20//22 22//22
f 23//23 22//23 24//23
f 25//24 23//24 24//24
f 25//25 24//25 26//25
f 1//26 25//26 26//26
f 30//27 31//27 27//27
f 29//28 27//28 28//28
f 35//29 29//29 34//29
f 36//30 33//30 32//30
f 36//31 32//31 30//31
f 36//32 30//32 27//32
f 36//33 29//33 35//33
f 36//34 27//34 29//34
f 38//35 40//35 37//35
f 39//36 44//36 42//36
f 43//37 45//37 41//37
f 45//38 46//38 41//38
f 41//39 46//39 40//39
f 40//40 46//40 37//40
f 39//41 46//41 44//41
f 37//42 46//42 39//42
f 18//43 16//43 37//43
f 18//44 37//44 39//44
f 20//45 18//45 39//45
f 22//46 20//46 39//46
f 22//47 39//47 42//47
f 24//48 22//48 42//48
f 26//49 24//49 42//49
f 26//50 42//50 44//50
f 2//51 26//51 44//51
f 2//52 44//52 46//52
f 4//53 2//53 46//53
f 45//54 4//54 46//54
f 6//55 4//55 45//55
f 43//56 6//56 45//56
f 7//57 6//57 43//57
f 7//58 43//58 41//58
f 10//59 7//59 41//59
f 10//60 41//60 40//60
f 12//61 10//61 40//61
f 12//62 40//62 38//62
f 14//63 12//63 38//63
f 16//64 38//64 37//64
f 16//65 14//65 38//65
f 9//66 11//66 32//66
f 9//67 32//67 33//67
f 8//68 9//68 33//68
f 5//69 33//69 36//69
f 5//70 8//70 33//70
f 3//71 5//71 36//71
f 35//72 3//72 36//72
f 1//73 3//73 35//73
f 25//74 1//74 35//74
f 25//75 35//75 34//75
f 23//76 25//76 34//76
f 23//77 34//77 29//77
f 21//78 23//78 29//78
f 19//79 21//79 29//79
f 19//80 29//80 28//80
f 19//81 28//81 27//81
f 17//82 19//82 27//82
f 17//83 27//83 31//83
f 15//84 17//84 31//84
f 13//85 15//85 31//85
f 13//86 31//86 30//86
f 11//87 13//87 30//87
f 11//88 30//88 32//88
