# Blender 3.4.0
# www.blender.org
mtllib long_wrench.mtl
o Plane
v -1.718679 0.065924 0.126219
v -1.674720 0.065924 0.115230
v -0.199910 0.065924 0.129968
v -1.773627 0.065924 0.154792
v -0.199910 0.000000 0.129968
v -1.674720 0.000000 0.115230
v -1.718679 0.000000 0.126219
v -1.773627 0.000000 0.154792
v -1.815388 0.000000 0.203147
v -1.863742 0.000000 0.231720
v -1.925284 0.000000 0.247105
v -1.995618 0.000000 0.255897
v -2.070348 0.000000 0.244907
v -2.136286 0.000000 0.236116
v -2.175848 0.000000 0.214136
v -2.175848 0.000000 0.185563
v -2.013202 0.000000 0.137209
v -1.995618 0.000000 0.110834
v -1.980233 0.000000 0.069073
v -1.975837 0.000000 0.018521
v -1.986826 0.000000 -0.018844
v -2.008806 0.000000 -0.060605
v -2.046171 0.000000 -0.095772
v -2.105515 0.000000 -0.091376
v -2.158265 0.000000 -0.073792
v -2.213213 0.000000 -0.065001
v -2.228599 0.000000 -0.111157
v -2.092327 0.000000 -0.212262
v -2.043973 0.000000 -0.240835
v -1.973639 0.000000 -0.249627
v -1.920889 0.000000 -0.229845
v -1.857149 0.000000 -0.196876
v -1.793409 0.000000 -0.150720
v -1.734065 0.000000 -0.115553
v -1.685710 0.000000 -0.097970
v -0.202108 0.000000 -0.093574
v -0.052649 0.000000 -0.091376
v 1.105499 0.000000 -0.071014
v 1.740700 0.000000 -0.038045
v 2.079181 0.007096 -0.022660
v 2.107021 0.007096 0.001884
v 2.105190 0.007096 0.033021
v 2.081378 0.007096 0.055000
v 1.095974 0.000000 0.091633
v -0.044223 0.000000 0.122641
v -1.815388 0.065924 0.203147
v -1.863742 0.065924 0.231720
v -1.925284 0.065924 0.247105
v -1.995618 0.065924 0.255897
v -2.070348 0.065924 0.244907
v -2.136286 0.065924 0.236116
v -2.175848 0.065924 0.214136
v -2.175848 0.065924 0.185563
v -2.013202 0.065924 0.137209
v -1.995618 0.065924 0.110834
v -1.980233 0.065924 0.069073
v -1.975837 0.065924 0.018521
v -1.986826 0.065924 -0.018844
v -2.008806 0.065924 -0.060605
v -2.046171 0.065924 -0.095772
v -2.105515 0.065924 -0.091376
v -2.158265 0.065924 -0.073792
v -2.213213 0.065924 -0.065001
v -2.228599 0.065924 -0.111157
v -2.092327 0.065924 -0.212262
v -2.043973 0.065924 -0.240835
v -1.973639 0.065924 -0.249627
v -1.920889 0.065924 -0.229845
v -1.857149 0.065924 -0.196876
v -1.793409 0.065924 -0.150720
v -1.734065 0.065924 -0.115553
v -1.685710 0.065924 -0.097970
v -0.202108 0.065924 -0.093574
v -0.052649 0.065924 -0.091376
v 1.105499 0.065924 -0.071014
v 1.740700 0.065924 -0.038045
v 2.079181 0.057349 -0.022660
v 2.107021 0.057349 0.001884
v 2.105190 0.057349 0.033021
v 2.081378 0.057349 0.055000
v 1.095974 0.065924 0.091633
v -0.044223 0.065924 0.124839
v -2.040530 0.065924 -0.197334
v -1.998770 0.065924 -0.166563
v -1.950415 0.065924 -0.129198
v -1.921842 0.065924 -0.080843
v -1.897665 0.065924 -0.028093
v -1.886675 0.065924 0.026855
v -1.893269 0.065924 0.088397
v -1.908655 0.065924 0.138950
v -1.932832 0.065924 0.182908
v -1.959207 0.065924 0.215877
v -1.860300 0.065924 0.101585
v -1.860300 0.065924 0.070814
v -1.842716 0.065924 0.018063
v -1.851508 0.065924 -0.025895
v -1.866894 0.065924 -0.061062
v -1.875686 0.065924 -0.100625
v -1.849311 0.065924 -0.113812
v -1.794362 0.065924 -0.083041
v -1.717435 0.065924 -0.056666
v -1.578965 0.065687 -0.043479
v -1.339391 0.065141 -0.041281
v -1.060254 0.064505 -0.041281
v -0.814086 0.063944 -0.041281
v -0.458021 0.063248 -0.034687
v -0.286582 0.063439 -0.032489
v -0.181082 0.063111 -0.025895
v -0.086570 0.063320 -0.025895
v -0.082174 0.062287 0.059824
v -0.178883 0.062509 0.068616
v -0.290978 0.062765 0.075210
v -0.464614 0.063161 0.073012
v -0.816283 0.063962 0.070814
v -1.060253 0.064519 0.077408
v -1.341588 0.065160 0.073012
v -1.581162 0.065706 0.068616
v -1.708642 0.065924 0.070814
v -1.770184 0.065924 0.084001
v -1.816341 0.065924 0.108179
v -1.995618 0.084056 0.255897
v -2.070348 0.084056 0.244907
v -2.136286 0.084056 0.236116
v -2.175848 0.084056 0.214136
v -2.175848 0.084056 0.185563
v -2.013202 0.084056 0.137209
v -1.995618 0.084056 0.110834
v -1.980233 0.084056 0.069073
v -1.975837 0.084056 0.018521
v -1.986826 0.084056 -0.018844
v -2.008806 0.084056 -0.060605
v -2.046171 0.084056 -0.095772
v -2.105515 0.084056 -0.091376
v -2.158265 0.084056 -0.073792
v -2.213213 0.084056 -0.065001
v -2.228599 0.084056 -0.111157
v -2.092327 0.084056 -0.212262
v -2.040530 0.084056 -0.197334
v -1.998770 0.084056 -0.166563
v -1.950415 0.084056 -0.129198
v -1.921842 0.084056 -0.080843
v -1.897665 0.084056 -0.028093
v -1.886675 0.084056 0.026855
v -1.893269 0.084056 0.088397
v -1.908655 0.084056 0.138950
v -1.932832 0.084056 0.182908
v -1.959207 0.084056 0.215877
v -1.860300 0.048923 0.101585
v -1.860300 0.048923 0.070814
v -1.842716 0.048923 0.018063
v -1.851508 0.048923 -0.025895
v -1.866894 0.048923 -0.061062
v -1.875686 0.048923 -0.100625
v -1.849311 0.048923 -0.113812
v -1.794362 0.048923 -0.083041
v -1.717435 0.048923 -0.056666
v -1.578965 0.048686 -0.043479
v -1.339391 0.048140 -0.041281
v -1.060254 0.047504 -0.041281
v -0.814086 0.046943 -0.041281
v -0.458021 0.046246 -0.034687
v -0.286582 0.046438 -0.032489
v -0.181082 0.046110 -0.025895
v -0.086570 0.063244 -0.025895
v -0.082174 0.062212 0.059824
v -0.178883 0.045507 0.068616
v -0.290978 0.045764 0.075210
v -0.464614 0.046159 0.073012
v -0.816283 0.046961 0.070814
v -1.060253 0.047518 0.077408
v -1.341588 0.048159 0.073012
v -1.581162 0.048704 0.068616
v -1.708642 0.048923 0.070814
v -1.770184 0.048923 0.084001
v -1.816341 0.048923 0.108179
vn 0.0011 1.0000 -0.0004
vn 0.0008 1.0000 0.0071
vn 0.0008 1.0000 0.0089
vn 0.0009 1.0000 0.0058
vn 0.0007 0.9999 0.0113
vn 0.1836 -0.0000 0.9830
vn 0.3796 -0.0000 0.9252
vn 0.1966 -0.0000 0.9805
vn 0.0739 -0.0000 0.9973
vn 0.0009 -1.0000 0.0027
vn 0.0347 -0.0000 -0.9994
vn 0.0161 -0.0000 -0.9999
vn 0.2379 -0.0000 0.9713
vn -0.0108 -0.0000 0.9999
vn -0.0561 -0.0000 0.9984
vn 0.0486 -0.0000 -0.9988
vn 0.1580 -0.0000 0.9874
vn -0.1388 -0.0000 0.9903
vn 0.0454 -0.0000 -0.9990
vn -0.9487 -0.0000 0.3162
vn -0.3144 -0.0000 0.9493
vn 0.6613 -0.0000 -0.7501
vn -0.5530 -0.0000 -0.8332
vn -0.5958 -0.0000 -0.8031
vn -0.5675 -0.0000 -0.8234
vn -0.4856 -0.0000 0.8742
vn 0.9983 -0.0000 0.0587
vn -0.3231 -0.0000 -0.9464
vn -1.0000 -0.0000 -0.0000
vn 0.6783 -0.0000 0.7348
vn 0.1169 -0.0000 -0.9931
vn -0.2850 -0.0000 -0.9585
vn 0.0326 -0.0084 0.9994
vn 0.0371 -0.0000 0.9993
vn 0.4060 -0.0000 -0.9139
vn -0.8913 -0.0000 -0.4533
vn -0.8321 -0.0000 -0.5547
vn 0.0340 -0.0167 0.9993
vn 0.0341 -0.0167 0.9993
vn 0.5244 -0.0000 -0.8515
vn -0.9759 -0.0000 -0.2181
vn 0.0150 -0.0083 0.9999
vn 0.1172 -0.0000 0.9931
vn 0.5487 -0.0000 -0.8360
vn -0.9950 -0.0000 0.0995
vn 0.3544 -0.0000 0.9351
vn 0.4276 -0.0000 -0.9040
vn -0.9267 -0.0000 0.3758
vn 0.6202 -0.0000 0.7845
vn 0.1750 -0.0000 -0.9846
vn -0.7960 -0.0000 0.6053
vn 0.6412 -0.0000 0.7674
vn 0.0088 -0.0000 -1.0000
vn -0.6854 -0.0000 0.7282
vn 0.6024 -0.0000 -0.7982
vn 0.4420 -0.0000 -0.8970
vn 0.0003 0.9998 0.0208
vn -0.2111 -0.0000 0.9775
vn -0.4081 -0.0000 0.9129
vn -0.2110 -0.0000 0.9775
vn -0.0000 1.0000 -0.0000
vn 0.7607 -0.0000 0.6492
vn 0.8316 -0.0000 0.5554
vn 0.7496 -0.0000 -0.6619
vn 0.7397 -0.0000 0.6730
vn 0.8862 -0.0000 -0.4633
vn 0.9512 -0.0000 -0.3085
vn 0.9990 -0.0000 -0.0453
vn 0.9798 -0.0000 0.1997
vn -0.1455 -0.0000 0.9894
vn 0.9214 -0.0000 0.3886
vn 0.2769 -0.0000 -0.9609
vn -0.0057 1.0000 0.0013
vn -0.0057 -0.0000 -1.0000
vn -0.0104 -0.0000 -0.9999
vn -0.0521 -0.0000 0.9986
vn -0.0520 -0.0000 0.9986
vn 0.0170 -0.0000 -0.9999
vn -0.0046 -0.0000 1.0000
vn 0.0005 -0.0000 -1.0000
vn 0.0006 -0.0000 -1.0000
vn -0.0000 -0.0000 1.0000
vn -0.1140 -0.0000 -0.9935
vn -0.1139 -0.0000 -0.9935
vn -0.0092 -0.0000 1.0000
vn -0.0093 -0.0000 1.0000
vn -0.3399 -0.0000 -0.9405
vn -0.0157 -0.0000 0.9999
vn -0.4640 -0.0000 -0.8858
vn -0.0376 -0.0000 0.9993
vn 0.9871 -0.0000 0.1602
vn 1.0000 -0.0000 -0.0000
vn 0.1483 -0.0000 -0.9889
vn -0.0312 -0.0000 0.9995
vn -0.0331 -0.0000 0.9995
vn 0.9981 -0.0000 0.0621
vn 0.9539 -0.0000 -0.3002
vn -0.9987 -0.0000 0.0512
vn 0.9506 -0.0000 -0.3103
vn -0.0746 -0.0000 -0.9972
vn -0.0905 -0.0000 -0.9959
vn -0.0737 -0.0000 -0.9973
vn 0.9762 -0.0000 -0.2169
vn -0.0230 -0.0000 -0.9997
vn -0.0231 -0.0000 -0.9997
vn 0.4472 -0.0000 0.8944
vn 0.0094 -0.0000 -1.0000
vn 0.0095 -0.0000 -1.0000
vn -0.4886 -0.0000 0.8725
vt 0.173853 0.305503
vt 0.182195 0.320988
vt 0.462064 0.274532
vt 0.163426 0.265241
vt 0.462064 0.274532
vt 0.182195 0.320988
vt 0.173853 0.305503
vt 0.163426 0.265241
vt 0.155501 0.197107
vt 0.146325 0.156845
vt 0.134647 0.135166
vt 0.121300 0.122778
vt 0.107118 0.138263
vt 0.094606 0.150651
vt 0.087098 0.181621
vt 0.087098 0.221883
vt 0.117963 0.290018
vt 0.121300 0.327182
vt 0.124219 0.386026
vt 0.125053 0.457257
vt 0.122968 0.509907
vt 0.118797 0.568751
vt 0.111706 0.618303
vt 0.100445 0.612109
vt 0.090435 0.587333
vt 0.080007 0.574944
vt 0.077088 0.639982
vt 0.102947 0.782446
vt 0.112124 0.822707
vt 0.125470 0.835095
vt 0.135481 0.807222
vt 0.147576 0.760767
vt 0.159672 0.695729
vt 0.170934 0.646176
vt 0.180110 0.621400
vt 0.461647 0.615206
vt 0.490009 0.612109
vt 0.710651 0.519198
vt 0.831190 0.472743
vt 0.895423 0.451063
vt 0.900706 0.416480
vt 0.900358 0.372605
vt 0.895840 0.341635
vt 0.708843 0.290018
vt 0.491608 0.284856
vt 0.155501 0.197107
vt 0.146325 0.156845
vt 0.134647 0.135166
vt 0.121300 0.122778
vt 0.107118 0.138263
vt 0.094606 0.150651
vt 0.087098 0.181621
vt 0.087098 0.221883
vt 0.117963 0.290018
vt 0.121300 0.327182
vt 0.124219 0.386026
vt 0.125053 0.457257
vt 0.122968 0.509907
vt 0.118797 0.568751
vt 0.111706 0.618303
vt 0.100445 0.612109
vt 0.090435 0.587333
vt 0.080007 0.574944
vt 0.077088 0.639982
vt 0.102947 0.782446
vt 0.112124 0.822707
vt 0.125470 0.835095
vt 0.135481 0.807222
vt 0.147576 0.760767
vt 0.159672 0.695729
vt 0.170934 0.646176
vt 0.180110 0.621400
vt 0.461647 0.615206
vt 0.490009 0.612109
vt 0.710651 0.519198
vt 0.831190 0.472743
vt 0.895423 0.451063
vt 0.900706 0.416480
vt 0.900358 0.372605
vt 0.895840 0.341635
vt 0.708843 0.290018
vt 0.491608 0.284856
vt 0.112777 0.761354
vt 0.120702 0.717960
vt 0.129878 0.665284
vt 0.135300 0.597140
vt 0.139888 0.522818
vt 0.141973 0.445427
vt 0.140722 0.358773
vt 0.137802 0.287583
vt 0.133214 0.225659
vt 0.128209 0.179198
vt 0.146978 0.321626
vt 0.149898 0.383512
vt 0.150315 0.457775
vt 0.148647 0.519682
vt 0.145727 0.569228
vt 0.144059 0.624973
vt 0.149064 0.643558
vt 0.159491 0.600172
vt 0.174089 0.562943
vt 0.200366 0.544020
vt 0.245829 0.539974
vt 0.298800 0.538835
vt 0.345515 0.537869
vt 0.413084 0.526707
vt 0.445617 0.522908
vt 0.465637 0.512891
vt 0.483572 0.513223
vt 0.484407 0.383146
vt 0.466055 0.368866
vt 0.444783 0.359314
vt 0.411833 0.364643
vt 0.345098 0.372264
vt 0.298800 0.365755
vt 0.245412 0.375894
vt 0.199949 0.385320
vt 0.175758 0.383396
vt 0.163245 0.349467
vt 0.155320 0.330908
vt 0.121300 0.122778
vt 0.107118 0.138263
vt 0.094606 0.150651
vt 0.087098 0.181621
vt 0.087098 0.221883
vt 0.117963 0.290018
vt 0.121300 0.327182
vt 0.124219 0.386026
vt 0.125053 0.457257
vt 0.122968 0.509907
vt 0.118797 0.568751
vt 0.111706 0.618303
vt 0.100445 0.612109
vt 0.090435 0.587333
vt 0.080007 0.574944
vt 0.077088 0.639982
vt 0.102947 0.782446
vt 0.112777 0.761354
vt 0.120702 0.717960
vt 0.129878 0.665284
vt 0.135300 0.597140
vt 0.139888 0.522818
vt 0.141973 0.445427
vt 0.140722 0.358773
vt 0.137802 0.287583
vt 0.133214 0.225659
vt 0.128209 0.179198
vt 0.146978 0.321626
vt 0.149898 0.383512
vt 0.150315 0.457775
vt 0.148647 0.519682
vt 0.145727 0.569228
vt 0.144059 0.624973
vt 0.149064 0.643558
vt 0.159491 0.600172
vt 0.174089 0.562943
vt 0.200366 0.544020
vt 0.245829 0.539974
vt 0.298800 0.538835
vt 0.345515 0.537869
vt 0.413084 0.526707
vt 0.445617 0.522908
vt 0.465637 0.512891
vt 0.483572 0.513223
vt 0.484407 0.383146
vt 0.466055 0.368866
vt 0.444783 0.359314
vt 0.411833 0.364643
vt 0.345098 0.372264
vt 0.298800 0.365755
vt 0.245412 0.375894
vt 0.199949 0.385320
vt 0.175758 0.383396
vt 0.163245 0.349467
vt 0.155320 0.330908
s 1
usemtl Material
f 77/77/1 76/76/1 75/75/1 74/74/2 109/109/3 110/110/1 111/111/1 112/112/1 113/113/1 114/114/1 115/115/1 116/116/1 117/117/1 118/118/1 119/119/1 120/120/1 93/93/4 89/89/5 90/90/1 91/91/1 92/92/1 49/49/1 48/48/1 47/47/1 46/46/1 4/4/1 1/1/1 2/2/1 3/3/1 82/82/1 81/81/1 80/80/1 79/79/1 78/78/1
f 11/11/6 10/10/7 47/47/7 48/48/6
f 24/24/8 23/23/9 60/60/9 61/61/8
f 40/40/10 41/41/10 42/42/10 43/43/10 44/44/10 45/45/10 5/5/10 6/6/10 7/7/10 8/8/10 9/9/10 10/10/10 11/11/10 12/12/10 13/13/10 14/14/10 15/15/10 16/16/10 17/17/10 18/18/10 19/19/10 20/20/10 21/21/10 22/22/10 23/23/10 24/24/10 25/25/10 26/26/10 27/27/10 28/28/10 29/29/10 30/30/10 31/31/10 32/32/10 33/33/10 34/34/10 35/35/10 36/36/10 37/37/10 38/38/10 39/39/10
f 38/38/11 37/37/12 74/74/12 75/75/11
f 25/25/13 24/24/8 61/61/8 62/62/13
f 12/12/14 11/11/6 48/48/6 49/49/15
f 39/39/16 38/38/11 75/75/11 76/76/16
f 26/26/17 25/25/13 62/62/13 63/63/17
f 13/13/18 12/12/14 49/49/15 50/50/18
f 40/40/19 39/39/16 76/76/16 77/77/19
f 27/27/20 26/26/20 63/63/20 64/64/20
f 14/14/21 13/13/18 50/50/18 51/51/21
f 41/41/22 40/40/22 77/77/22 78/78/22
f 28/28/23 27/27/24 64/64/24 65/65/25
f 15/15/26 14/14/21 51/51/21 52/52/26
f 42/42/27 41/41/27 78/78/27 79/79/27
f 29/29/28 28/28/23 65/65/25 66/66/28
f 16/16/29 15/15/29 52/52/29 53/53/29
f 43/43/30 42/42/30 79/79/30 80/80/30
f 30/30/31 29/29/28 66/66/28 67/67/31
f 17/17/32 16/16/32 53/53/32 54/54/32
f 44/44/33 43/43/34 80/80/34 81/81/33
f 31/31/35 30/30/31 67/67/31 68/68/35
f 18/18/36 17/17/37 54/54/37 55/55/36
f 45/45/38 44/44/33 81/81/33 82/82/39
f 32/32/40 31/31/35 68/68/35 69/69/40
f 19/19/41 18/18/36 55/55/36 56/56/41
f 5/5/42 45/45/38 82/82/39 3/3/42
f 6/6/43 5/5/42 3/3/42 2/2/43
f 33/33/44 32/32/40 69/69/40 70/70/44
f 20/20/45 19/19/41 56/56/41 57/57/45
f 7/7/46 6/6/43 2/2/43 1/1/46
f 34/34/47 33/33/44 70/70/44 71/71/47
f 21/21/48 20/20/45 57/57/45 58/58/48
f 8/8/49 7/7/46 1/1/46 4/4/49
f 35/35/50 34/34/47 71/71/47 72/72/50
f 22/22/51 21/21/48 58/58/48 59/59/51
f 9/9/52 8/8/49 4/4/49 46/46/52
f 36/36/53 35/35/50 72/72/50 73/73/53
f 23/23/54 22/22/51 59/59/51 60/60/54
f 10/10/7 9/9/52 46/46/52 47/47/7
f 37/37/12 36/36/53 73/73/53 74/74/12
f 84/84/55 83/83/56 138/138/56 139/139/55
f 89/89/5 93/93/4 94/94/57 95/95/57 96/96/57 97/97/57 98/98/57 99/99/57 100/100/57 101/101/57 102/102/57 103/103/57 104/104/57 105/105/57 106/106/57 107/107/57 108/108/57 109/109/3 74/74/2 73/73/57 72/72/57 71/71/57 70/70/57 69/69/57 68/68/57 67/67/57 66/66/57 65/65/57 83/83/57 84/84/57 85/85/57 86/86/57 87/87/57 88/88/57
f 101/101/58 100/100/59 155/155/59 156/156/60
f 121/121/61 147/147/61 146/146/61 145/145/61 144/144/61 143/143/61 142/142/61 141/141/61 140/140/61 139/139/61 138/138/61 137/137/61 136/136/61 135/135/61 134/134/61 133/133/61 132/132/61 131/131/61 130/130/61 129/129/61 128/128/61 127/127/61 126/126/61 125/125/61 124/124/61 123/123/61 122/122/61
f 52/52/26 51/51/21 123/123/21 124/124/26
f 92/92/62 91/91/63 146/146/63 147/147/62
f 60/60/54 59/59/51 131/131/51 132/132/54
f 85/85/64 84/84/55 139/139/55 140/140/64
f 53/53/29 52/52/29 124/124/29 125/125/29
f 49/49/65 92/92/62 147/147/62 121/121/65
f 61/61/8 60/60/9 132/132/9 133/133/8
f 86/86/66 85/85/64 140/140/64 141/141/66
f 54/54/32 53/53/32 125/125/32 126/126/32
f 62/62/13 61/61/8 133/133/8 134/134/13
f 87/87/67 86/86/66 141/141/66 142/142/67
f 55/55/36 54/54/37 126/126/37 127/127/36
f 63/63/17 62/62/13 134/134/13 135/135/17
f 88/88/68 87/87/67 142/142/67 143/143/68
f 56/56/41 55/55/36 127/127/36 128/128/41
f 64/64/20 63/63/20 135/135/20 136/136/20
f 89/89/69 88/88/68 143/143/68 144/144/69
f 57/57/45 56/56/41 128/128/41 129/129/45
f 50/50/18 49/49/15 121/121/70 122/122/18
f 65/65/25 64/64/24 136/136/24 137/137/24
f 90/90/71 89/89/69 144/144/69 145/145/71
f 58/58/48 57/57/45 129/129/45 130/130/48
f 83/83/56 65/65/72 137/137/72 138/138/56
f 51/51/21 50/50/18 122/122/18 123/123/21
f 91/91/63 90/90/71 145/145/71 146/146/63
f 59/59/51 58/58/48 130/130/48 131/131/51
f 163/163/73 162/162/73 161/161/73 160/160/73 159/159/73 158/158/73 157/157/73 156/156/73 155/155/73 154/154/73 153/153/73 152/152/73 151/151/73 150/150/73 149/149/73 148/148/73 175/175/73 174/174/73 173/173/73 172/172/73 171/171/73 170/170/73 169/169/73 168/168/73 167/167/73 166/166/73 165/165/73 164/164/73
f 115/115/74 114/114/75 169/169/75 170/170/74
f 102/102/76 101/101/58 156/156/60 157/157/77
f 116/116/78 115/115/74 170/170/74 171/171/78
f 103/103/79 102/102/76 157/157/77 158/158/79
f 117/117/80 116/116/78 171/171/78 172/172/81
f 104/104/82 103/103/79 158/158/79 159/159/82
f 118/118/83 117/117/80 172/172/81 173/173/84
f 105/105/85 104/104/82 159/159/82 160/160/86
f 119/119/87 118/118/83 173/173/84 174/174/87
f 106/106/88 105/105/85 160/160/86 161/161/88
f 120/120/89 119/119/87 174/174/87 175/175/89
f 107/107/90 106/106/88 161/161/88 162/162/90
f 94/94/91 93/93/92 148/148/92 149/149/91
f 93/93/93 120/120/93 175/175/93 148/148/93
f 108/108/94 107/107/90 162/162/90 163/163/95
f 95/95/96 94/94/91 149/149/91 150/150/96
f 109/109/82 108/108/94 163/163/95 164/164/82
f 96/96/97 95/95/96 150/150/96 151/151/97
f 110/110/98 109/109/98 164/164/98 165/165/98
f 97/97/99 96/96/97 151/151/97 152/152/99
f 111/111/100 110/110/101 165/165/101 166/166/102
f 98/98/103 97/97/99 152/152/99 153/153/103
f 112/112/104 111/111/100 166/166/102 167/167/105
f 99/99/106 98/98/106 153/153/106 154/154/106
f 113/113/107 112/112/104 167/167/105 168/168/108
f 100/100/59 99/99/109 154/154/109 155/155/59
f 114/114/75 113/113/107 168/168/108 169/169/75
