# Blender v3.0.1 OBJ File: 'BIGPLANT_1.blend'
# www.blender.org
mtllib BIGPLANT_door_frame_fix_v2.mtl
o Plane_Plane.004
v -80.797699 -0.189306 0.219260
v 65.969170 0.000000 0.219260
v -80.797699 22.520832 0.219260
v 65.969170 22.520832 0.219260
v 0.000000 0.000000 0.219260
v 0.000000 22.520832 0.219260
v -7.000000 0.000000 0.219260
v -7.000000 22.520832 0.219260
v -3.500000 0.000000 0.219260
v -3.500000 22.520832 0.219260
v -81.297699 -0.500000 -0.280740
v 66.469170 -0.500000 -0.280740
v -81.297699 22.520832 -0.280740
v 66.469170 22.520832 -0.280740
v 0.000000 -0.500000 -0.280740
v 0.000000 22.520832 -0.280740
v -7.000000 -0.500000 -0.280740
v -7.000000 22.520832 -0.280740
v -3.500000 -0.500000 -0.280740
v -3.500000 22.520832 -0.280740
v -80.797699 11.260416 0.219260
v -80.797699 5.630208 0.219260
v -80.797699 16.890625 0.219260
v -81.297699 0.008732 -0.280740
v -81.297699 11.264782 -0.280740
v -81.297699 5.636757 -0.280740
v -81.297699 16.892807 -0.280740
v -80.797699 10.445312 0.219260
v -80.797699 10.852864 0.219260
v -80.797699 8.037760 0.219260
v -80.497704 5.630208 0.219260
v -80.497704 0.000000 0.219260
v 65.969170 9.559212 0.219260
v 65.908768 9.559212 0.219260
v 65.908768 10.561621 0.219260
v 65.969170 2.164573 0.219260
v 65.969170 0.794638 0.219260
v 65.759003 0.794638 0.219260
v 65.759003 2.164573 0.219260
v -80.797699 2.497983 0.219260
v -80.797699 3.132225 0.219260
v -80.797699 3.132225 0.127753
v -80.797699 2.497983 0.127753
v 65.969170 10.561621 0.219260
v 65.969170 16.541225 0.219260
v 66.469170 10.563616 -0.280740
v 66.469170 16.547432 -0.280740
v -18.500002 -0.189306 0.219260
v -18.500002 22.520832 0.219260
v 15.000001 0.000000 0.219260
v 15.000001 22.520832 0.219260
v 0.000000 11.260416 0.219260
v -7.000000 11.260416 0.219260
v -80.797699 14.075521 0.219260
v -80.797699 6.833984 0.219260
v -80.797699 19.705729 0.219260
v -80.797699 10.649088 0.219260
v -80.797699 11.056641 0.219260
v -80.797699 9.241536 0.219260
v 65.969170 10.060416 0.219260
v 65.969170 19.531029 0.219260
v 65.969170 1.479606 0.219260
v 65.969170 0.397319 0.219260
v 65.969170 5.861893 0.219260
v -80.797699 2.815104 0.219260
v -80.797699 1.248992 0.219260
v -80.797699 4.381216 0.219260
v 65.969170 13.551423 0.219260
v -23.096123 0.040487 -0.280740
v -20.227051 0.040487 -0.280740
v -23.096123 4.550520 -0.280740
v -20.227051 4.550520 -0.280740
v -23.096123 4.550520 0.219260
v -20.227051 4.550520 0.219260
v -23.096123 0.041367 0.219260
v -20.227051 0.041367 0.219260
vt 0.375000 0.098889
vt 0.375000 0.146182
vt 0.625000 0.146182
vt 0.625000 0.098889
vt 0.375000 0.603818
vt 0.375000 0.651111
vt 0.625000 0.651111
vt 0.625000 0.603818
vt 0.125000 0.603818
vt 0.125000 0.651111
vt 0.875000 0.603818
vt 0.875000 0.651111
vt 0.500000 1.000000
vt 0.500000 1.000000
vt 0.375000 1.000000
vt 0.375000 1.000000
vt 0.500000 1.000000
vt 0.250000 1.000000
vt 0.250000 1.000000
vt 0.250000 1.000000
vt 1.000000 1.000000
vt 1.000000 1.000000
vt 0.500000 1.000000
vt 0.500000 1.000000
vt 1.000000 1.000000
vt 1.000000 1.000000
vt 0.375000 1.000000
vt 0.375000 1.000000
vt 0.082324 1.000000
vt 0.000000 1.000000
vt 0.000000 1.000000
vt 0.082324 1.000000
vt 0.000000 1.000000
vt 0.000000 1.000000
vt 0.000000 1.000000
vt 0.250000 1.000000
vt 0.250000 1.000000
vt 0.000000 1.000000
vt 0.105728 1.000000
vt 0.105728 1.000000
vt 0.750000 1.000000
vt 1.000000 1.000000
vt 0.125000 1.000000
vt 0.000000 1.000000
vt 0.125000 1.000000
vt 0.000000 1.000000
vt 0.000000 1.000000
vt 0.000000 1.000000
vt 0.000000 1.000000
vt 0.000000 1.000000
vt 0.000000 1.000000
vt 0.000000 1.000000
vt 0.000000 1.000000
vt 0.000000 1.000000
vt 0.000000 1.000000
vt 0.000000 1.000000
vt 0.000000 1.000000
vt 0.000000 1.000000
vt 0.000000 1.000000
vt 0.000000 1.000000
vt 0.000000 1.000000
vt 0.000000 1.000000
vt 0.000000 1.000000
vt 0.078678 1.000000
vt 0.078678 1.000000
vt 0.102591 1.000000
vt 0.102591 1.000000
vt 1.000000 1.000000
vt 1.000000 1.000000
vt 1.000000 1.000000
vt 1.000000 1.000000
vt 1.000000 1.000000
vt 1.000000 1.000000
vt 1.000000 1.000000
vt 1.000000 1.000000
vt 1.000000 1.000000
vt 1.000000 1.000000
vt 1.000000 1.000000
vt 1.000000 1.000000
vt 1.000000 1.000000
vt 0.750000 1.000000
vt 1.000000 1.000000
vt 1.000000 1.000000
vt 1.000000 1.000000
vt 0.000000 1.000000
vt 0.000000 1.000000
vn 1.0000 0.0000 0.0000
vn -1.0000 0.0000 0.0000
vn 0.0000 1.0000 -0.0018
vn 0.0000 -1.0000 0.0000
vn 0.0000 0.0000 1.0000
vn -0.0000 0.0000 -1.0000
vn 0.0000 1.0000 0.0000
usemtl big_wall_(part_of_bigplant)
s off
f 75/1/1 69/2/1 71/3/1 73/4/1
f 70/5/2 76/6/2 74/7/2 72/8/2
f 76/6/3 70/5/3 69/9/3 75/10/3
f 71/11/4 72/8/4 74/7/4 73/12/4
s 1
f 52/13/5 6/14/5 10/15/5 9/16/5 5/17/5
f 53/18/5 7/19/5 9/16/5 10/15/5 8/20/5
f 46/21/6 12/22/6 15/23/6 16/24/6 14/25/6 47/26/6
f 19/27/6 20/28/6 16/24/6 15/23/6
f 69/29/6 24/30/6 26/31/6 71/32/6
f 25/33/6 27/34/6 13/35/6 18/36/6 17/37/6 11/38/6 24/30/6 69/29/6 70/39/6 72/40/6 71/32/6 26/31/6
f 17/37/6 18/36/6 20/28/6 19/27/6
f 10/15/7 20/28/7 18/36/7 8/20/7
f 51/41/7 4/42/7 14/25/7 16/24/7 6/14/7
f 49/43/7 8/20/7 18/36/7 13/35/7 3/44/7
f 6/14/7 16/24/7 20/28/7 10/15/7
f 48/45/5 7/19/5 53/18/5 8/20/5 49/43/5 3/44/5 56/46/5 23/47/5 54/48/5 21/49/5 58/50/5 29/51/5 57/52/5 28/53/5 59/54/5 30/55/5 55/56/5 22/57/5 67/58/5 41/59/5 65/60/5 40/61/5 66/62/5 1/63/5 75/64/5 73/65/5 74/66/5 76/67/5
f 75/64/5 1/63/5 48/45/5 76/67/5
f 60/68/6 33/69/6 34/70/6 35/71/6 44/72/6
f 63/73/5 37/74/5 62/75/5 36/76/5 64/77/5 33/69/5 60/68/5 44/72/5 68/78/5 45/79/5 61/80/5 4/42/5 51/41/5 6/14/5 52/13/5 5/17/5 50/81/5 2/82/5
f 62/75/6 37/74/6 38/83/6 39/84/6 36/76/6
f 65/60/2 41/59/2 42/85/2 43/86/2 40/61/2
l 1 32
l 22 31
o floor_Cube.004
v -28.022579 -0.066455 0.215290
v -28.022579 0.052715 0.215290
v -28.022579 -0.066455 -16.378115
v -28.022579 0.052715 -16.378115
v -14.848724 -0.066455 0.215290
v -14.848724 0.052715 0.215290
v -14.848724 -0.066455 -16.378115
v -14.848724 0.052715 -16.378115
vt 0.375000 0.000000
vt 0.625000 0.000000
vt 0.625000 0.250000
vt 0.375000 0.250000
vt 0.625000 0.500000
vt 0.375000 0.500000
vt 0.625000 0.750000
vt 0.375000 0.750000
vt 0.625000 1.000000
vt 0.375000 1.000000
vt 0.125000 0.500000
vt 0.125000 0.750000
vt 0.875000 0.500000
vt 0.875000 0.750000
vn -1.0000 0.0000 0.0000
vn 0.0000 0.0000 -1.0000
vn 1.0000 0.0000 0.0000
vn 0.0000 0.0000 1.0000
vn 0.0000 -1.0000 0.0000
vn 0.0000 1.0000 0.0000
usemtl floor
s off
f 77/87/8 78/88/8 80/89/8 79/90/8
f 79/90/9 80/89/9 84/91/9 83/92/9
f 83/92/10 84/91/10 82/93/10 81/94/10
f 81/94/11 82/93/11 78/95/11 77/96/11
f 79/97/12 83/92/12 81/94/12 77/98/12
f 84/91/13 80/99/13 78/100/13 82/93/13
o roof_Cube.006
v -28.022579 6.641320 -0.228275
v -28.022579 6.760490 -0.228275
v -28.022579 6.641320 -16.601927
v -28.022579 6.760490 -16.601927
v -14.848724 6.641320 -0.228275
v -14.848724 6.760490 -0.228275
v -14.848724 6.641320 -16.601927
v -14.848724 6.760490 -16.601927
vt 0.375000 0.000000
vt 0.625000 0.000000
vt 0.625000 0.250000
vt 0.375000 0.250000
vt 0.625000 0.500000
vt 0.375000 0.500000
vt 0.625000 0.750000
vt 0.375000 0.750000
vt 0.625000 1.000000
vt 0.375000 1.000000
vt 0.125000 0.500000
vt 0.125000 0.750000
vt 0.875000 0.500000
vt 0.875000 0.750000
vn -1.0000 0.0000 0.0000
vn 0.0000 0.0000 -1.0000
vn 1.0000 0.0000 0.0000
vn 0.0000 0.0000 1.0000
vn 0.0000 -1.0000 0.0000
vn 0.0000 1.0000 0.0000
usemtl top
s off
f 85/101/14 86/102/14 88/103/14 87/104/14
f 87/104/15 88/103/15 92/105/15 91/106/15
f 91/106/16 92/105/16 90/107/16 89/108/16
f 89/108/17 90/107/17 86/109/17 85/110/17
f 87/111/18 91/106/18 89/108/18 85/112/18
f 92/105/19 88/113/19 86/114/19 90/107/19
o wall_1_Cube.010
v -14.878782 -0.530870 -0.172464
v -14.878782 6.779157 -0.172464
v -14.878782 -0.530870 -16.628078
v -14.878782 6.779157 -16.628078
v -14.597095 -0.530870 -0.172464
v -14.597095 6.779157 -0.172464
v -14.597095 -0.530870 -16.628078
v -14.597095 6.779157 -16.628078
vt 0.375000 0.000000
vt 0.625000 0.000000
vt 0.625000 0.250000
vt 0.375000 0.250000
vt 0.625000 0.500000
vt 0.375000 0.500000
vt 0.625000 0.750000
vt 0.375000 0.750000
vt 0.625000 1.000000
vt 0.375000 1.000000
vt 0.125000 0.500000
vt 0.125000 0.750000
vt 0.875000 0.500000
vt 0.875000 0.750000
vn -1.0000 0.0000 0.0000
vn 0.0000 0.0000 -1.0000
vn 1.0000 0.0000 0.0000
vn 0.0000 0.0000 1.0000
vn 0.0000 -1.0000 0.0000
vn 0.0000 1.0000 0.0000
usemtl walls
s off
f 93/115/20 94/116/20 96/117/20 95/118/20
f 95/118/21 96/117/21 100/119/21 99/120/21
f 99/120/22 100/119/22 98/121/22 97/122/22
f 97/122/23 98/121/23 94/123/23 93/124/23
f 95/125/24 99/120/24 97/122/24 93/126/24
f 100/119/25 96/127/25 94/128/25 98/121/25
o wall_2_Cube.019
v -28.245413 -0.530870 -0.172464
v -28.245413 6.779157 -0.172464
v -28.245413 -0.530870 -16.628078
v -28.245413 6.779157 -16.628078
v -27.963728 -0.530870 -0.172464
v -27.963728 6.779157 -0.172464
v -27.963728 -0.530870 -16.628078
v -27.963728 6.779157 -16.628078
vt 0.375000 0.000000
vt 0.625000 0.000000
vt 0.625000 0.250000
vt 0.375000 0.250000
vt 0.625000 0.500000
vt 0.375000 0.500000
vt 0.625000 0.750000
vt 0.375000 0.750000
vt 0.625000 1.000000
vt 0.375000 1.000000
vt 0.125000 0.500000
vt 0.125000 0.750000
vt 0.875000 0.500000
vt 0.875000 0.750000
vn -1.0000 0.0000 0.0000
vn 0.0000 0.0000 -1.0000
vn 1.0000 0.0000 0.0000
vn 0.0000 0.0000 1.0000
vn 0.0000 -1.0000 0.0000
vn 0.0000 1.0000 0.0000
usemtl walls
s off
f 101/129/26 102/130/26 104/131/26 103/132/26
f 103/132/27 104/131/27 108/133/27 107/134/27
f 107/134/28 108/133/28 106/135/28 105/136/28
f 105/136/29 106/135/29 102/137/29 101/138/29
f 103/139/30 107/134/30 105/136/30 101/140/30
f 108/133/31 104/141/31 102/142/31 106/135/31
o wall_2.001_Cube.020
v -28.309038 -0.530870 -16.704439
v -28.309038 6.779157 -16.704439
v -14.502013 -0.530870 -16.704439
v -14.502013 6.779157 -16.704439
v -28.309038 -0.530870 -16.422754
v -28.309038 6.779157 -16.422754
v -14.502013 -0.530870 -16.422752
v -14.502013 6.779157 -16.422752
vt 0.375000 0.000000
vt 0.625000 0.000000
vt 0.625000 0.250000
vt 0.375000 0.250000
vt 0.625000 0.500000
vt 0.375000 0.500000
vt 0.625000 0.750000
vt 0.375000 0.750000
vt 0.625000 1.000000
vt 0.375000 1.000000
vt 0.125000 0.500000
vt 0.125000 0.750000
vt 0.875000 0.500000
vt 0.875000 0.750000
vn 0.0000 0.0000 -1.0000
vn 1.0000 0.0000 0.0000
vn -0.0000 0.0000 1.0000
vn -1.0000 0.0000 0.0000
vn 0.0000 -1.0000 0.0000
vn 0.0000 1.0000 0.0000
usemtl walls
s off
f 109/143/32 110/144/32 112/145/32 111/146/32
f 111/146/33 112/145/33 116/147/33 115/148/33
f 115/148/34 116/147/34 114/149/34 113/150/34
f 113/150/35 114/149/35 110/151/35 109/152/35
f 111/153/36 115/148/36 113/150/36 109/154/36
f 116/147/37 112/155/37 110/156/37 114/149/37
